<?xml version="1.0" encoding="utf-8"?>
<!-- Generator: Adobe Illustrator 16.0.4, SVG Export Plug-In . SVG Version: 6.00 Build 0)  -->
<!DOCTYPE svg PUBLIC "-//W3C//DTD SVG 1.1//EN" "http://www.w3.org/Graphics/SVG/1.1/DTD/svg11.dtd">
<svg version="1.1" id="Layer_1" xmlns="http://www.w3.org/2000/svg" xmlns:xlink="http://www.w3.org/1999/xlink" x="0px" y="0px"
	 width="384px" height="228.667px" viewBox="0 0 384 228.667" enable-background="new 0 0 384 228.667" xml:space="preserve">
<g>
	<g>
		<defs>
			<path id="SVGID_4_" d="M2.428,1c2.834,28.156,5.677,55.515,8.522,82.129c8.162,1.879,16.377,3.617,24.637,5.229
				c18.723,43.53,37.682,79.674,56.79,112.365C188.495,182.578,288.387,191.003,381,226c-2.768-28.297-5.54-55.81-8.32-82.592
				c-8.231-1.263-16.519-2.432-24.853-3.515V88.449c8.343-1.646,16.64-3.421,24.882-5.344C375.479,56.479,378.242,29.128,381,1
				C259.018,47.093,124.409,47.093,2.428,1"/>
		</defs>
		<clipPath id="SVGID_2_">
			<use xlink:href="#SVGID_4_"  overflow="visible"/>
		</clipPath>
		
			<radialGradient id="SVGID_3_" cx="-766.5742" cy="318.1704" r="0.9998" gradientTransform="matrix(163.0368 0 0 -139.3164 125171.4922 44440.0195)" gradientUnits="userSpaceOnUse">
			<stop  offset="0" style="stop-color:#D4133D"/>
			<stop  offset="1" style="stop-color:#9E032A"/>
		</radialGradient>
		<rect x="2.428" y="1" clip-path="url(#SVGID_2_)" fill="url(#SVGID_3_)" width="378.572" height="225"/>
	</g>
	<path fill="#FFFFFF" d="M142.955,172.761c-11.631,1.078-23.235,2.543-34.792,4.395c-16.996-31.729-33.891-67.094-50.623-110.21
		c-8.172-1.379-16.304-2.885-24.391-4.519c-1.553-9.936-3.102-20.052-4.65-30.355c27.264,8.858,55.066,15.44,83.133,19.745v22.333
		c-3.674-0.362-7.342-0.749-11.006-1.16c9.605,21.67,19.248,41.551,28.913,60.415c6.779-19.487,13.57-38.161,20.368-56.397
		c-3.571-0.183-7.141-0.388-10.707-0.617V55.305c16.59,1.657,33.241,2.527,49.895,2.61c0,6.717,0,13.433,0,20.15
		c-2.271-0.007-4.541-0.024-6.81-0.05C169.159,108.723,156.04,139.502,142.955,172.761"/>
	<path fill="#FFFFFF" d="M236.933,171.449c-22.59-1.908-45.275-2.383-67.912-1.426v-20.322c8.516-0.229,17.039-0.33,25.561-0.301
		V78.065c-2.09,0.007-4.181,0.006-6.271-0.002V57.911c16.222,0.104,32.446-0.538,48.622-1.928v20.842
		c-2.053,0.113-4.107,0.219-6.162,0.316v73.158c2.055,0.095,4.109,0.198,6.162,0.308V171.449z"/>
	<path fill="#FFFFFF" d="M284.548,177.625c-16.029-2.812-32.158-4.892-48.337-6.236v-20.819c2.085,0.11,4.169,0.228,6.252,0.354
		V76.5c-2.083,0.129-4.167,0.251-6.252,0.364v-20.82c16.179-1.368,32.308-3.483,48.337-6.345c0,7.697,0,15.394,0,23.091
		c-2.034,0.233-4.07,0.459-6.107,0.677v80.408c2.037,0.212,4.073,0.431,6.107,0.658C284.548,162.23,284.548,169.927,284.548,177.625
		"/>
	<path fill="#FFFFFF" d="M354.928,194.952c-23.358-7.46-47.115-13.276-71.095-17.452c0-7.682,0-15.363,0-23.045
		c2.066,0.229,4.131,0.465,6.193,0.709c0-27.673,0-55.347,0-83.02c-2.062,0.251-4.127,0.494-6.193,0.729c0-7.682,0-15.364,0-23.046
		c23.979-4.247,47.736-10.166,71.095-17.756c-1.548,10.304-3.098,20.419-4.649,30.356c-8.193,1.656-16.435,3.18-24.714,4.573v93.171
		c8.28,1.355,16.521,2.84,24.714,4.45C351.83,174.55,353.38,184.657,354.928,194.952"/>
</g>
</svg>
