<?xml version="1.0" encoding="utf-8"?>
<!-- Generator: Adobe Illustrator 16.0.4, SVG Export Plug-In . SVG Version: 6.00 Build 0)  -->
<!DOCTYPE svg PUBLIC "-//W3C//DTD SVG 1.1//EN" "http://www.w3.org/Graphics/SVG/1.1/DTD/svg11.dtd">
<svg version="1.1" id="Layer_1" xmlns="http://www.w3.org/2000/svg" xmlns:xlink="http://www.w3.org/1999/xlink" x="0px" y="0px"
	 width="384px" height="228.667px" viewBox="0 0 384 228.667" enable-background="new 0 0 384 228.667" xml:space="preserve">
<g>
	<g>
		<defs>
			<path id="SVGID_1_" d="M-719.036-68.025c2.834,28.156,5.677,55.515,8.522,82.129c8.162,1.879,16.377,3.617,24.637,5.229
				c18.723,43.53,37.682,79.674,56.79,112.365c96.118-18.146,196.01-9.72,288.623,25.276c-2.768-28.297-5.54-55.81-8.32-82.592
				c-8.231-1.263-16.519-2.432-24.853-3.515V19.423c8.343-1.646,16.64-3.421,24.882-5.344c2.77-26.626,5.533-53.977,8.291-82.105
				C-462.446-21.933-597.055-21.933-719.036-68.025"/>
		</defs>
		<clipPath id="SVGID_2_">
			<use xlink:href="#SVGID_1_"  overflow="visible"/>
		</clipPath>
		
			<radialGradient id="SVGID_3_" cx="-771" cy="318.6665" r="1.0001" gradientTransform="matrix(163.0368 0 0 -139.3164 125171.4922 44440.0195)" gradientUnits="userSpaceOnUse">
			<stop  offset="0" style="stop-color:#D4133D"/>
			<stop  offset="1" style="stop-color:#9E032A"/>
		</radialGradient>
		<rect x="-719.036" y="-68.025" clip-path="url(#SVGID_2_)" fill="url(#SVGID_3_)" width="378.572" height="225"/>
	</g>
	<path fill="#FFFFFF" d="M-578.509,103.736c-11.631,1.078-23.235,2.543-34.792,4.395c-16.996-31.73-33.891-67.094-50.623-110.211
		c-8.172-1.379-16.304-2.885-24.391-4.519c-1.553-9.936-3.102-20.052-4.65-30.355c27.264,8.858,55.066,15.44,83.133,19.745V5.124
		c-3.674-0.362-7.342-0.749-11.006-1.16c9.605,21.67,19.248,41.551,28.913,60.415c6.779-19.488,13.57-38.161,20.368-56.398
		c-3.571-0.183-7.141-0.388-10.707-0.617V-13.72c16.59,1.657,33.241,2.527,49.895,2.61c0,6.717,0,13.433,0,20.15
		c-2.271-0.007-4.541-0.024-6.81-0.05C-552.305,39.698-565.424,70.477-578.509,103.736"/>
	<path fill="#FFFFFF" d="M-484.531,102.424c-22.59-1.908-45.275-2.383-67.912-1.426V80.675c8.516-0.229,17.039-0.329,25.561-0.3
		V9.04c-2.09,0.007-4.181,0.006-6.271-0.002v-20.152c16.222,0.104,32.446-0.538,48.622-1.928V7.8
		c-2.053,0.113-4.107,0.219-6.162,0.316v73.158c2.055,0.095,4.109,0.198,6.162,0.308V102.424z"/>
	<path fill="#FFFFFF" d="M-436.916,108.599c-16.029-2.813-32.158-4.892-48.337-6.236v-20.82c2.085,0.11,4.169,0.228,6.252,0.354
		V7.475c-2.083,0.129-4.167,0.251-6.252,0.364v-20.82c16.179-1.368,32.308-3.483,48.337-6.345c0,7.697,0,15.394,0,23.091
		c-2.034,0.233-4.07,0.459-6.107,0.677V84.85c2.037,0.212,4.073,0.431,6.107,0.658C-436.916,93.205-436.916,100.902-436.916,108.599
		"/>
	<path fill="#FFFFFF" d="M-366.536,125.926c-23.358-7.46-47.115-13.277-71.095-17.452c0-7.682,0-15.364,0-23.045
		c2.066,0.228,4.131,0.465,6.193,0.709c0-27.673,0-55.347,0-83.02c-2.062,0.251-4.127,0.494-6.193,0.729c0-7.682,0-15.364,0-23.046
		c23.979-4.247,47.736-10.166,71.095-17.756c-1.548,10.304-3.098,20.419-4.649,30.356c-8.193,1.656-16.435,3.18-24.714,4.573v93.171
		c8.28,1.356,16.521,2.84,24.714,4.451C-369.634,105.524-368.084,115.631-366.536,125.926"/>
</g>
<g>
	<path fill="#C4122C" d="M-765.687,189.244c3.851,0.125,7.7-0.071,11.549,0.1c4.368,0.327,8.304,4.295,7.806,8.818
		c0.164,2.573-1.545,4.662-3.568,6.004c6.285,2.495,4.977,12.978-1.487,14.274c-4.778,0.176-9.571,0.032-14.352,0.078
		c-0.386-6.763-0.078-13.54-0.144-20.311C-766.061,195.222-766.066,192.217-765.687,189.244 M-759.813,194.554
		c-0.125,2.292-0.092,4.59-0.099,6.895c1.762,0.014,3.556,0.216,5.297-0.157c2.396-0.557,3.248-4.06,1.369-5.663
		C-755.021,194.031-757.646,194.757-759.813,194.554 M-759.918,206.713c0.013,2.284,0.02,4.569,0.02,6.854
		c2.277-0.124,4.818,0.511,6.888-0.713c2.108-1.349,1.683-4.898-0.636-5.802C-755.662,206.445-757.836,206.798-759.918,206.713"/>
	<path fill="#C4122C" d="M-732.721,189.336c2.09-0.06,4.178-0.053,6.266-0.065c0.178,9.742,0.033,19.498,0.072,29.247h-6.291
		C-732.707,208.789-732.629,199.059-732.721,189.336"/>
	<path fill="#C4122C" d="M-712.908,197.363c3.386-6.227,11.014-9.362,17.875-8.302c4.047,0.438,7.537,2.743,10.725,5.113
		c-1.381,1.277-2.775,2.547-4.157,3.817c-3.7-3.037-8.924-4.878-13.534-2.821c-4.49,1.649-7.771,6.907-6.023,11.615
		c2.22,7.019,12.277,9.461,17.652,4.603c0.17-1.552,0.111-3.11,0.111-4.662c-4.047,0.006-8.086,0.026-12.133-0.026
		c0.025-1.762,0.046-3.522,0.066-5.283c6.174,0.032,12.354-0.007,18.528,0.025c-0.013,3.293,0.046,6.587,0.026,9.888
		c-0.105,1.041,0.15,2.396-0.891,3.051c-2.973,2.462-6.554,4.413-10.442,4.793h-4.983c-6.324-0.714-12.342-5.147-14.09-11.394
		C-714.859,204.31-714.781,200.46-712.908,197.363"/>
	<path fill="#949DA3" d="M-363.473,188.282c8.276,7.202,16.141,14.889,24.54,21.947c0.047-6.94,0.065-13.888-0.025-20.827
		c1.414-0.079,2.835-0.145,4.256-0.223c0.235,9.998,0.059,19.995,0.098,29.993h-1.048c-7.804-7.07-15.543-14.228-23.472-21.16
		c-0.27,7.051-0.015,14.108-0.151,21.16h-4.256C-363.42,208.874-363.537,198.581-363.473,188.282"/>
	<path fill="#949DA3" d="M-607.353,197.337c3.503-6.562,11.825-9.966,18.948-7.916c3.68,1.126,6.875,3.397,9.678,5.984
		c-1.068,0.923-2.135,1.839-3.202,2.764c-2.239-1.841-4.497-3.838-7.327-4.688c-5.957-1.925-13.055,1.538-14.908,7.588
		c-2.344,6.79,3.836,14.136,10.738,14.202c4.655,0.556,8.393-2.6,11.799-5.271c0.936,0.982,2.088,1.841,2.678,3.104
		c-2.771,2.842-6.352,4.826-10.096,6.07h-7.373c-4.826-1.35-9.369-4.467-11.399-9.181
		C-609.684,206.012-609.494,201.174-607.353,197.337"/>
	<path fill="#949DA3" d="M-563.229,191.09c6.776-3.993,16.271-2.547,21.384,3.483c3.629,3.994,4.773,10.09,2.567,15.059
		c-1.945,4.977-6.731,8.283-11.785,9.54h-7.373c-6.187-1.545-11.844-6.502-12.604-13.074
		C-571.989,200.054-568.52,193.932-563.229,191.09 M-557.756,193.317c-5.389,1.113-9.631,6.587-8.818,12.132
		c0.641,5.461,5.748,9.723,11.176,9.828c5.716,0.562,11.497-3.562,12.617-9.232c0.799-4.053-1.205-8.275-4.459-10.685
		C-550.187,193.107-554.18,192.472-557.756,193.317"/>
	<path fill="#949DA3" d="M-528.102,188.393c8.42,6.973,16.158,14.719,24.468,21.816c0.458-6.967,0.092-13.952,0.209-20.927
		c1.415-0.019,2.829-0.031,4.243-0.052c0.203,9.979,0.039,19.963,0.092,29.942h-1.067c-7.916-6.974-15.544-14.28-23.564-21.143
		c-0.099,7.045,0.02,14.098-0.065,21.143h-4.223C-528.318,208.919-528.128,198.653-528.102,188.393"/>
	<path fill="#949DA3" d="M-486.048,189.25c5.848,0.065,11.694,0.033,17.548,0.033c0.02,1.283,0.039,2.566,0.065,3.856
		c-4.433,0.189-8.872,0.039-13.305,0.156c-0.085,2.922-0.091,5.848-0.118,8.774c4.466,0.144,8.938,0.033,13.403,0.131
		c-0.014,1.264-0.026,2.527-0.033,3.791c-4.458,0.065-8.911-0.039-13.363,0.137c0.052,4.349,0.052,8.695,0,13.043h-4.236
		C-486.119,209.201-486.191,199.223-486.048,189.25"/>
	<path fill="#949DA3" d="M-456.374,189.356c5.997-0.196,12.015,0,18.019-0.065c-0.053,1.335-0.104,2.671-0.164,4.013
		c-4.636-0.046-9.271,0.039-13.907-0.071c-0.077,2.953-0.071,5.912-0.077,8.872c4.714,0.117,9.428-0.047,14.142,0.117
		c-0.021,1.258-0.033,2.521-0.039,3.784c-4.695,0.17-9.396-0.006-14.09,0.112c-0.007,2.972,0,5.938,0.026,8.911
		c4.661-0.046,9.329-0.033,13.991-0.014c0.02,1.165,0.02,2.33-0.013,3.503c-6.083-0.014-12.172-0.014-18.255-0.007
		c-0.026-9.611-0.157-19.236,0.053-28.842L-456.374,189.356z"/>
	<path fill="#949DA3" d="M-425.837,189.245c3.326,0.092,6.652-0.065,9.979,0.078c3.358,0.104,6.698,2.16,8.021,5.304
		c0.713,2.128,0.721,4.511,0.053,6.659c-0.8,2.205-3.019,3.346-4.839,4.603c2.782,2.933,5.584,5.853,8.394,8.773
		c0.531,0.708,1.415,1.395,1.343,2.37c-0.562,0.799-1.264,1.474-1.971,2.142h-1.062c-3.613-4.119-7.287-8.178-10.915-12.283
		c-1.604-0.027-3.2-0.04-4.792-0.046c0.032,4.112,0.046,8.217-0.013,12.329h-4.256C-425.941,209.194-426.06,199.216-425.837,189.245
		 M-421.588,193.225c0.014,3.189,0.014,6.384-0.033,9.572c2.659,0.164,5.711,0.747,8.041-0.903c2.828-1.964,2.291-7.149-1.073-8.224
		C-416.887,192.963-419.282,193.297-421.588,193.225"/>
	<path fill="#949DA3" d="M-393.911,190.312c-0.314-1.375,1.446-0.931,2.2-1.055c5.401,0.039,10.81,0.033,16.211,0.02
		c-0.202,1.251,0.433,2.946-0.445,3.916c-4.445,0.386-8.938-0.229-13.383,0.249c-0.465,2.854-0.099,5.761-0.217,8.642
		c4.683,0.164,9.37-0.026,14.052,0.125c-0.014,1.263-0.021,2.534-0.021,3.804c-4.681,0.157-9.362-0.032-14.044,0.132
		c0.033,2.959,0.033,5.919,0.033,8.878c4.655-0.033,9.31-0.039,13.972,0.007c-0.006,1.159-0.02,2.324-0.059,3.488
		c-6.096-0.006-12.191-0.019-18.28,0C-393.964,209.116-393.944,199.713-393.911,190.312"/>
	<path fill="#949DA3" d="M-321.621,196.25c3.87-5.984,11.885-8.826,18.681-6.719c3.542,1.153,6.612,3.379,9.323,5.887
		c-1.034,0.884-2.017,1.84-3.155,2.58c-2.272-1.31-4.112-3.319-6.601-4.236c-6.325-2.639-14.339,1.329-15.891,8.04
		c-1.722,6.79,4.57,13.639,11.353,13.468c4.44,0.387,8.001-2.604,11.203-5.23c1.062,0.942,2.128,1.892,3.189,2.848
		c-3.038,2.815-6.574,5.199-10.614,6.286h-7.425c-4.589-1.506-9.028-4.361-11.039-8.924
		C-324.908,205.849-324.351,200.336-321.621,196.25"/>
	<path fill="#949DA3" d="M-284.261,189.25c6.089,0.053,12.172,0.053,18.261,0.014v3.843c-4.583,0.387-9.186,0.138-13.776,0.125
		c-0.156,2.966-0.17,5.932-0.11,8.904c4.629,0.026,9.258,0.007,13.887,0.014v3.889c-4.629-0.013-9.258-0.033-13.887,0.006
		c-0.053,2.992-0.04,5.985,0.078,8.978c4.603-0.033,9.206-0.021,13.809-0.021v3.745c-6.096,0.597-12.237,0.197-18.353,0.203
		C-284.268,209.05-284.444,199.151-284.261,189.25"/>
	<path fill="#C4122C" d="M-640.072,203.032c3.037,1.867,4.556,4.321,4.556,7.362c0,2.547-0.958,4.612-2.875,6.194
		c-1.916,1.582-4.418,2.373-7.503,2.373c-3.152,0-5.701-0.783-7.65-2.35s-2.924-3.608-2.924-6.126c0-3.102,1.527-5.571,4.581-7.408
		c-1.3-1.063-2.25-2.104-2.851-3.121c-0.602-1.018-0.901-2.182-0.901-3.491c0-2.127,0.84-3.969,2.521-5.526
		c1.682-1.556,4.041-2.335,7.078-2.335c2.955,0,5.314,0.701,7.077,2.104c1.763,1.402,2.644,3.268,2.644,5.595
		C-636.32,199-637.572,201.244-640.072,203.032 M-642.119,209.499c0-1.033-0.382-1.917-1.145-2.649
		c-0.764-0.732-1.689-1.1-2.777-1.1c-1.039,0-1.934,0.382-2.68,1.146c-0.748,0.764-1.121,1.678-1.121,2.742
		c0,0.971,0.387,1.839,1.157,2.604c0.771,0.763,1.653,1.145,2.644,1.145c1.088,0,2.014-0.378,2.777-1.134
		C-642.501,211.497-642.119,210.579-642.119,209.499 M-642.654,197.304c0-0.956-0.313-1.754-0.938-2.395s-1.409-0.96-2.351-0.96
		c-0.926,0-1.697,0.297-2.314,0.891c-0.618,0.594-0.926,1.323-0.926,2.186c0,0.896,0.308,1.647,0.926,2.257
		c0.617,0.609,1.389,0.914,2.314,0.914c0.844,0,1.604-0.297,2.277-0.892C-642.992,198.712-642.654,198.044-642.654,197.304"/>
</g>
<g>
	<path fill="#787D7F" d="M-658.857,277.239c0-1.993,0.936-3.701,2.803-5.123c1.869-1.422,4.115-2.134,6.739-2.134
		c2.56,0,4.767,0.717,6.617,2.15c1.851,1.433,2.776,3.135,2.776,5.106c0,2.086-0.914,3.851-2.742,5.29
		c-1.829,1.441-4.073,2.161-6.732,2.161c-2.623,0-4.855-0.726-6.697-2.177S-658.857,279.304-658.857,277.239 M-642.415,277.325
		c0-1.522-0.683-2.806-2.048-3.849c-1.366-1.043-3.047-1.564-5.041-1.564c-1.896,0-3.521,0.53-4.872,1.592
		c-1.353,1.061-2.028,2.336-2.028,3.821c0,1.51,0.693,2.785,2.082,3.828s3.089,1.564,5.102,1.564c1.851,0,3.447-0.532,4.791-1.598
		C-643.088,280.055-642.415,278.791-642.415,277.325"/>
	<polygon fill="#787D7F" points="-630.787,269.863 -618.092,280.358 -618.092,270.416 -615.747,270.416 -615.747,284.863 
		-628.442,274.416 -628.442,284.224 -630.787,284.224 	"/>
	<polygon fill="#787D7F" points="-606.222,270.416 -596.707,270.416 -596.707,272.302 -603.903,272.302 -603.903,275.749 
		-596.707,275.749 -596.707,277.613 -603.903,277.613 -603.903,282.36 -596.707,282.36 -596.707,284.224 -606.222,284.224 	"/>
	<polygon fill="#787D7F" points="-574.961,270.416 -564.461,270.416 -564.461,272.302 -568.559,272.302 -568.559,284.224 
		-570.877,284.224 -570.877,272.302 -574.961,272.302 	"/>
	<path fill="#787D7F" d="M-555.246,270.417h3.72c1.851,0,3.358,0.369,4.521,1.109c1.164,0.741,1.746,1.689,1.746,2.844
		c0,0.926-0.377,1.742-1.129,2.45c-0.754,0.708-1.928,1.206-3.521,1.495l4.986,5.909h-2.689l-4.762-5.68h-0.526v5.68h-2.345V270.417
		z M-552.901,272.085v4.812c3.459,0.059,5.188-0.748,5.188-2.417c0-0.585-0.202-1.063-0.606-1.436
		c-0.403-0.372-0.942-0.625-1.616-0.759C-550.61,272.152-551.598,272.085-552.901,272.085"/>
	<path fill="#787D7F" d="M-535.68,270.438h2.344v8.486c0,1.257,0.375,2.229,1.125,2.915s1.813,1.029,3.188,1.029
		c1.365,0,2.429-0.315,3.187-0.948c0.76-0.632,1.14-1.522,1.14-2.672v-8.811h2.345v8.681c0,1.691-0.6,3.042-1.8,4.054
		c-1.198,1.012-2.796,1.518-4.791,1.518c-2.039,0-3.672-0.513-4.897-1.539c-1.228-1.026-1.84-2.54-1.84-4.542V270.438z"/>
	<polygon fill="#787D7F" points="-512.906,270.416 -503.393,270.416 -503.393,272.302 -510.588,272.302 -510.588,275.749 
		-503.393,275.749 -503.393,277.613 -510.588,277.613 -510.588,282.36 -503.393,282.36 -503.393,284.224 -512.906,284.224 	"/>
	<polygon fill="#787D7F" points="-480.783,270.416 -471.27,270.416 -471.27,272.302 -478.465,272.302 -478.465,275.749 
		-471.27,275.749 -471.27,277.613 -478.439,277.613 -478.439,284.224 -480.783,284.224 	"/>
	<path fill="#787D7F" d="M-461.932,270.417h3.72c1.851,0,3.358,0.369,4.521,1.109c1.164,0.741,1.745,1.689,1.745,2.844
		c0,0.926-0.376,1.742-1.129,2.45c-0.752,0.708-1.927,1.206-3.521,1.495l4.987,5.909h-2.69l-4.763-5.68h-0.525v5.68h-2.345V270.417z
		 M-459.587,272.085v4.812c3.459,0.059,5.189-0.748,5.189-2.417c0-0.585-0.203-1.063-0.607-1.436
		c-0.403-0.372-0.942-0.625-1.617-0.759C-457.296,272.152-458.283,272.085-459.587,272.085"/>
	<rect x="-442.325" y="270.416" fill="#787D7F" width="2.318" height="13.808"/>
	<polygon fill="#787D7F" points="-430.212,270.416 -420.697,270.416 -420.697,272.302 -427.894,272.302 -427.894,275.749 
		-420.697,275.749 -420.697,277.613 -427.894,277.613 -427.894,282.36 -420.697,282.36 -420.697,284.224 -430.212,284.224 	"/>
	<polygon fill="#787D7F" points="-411.859,269.863 -399.164,280.358 -399.164,270.416 -396.819,270.416 -396.819,284.863 
		-409.515,274.416 -409.515,284.224 -411.859,284.224 	"/>
	<path fill="#787D7F" d="M-387.077,270.417h4.164c3.297,0,5.75,0.701,7.358,2.102c1.607,1.402,2.411,3.002,2.411,4.802
		c0,1.813-0.831,3.418-2.492,4.812c-1.662,1.395-4.079,2.091-7.25,2.091h-4.191V270.417z M-384.733,272.258v10.102h0.136
		c1.742,0,3.055-0.063,3.936-0.19c0.88-0.126,1.715-0.402,2.506-0.828c0.79-0.427,1.419-0.992,1.887-1.697
		c0.468-0.704,0.7-1.479,0.7-2.324c0-1.062-0.372-2.023-1.118-2.883s-1.638-1.438-2.675-1.733c-1.038-0.297-2.432-0.445-4.185-0.445
		H-384.733z"/>
	<rect x="-658.857" y="255.241" fill="#C4122C" width="285.714" height="1"/>
	<rect x="-658.857" y="298.486" fill="#C4122C" width="285.714" height="1"/>
</g>
<g>
	<g>
		<defs>
			<path id="SVGID_4_" d="M2.428,1c2.834,28.156,5.677,55.515,8.522,82.129c8.162,1.879,16.377,3.617,24.637,5.229
				c18.723,43.53,37.682,79.674,56.79,112.365C188.495,182.578,288.387,191.003,381,226c-2.768-28.297-5.54-55.81-8.32-82.592
				c-8.231-1.263-16.519-2.432-24.853-3.515V88.449c8.343-1.646,16.64-3.421,24.882-5.344C375.479,56.479,378.242,29.128,381,1
				C259.018,47.093,124.409,47.093,2.428,1"/>
		</defs>
		<clipPath id="SVGID_5_">
			<use xlink:href="#SVGID_4_"  overflow="visible"/>
		</clipPath>
		
			<radialGradient id="SVGID_6_" cx="-766.5742" cy="318.1704" r="0.9998" gradientTransform="matrix(163.0368 0 0 -139.3164 125171.4922 44440.0195)" gradientUnits="userSpaceOnUse">
			<stop  offset="0" style="stop-color:#D4133D"/>
			<stop  offset="1" style="stop-color:#9E032A"/>
		</radialGradient>
		<rect x="2.428" y="1" clip-path="url(#SVGID_5_)" fill="url(#SVGID_6_)" width="378.572" height="225"/>
	</g>
	<path fill="#FFFFFF" d="M142.955,172.761c-11.631,1.078-23.235,2.543-34.792,4.395c-16.996-31.729-33.891-67.094-50.623-110.21
		c-8.172-1.379-16.304-2.885-24.391-4.519c-1.553-9.936-3.102-20.052-4.65-30.355c27.264,8.858,55.066,15.44,83.133,19.745v22.333
		c-3.674-0.362-7.342-0.749-11.006-1.16c9.605,21.67,19.248,41.551,28.913,60.415c6.779-19.487,13.57-38.161,20.368-56.397
		c-3.571-0.183-7.141-0.388-10.707-0.617V55.305c16.59,1.657,33.241,2.527,49.895,2.61c0,6.717,0,13.433,0,20.15
		c-2.271-0.007-4.541-0.024-6.81-0.05C169.159,108.723,156.04,139.502,142.955,172.761"/>
	<path fill="#FFFFFF" d="M236.933,171.449c-22.59-1.908-45.275-2.383-67.912-1.426v-20.322c8.516-0.229,17.039-0.33,25.561-0.301
		V78.065c-2.09,0.007-4.181,0.006-6.271-0.002V57.911c16.222,0.104,32.446-0.538,48.622-1.928v20.842
		c-2.053,0.113-4.107,0.219-6.162,0.316v73.158c2.055,0.095,4.109,0.198,6.162,0.308V171.449z"/>
	<path fill="#FFFFFF" d="M284.548,177.625c-16.029-2.812-32.158-4.892-48.337-6.236v-20.819c2.085,0.11,4.169,0.228,6.252,0.354
		V76.5c-2.083,0.129-4.167,0.251-6.252,0.364v-20.82c16.179-1.368,32.308-3.483,48.337-6.345c0,7.697,0,15.394,0,23.091
		c-2.034,0.233-4.07,0.459-6.107,0.677v80.408c2.037,0.212,4.073,0.431,6.107,0.658C284.548,162.23,284.548,169.927,284.548,177.625
		"/>
	<path fill="#FFFFFF" d="M354.928,194.952c-23.358-7.46-47.115-13.276-71.095-17.452c0-7.682,0-15.363,0-23.045
		c2.066,0.229,4.131,0.465,6.193,0.709c0-27.673,0-55.347,0-83.02c-2.062,0.251-4.127,0.494-6.193,0.729c0-7.682,0-15.364,0-23.046
		c23.979-4.247,47.736-10.166,71.095-17.756c-1.548,10.304-3.098,20.419-4.649,30.356c-8.193,1.656-16.435,3.18-24.714,4.573v93.171
		c8.28,1.355,16.521,2.84,24.714,4.45C351.83,174.55,353.38,184.657,354.928,194.952"/>
</g>
</svg>
