<?xml version="1.0" encoding="utf-8"?>
<!-- Generator: Adobe Illustrator 16.0.4, SVG Export Plug-In . SVG Version: 6.00 Build 0)  -->
<!DOCTYPE svg PUBLIC "-//W3C//DTD SVG 1.1//EN" "http://www.w3.org/Graphics/SVG/1.1/DTD/svg11.dtd">
<svg version="1.1" id="Layer_1" xmlns="http://www.w3.org/2000/svg" xmlns:xlink="http://www.w3.org/1999/xlink" x="0px" y="0px"
	 width="501px" height="369.834px" viewBox="0 0 501 369.834" enable-background="new 0 0 501 369.834" xml:space="preserve">
<g>
	<g>
		<defs>
			<path id="SVGID_1_" d="M47.63,1.807c2.834,28.156,5.677,55.515,8.522,82.129c8.162,1.879,16.377,3.617,24.637,5.229
				c18.723,43.53,37.682,79.674,56.79,112.365c96.118-18.146,196.01-9.72,288.623,25.276c-2.768-28.297-5.54-55.81-8.32-82.592
				c-8.231-1.263-16.519-2.432-24.853-3.515V89.256c8.343-1.646,16.64-3.421,24.882-5.344c2.77-26.626,5.533-53.977,8.291-82.105
				C304.22,47.9,169.612,47.9,47.63,1.807"/>
		</defs>
		<clipPath id="SVGID_2_">
			<use xlink:href="#SVGID_1_"  overflow="visible"/>
		</clipPath>
		
			<radialGradient id="SVGID_3_" cx="-4.3335" cy="388.499" r="0.9998" gradientTransform="matrix(163.0368 0 0 -139.3164 943.4359 54238.668)" gradientUnits="userSpaceOnUse">
			<stop  offset="0" style="stop-color:#D4133D"/>
			<stop  offset="1" style="stop-color:#9E032A"/>
		</radialGradient>
		<rect x="47.63" y="1.807" clip-path="url(#SVGID_2_)" fill="url(#SVGID_3_)" width="378.572" height="225"/>
	</g>
	<path fill="#FFFFFF" d="M188.158,173.568c-11.631,1.078-23.235,2.543-34.792,4.395c-16.996-31.73-33.891-67.094-50.623-110.211
		c-8.172-1.379-16.304-2.885-24.391-4.519c-1.553-9.936-3.102-20.052-4.65-30.355c27.264,8.858,55.066,15.44,83.133,19.745v22.333
		c-3.674-0.362-7.342-0.749-11.006-1.16c9.605,21.67,19.248,41.551,28.913,60.415c6.779-19.488,13.57-38.161,20.368-56.398
		c-3.571-0.183-7.141-0.388-10.707-0.617V56.112c16.59,1.657,33.241,2.527,49.895,2.61c0,6.717,0,13.433,0,20.15
		c-2.271-0.007-4.541-0.024-6.81-0.05C214.362,109.53,201.243,140.31,188.158,173.568"/>
	<path fill="#FFFFFF" d="M282.135,172.256c-22.59-1.908-45.275-2.383-67.912-1.426v-20.323c8.516-0.229,17.039-0.329,25.561-0.3
		V78.872c-2.09,0.007-4.181,0.006-6.271-0.002V58.718c16.222,0.104,32.446-0.538,48.622-1.928v20.842
		c-2.053,0.113-4.107,0.219-6.162,0.316v73.158c2.055,0.095,4.109,0.198,6.162,0.308V172.256z"/>
	<path fill="#FFFFFF" d="M329.75,178.432c-16.029-2.813-32.158-4.892-48.337-6.236v-20.82c2.085,0.11,4.169,0.228,6.252,0.354
		V77.308c-2.083,0.129-4.167,0.251-6.252,0.364v-20.82c16.179-1.368,32.308-3.483,48.337-6.345c0,7.697,0,15.394,0,23.091
		c-2.034,0.233-4.07,0.459-6.107,0.677v80.408c2.037,0.212,4.073,0.431,6.107,0.658C329.75,163.038,329.75,170.735,329.75,178.432"
		/>
	<path fill="#FFFFFF" d="M400.13,195.759c-23.358-7.46-47.115-13.277-71.095-17.452c0-7.682,0-15.364,0-23.045
		c2.066,0.228,4.131,0.465,6.193,0.709c0-27.673,0-55.347,0-83.02c-2.062,0.251-4.127,0.494-6.193,0.729c0-7.682,0-15.364,0-23.046
		c23.979-4.247,47.736-10.166,71.095-17.756c-1.548,10.304-3.098,20.419-4.649,30.356c-8.193,1.656-16.435,3.18-24.714,4.573v93.171
		c8.28,1.356,16.521,2.84,24.714,4.451C397.033,175.357,398.583,185.464,400.13,195.759"/>
</g>
<g>
	<path fill="#C4122C" d="M0.98,259.076c3.851,0.125,7.7-0.071,11.549,0.1c4.368,0.327,8.304,4.295,7.806,8.818
		c0.164,2.573-1.545,4.662-3.568,6.004c6.285,2.495,4.977,12.978-1.487,14.274c-4.778,0.176-9.571,0.032-14.352,0.078
		c-0.386-6.763-0.078-13.54-0.144-20.311C0.606,265.055,0.6,262.05,0.98,259.076 M6.853,264.387
		c-0.125,2.292-0.092,4.59-0.099,6.895c1.762,0.014,3.556,0.216,5.297-0.157c2.396-0.557,3.248-4.06,1.369-5.663
		C11.646,263.863,9.02,264.59,6.853,264.387 M6.749,276.546c0.013,2.284,0.02,4.569,0.02,6.854c2.277-0.124,4.818,0.511,6.888-0.713
		c2.108-1.349,1.683-4.898-0.636-5.802C11.004,276.277,8.831,276.631,6.749,276.546"/>
	<path fill="#C4122C" d="M33.946,259.169c2.09-0.06,4.178-0.053,6.266-0.065c0.178,9.742,0.033,19.498,0.072,29.247h-6.291
		C33.959,278.621,34.038,268.892,33.946,259.169"/>
	<path fill="#C4122C" d="M53.758,267.195c3.386-6.227,11.014-9.362,17.875-8.302c4.047,0.438,7.537,2.743,10.725,5.113
		c-1.381,1.277-2.775,2.547-4.157,3.817c-3.7-3.037-8.924-4.878-13.534-2.821c-4.49,1.649-7.771,6.907-6.023,11.615
		c2.22,7.019,12.277,9.461,17.652,4.603c0.17-1.552,0.111-3.11,0.111-4.662c-4.047,0.006-8.086,0.026-12.133-0.026
		c0.025-1.762,0.046-3.522,0.066-5.283c6.174,0.032,12.354-0.007,18.528,0.025c-0.013,3.293,0.046,6.587,0.026,9.888
		c-0.105,1.041,0.15,2.396-0.891,3.051c-2.973,2.462-6.554,4.413-10.442,4.793h-4.983c-6.324-0.714-12.342-5.147-14.09-11.394
		C51.807,274.143,51.885,270.293,53.758,267.195"/>
	<path fill="#949DA3" d="M403.194,258.114c8.276,7.202,16.141,14.889,24.54,21.947c0.047-6.94,0.065-13.888-0.025-20.827
		c1.414-0.079,2.835-0.145,4.256-0.223c0.235,9.998,0.059,19.995,0.098,29.993h-1.048c-7.804-7.07-15.543-14.228-23.472-21.16
		c-0.27,7.051-0.015,14.108-0.151,21.16h-4.256C403.247,278.706,403.129,268.413,403.194,258.114"/>
	<path fill="#949DA3" d="M159.314,267.17c3.503-6.562,11.825-9.966,18.948-7.916c3.68,1.126,6.875,3.397,9.678,5.984
		c-1.068,0.923-2.135,1.839-3.202,2.764c-2.239-1.841-4.497-3.838-7.327-4.688c-5.957-1.925-13.055,1.538-14.908,7.588
		c-2.344,6.79,3.836,14.136,10.738,14.202c4.655,0.556,8.393-2.6,11.799-5.271c0.936,0.982,2.088,1.841,2.678,3.104
		c-2.771,2.842-6.352,4.826-10.096,6.07h-7.373c-4.826-1.35-9.369-4.467-11.399-9.181
		C156.983,275.845,157.172,271.007,159.314,267.17"/>
	<path fill="#949DA3" d="M203.437,260.923c6.776-3.993,16.271-2.547,21.384,3.483c3.629,3.994,4.773,10.09,2.567,15.059
		c-1.945,4.977-6.731,8.283-11.785,9.54h-7.373c-6.187-1.545-11.844-6.502-12.604-13.074
		C194.677,269.887,198.147,263.765,203.437,260.923 M208.911,263.149c-5.389,1.113-9.631,6.587-8.818,12.132
		c0.641,5.461,5.748,9.723,11.176,9.828c5.716,0.562,11.497-3.562,12.617-9.232c0.799-4.053-1.205-8.275-4.459-10.685
		C216.48,262.939,212.487,262.305,208.911,263.149"/>
	<path fill="#949DA3" d="M238.565,258.226c8.42,6.973,16.158,14.719,24.468,21.816c0.458-6.967,0.092-13.952,0.209-20.927
		c1.415-0.019,2.829-0.031,4.243-0.052c0.203,9.979,0.039,19.963,0.092,29.942h-1.067c-7.916-6.974-15.544-14.28-23.564-21.143
		c-0.099,7.045,0.02,14.098-0.065,21.143h-4.223C238.348,278.752,238.539,268.485,238.565,258.226"/>
	<path fill="#949DA3" d="M280.619,259.083c5.848,0.065,11.694,0.033,17.548,0.033c0.02,1.283,0.039,2.566,0.065,3.856
		c-4.433,0.189-8.872,0.039-13.305,0.156c-0.085,2.922-0.091,5.848-0.118,8.774c4.466,0.144,8.938,0.033,13.403,0.131
		c-0.014,1.264-0.026,2.527-0.033,3.791c-4.458,0.065-8.911-0.039-13.363,0.137c0.052,4.349,0.052,8.695,0,13.043h-4.236
		C280.547,279.033,280.475,269.056,280.619,259.083"/>
	<path fill="#949DA3" d="M310.292,259.188c5.997-0.196,12.015,0,18.019-0.065c-0.053,1.335-0.104,2.671-0.164,4.013
		c-4.636-0.046-9.271,0.039-13.907-0.071c-0.077,2.953-0.071,5.912-0.077,8.872c4.714,0.117,9.428-0.047,14.142,0.117
		c-0.021,1.258-0.033,2.521-0.039,3.784c-4.695,0.17-9.396-0.006-14.09,0.112c-0.007,2.972,0,5.938,0.026,8.911
		c4.661-0.046,9.329-0.033,13.991-0.014c0.02,1.165,0.02,2.33-0.013,3.503c-6.083-0.014-12.172-0.014-18.255-0.007
		c-0.026-9.611-0.157-19.236,0.053-28.842L310.292,259.188z"/>
	<path fill="#949DA3" d="M340.83,259.077c3.326,0.092,6.652-0.065,9.979,0.078c3.358,0.104,6.698,2.16,8.021,5.304
		c0.713,2.128,0.721,4.511,0.053,6.659c-0.8,2.205-3.019,3.346-4.839,4.603c2.782,2.933,5.584,5.853,8.394,8.773
		c0.531,0.708,1.415,1.395,1.343,2.37c-0.562,0.799-1.264,1.474-1.971,2.142h-1.062c-3.613-4.119-7.287-8.178-10.915-12.283
		c-1.604-0.027-3.2-0.04-4.792-0.046c0.032,4.112,0.046,8.217-0.013,12.329h-4.256C340.725,279.026,340.607,269.049,340.83,259.077
		 M345.079,263.058c0.014,3.189,0.014,6.384-0.033,9.572c2.659,0.164,5.711,0.747,8.041-0.903c2.828-1.964,2.291-7.149-1.073-8.224
		C349.78,262.796,347.384,263.13,345.079,263.058"/>
	<path fill="#949DA3" d="M372.755,260.145c-0.314-1.375,1.446-0.931,2.2-1.055c5.401,0.039,10.81,0.033,16.211,0.02
		c-0.202,1.251,0.433,2.946-0.445,3.916c-4.445,0.386-8.938-0.229-13.383,0.249c-0.465,2.854-0.099,5.761-0.217,8.642
		c4.683,0.164,9.37-0.026,14.052,0.125c-0.014,1.263-0.021,2.534-0.021,3.804c-4.681,0.157-9.362-0.032-14.044,0.132
		c0.033,2.959,0.033,5.919,0.033,8.878c4.655-0.033,9.31-0.039,13.972,0.007c-0.006,1.159-0.02,2.324-0.059,3.488
		c-6.096-0.006-12.191-0.019-18.28,0C372.703,278.948,372.722,269.546,372.755,260.145"/>
	<path fill="#949DA3" d="M445.045,266.083c3.87-5.984,11.885-8.826,18.681-6.719c3.542,1.153,6.612,3.379,9.323,5.887
		c-1.034,0.884-2.017,1.84-3.155,2.58c-2.272-1.31-4.112-3.319-6.601-4.236c-6.325-2.639-14.339,1.329-15.891,8.04
		c-1.722,6.79,4.57,13.639,11.353,13.468c4.44,0.387,8.001-2.604,11.203-5.23c1.062,0.942,2.128,1.892,3.189,2.848
		c-3.038,2.815-6.574,5.199-10.614,6.286h-7.425c-4.589-1.506-9.028-4.361-11.039-8.924
		C441.758,275.682,442.316,270.169,445.045,266.083"/>
	<path fill="#949DA3" d="M482.406,259.083c6.089,0.053,12.172,0.053,18.261,0.014v3.843c-4.583,0.387-9.186,0.138-13.776,0.125
		c-0.156,2.966-0.17,5.932-0.11,8.904c4.629,0.026,9.258,0.007,13.887,0.014v3.889c-4.629-0.013-9.258-0.033-13.887,0.006
		c-0.053,2.992-0.04,5.985,0.078,8.978c4.603-0.033,9.206-0.021,13.809-0.021v3.745c-6.096,0.597-12.237,0.197-18.353,0.203
		C482.399,278.883,482.222,268.983,482.406,259.083"/>
	<path fill="#C4122C" d="M126.594,272.864c3.037,1.867,4.556,4.321,4.556,7.362c0,2.547-0.958,4.612-2.875,6.194
		c-1.916,1.582-4.418,2.373-7.503,2.373c-3.152,0-5.701-0.783-7.65-2.35s-2.924-3.608-2.924-6.126c0-3.102,1.527-5.571,4.581-7.408
		c-1.3-1.063-2.25-2.104-2.851-3.121c-0.602-1.018-0.901-2.182-0.901-3.491c0-2.127,0.84-3.969,2.521-5.526
		c1.682-1.556,4.041-2.335,7.078-2.335c2.955,0,5.314,0.701,7.077,2.104c1.763,1.402,2.644,3.268,2.644,5.595
		C130.346,268.833,129.094,271.076,126.594,272.864 M124.547,279.331c0-1.033-0.382-1.917-1.145-2.649
		c-0.764-0.732-1.689-1.1-2.777-1.1c-1.039,0-1.934,0.382-2.68,1.146c-0.748,0.764-1.121,1.678-1.121,2.742
		c0,0.971,0.387,1.839,1.157,2.604c0.771,0.763,1.653,1.145,2.644,1.145c1.088,0,2.014-0.378,2.777-1.134
		C124.166,281.329,124.547,280.411,124.547,279.331 M124.012,267.137c0-0.956-0.313-1.754-0.938-2.395s-1.409-0.96-2.351-0.96
		c-0.926,0-1.697,0.297-2.314,0.891c-0.618,0.594-0.926,1.323-0.926,2.186c0,0.896,0.308,1.647,0.926,2.257
		c0.617,0.609,1.389,0.914,2.314,0.914c0.844,0,1.604-0.297,2.277-0.892C123.674,268.545,124.012,267.877,124.012,267.137"/>
</g>
<g>
	<path fill="#787D7F" d="M107.809,347.071c0-1.993,0.936-3.701,2.803-5.123c1.869-1.422,4.115-2.134,6.739-2.134
		c2.56,0,4.767,0.717,6.617,2.15c1.851,1.433,2.776,3.135,2.776,5.106c0,2.086-0.914,3.851-2.742,5.29
		c-1.829,1.441-4.073,2.161-6.732,2.161c-2.623,0-4.855-0.726-6.697-2.177S107.809,349.137,107.809,347.071 M124.251,347.157
		c0-1.522-0.683-2.806-2.048-3.849c-1.366-1.043-3.047-1.564-5.041-1.564c-1.896,0-3.521,0.53-4.872,1.592
		c-1.353,1.061-2.028,2.336-2.028,3.821c0,1.51,0.693,2.785,2.082,3.828s3.089,1.564,5.102,1.564c1.851,0,3.447-0.532,4.791-1.598
		C123.579,349.888,124.251,348.623,124.251,347.157"/>
	<polygon fill="#787D7F" points="135.879,339.695 148.575,350.19 148.575,340.248 150.919,340.248 150.919,354.695 138.224,344.248 
		138.224,354.057 135.879,354.057 	"/>
	<polygon fill="#787D7F" points="160.445,340.248 169.959,340.248 169.959,342.135 162.763,342.135 162.763,345.581 
		169.959,345.581 169.959,347.445 162.763,347.445 162.763,352.192 169.959,352.192 169.959,354.057 160.445,354.057 	"/>
	<polygon fill="#787D7F" points="191.706,340.248 202.206,340.248 202.206,342.135 198.108,342.135 198.108,354.057 195.79,354.057 
		195.79,342.135 191.706,342.135 	"/>
	<path fill="#787D7F" d="M211.42,340.249h3.72c1.851,0,3.358,0.369,4.521,1.109c1.164,0.741,1.746,1.689,1.746,2.844
		c0,0.926-0.377,1.742-1.129,2.45c-0.754,0.708-1.928,1.206-3.521,1.495l4.986,5.909h-2.689l-4.762-5.68h-0.526v5.68h-2.345V340.249
		z M213.765,341.918v4.812c3.459,0.059,5.188-0.748,5.188-2.417c0-0.585-0.202-1.063-0.606-1.436
		c-0.403-0.372-0.942-0.625-1.616-0.759C216.056,341.984,215.069,341.918,213.765,341.918"/>
	<path fill="#787D7F" d="M230.987,340.271h2.344v8.486c0,1.257,0.375,2.229,1.125,2.915s1.813,1.029,3.188,1.029
		c1.365,0,2.429-0.315,3.187-0.948c0.76-0.632,1.14-1.522,1.14-2.672v-8.811h2.345v8.681c0,1.691-0.6,3.042-1.8,4.054
		c-1.198,1.012-2.796,1.518-4.791,1.518c-2.039,0-3.672-0.513-4.897-1.539c-1.228-1.026-1.84-2.54-1.84-4.542V340.271z"/>
	<polygon fill="#787D7F" points="253.76,340.248 263.274,340.248 263.274,342.135 256.079,342.135 256.079,345.581 263.274,345.581 
		263.274,347.445 256.079,347.445 256.079,352.192 263.274,352.192 263.274,354.057 253.76,354.057 	"/>
	<polygon fill="#787D7F" points="285.883,340.248 295.397,340.248 295.397,342.135 288.202,342.135 288.202,345.581 
		295.397,345.581 295.397,347.445 288.227,347.445 288.227,354.057 285.883,354.057 	"/>
	<path fill="#787D7F" d="M304.735,340.249h3.72c1.851,0,3.358,0.369,4.521,1.109c1.164,0.741,1.745,1.689,1.745,2.844
		c0,0.926-0.376,1.742-1.129,2.45c-0.752,0.708-1.927,1.206-3.521,1.495l4.987,5.909h-2.69l-4.763-5.68h-0.525v5.68h-2.345V340.249z
		 M307.08,341.918v4.812c3.459,0.059,5.189-0.748,5.189-2.417c0-0.585-0.203-1.063-0.607-1.436
		c-0.403-0.372-0.942-0.625-1.617-0.759C309.371,341.984,308.383,341.918,307.08,341.918"/>
	<rect x="324.341" y="340.248" fill="#787D7F" width="2.318" height="13.808"/>
	<polygon fill="#787D7F" points="336.455,340.248 345.969,340.248 345.969,342.135 338.773,342.135 338.773,345.581 
		345.969,345.581 345.969,347.445 338.773,347.445 338.773,352.192 345.969,352.192 345.969,354.057 336.455,354.057 	"/>
	<polygon fill="#787D7F" points="354.807,339.695 367.502,350.19 367.502,340.248 369.847,340.248 369.847,354.695 357.152,344.248 
		357.152,354.057 354.807,354.057 	"/>
	<path fill="#787D7F" d="M379.589,340.249h4.164c3.297,0,5.75,0.701,7.358,2.102c1.607,1.402,2.411,3.002,2.411,4.802
		c0,1.813-0.831,3.418-2.492,4.812c-1.662,1.395-4.079,2.091-7.25,2.091h-4.191V340.249z M381.933,342.091v10.102h0.136
		c1.742,0,3.055-0.063,3.936-0.19c0.88-0.126,1.715-0.402,2.506-0.828c0.79-0.427,1.419-0.992,1.887-1.697
		c0.468-0.704,0.7-1.479,0.7-2.324c0-1.062-0.372-2.023-1.118-2.883s-1.638-1.438-2.675-1.733c-1.038-0.297-2.432-0.445-4.185-0.445
		H381.933z"/>
	<rect x="107.809" y="325.073" fill="#C4122C" width="285.714" height="1"/>
	<rect x="107.809" y="368.318" fill="#C4122C" width="285.714" height="1"/>
</g>
<g>
	<g>
		<defs>
			<path id="SVGID_4_" d="M769.094,70.833c2.834,28.156,5.677,55.515,8.522,82.129c8.162,1.879,16.377,3.617,24.637,5.229
				c18.723,43.53,37.682,79.674,56.79,112.365c96.118-18.146,196.01-9.72,288.623,25.276c-2.768-28.297-5.54-55.81-8.32-82.592
				c-8.231-1.263-16.519-2.432-24.853-3.515v-51.444c8.343-1.646,16.64-3.421,24.882-5.344c2.77-26.626,5.533-53.977,8.291-82.105
				C1025.684,116.925,891.076,116.925,769.094,70.833"/>
		</defs>
		<clipPath id="SVGID_5_">
			<use xlink:href="#SVGID_4_"  overflow="visible"/>
		</clipPath>
		
			<radialGradient id="SVGID_6_" cx="0.0913" cy="388.0029" r="1.0001" gradientTransform="matrix(163.0368 0 0 -139.3164 943.4359 54238.668)" gradientUnits="userSpaceOnUse">
			<stop  offset="0" style="stop-color:#D4133D"/>
			<stop  offset="1" style="stop-color:#9E032A"/>
		</radialGradient>
		<rect x="769.094" y="70.833" clip-path="url(#SVGID_5_)" fill="url(#SVGID_6_)" width="378.572" height="225"/>
	</g>
	<path fill="#FFFFFF" d="M909.622,242.594c-11.631,1.078-23.235,2.543-34.792,4.395c-16.996-31.729-33.891-67.094-50.623-110.21
		c-8.172-1.379-16.304-2.885-24.391-4.519c-1.553-9.936-3.102-20.052-4.65-30.355c27.264,8.858,55.066,15.44,83.133,19.745v22.333
		c-3.674-0.362-7.342-0.749-11.006-1.16c9.605,21.67,19.248,41.551,28.913,60.415c6.779-19.487,13.57-38.161,20.368-56.397
		c-3.571-0.183-7.141-0.388-10.707-0.617v-21.084c16.59,1.657,33.241,2.527,49.895,2.61c0,6.717,0,13.433,0,20.15
		c-2.271-0.007-4.541-0.024-6.81-0.05C935.826,178.556,922.707,209.335,909.622,242.594"/>
	<path fill="#FFFFFF" d="M1003.599,241.281c-22.59-1.908-45.275-2.383-67.912-1.426v-20.322c8.516-0.229,17.039-0.33,25.561-0.301
		v-71.335c-2.09,0.007-4.181,0.006-6.271-0.002v-20.152c16.222,0.104,32.446-0.538,48.622-1.928v20.842
		c-2.053,0.113-4.107,0.219-6.162,0.316v73.158c2.055,0.095,4.109,0.198,6.162,0.308V241.281z"/>
	<path fill="#FFFFFF" d="M1051.214,247.457c-16.029-2.812-32.158-4.892-48.337-6.236v-20.819c2.085,0.11,4.169,0.228,6.252,0.354
		v-74.423c-2.083,0.129-4.167,0.251-6.252,0.364v-20.82c16.179-1.368,32.308-3.483,48.337-6.345c0,7.697,0,15.394,0,23.091
		c-2.034,0.233-4.07,0.459-6.107,0.677v80.408c2.037,0.212,4.073,0.431,6.107,0.658
		C1051.214,232.062,1051.214,239.76,1051.214,247.457"/>
	<path fill="#FFFFFF" d="M1121.594,264.784c-23.358-7.46-47.115-13.276-71.095-17.452c0-7.682,0-15.363,0-23.045
		c2.066,0.229,4.131,0.465,6.193,0.709c0-27.673,0-55.347,0-83.02c-2.062,0.251-4.127,0.494-6.193,0.729c0-7.682,0-15.364,0-23.046
		c23.979-4.247,47.736-10.166,71.095-17.756c-1.548,10.304-3.098,20.419-4.649,30.356c-8.193,1.656-16.435,3.18-24.714,4.573v93.171
		c8.28,1.355,16.521,2.84,24.714,4.45C1118.497,244.383,1120.046,254.489,1121.594,264.784"/>
</g>
</svg>
