<?xml version="1.0" encoding="utf-8"?>
<!-- Generator: Adobe Illustrator 16.0.4, SVG Export Plug-In . SVG Version: 6.00 Build 0)  -->
<!DOCTYPE svg PUBLIC "-//W3C//DTD SVG 1.1//EN" "http://www.w3.org/Graphics/SVG/1.1/DTD/svg11.dtd">
<svg version="1.1" id="Layer_1" xmlns="http://www.w3.org/2000/svg" xmlns:xlink="http://www.w3.org/1999/xlink" x="0px" y="0px"
	 width="610px" height="130px" viewBox="0 0 610 130" enable-background="new 0 0 610 130" xml:space="preserve">
<path fill="#1B3A68" d="M587.83,63.903l4.72-4.541h1.673l-4.041,6.175h-1.081l3.281-5.023h-0.038l-5.22,5.023h-0.753l1.359-5.023
	h-0.021l-3.295,5.023h-1.094l4.04-6.175h1.68 M585.689,60.259h-1.897l-3.466,5.276h-1.084l3.456-5.276h-1.913l0.596-0.9h4.911
	L585.689,60.259z"/>
<g>
	<path fill="#CD3237" d="M23.967,96.643c97.443-24.244,395.718-30.166,575.025,4.963C379.869,83.781,161.085,85.059,5,123.445"/>
	<path fill="#1B3A68" d="M302.659,124.062c-3.991,2.322-8.249,3.41-11.881,3.41c-6.381,0-10.925-3.727-7.121-9.875
		c3.188-5.178,11.091-8.893,17.853-8.893c3.592,0,6.702,1.055,7.934,3.66l0.518,1.088l-6.189,2.516l-0.197-0.598
		c-0.349-1.088-1.656-1.928-4.125-1.928c-3.923,0-8.742,2.414-10.427,5.139c-1.094,1.785-0.433,4.154,3.805,4.154
		c2.416,0,5.071-0.82,7.239-2.143l0.215-0.123l3.831,2.738"/>
	<path fill="#1B3A68" d="M338.153,118.584c-3.206,5.174-11.099,8.879-17.853,8.879c-6.376,0-10.934-3.717-7.126-9.865
		c3.193-5.178,11.094-8.893,17.855-8.893C337.396,108.707,341.95,112.422,338.153,118.584 M332.765,117.598
		c1.111-1.787,0.442-4.154-3.798-4.154c-3.917,0-8.744,2.414-10.416,5.141c-1.1,1.783-0.448,4.152,3.817,4.152
		C326.275,122.736,331.085,120.312,332.765,117.598"/>
	<polyline fill="#1B3A68" points="347.14,127.123 341.368,127.123 353.038,108.26 361.07,118.506 366.929,109.045 372.704,109.045 
		361.02,127.936 353.002,117.664 	"/>
	<polyline fill="#1B3A68" points="404.489,109.045 401.556,113.791 388.562,113.791 387.495,115.52 396.544,115.52 393.604,120.244 
		384.561,120.244 380.308,127.123 374.533,127.123 385.708,109.045 	"/>
	<polyline fill="#1B3A68" points="436.273,109.045 433.343,113.791 420.36,113.791 419.271,115.52 428.334,115.52 425.397,120.244 
		416.351,120.244 415.031,122.398 428.014,122.398 425.089,127.123 406.317,127.123 417.503,109.045 	"/>
	<path fill="#1B3A68" d="M460.289,109.045c4.692,0,7.796,2.426,4.979,6.994c-1.51,2.424-4.598,4.207-7.673,5.037l2.1,6.051h-6.925
		l-1.493-5.094h-4.248l-3.159,5.094h-5.767l11.178-18.082 M454.871,117.305c2.815,0,4.594-1.234,5.224-2.266l0.095-0.664
		c-0.184-0.279-0.787-0.582-2.277-0.582h-5.78l-2.173,3.512H454.871z"/>
	<polyline fill="#1B3A68" points="498.125,109.045 495.197,113.791 482.198,113.791 481.128,115.52 490.185,115.52 487.238,120.244 
		478.205,120.244 476.869,122.398 489.859,122.398 486.937,127.123 468.169,127.123 479.349,109.045 	"/>
	<polyline fill="#1B3A68" points="505.724,127.123 499.951,127.123 511.611,108.26 519.655,118.506 525.504,109.045 
		531.284,109.045 519.608,127.936 511.569,117.664 	"/>
	<path fill="#1B3A68" d="M553.519,124.062c-3.999,2.322-8.244,3.41-11.896,3.41c-6.368,0-10.927-3.727-7.108-9.875
		c3.198-5.178,11.093-8.893,17.854-8.893c3.581,0,6.691,1.055,7.935,3.66l0.521,1.088l-6.194,2.516l-0.207-0.598
		c-0.35-1.088-1.65-1.928-4.13-1.928c-3.904,0-8.713,2.414-10.403,5.139c-1.107,1.785-0.444,4.154,3.804,4.154
		c2.412,0,5.062-0.82,7.216-2.143l0.236-0.123l3.82,2.738"/>
	<polyline fill="#1B3A68" points="592.605,109.045 589.688,113.791 576.689,113.791 575.613,115.52 584.664,115.52 581.729,120.244 
		572.683,120.244 571.363,122.398 584.351,122.398 581.426,127.123 562.649,127.123 573.84,109.045 	"/>
	<polyline fill="#CD3237" points="423.723,65.391 454.934,1 472.567,1 441.349,65.391 	"/>
	<path fill="#CD3237" d="M176.528,65.391l-19.559-0.078l-0.893-11.163h-30.782l-11.669,11.145l-25.056,0.078l64.289-63.897h15.336
		 M154.817,40.001l-0.953-13.383l-13.789,13.187L154.817,40.001z"/>
	<polyline fill="#CD3237" points="417.16,65.258 370.297,65.391 402.652,1.317 414.204,1.358 422.092,1.524 413.979,17.469 
		410.568,24.279 402.659,39.937 398.232,48.708 425.904,48.689 	"/>
	<polyline fill="#1B3A68" points="552.544,1.449 605,1.317 572.646,65.391 561.093,65.35 553.205,65.184 561.318,49.238 
		564.729,42.428 572.639,26.771 577.065,17.999 543.8,18.018 	"/>
	<polyline fill="#1B3A68" points="561.981,27.678 600.438,27.546 593.551,41.264 583.296,41.224 554.801,41.234 	"/>
	<polyline fill="#CD3237" points="195.249,1.121 249.975,1.03 241.361,17.405 224.312,17.405 200.37,65.391 180.854,65.391 
		204.933,17.405 187.378,17.356 	"/>
	<path fill="#CD3237" d="M92.031,53.688c-11.035,7.966-22.81,11.702-32.852,11.702c-17.644,0-30.211-12.782-19.69-33.881
		C48.304,13.75,70.156,1.006,88.854,1.006c9.933,0,18.53,3.618,21.94,12.556l1.429,3.736l-17.115,8.623l-0.544-2.044
		c-0.965-3.735-4.578-6.615-11.405-6.615c-10.847,0-24.175,8.281-28.832,17.633c-3.026,6.12-1.197,14.248,10.52,14.248
		c6.682,0,14.024-2.817,20.017-7.353l0.595-0.424l10.592,9.398"/>
	<path fill="#CD3237" d="M517.91,53.688c-11.035,7.966-22.81,11.702-32.852,11.702c-17.645,0-30.211-12.782-19.69-33.881
		c8.815-17.759,30.667-30.504,49.364-30.504c9.933,0,18.53,3.618,21.939,12.556l1.43,3.736l-17.115,8.623l-0.544-2.044
		c-0.965-3.735-4.578-6.615-11.405-6.615c-10.847,0-24.175,8.281-28.832,17.633c-3.025,6.12-1.196,14.248,10.521,14.248
		c6.682,0,14.023-2.817,20.017-7.353l0.595-0.424l10.593,9.398"/>
	<path fill="#CD3237" d="M378.66,34.925c-8.868,17.753-30.695,30.466-49.374,30.466c-17.633,0-30.237-12.749-19.708-33.851
		c8.831-17.762,30.68-30.51,49.38-30.51C376.562,1.039,389.16,13.787,378.66,34.925 M363.755,31.54
		c3.077-6.131,1.226-14.251-10.5-14.251c-10.834,0-24.186,8.282-28.809,17.636c-3.04,6.122-1.241,14.251,10.559,14.251
		C345.81,49.176,359.111,40.858,363.755,31.54"/>
	<polyline fill="#CD3237" points="225.333,65.391 256.544,1 274.179,1 262.519,25.05 290.843,25.049 282.923,40.427 255.01,40.534 
		242.959,65.391 	"/>
	<polyline fill="#CD3237" points="268.978,65.391 300.189,1 317.823,1 286.604,65.391 	"/>
</g>
</svg>
