<?xml version="1.0" encoding="utf-8"?>
<!-- Generator: Adobe Illustrator 16.0.4, SVG Export Plug-In . SVG Version: 6.00 Build 0)  -->
<!DOCTYPE svg PUBLIC "-//W3C//DTD SVG 1.1//EN" "http://www.w3.org/Graphics/SVG/1.1/DTD/svg11.dtd">
<svg version="1.1" id="Layer_1" xmlns="http://www.w3.org/2000/svg" xmlns:xlink="http://www.w3.org/1999/xlink" x="0px" y="0px"
	 width="610px" height="340px" viewBox="0 0 610 340" enable-background="new 0 0 610 340" xml:space="preserve">
<g>
	<path fill="#CD3237" d="M23.967,306.195c97.443-24.244,395.719-30.166,575.026,4.963C379.87,293.334,161.085,294.611,5,332.998"/>
	<g>
		<path fill="#1B3A68" d="M302.659,333.615c-3.992,2.322-8.25,3.41-11.882,3.41c-6.381,0-10.925-3.727-7.121-9.875
			c3.188-5.178,11.091-8.893,17.853-8.893c3.594,0,6.703,1.055,7.936,3.66l0.518,1.088l-6.189,2.516l-0.197-0.598
			c-0.35-1.088-1.656-1.928-4.125-1.928c-3.924,0-8.743,2.414-10.428,5.139c-1.094,1.785-0.433,4.154,3.805,4.154
			c2.416,0,5.071-0.82,7.239-2.143l0.215-0.123l3.831,2.738"/>
		<path fill="#1B3A68" d="M338.153,328.137c-3.205,5.174-11.098,8.879-17.852,8.879c-6.377,0-10.934-3.717-7.127-9.865
			c3.193-5.178,11.094-8.893,17.855-8.893C337.396,318.26,341.95,321.975,338.153,328.137 M332.765,327.15
			c1.111-1.787,0.443-4.154-3.797-4.154c-3.918,0-8.744,2.414-10.416,5.141c-1.1,1.783-0.449,4.152,3.816,4.152
			C326.276,332.289,331.085,329.865,332.765,327.15"/>
		<polyline fill="#1B3A68" points="347.14,336.676 341.368,336.676 353.038,317.812 361.071,328.059 366.929,318.598 
			372.704,318.598 361.021,337.488 353.003,327.217 		"/>
		<polyline fill="#1B3A68" points="404.489,318.598 401.556,323.344 388.562,323.344 387.495,325.072 396.544,325.072 
			393.604,329.797 384.562,329.797 380.308,336.676 374.534,336.676 385.708,318.598 		"/>
		<polyline fill="#1B3A68" points="436.274,318.598 433.343,323.344 420.36,323.344 419.272,325.072 428.335,325.072 
			425.397,329.797 416.351,329.797 415.032,331.951 428.015,331.951 425.089,336.676 406.317,336.676 417.503,318.598 		"/>
		<path fill="#1B3A68" d="M460.29,318.598c4.691,0,7.795,2.426,4.979,6.994c-1.51,2.424-4.598,4.207-7.674,5.037l2.1,6.051h-6.924
			l-1.494-5.094h-4.248l-3.158,5.094h-5.768l11.178-18.082 M454.872,326.857c2.814,0,4.594-1.234,5.223-2.266l0.096-0.664
			c-0.184-0.279-0.787-0.582-2.277-0.582h-5.781l-2.172,3.512H454.872z"/>
		<polyline fill="#1B3A68" points="498.126,318.598 495.198,323.344 482.198,323.344 481.128,325.072 490.185,325.072 
			487.239,329.797 478.206,329.797 476.87,331.951 489.86,331.951 486.937,336.676 468.169,336.676 479.349,318.598 		"/>
		<polyline fill="#1B3A68" points="505.724,336.676 499.952,336.676 511.612,317.812 519.655,328.059 525.505,318.598 
			531.284,318.598 519.608,337.488 511.569,327.217 		"/>
		<path fill="#1B3A68" d="M553.519,333.615c-3.998,2.322-8.244,3.41-11.895,3.41c-6.369,0-10.928-3.727-7.109-9.875
			c3.199-5.178,11.094-8.893,17.855-8.893c3.58,0,6.691,1.055,7.934,3.66l0.521,1.088l-6.193,2.516l-0.207-0.598
			c-0.35-1.088-1.65-1.928-4.131-1.928c-3.904,0-8.713,2.414-10.402,5.139c-1.107,1.785-0.445,4.154,3.803,4.154
			c2.412,0,5.062-0.82,7.217-2.143l0.236-0.123l3.82,2.738"/>
		<polyline fill="#1B3A68" points="592.606,318.598 589.688,323.344 576.69,323.344 575.614,325.072 584.665,325.072 
			581.729,329.797 572.683,329.797 571.364,331.951 584.351,331.951 581.427,336.676 562.649,336.676 573.841,318.598 		"/>
	</g>
	<g>
		<polyline fill="#CD3237" points="260.119,267.778 319.498,145.274 353.045,145.274 293.65,267.778 		"/>
		<polyline fill="#CD3237" points="247.633,267.525 158.475,267.778 220.032,145.878 242.007,145.956 257.016,146.271 
			241.581,176.608 235.092,189.563 220.043,219.352 211.623,236.039 264.269,236.004 		"/>
		<g>
			<path fill="#1B3A68" d="M572.334,264.946l8.979-8.638h3.184l-7.688,11.748h-2.059l6.242-9.557h-0.07l-9.932,9.557h-1.432
				l2.586-9.557h-0.041l-6.268,9.557h-2.082l7.686-11.748h3.195 M568.262,258.015h-3.611l-6.592,10.038h-2.062l6.574-10.038h-3.639
				l1.133-1.713h9.342L568.262,258.015z"/>
			<g>
				<polyline fill="#1B3A68" points="505.201,146.129 605,145.878 543.443,267.778 521.465,267.7 506.461,267.384 521.896,237.048 
					528.383,224.093 543.434,194.303 551.854,177.615 488.564,177.652 				"/>
				<polyline fill="#1B3A68" points="523.156,196.029 596.32,195.778 583.219,221.876 563.707,221.8 509.496,221.818 				"/>
			</g>
		</g>
		<path fill="#CD3237" d="M439.311,245.515c-20.994,15.155-43.396,22.264-62.5,22.264c-33.568,0-57.477-24.318-37.463-64.459
			c16.773-33.786,58.346-58.034,93.918-58.034c18.895,0,35.252,6.884,41.74,23.888l2.719,7.108l-32.561,16.405l-1.037-3.891
			c-1.836-7.104-8.709-12.584-21.697-12.584c-20.637,0-45.994,15.754-54.854,33.547c-5.756,11.644-2.277,27.107,20.014,27.107
			c12.713,0,26.68-5.36,38.084-13.988l1.129-0.807l20.156,17.879"/>
		<path fill="#CD3237" d="M174.386,209.816c-16.873,33.775-58.398,57.962-93.936,57.962c-33.547,0-57.527-24.256-37.493-64.401
			c16.799-33.792,58.368-58.045,93.943-58.045C170.396,145.349,194.363,169.602,174.386,209.816 M146.027,203.377
			c5.856-11.664,2.333-27.112-19.977-27.112c-20.612,0-46.013,15.757-54.809,33.552c-5.782,11.647-2.359,27.112,20.088,27.112
			C111.886,236.929,137.195,221.105,146.027,203.377"/>
		<g>
			<path fill="#CD3237" d="M317.506,126.09l-37.21-0.148l-1.7-21.238h-58.562l-22.202,21.204l-47.669,0.149L272.473,4.49h29.177
				 M276.201,77.785l-1.813-25.461l-26.232,25.088L276.201,77.785z"/>
			<polyline fill="#CD3237" points="353.121,3.816 457.238,3.644 440.852,34.797 408.414,34.797 362.863,126.09 325.734,126.09 
				371.545,34.797 338.148,34.704 			"/>
			<path fill="#CD3237" d="M156.749,103.826c-20.995,15.155-43.397,22.264-62.5,22.264c-33.569,0-57.477-24.318-37.461-64.459
				c16.771-33.786,58.344-58.034,93.916-58.034c18.896,0,35.252,6.884,41.74,23.888l2.72,7.108l-32.562,16.405l-1.034-3.891
				c-1.838-7.104-8.71-12.584-21.699-12.584c-20.636,0-45.993,15.754-54.854,33.547c-5.756,11.644-2.278,27.107,20.014,27.107
				c12.714,0,26.682-5.36,38.083-13.988l1.133-0.807l20.151,17.879"/>
			<g>
				<polyline fill="#CD3237" points="410.359,126.09 469.738,3.586 503.287,3.586 481.104,49.341 534.992,49.341 519.924,78.596 
					466.818,78.8 443.891,126.09 				"/>
				<polyline fill="#CD3237" points="493.393,126.09 552.77,3.586 586.32,3.586 526.926,126.09 				"/>
			</g>
		</g>
	</g>
</g>
</svg>
