<?xml version="1.0" encoding="utf-8"?>
<!-- Generator: Adobe Illustrator 16.0.4, SVG Export Plug-In . SVG Version: 6.00 Build 0)  -->
<!DOCTYPE svg PUBLIC "-//W3C//DTD SVG 1.1//EN" "http://www.w3.org/Graphics/SVG/1.1/DTD/svg11.dtd">
<svg version="1.1" id="Layer_1" xmlns="http://www.w3.org/2000/svg" xmlns:xlink="http://www.w3.org/1999/xlink" x="0px" y="0px"
	 width="410px" height="410px" viewBox="0 0 410 410" enable-background="new 0 0 410 410" xml:space="preserve">
<g>
	<path fill="#05377D" d="M407.149,204.614c0,111.838-90.662,202.5-202.5,202.5s-202.5-90.662-202.5-202.5
		c0-111.838,90.662-202.5,202.5-202.5S407.149,92.776,407.149,204.614"/>
	<path fill="#FFCE3F" d="M133.219,370.323C68.797,342.916,23.638,279.04,23.638,204.614c0-74.427,45.177-138.303,109.599-165.71
		l0.007,118.753h-34l-0.002-49.566c0,0-37.998,25.962-37.998,96.316c0,76.296,38,96.891,38,96.891v-49.641h34
		C133.244,251.657,133.247,370.335,133.219,370.323"/>
	<path fill="#FFCE3F" d="M258.244,376.5c-9.405,2.93-22.5,5.991-34,6.955V133.657l-2,0.001l-7,87.999h-24l-7-88h-2v249.52
		c-11.667-1.02-24.542-4.505-34-7.577V33.628c11.046-3.589,27.518-7.301,40-8.241l14.987,81.27l15.013-81.467
		c12.573,0.769,29.075,4.135,39.998,7.537L258.244,376.5z"/>
	<path fill="#FFCE3F" d="M385.438,204.668c0,39.429-12.692,75.898-34.189,105.551c-4.321,5.962-9,11.648-14.002,17.027
		c-2.269,2.439-4.604,4.817-7.003,7.128v-49.716c0,0,5.496-5.365,10.445-16.982c4.523-10.62,10.555-28.689,10.555-63.018l-42,3.666
		v143.414c-10.552,7.461-21.94,13.815-34,18.894l-0.002-331.929c12.061,5.079,23.451,11.434,34.004,18.896
		C355.343,90.195,385.438,143.917,385.438,204.668"/>
	<path fill="#05377D" d="M308.244,175.381V97.934c0,0,14.684,15.128,28,38.598c10,17.626,12.827,35.572,12.827,35.572
		L308.244,175.381z"/>
</g>
</svg>
