<?xml version="1.0" encoding="utf-8"?>
<!-- Generator: Adobe Illustrator 16.0.4, SVG Export Plug-In . SVG Version: 6.00 Build 0)  -->
<!DOCTYPE svg PUBLIC "-//W3C//DTD SVG 1.1//EN" "http://www.w3.org/Graphics/SVG/1.1/DTD/svg11.dtd">
<svg version="1.1" id="Layer_1" xmlns="http://www.w3.org/2000/svg" xmlns:xlink="http://www.w3.org/1999/xlink" x="0px" y="0px"
	 width="410px" height="410px" viewBox="0 0 410 410" enable-background="new 0 0 410 410" xml:space="preserve">
<g>
	<path fill="#05377D" d="M407.149,204.614c0,111.838-90.663,202.501-202.5,202.501c-111.838,0-202.5-90.663-202.5-202.501
		c0-111.839,90.662-202.501,202.5-202.501C316.486,2.113,407.149,92.775,407.149,204.614"/>
	<path fill="#FFCE3F" d="M134.277,367.868c-63.467-27-107.958-89.931-107.958-163.254c0-73.325,44.507-136.254,107.975-163.255
		l0.007,116.994h-33.497l-0.002-48.832c0,0-37.435,25.577-37.435,94.889c0,75.167,37.437,95.455,37.437,95.455V250.96h33.497
		C134.302,250.96,134.304,367.88,134.277,367.868"/>
	<path fill="#FFCE3F" d="M257.45,373.954c-9.267,2.887-22.167,5.902-33.496,6.853V134.708l-1.971,0.001l-6.896,86.695h-23.644
		l-6.896-86.696h-1.97v245.823c-11.495-1.004-24.18-4.438-33.497-7.464V36.162c10.881-3.536,27.11-7.193,39.408-8.119l14.764,80.066
		l14.791-80.26c12.386,0.757,28.644,4.073,39.405,7.425L257.45,373.954z"/>
	<path fill="#FFCE3F" d="M382.759,204.668c0,38.844-12.503,74.774-33.683,103.987c-4.256,5.872-8.866,11.476-13.795,16.775
		c-2.233,2.403-4.535,4.745-6.897,7.021v-48.978c0,0,5.414-5.286,10.29-16.731c4.457-10.464,10.398-28.264,10.398-62.083
		l-41.378,3.612V349.56c-10.396,7.351-21.616,13.61-33.496,18.612l-0.002-327.011c11.882,5.004,23.104,11.265,33.5,18.616
		C353.109,91.89,382.759,144.816,382.759,204.668"/>
	<path fill="#05377D" d="M306.709,175.814V99.515c0,0,14.467,14.904,27.586,38.026c9.852,17.365,12.636,35.044,12.636,35.044
		L306.709,175.814z"/>
</g>
</svg>
