<?xml version="1.0" encoding="utf-8"?>
<!-- Generator: Adobe Illustrator 16.0.4, SVG Export Plug-In . SVG Version: 6.00 Build 0)  -->
<!DOCTYPE svg PUBLIC "-//W3C//DTD SVG 1.1//EN" "http://www.w3.org/Graphics/SVG/1.1/DTD/svg11.dtd">
<svg version="1.1" id="Layer_1" xmlns="http://www.w3.org/2000/svg" xmlns:xlink="http://www.w3.org/1999/xlink" x="0px" y="0px"
	 width="410px" height="550px" viewBox="0 0 410 550" enable-background="new 0 0 410 550" xml:space="preserve">
<g>
	<radialGradient id="SVGID_1_" cx="192.999" cy="184.5645" r="154.7718" gradientUnits="userSpaceOnUse">
		<stop  offset="0.12" style="stop-color:#1778AC"/>
		<stop  offset="0.2585" style="stop-color:#105483"/>
		<stop  offset="0.3994" style="stop-color:#0A3661"/>
		<stop  offset="0.5434" style="stop-color:#061E46"/>
		<stop  offset="0.6898" style="stop-color:#030D33"/>
		<stop  offset="0.84" style="stop-color:#010328"/>
		<stop  offset="1" style="stop-color:#000024"/>
	</radialGradient>
	<path fill="url(#SVGID_1_)" d="M341.462,147.956c-2.442-12.397-6.019-24.182-10.627-35.025l-0.015-0.035l-0.016-0.035
		c-9.271-22.411-22.075-40.385-38.055-53.423c-9.53-7.617-19.503-13.741-29.812-18.347l-3.604,13.948l-24.973,96.617l53.8,27.852
		l25.737,13.323l-28.922,1.852l-56.226,3.605l-6.055,44.201l-2.966,21.651l-11.785-18.403l-24.616-38.45l-49.819,9.534
		l-23.662,4.527l16.191-17.839l33.938-37.394l-22.75-40.641l-11.079-19.792l21.074,8.385l43.686,17.378l53.889-82.81l7.603-11.681
		c-3.818-1.295-7.676-2.398-11.567-3.283c-18.746-4.284-43.431-6.456-73.379-6.456H40.848v41.76h15.548h7.903v7.904V292.25v7.904
		h-7.903H40.848v41.759h122.767c37.384,0,65.243-1.862,82.8-5.534c16.983-3.525,32.832-11.217,47.115-22.862l0.038-0.032l0.04-0.031
		c14.656-11.64,26.985-28.767,36.652-50.908c9.881-22.502,14.89-47.814,14.89-75.247C345.15,173.628,343.91,160.392,341.462,147.956
		z"/>
	<radialGradient id="SVGID_2_" cx="193" cy="184.5645" r="177.1344" gradientUnits="userSpaceOnUse">
		<stop  offset="0.12" style="stop-color:#22ACF7"/>
		<stop  offset="0.2985" style="stop-color:#1981C2"/>
		<stop  offset="0.5461" style="stop-color:#0F4A7F"/>
		<stop  offset="0.754" style="stop-color:#07224E"/>
		<stop  offset="0.9115" style="stop-color:#02092F"/>
		<stop  offset="1" style="stop-color:#000024"/>
	</radialGradient>
	<path fill="url(#SVGID_2_)" d="M363.103,143.04c-2.786-14.14-6.817-27.424-12.096-39.843
		c-10.702-25.873-25.364-46.397-43.983-61.576c-12.241-9.788-25.015-17.396-38.315-22.854l-3.762,14.552
		c11.347,4.927,22.272,11.576,32.771,19.971c17.098,13.94,30.561,32.789,40.391,56.549c4.849,11.404,8.551,23.604,11.108,36.59
		c2.555,12.991,3.837,26.612,3.837,40.869c0,28.671-5.186,54.807-15.55,78.408c-10.234,23.443-23.228,41.425-38.979,53.937
		c-15.349,12.513-32.182,20.67-50.491,24.471c-18.177,3.803-46.317,5.702-84.418,5.702H32.944V292.25h23.452V76.879H32.944V19.312
		h134.508c30.697,0,55.74,2.22,75.129,6.652c4.827,1.097,9.583,2.482,14.27,4.15l8.298-12.752c-5.949-2.255-12-4.095-18.16-5.495
		c-21.111-4.826-48.381-7.244-81.807-7.244H18.718v86.155h23.97v187.573h-23.97v86.154h142.284c41.489,0,72.13-2.068,91.923-6.21
		c19.937-4.137,38.265-13.021,54.979-26.647c17.152-13.623,31.3-33.201,42.442-58.73c11.288-25.698,16.936-54.158,16.936-85.377
		C367.282,172.017,365.887,157.184,363.103,143.04z"/>
	<path fill="#B8B9BC" d="M387.349,157.317c-2.877-14.604-7.042-28.324-12.492-41.15c-10.554-25.508-23.402-44.532-41.402-59.977
		c11.195,13.01,20.532,28.525,27.999,46.572c5.449,12.827,9.612,26.547,12.491,41.152c2.874,14.609,4.317,29.929,4.317,45.963
		c0,32.246-5.833,61.64-17.49,88.183c-11.512,26.366-26.122,46.588-43.84,60.659c-17.261,14.076-36.191,23.248-56.783,27.523
		c-20.442,4.275-52.093,6.415-94.944,6.415H33.087v11.966h146.959c42.85,0,71.625-2.138,92.068-6.413
		c20.592-4.276,39.523-13.449,56.784-27.523c17.718-14.07,32.33-32.856,43.838-59.222c11.66-26.544,17.49-53.063,17.49-85.31
		C390.228,190.122,390.225,171.928,387.349,157.317z"/>
	<polygon fill="#F01B26" points="221.67,190.677 214.722,241.396 187.168,198.358 131.998,208.916 169.824,167.236 144.247,121.543 
		194.057,141.358 251.542,53.024 224.965,155.852 284.463,186.654 	"/>
</g>
<g>
	<line fill="none" stroke="#F01B26" stroke-width="6" stroke-miterlimit="10" x1="4.473" y1="409.676" x2="404.474" y2="409.676"/>
	<line fill="none" stroke="#F01B26" stroke-width="6" stroke-miterlimit="10" x1="4.473" y1="505.676" x2="404.474" y2="505.676"/>
	<g>
		<path fill="#000024" d="M21.929,542.413c0.119,0.321,0.193,0.576,0.223,0.765c0.03,0.188-0.01,0.329-0.119,0.424
			c-0.109,0.093-0.302,0.151-0.579,0.174s-0.658,0.034-1.143,0.034c-0.505,0-0.898-0.007-1.181-0.02
			c-0.282-0.015-0.497-0.041-0.645-0.081c-0.149-0.041-0.253-0.097-0.312-0.168c-0.06-0.072-0.109-0.166-0.149-0.282l-1.291-3.493
			H9.517L8.3,543.165c-0.04,0.125-0.092,0.23-0.156,0.314c-0.065,0.086-0.169,0.153-0.312,0.203c-0.144,0.048-0.347,0.082-0.609,0.1
			c-0.262,0.019-0.606,0.027-1.032,0.027c-0.455,0-0.811-0.014-1.069-0.041c-0.257-0.026-0.435-0.091-0.534-0.194
			c-0.099-0.103-0.134-0.249-0.104-0.437c0.03-0.188,0.104-0.439,0.223-0.752l5.924-15.421c0.059-0.152,0.128-0.276,0.207-0.369
			c0.08-0.095,0.206-0.166,0.379-0.215c0.173-0.049,0.413-0.08,0.72-0.095c0.307-0.013,0.713-0.021,1.218-0.021
			c0.584,0,1.049,0.008,1.395,0.021c0.347,0.015,0.616,0.046,0.809,0.095c0.193,0.049,0.332,0.123,0.416,0.221
			c0.084,0.099,0.156,0.233,0.215,0.403L21.929,542.413z M13.109,529.665h-0.015l-2.717,7.388h5.449L13.109,529.665z"/>
		<path fill="#000024" d="M41.105,527.798c0,0.26-0.012,0.481-0.037,0.664c-0.025,0.185-0.062,0.333-0.111,0.444
			c-0.05,0.112-0.112,0.194-0.186,0.248c-0.074,0.054-0.156,0.08-0.245,0.08h-4.81v14.011c0,0.09-0.033,0.171-0.097,0.242
			s-0.171,0.129-0.319,0.174c-0.149,0.046-0.349,0.081-0.601,0.108c-0.253,0.027-0.567,0.04-0.943,0.04
			c-0.376,0-0.691-0.013-0.943-0.04s-0.453-0.062-0.601-0.108c-0.149-0.045-0.255-0.103-0.32-0.174
			c-0.064-0.071-0.096-0.152-0.096-0.242v-14.011h-4.81c-0.099,0-0.184-0.026-0.253-0.08c-0.069-0.054-0.129-0.136-0.178-0.248
			c-0.05-0.111-0.087-0.26-0.111-0.444c-0.025-0.183-0.038-0.404-0.038-0.664c0-0.27,0.013-0.497,0.038-0.686
			c0.024-0.188,0.061-0.338,0.111-0.451c0.049-0.11,0.109-0.19,0.178-0.24c0.069-0.05,0.154-0.074,0.253-0.074h13.54
			c0.089,0,0.171,0.024,0.245,0.074c0.074,0.05,0.136,0.13,0.186,0.24c0.049,0.113,0.086,0.264,0.111,0.451
			C41.093,527.301,41.105,527.528,41.105,527.798"/>
		<path fill="#000024" d="M64.454,543.245c0,0.09-0.032,0.17-0.097,0.242c-0.064,0.071-0.17,0.13-0.319,0.174
			c-0.148,0.045-0.346,0.081-0.594,0.108c-0.247,0.026-0.559,0.04-0.935,0.04c-0.386,0-0.705-0.014-0.958-0.04
			c-0.252-0.027-0.45-0.063-0.593-0.108c-0.144-0.044-0.248-0.103-0.312-0.174c-0.065-0.072-0.097-0.152-0.097-0.242v-7.024h-7.186
			v7.024c0,0.09-0.029,0.17-0.089,0.242c-0.059,0.071-0.163,0.13-0.312,0.174c-0.148,0.045-0.346,0.081-0.593,0.108
			c-0.248,0.026-0.565,0.04-0.951,0.04c-0.376,0-0.69-0.014-0.942-0.04c-0.253-0.027-0.453-0.063-0.602-0.108
			c-0.148-0.044-0.255-0.103-0.319-0.174c-0.064-0.072-0.096-0.152-0.096-0.242V526.83c0-0.089,0.032-0.17,0.096-0.242
			c0.064-0.07,0.171-0.13,0.319-0.174c0.149-0.045,0.349-0.081,0.602-0.107c0.252-0.027,0.566-0.04,0.942-0.04
			c0.386,0,0.703,0.013,0.951,0.04c0.247,0.026,0.445,0.062,0.593,0.107c0.149,0.044,0.253,0.104,0.312,0.174
			c0.06,0.072,0.089,0.153,0.089,0.242v6.381h7.186v-6.381c0-0.089,0.032-0.17,0.097-0.242c0.064-0.07,0.168-0.13,0.312-0.174
			c0.143-0.045,0.341-0.081,0.593-0.107c0.253-0.027,0.572-0.04,0.958-0.04c0.376,0,0.688,0.013,0.935,0.04
			c0.248,0.026,0.446,0.062,0.594,0.107c0.149,0.044,0.255,0.104,0.319,0.174c0.065,0.072,0.097,0.153,0.097,0.242V543.245z"/>
		<path fill="#000024" d="M85.278,542.251c0,0.27-0.012,0.495-0.037,0.68c-0.025,0.183-0.062,0.335-0.111,0.457
			c-0.05,0.119-0.112,0.207-0.186,0.261c-0.074,0.054-0.161,0.081-0.26,0.081H75.88c-0.327,0-0.601-0.088-0.824-0.263
			c-0.223-0.175-0.334-0.459-0.334-0.853V526.83c0-0.089,0.032-0.17,0.096-0.242c0.065-0.07,0.171-0.13,0.32-0.174
			c0.148-0.045,0.348-0.081,0.601-0.107c0.252-0.027,0.566-0.04,0.943-0.04c0.386,0,0.702,0.013,0.95,0.04
			c0.247,0.026,0.445,0.062,0.594,0.107c0.148,0.044,0.255,0.104,0.319,0.174c0.064,0.072,0.096,0.153,0.096,0.242v13.984h6.043
			c0.099,0,0.186,0.024,0.26,0.074c0.074,0.049,0.136,0.13,0.186,0.241c0.049,0.112,0.086,0.261,0.111,0.442
			C85.266,541.757,85.278,541.982,85.278,542.251"/>
		<path fill="#000024" d="M105.048,542.346c0,0.26-0.012,0.477-0.037,0.65c-0.025,0.176-0.062,0.316-0.111,0.424
			c-0.05,0.107-0.112,0.187-0.186,0.235c-0.074,0.049-0.156,0.074-0.245,0.074h-9.651c-0.326,0-0.601-0.088-0.824-0.263
			c-0.222-0.175-0.334-0.459-0.334-0.853v-15.153c0-0.394,0.112-0.677,0.334-0.853c0.223-0.174,0.498-0.262,0.824-0.262h9.592
			c0.089,0,0.168,0.022,0.237,0.067c0.069,0.044,0.129,0.123,0.178,0.235c0.05,0.112,0.087,0.255,0.112,0.43
			c0.024,0.174,0.037,0.396,0.037,0.664c0,0.251-0.013,0.464-0.037,0.638c-0.025,0.177-0.062,0.316-0.112,0.425
			c-0.049,0.106-0.109,0.186-0.178,0.234c-0.069,0.049-0.148,0.074-0.237,0.074h-6.86v4.244h5.805c0.09,0,0.171,0.024,0.245,0.074
			c0.075,0.05,0.137,0.126,0.186,0.229c0.049,0.104,0.087,0.242,0.111,0.416c0.025,0.175,0.037,0.387,0.037,0.638
			c0,0.261-0.012,0.476-0.037,0.646c-0.024,0.17-0.062,0.307-0.111,0.409c-0.049,0.104-0.111,0.177-0.186,0.222
			c-0.074,0.045-0.155,0.067-0.245,0.067H97.55v4.902h6.919c0.089,0,0.171,0.025,0.245,0.074c0.074,0.05,0.136,0.128,0.186,0.235
			c0.049,0.107,0.086,0.248,0.111,0.424C105.036,541.868,105.048,542.085,105.048,542.346"/>
		<path fill="#000024" d="M127.357,527.798c0,0.26-0.012,0.481-0.037,0.664c-0.025,0.185-0.062,0.333-0.111,0.444
			c-0.05,0.112-0.112,0.194-0.186,0.248c-0.074,0.054-0.156,0.08-0.245,0.08h-4.81v14.011c0,0.09-0.033,0.171-0.097,0.242
			s-0.171,0.129-0.319,0.174c-0.149,0.046-0.349,0.081-0.601,0.108c-0.253,0.027-0.567,0.04-0.943,0.04s-0.691-0.013-0.943-0.04
			c-0.252-0.027-0.453-0.062-0.601-0.108c-0.149-0.045-0.255-0.103-0.32-0.174c-0.064-0.071-0.096-0.152-0.096-0.242v-14.011h-4.81
			c-0.099,0-0.184-0.026-0.253-0.08c-0.069-0.054-0.129-0.136-0.178-0.248c-0.05-0.111-0.087-0.26-0.111-0.444
			c-0.025-0.183-0.038-0.404-0.038-0.664c0-0.27,0.013-0.497,0.038-0.686c0.024-0.188,0.061-0.338,0.111-0.451
			c0.049-0.11,0.109-0.19,0.178-0.24c0.069-0.05,0.154-0.074,0.253-0.074h13.54c0.089,0,0.171,0.024,0.245,0.074
			c0.074,0.05,0.136,0.13,0.186,0.24c0.049,0.113,0.086,0.264,0.111,0.451C127.345,527.301,127.357,527.528,127.357,527.798"/>
		<path fill="#000024" d="M139.63,543.245c0,0.09-0.032,0.17-0.097,0.242c-0.064,0.071-0.17,0.13-0.319,0.174
			c-0.148,0.045-0.346,0.081-0.594,0.108c-0.247,0.026-0.564,0.04-0.95,0.04c-0.376,0-0.69-0.014-0.943-0.04
			c-0.252-0.027-0.452-0.063-0.601-0.108c-0.148-0.044-0.255-0.103-0.319-0.174c-0.064-0.072-0.097-0.152-0.097-0.242V526.83
			c0-0.089,0.033-0.17,0.097-0.242c0.064-0.07,0.173-0.13,0.327-0.174c0.153-0.045,0.353-0.081,0.601-0.107
			c0.247-0.027,0.559-0.04,0.935-0.04c0.386,0,0.703,0.013,0.95,0.04c0.248,0.026,0.446,0.062,0.594,0.107
			c0.149,0.044,0.255,0.104,0.319,0.174c0.065,0.072,0.097,0.153,0.097,0.242V543.245z"/>
		<path fill="#000024" d="M163.186,541.096c0,0.225-0.007,0.415-0.022,0.571c-0.015,0.157-0.037,0.291-0.067,0.403
			c-0.03,0.111-0.069,0.208-0.119,0.289c-0.049,0.08-0.129,0.173-0.237,0.275c-0.109,0.103-0.32,0.234-0.631,0.396
			c-0.312,0.162-0.693,0.315-1.144,0.464c-0.45,0.146-0.965,0.271-1.544,0.369s-1.205,0.147-1.878,0.147
			c-1.316,0-2.504-0.184-3.563-0.551s-1.96-0.915-2.702-1.646c-0.743-0.729-1.312-1.641-1.708-2.733
			c-0.396-1.092-0.594-2.364-0.594-3.815c0-1.477,0.218-2.788,0.654-3.936c0.435-1.146,1.044-2.109,1.826-2.888
			c0.782-0.779,1.72-1.37,2.813-1.773c1.094-0.403,2.299-0.604,3.616-0.604c0.534,0,1.049,0.04,1.544,0.121
			c0.495,0.079,0.952,0.186,1.373,0.314c0.421,0.131,0.799,0.28,1.136,0.45c0.336,0.17,0.571,0.315,0.705,0.436
			c0.134,0.122,0.225,0.223,0.275,0.304c0.049,0.081,0.089,0.184,0.119,0.309c0.029,0.125,0.051,0.273,0.066,0.443
			c0.015,0.17,0.023,0.381,0.023,0.632c0,0.268-0.01,0.497-0.03,0.685c-0.02,0.188-0.055,0.34-0.104,0.456
			c-0.05,0.117-0.109,0.202-0.178,0.256s-0.149,0.08-0.238,0.08c-0.148,0-0.336-0.078-0.564-0.234s-0.522-0.331-0.883-0.523
			c-0.362-0.193-0.792-0.367-1.292-0.525c-0.5-0.155-1.096-0.234-1.789-0.234c-0.762,0-1.443,0.142-2.042,0.423
			c-0.598,0.283-1.108,0.686-1.529,1.209c-0.42,0.525-0.74,1.158-0.957,1.901c-0.218,0.742-0.327,1.581-0.327,2.512
			c0,1.021,0.116,1.906,0.349,2.653c0.232,0.748,0.564,1.363,0.995,1.847c0.43,0.484,0.95,0.845,1.559,1.081
			c0.608,0.238,1.294,0.355,2.056,0.355c0.693,0,1.292-0.072,1.796-0.222c0.505-0.146,0.938-0.31,1.299-0.49
			c0.362-0.179,0.659-0.34,0.891-0.482c0.233-0.144,0.414-0.215,0.542-0.215c0.099,0,0.178,0.018,0.238,0.054
			c0.059,0.036,0.109,0.106,0.148,0.215c0.04,0.107,0.07,0.258,0.089,0.45C163.176,540.517,163.186,540.774,163.186,541.096"/>
		<path fill="#000024" d="M198.317,541.096c0,0.225-0.008,0.415-0.022,0.571c-0.016,0.157-0.037,0.291-0.067,0.403
			c-0.03,0.111-0.069,0.208-0.119,0.289c-0.049,0.08-0.129,0.173-0.237,0.275c-0.109,0.103-0.319,0.234-0.632,0.396
			c-0.311,0.162-0.693,0.315-1.142,0.464c-0.451,0.146-0.966,0.271-1.544,0.369c-0.58,0.099-1.206,0.147-1.879,0.147
			c-1.316,0-2.504-0.184-3.563-0.551s-1.96-0.915-2.702-1.646c-0.743-0.729-1.312-1.641-1.708-2.733
			c-0.396-1.092-0.594-2.364-0.594-3.815c0-1.477,0.218-2.788,0.654-3.936c0.435-1.146,1.044-2.109,1.826-2.888
			c0.782-0.779,1.719-1.37,2.813-1.773c1.094-0.403,2.299-0.604,3.616-0.604c0.534,0,1.049,0.04,1.544,0.121
			c0.495,0.079,0.952,0.186,1.373,0.314c0.42,0.131,0.799,0.28,1.136,0.45c0.336,0.17,0.572,0.315,0.705,0.436
			c0.134,0.122,0.225,0.223,0.275,0.304c0.049,0.081,0.089,0.184,0.119,0.309c0.029,0.125,0.051,0.273,0.067,0.443
			c0.014,0.17,0.022,0.381,0.022,0.632c0,0.268-0.01,0.497-0.03,0.685c-0.02,0.188-0.055,0.34-0.104,0.456
			c-0.049,0.117-0.109,0.202-0.178,0.256s-0.149,0.08-0.238,0.08c-0.148,0-0.336-0.078-0.564-0.234s-0.523-0.331-0.884-0.523
			c-0.361-0.193-0.792-0.367-1.291-0.525c-0.5-0.155-1.096-0.234-1.789-0.234c-0.762,0-1.443,0.142-2.041,0.423
			c-0.6,0.283-1.11,0.686-1.53,1.209c-0.421,0.525-0.74,1.158-0.957,1.901c-0.218,0.742-0.327,1.581-0.327,2.512
			c0,1.021,0.116,1.906,0.349,2.653c0.232,0.748,0.565,1.363,0.994,1.847c0.432,0.484,0.95,0.845,1.56,1.081
			c0.608,0.238,1.294,0.355,2.056,0.355c0.693,0,1.292-0.072,1.796-0.222c0.505-0.146,0.938-0.31,1.299-0.49
			c0.361-0.179,0.658-0.34,0.891-0.482c0.232-0.144,0.414-0.215,0.542-0.215c0.099,0,0.178,0.018,0.238,0.054
			c0.059,0.036,0.109,0.106,0.148,0.215c0.04,0.107,0.07,0.258,0.089,0.45C198.307,540.517,198.317,540.774,198.317,541.096"/>
		<path fill="#000024" d="M224.265,534.836c0,1.442-0.198,2.731-0.595,3.869c-0.396,1.138-0.984,2.103-1.767,2.895
			c-0.782,0.793-1.75,1.396-2.902,1.813c-1.154,0.416-2.486,0.624-4.002,0.624c-1.494,0-2.798-0.177-3.912-0.53
			c-1.112-0.353-2.041-0.893-2.784-1.618c-0.741-0.726-1.298-1.648-1.671-2.768c-0.37-1.119-0.556-2.444-0.556-3.976
			c0-1.406,0.198-2.671,0.594-3.794c0.396-1.124,0.985-2.081,1.768-2.869c0.781-0.788,1.749-1.392,2.902-1.813
			c1.152-0.421,2.491-0.632,4.017-0.632c1.455,0,2.737,0.175,3.853,0.524c1.112,0.35,2.043,0.887,2.791,1.612
			c0.746,0.726,1.312,1.642,1.693,2.747C224.073,532.027,224.265,533.331,224.265,534.836 M220.166,535.024
			c0-0.913-0.079-1.744-0.238-2.491c-0.157-0.748-0.428-1.388-0.808-1.922c-0.382-0.532-0.889-0.944-1.523-1.236
			c-0.633-0.29-1.425-0.436-2.375-0.436c-0.96,0-1.762,0.164-2.404,0.49c-0.645,0.328-1.163,0.764-1.56,1.31
			c-0.396,0.546-0.676,1.186-0.839,1.914c-0.164,0.73-0.245,1.502-0.245,2.317c0,0.949,0.079,1.803,0.238,2.56
			c0.158,0.756,0.425,1.403,0.801,1.94c0.376,0.538,0.881,0.946,1.516,1.229c0.633,0.281,1.43,0.423,2.39,0.423
			s1.762-0.162,2.405-0.483c0.644-0.322,1.163-0.762,1.559-1.316c0.396-0.556,0.675-1.202,0.84-1.941
			C220.084,536.644,220.166,535.857,220.166,535.024"/>
		<path fill="#000024" d="M249.468,542.493c0,0.206-0.04,0.39-0.118,0.551c-0.079,0.161-0.187,0.295-0.318,0.403
			c-0.135,0.106-0.293,0.186-0.477,0.234c-0.184,0.05-0.368,0.074-0.557,0.074h-1.663c-0.346,0-0.646-0.032-0.896-0.094
			c-0.254-0.063-0.486-0.177-0.699-0.343c-0.213-0.165-0.418-0.39-0.616-0.672c-0.198-0.281-0.421-0.647-0.668-1.095l-4.781-8.127
			c-0.276-0.483-0.559-1.005-0.846-1.564s-0.544-1.104-0.771-1.632h-0.03c0.04,0.645,0.069,1.287,0.089,1.928
			c0.02,0.64,0.03,1.3,0.03,1.98v9.095c0,0.089-0.028,0.17-0.081,0.241c-0.057,0.071-0.149,0.133-0.283,0.182
			c-0.133,0.05-0.314,0.087-0.542,0.114c-0.228,0.026-0.52,0.039-0.876,0.039c-0.346,0-0.633-0.013-0.861-0.039
			c-0.227-0.027-0.406-0.064-0.534-0.114c-0.129-0.049-0.218-0.11-0.268-0.182c-0.049-0.071-0.074-0.152-0.074-0.241v-15.623
			c0-0.42,0.136-0.736,0.409-0.947c0.271-0.21,0.606-0.315,1.002-0.315h2.093c0.376,0,0.693,0.029,0.95,0.087
			c0.258,0.06,0.487,0.155,0.69,0.289c0.203,0.135,0.394,0.32,0.571,0.558c0.18,0.237,0.362,0.531,0.551,0.88l3.74,6.354
			c0.219,0.386,0.434,0.765,0.646,1.136c0.212,0.372,0.418,0.743,0.616,1.113c0.197,0.373,0.391,0.737,0.579,1.097
			c0.188,0.357,0.37,0.716,0.549,1.073h0.015c-0.029-0.627-0.052-1.279-0.066-1.961c-0.016-0.68-0.022-1.33-0.022-1.947v-8.153
			c0-0.09,0.03-0.171,0.089-0.242c0.061-0.072,0.159-0.135,0.297-0.188c0.14-0.055,0.322-0.093,0.55-0.114
			c0.228-0.022,0.52-0.034,0.876-0.034c0.336,0,0.618,0.012,0.847,0.034c0.228,0.021,0.402,0.06,0.525,0.114
			c0.124,0.053,0.211,0.115,0.262,0.188c0.049,0.071,0.073,0.152,0.073,0.242V542.493z"/>
		<path fill="#000024" d="M270.516,527.798c0,0.269-0.014,0.495-0.037,0.679c-0.025,0.183-0.065,0.328-0.118,0.436
			c-0.056,0.107-0.117,0.188-0.187,0.242s-0.148,0.08-0.237,0.08h-6.28v4.675h5.894c0.09,0,0.168,0.022,0.237,0.067
			c0.07,0.045,0.131,0.121,0.188,0.228c0.053,0.108,0.093,0.251,0.117,0.431c0.024,0.179,0.037,0.402,0.037,0.672
			c0,0.269-0.013,0.492-0.037,0.672c-0.024,0.179-0.064,0.326-0.117,0.443c-0.057,0.115-0.117,0.199-0.188,0.249
			c-0.069,0.049-0.147,0.072-0.237,0.072h-5.894v6.476c0,0.098-0.03,0.183-0.089,0.255c-0.061,0.072-0.167,0.133-0.32,0.182
			c-0.154,0.049-0.353,0.087-0.601,0.114c-0.247,0.027-0.564,0.04-0.95,0.04c-0.376,0-0.69-0.013-0.943-0.04
			c-0.252-0.027-0.453-0.065-0.601-0.114c-0.149-0.049-0.256-0.109-0.32-0.182c-0.063-0.072-0.096-0.157-0.096-0.255v-15.757
			c0-0.395,0.112-0.679,0.334-0.854c0.223-0.174,0.498-0.262,0.824-0.262h9.042c0.089,0,0.168,0.024,0.237,0.074
			s0.131,0.13,0.187,0.24c0.053,0.113,0.093,0.264,0.118,0.451C270.502,527.301,270.516,527.528,270.516,527.798"/>
		<path fill="#000024" d="M291.161,542.346c0,0.26-0.013,0.477-0.038,0.65c-0.023,0.176-0.061,0.316-0.109,0.424
			c-0.05,0.107-0.111,0.187-0.188,0.235c-0.072,0.049-0.154,0.074-0.244,0.074h-9.65c-0.326,0-0.601-0.088-0.824-0.263
			c-0.222-0.175-0.334-0.459-0.334-0.853v-15.153c0-0.394,0.112-0.677,0.334-0.853c0.224-0.174,0.498-0.262,0.824-0.262h9.592
			c0.089,0,0.168,0.022,0.237,0.067c0.068,0.044,0.129,0.123,0.178,0.235c0.05,0.112,0.086,0.255,0.112,0.43
			c0.023,0.174,0.037,0.396,0.037,0.664c0,0.251-0.014,0.464-0.037,0.638c-0.026,0.177-0.062,0.316-0.112,0.425
			c-0.049,0.106-0.109,0.186-0.178,0.234c-0.069,0.049-0.148,0.074-0.237,0.074h-6.86v4.244h5.806c0.09,0,0.171,0.024,0.246,0.074
			c0.072,0.05,0.136,0.126,0.185,0.229c0.05,0.104,0.086,0.242,0.112,0.416c0.023,0.175,0.036,0.387,0.036,0.638
			c0,0.261-0.013,0.476-0.036,0.646c-0.026,0.17-0.062,0.307-0.112,0.409c-0.049,0.104-0.112,0.177-0.185,0.222
			c-0.075,0.045-0.156,0.067-0.246,0.067h-5.806v4.902h6.919c0.09,0,0.172,0.025,0.244,0.074c0.076,0.05,0.138,0.128,0.188,0.235
			c0.049,0.107,0.086,0.248,0.109,0.424C291.148,541.868,291.161,542.085,291.161,542.346"/>
		<path fill="#000024" d="M314.94,543.272c0,0.099-0.021,0.181-0.06,0.249c-0.04,0.065-0.134,0.123-0.281,0.167
			c-0.149,0.045-0.367,0.077-0.654,0.094c-0.287,0.018-0.678,0.027-1.173,0.027c-0.415,0-0.747-0.01-0.994-0.027
			c-0.248-0.017-0.444-0.051-0.586-0.1c-0.146-0.05-0.246-0.112-0.305-0.188c-0.06-0.076-0.109-0.168-0.149-0.276l-1.722-3.882
			c-0.208-0.438-0.411-0.828-0.609-1.168c-0.198-0.341-0.418-0.626-0.66-0.853c-0.243-0.229-0.521-0.401-0.839-0.519
			c-0.317-0.115-0.683-0.174-1.099-0.174h-1.217v6.622c0,0.09-0.033,0.17-0.098,0.242s-0.17,0.13-0.318,0.175
			c-0.148,0.044-0.347,0.08-0.595,0.107c-0.247,0.026-0.563,0.04-0.95,0.04c-0.376,0-0.69-0.014-0.941-0.04
			c-0.254-0.027-0.454-0.063-0.603-0.107c-0.148-0.045-0.253-0.103-0.312-0.175s-0.089-0.152-0.089-0.242v-15.783
			c0-0.394,0.111-0.678,0.334-0.854c0.223-0.174,0.497-0.262,0.824-0.262h4.974c0.505,0,0.92,0.01,1.247,0.027
			s0.624,0.04,0.891,0.067c0.772,0.098,1.467,0.268,2.086,0.51c0.618,0.242,1.144,0.558,1.574,0.947
			c0.43,0.39,0.759,0.851,0.987,1.384c0.228,0.533,0.341,1.144,0.341,1.833c0,0.582-0.081,1.113-0.245,1.592
			c-0.162,0.48-0.403,0.907-0.72,1.283s-0.707,0.703-1.173,0.98c-0.465,0.277-0.994,0.501-1.588,0.672
			c0.286,0.126,0.557,0.277,0.808,0.457c0.254,0.179,0.491,0.396,0.713,0.651c0.224,0.254,0.434,0.546,0.632,0.872
			c0.198,0.328,0.392,0.697,0.579,1.109l1.618,3.425c0.148,0.34,0.247,0.589,0.297,0.746
			C314.915,543.061,314.94,543.183,314.94,543.272 M309.907,531.479c0-0.573-0.144-1.058-0.431-1.451
			c-0.287-0.395-0.757-0.671-1.41-0.833c-0.198-0.044-0.424-0.08-0.675-0.107c-0.253-0.026-0.603-0.04-1.047-0.04h-1.752v4.931
			h1.988c0.556,0,1.04-0.062,1.455-0.182c0.416-0.122,0.762-0.291,1.04-0.511c0.277-0.219,0.485-0.482,0.623-0.786
			C309.838,532.194,309.907,531.854,309.907,531.479"/>
		<path fill="#000024" d="M335.274,542.346c0,0.26-0.013,0.477-0.037,0.65c-0.024,0.176-0.062,0.316-0.11,0.424
			c-0.05,0.107-0.111,0.187-0.188,0.235c-0.072,0.049-0.154,0.074-0.243,0.074h-9.651c-0.326,0-0.6-0.088-0.824-0.263
			c-0.222-0.175-0.334-0.459-0.334-0.853v-15.153c0-0.394,0.112-0.677,0.334-0.853c0.225-0.174,0.498-0.262,0.824-0.262h9.592
			c0.089,0,0.168,0.022,0.237,0.067c0.068,0.044,0.129,0.123,0.178,0.235c0.05,0.112,0.086,0.255,0.112,0.43
			c0.023,0.174,0.037,0.396,0.037,0.664c0,0.251-0.014,0.464-0.037,0.638c-0.026,0.177-0.062,0.316-0.112,0.425
			c-0.049,0.106-0.109,0.186-0.178,0.234c-0.069,0.049-0.148,0.074-0.237,0.074h-6.86v4.244h5.806c0.09,0,0.171,0.024,0.246,0.074
			c0.072,0.05,0.136,0.126,0.185,0.229c0.05,0.104,0.086,0.242,0.112,0.416c0.023,0.175,0.036,0.387,0.036,0.638
			c0,0.261-0.013,0.476-0.036,0.646c-0.026,0.17-0.062,0.307-0.112,0.409c-0.049,0.104-0.112,0.177-0.185,0.222
			c-0.075,0.045-0.156,0.067-0.246,0.067h-5.806v4.902h6.92c0.089,0,0.171,0.025,0.243,0.074c0.076,0.05,0.138,0.128,0.188,0.235
			c0.049,0.107,0.086,0.248,0.11,0.424C335.262,541.868,335.274,542.085,335.274,542.346"/>
		<path fill="#000024" d="M360.643,542.493c0,0.206-0.04,0.39-0.119,0.551s-0.186,0.295-0.318,0.403
			c-0.135,0.106-0.293,0.186-0.476,0.234c-0.184,0.05-0.369,0.074-0.557,0.074h-1.663c-0.347,0-0.646-0.032-0.897-0.094
			c-0.254-0.063-0.486-0.177-0.699-0.343c-0.213-0.165-0.418-0.39-0.615-0.672c-0.198-0.281-0.422-0.647-0.668-1.095l-4.781-8.127
			c-0.277-0.483-0.56-1.005-0.846-1.564c-0.287-0.56-0.545-1.104-0.772-1.632h-0.03c0.04,0.645,0.07,1.287,0.089,1.928
			c0.021,0.64,0.03,1.3,0.03,1.98v9.095c0,0.089-0.028,0.17-0.081,0.241c-0.056,0.071-0.148,0.133-0.283,0.182
			c-0.133,0.05-0.313,0.087-0.542,0.114c-0.227,0.026-0.519,0.039-0.876,0.039c-0.346,0-0.633-0.013-0.86-0.039
			c-0.228-0.027-0.406-0.064-0.534-0.114c-0.129-0.049-0.218-0.11-0.268-0.182s-0.074-0.152-0.074-0.241v-15.623
			c0-0.42,0.136-0.736,0.409-0.947c0.271-0.21,0.605-0.315,1.002-0.315h2.093c0.376,0,0.692,0.029,0.95,0.087
			c0.258,0.06,0.486,0.155,0.689,0.289c0.203,0.135,0.395,0.32,0.572,0.558c0.179,0.237,0.362,0.531,0.55,0.88l3.741,6.354
			c0.218,0.386,0.433,0.765,0.646,1.136c0.212,0.372,0.418,0.743,0.616,1.113c0.198,0.373,0.392,0.737,0.579,1.097
			c0.188,0.357,0.371,0.716,0.55,1.073h0.015c-0.029-0.627-0.053-1.279-0.066-1.961c-0.016-0.68-0.023-1.33-0.023-1.947v-8.153
			c0-0.09,0.03-0.171,0.09-0.242c0.06-0.072,0.158-0.135,0.297-0.188c0.139-0.055,0.321-0.093,0.55-0.114
			c0.227-0.022,0.519-0.034,0.876-0.034c0.336,0,0.618,0.012,0.846,0.034c0.229,0.021,0.403,0.06,0.526,0.114
			c0.124,0.053,0.211,0.115,0.261,0.188c0.049,0.071,0.074,0.152,0.074,0.242V542.493z"/>
		<path fill="#000024" d="M384.198,541.096c0,0.225-0.008,0.415-0.021,0.571c-0.016,0.157-0.037,0.291-0.067,0.403
			c-0.029,0.111-0.068,0.208-0.119,0.289c-0.049,0.08-0.129,0.173-0.236,0.275c-0.109,0.103-0.319,0.234-0.632,0.396
			c-0.312,0.162-0.693,0.315-1.143,0.464c-0.451,0.146-0.966,0.271-1.544,0.369c-0.58,0.099-1.206,0.147-1.879,0.147
			c-1.316,0-2.504-0.184-3.563-0.551c-1.059-0.367-1.96-0.915-2.701-1.646c-0.743-0.729-1.312-1.641-1.708-2.733
			c-0.396-1.092-0.595-2.364-0.595-3.815c0-1.477,0.219-2.788,0.654-3.936c0.436-1.146,1.044-2.109,1.826-2.888
			c0.782-0.779,1.719-1.37,2.812-1.773c1.095-0.403,2.3-0.604,3.616-0.604c0.534,0,1.049,0.04,1.544,0.121
			c0.495,0.079,0.952,0.186,1.373,0.314c0.42,0.131,0.799,0.28,1.137,0.45c0.336,0.17,0.571,0.315,0.704,0.436
			c0.135,0.122,0.226,0.223,0.275,0.304c0.049,0.081,0.089,0.184,0.119,0.309c0.029,0.125,0.051,0.273,0.066,0.443
			c0.015,0.17,0.022,0.381,0.022,0.632c0,0.268-0.01,0.497-0.03,0.685c-0.02,0.188-0.055,0.34-0.104,0.456
			c-0.049,0.117-0.109,0.202-0.178,0.256c-0.069,0.054-0.149,0.08-0.238,0.08c-0.148,0-0.336-0.078-0.564-0.234
			c-0.228-0.156-0.522-0.331-0.884-0.523c-0.361-0.193-0.792-0.367-1.291-0.525c-0.5-0.155-1.096-0.234-1.789-0.234
			c-0.762,0-1.443,0.142-2.041,0.423c-0.6,0.283-1.109,0.686-1.53,1.209c-0.421,0.525-0.739,1.158-0.957,1.901
			c-0.218,0.742-0.326,1.581-0.326,2.512c0,1.021,0.115,1.906,0.349,2.653c0.232,0.748,0.565,1.363,0.994,1.847
			c0.432,0.484,0.95,0.845,1.56,1.081c0.608,0.238,1.294,0.355,2.057,0.355c0.692,0,1.292-0.072,1.796-0.222
			c0.505-0.146,0.938-0.31,1.299-0.49c0.361-0.179,0.658-0.34,0.891-0.482c0.232-0.144,0.414-0.215,0.542-0.215
			c0.1,0,0.179,0.018,0.238,0.054c0.059,0.036,0.109,0.106,0.148,0.215c0.04,0.107,0.069,0.258,0.089,0.45
			S384.198,540.774,384.198,541.096"/>
		<path fill="#000024" d="M404.474,542.346c0,0.26-0.013,0.477-0.038,0.65c-0.023,0.176-0.061,0.316-0.109,0.424
			c-0.051,0.107-0.111,0.187-0.188,0.235c-0.073,0.049-0.155,0.074-0.244,0.074h-9.65c-0.326,0-0.601-0.088-0.824-0.263
			c-0.222-0.175-0.334-0.459-0.334-0.853v-15.153c0-0.394,0.112-0.677,0.334-0.853c0.224-0.174,0.498-0.262,0.824-0.262h9.592
			c0.089,0,0.168,0.022,0.237,0.067c0.068,0.044,0.129,0.123,0.178,0.235c0.05,0.112,0.086,0.255,0.111,0.43
			c0.024,0.174,0.037,0.396,0.037,0.664c0,0.251-0.013,0.464-0.037,0.638c-0.025,0.177-0.062,0.316-0.111,0.425
			c-0.049,0.106-0.109,0.186-0.178,0.234c-0.069,0.049-0.148,0.074-0.237,0.074h-6.86v4.244h5.805c0.091,0,0.172,0.024,0.246,0.074
			c0.073,0.05,0.137,0.126,0.186,0.229c0.049,0.104,0.086,0.242,0.112,0.416c0.023,0.175,0.035,0.387,0.035,0.638
			c0,0.261-0.012,0.476-0.035,0.646c-0.026,0.17-0.063,0.307-0.112,0.409c-0.049,0.104-0.112,0.177-0.186,0.222
			c-0.074,0.045-0.155,0.067-0.246,0.067h-5.805v4.902h6.919c0.089,0,0.171,0.025,0.244,0.074c0.076,0.05,0.137,0.128,0.188,0.235
			c0.049,0.107,0.086,0.248,0.109,0.424C404.461,541.868,404.474,542.085,404.474,542.346"/>
	</g>
	<g>
		<g>
			<defs>
				<polygon id="SVGID_5_" points="4.473,430.221 4.473,453.354 12.716,453.354 12.716,443.365 17.769,443.365 17.769,471.986 
					13.979,471.986 13.979,485.131 38.644,485.131 38.644,471.986 34.759,471.986 34.759,443.365 39.781,443.365 39.781,453.354 
					48.024,453.354 48.024,430.221 				"/>
			</defs>
			<use xlink:href="#SVGID_5_"  overflow="visible" fill="#000024"/>
			<clipPath id="SVGID_3_">
				<use xlink:href="#SVGID_5_"  overflow="visible"/>
			</clipPath>
		</g>
		<g>
			<defs>
				<polygon id="SVGID_7_" points="82.675,430.221 82.675,443.365 85.518,443.365 85.518,451.734 75.349,451.734 75.349,443.365 
					78.159,443.365 78.159,430.221 54.979,430.221 54.979,443.365 58.357,443.365 58.357,471.986 55.042,471.986 55.042,485.131 
					78.159,485.131 78.159,471.986 75.349,471.986 75.349,462.986 85.518,462.986 85.518,471.986 82.675,471.986 82.675,485.131 
					105.824,485.131 105.824,471.986 102.509,471.986 102.509,443.365 105.824,443.365 105.824,430.221 				"/>
			</defs>
			<use xlink:href="#SVGID_7_"  overflow="visible" fill="#000024"/>
			<clipPath id="SVGID_4_">
				<use xlink:href="#SVGID_7_"  overflow="visible"/>
			</clipPath>
		</g>
		<g>
			<defs>
				<polygon id="SVGID_9_" points="113.221,430.221 113.221,443.365 116.695,443.365 116.695,471.986 113.284,471.986 
					113.284,485.131 155.193,485.131 155.193,467.564 143.667,467.564 143.667,471.986 133.686,471.986 133.686,462.986 
					142.371,462.986 142.371,451.814 133.686,451.814 133.686,443.365 143.667,443.365 143.667,447.787 155.193,447.787 
					155.193,430.221 				"/>
			</defs>
			<use xlink:href="#SVGID_9_"  overflow="visible" fill="#000024"/>
			<clipPath id="SVGID_6_">
				<use xlink:href="#SVGID_9_"  overflow="visible"/>
			</clipPath>
		</g>
		<g>
			<defs>
				<path id="SVGID_11_" d="M202.01,443.365h0.631c3.37,0,5.706,0.646,7.011,1.934c1.327,1.291,2.254,3.119,2.779,5.488
					c0.506,2.369,0.759,4.764,0.759,7.186c0,4.025-0.591,7.369-1.769,10.027c-1.2,2.658-3.801,3.986-7.802,3.986h-1.61V443.365z
					 M181.576,430.221v13.145h3.443v28.621h-3.443v13.145h20.434c5.958,0,10.359-0.314,13.201-0.945
					c2.863-0.631,5.496-1.988,7.896-4.066c2.463-2.08,4.495-5.066,6.097-8.961c1.621-3.922,2.432-8.264,2.432-13.029
					c0-2.367-0.201-4.631-0.601-6.789c-0.4-2.156-0.979-4.184-1.737-6.08c-1.537-3.947-3.644-7.078-6.316-9.395
					c-2.694-2.289-5.568-3.803-8.622-4.539c-3.031-0.738-6.947-1.105-11.749-1.105H181.576z"/>
			</defs>
			<use xlink:href="#SVGID_11_"  overflow="visible" fill="#000024"/>
			<clipPath id="SVGID_8_">
				<use xlink:href="#SVGID_11_"  overflow="visible"/>
			</clipPath>
		</g>
		<g>
			<defs>
				<path id="SVGID_13_" d="M256.811,444.154l3.728,15.199h-7.864L256.811,444.154z M243.325,430.221v13.145h3.537l-8.242,28.621
					h-3.349v13.145h17.402v-12.039h-3.6l1.926-6.908h11.243l1.674,6.908h-3.854v12.039h22.929v-13.145h-3.222l-8.4-28.621h3.537
					v-13.145H243.325z"/>
			</defs>
			<use xlink:href="#SVGID_13_"  overflow="visible" fill="#000024"/>
			<clipPath id="SVGID_10_">
				<use xlink:href="#SVGID_13_"  overflow="visible"/>
			</clipPath>
		</g>
		<g>
			<defs>
				<polygon id="SVGID_15_" points="287.578,430.221 287.578,443.365 291.62,443.365 291.62,471.986 287.578,471.986 
					287.578,485.131 312.622,485.131 312.622,471.986 308.61,471.986 308.61,443.365 312.622,443.365 312.622,430.221 				"/>
			</defs>
			<use xlink:href="#SVGID_15_"  overflow="visible" fill="#000024"/>
			<clipPath id="SVGID_12_">
				<use xlink:href="#SVGID_15_"  overflow="visible"/>
			</clipPath>
		</g>
		<g>
			<defs>
				<polygon id="SVGID_17_" points="318.85,430.221 318.85,443.365 322.797,443.365 322.797,471.986 318.85,471.986 318.85,485.131 
					360.664,485.131 360.664,463.184 350.179,463.184 350.179,471.986 339.788,471.986 339.788,443.365 343.957,443.365 
					343.957,430.221 				"/>
			</defs>
			<use xlink:href="#SVGID_17_"  overflow="visible" fill="#000024"/>
			<clipPath id="SVGID_14_">
				<use xlink:href="#SVGID_17_"  overflow="visible"/>
			</clipPath>
		</g>
		<g>
			<defs>
				<polygon id="SVGID_19_" points="387.577,430.221 387.577,443.365 390.262,443.365 384.608,454.576 379.935,443.365 
					382.556,443.365 382.556,430.221 359.596,430.221 359.596,443.365 362.597,443.365 373.682,463.262 373.682,471.986 
					370.144,471.986 370.144,485.131 394.146,485.131 394.146,471.986 390.673,471.986 390.673,463.262 401.726,443.365 
					404.474,443.365 404.474,430.221 				"/>
			</defs>
			<use xlink:href="#SVGID_19_"  overflow="visible" fill="#000024"/>
			<clipPath id="SVGID_16_">
				<use xlink:href="#SVGID_19_"  overflow="visible"/>
			</clipPath>
		</g>
	</g>
</g>
</svg>
