<?xml version="1.0" encoding="utf-8"?>
<!-- Generator: Adobe Illustrator 16.0.4, SVG Export Plug-In . SVG Version: 6.00 Build 0)  -->
<!DOCTYPE svg PUBLIC "-//W3C//DTD SVG 1.1//EN" "http://www.w3.org/Graphics/SVG/1.1/DTD/svg11.dtd">
<svg version="1.1" id="Layer_1" xmlns="http://www.w3.org/2000/svg" xmlns:xlink="http://www.w3.org/1999/xlink" x="0px" y="0px"
	 width="500.422px" height="146.993px" viewBox="0 0 500.422 146.993" enable-background="new 0 0 500.422 146.993"
	 xml:space="preserve">
<g>
	<radialGradient id="SVGID_1_" cx="793.9521" cy="-0.8491" r="107.7066" gradientUnits="userSpaceOnUse">
		<stop  offset="0.12" style="stop-color:#22ACF7"/>
		<stop  offset="0.2985" style="stop-color:#1981C2"/>
		<stop  offset="0.5461" style="stop-color:#0F4A7F"/>
		<stop  offset="0.754" style="stop-color:#07224E"/>
		<stop  offset="0.9115" style="stop-color:#02092F"/>
		<stop  offset="1" style="stop-color:#000024"/>
	</radialGradient>
	<path fill="url(#SVGID_1_)" d="M897.269-26.325c-1.699-8.627-4.188-16.829-7.395-24.374l-0.012-0.024l-0.01-0.024
		c-6.451-15.596-15.361-28.104-26.482-37.177c-6.634-5.301-13.573-9.562-20.746-12.768l-2.51,9.707L822.736-23.75l37.44,19.382
		l17.91,9.272L857.96,6.192l-39.127,2.509l-4.215,30.759l-2.064,15.067l-8.2-12.808l-17.131-26.757l-34.669,6.635l-16.467,3.15
		l11.268-12.415l23.617-26.022L755.14-41.971l-7.711-13.773l14.666,5.835l30.401,12.094l37.503-57.628l5.29-8.128
		c-2.657-0.901-5.341-1.669-8.051-2.285c-13.045-2.981-30.224-4.493-51.064-4.493h-88.104v29.061h10.82h5.5v5.5V74.09v5.5h-5.5
		h-10.82v29.061h85.434c26.016,0,45.402-1.295,57.623-3.852c11.818-2.453,22.847-7.806,32.787-15.91l0.027-0.022l0.027-0.022
		c10.198-8.1,18.779-20.019,25.506-35.427c6.877-15.659,10.361-33.273,10.361-52.365C899.835-8.459,898.972-17.671,897.269-26.325z"
		/>
	<radialGradient id="SVGID_2_" cx="793.9521" cy="-0.8486" r="123.2689" gradientUnits="userSpaceOnUse">
		<stop  offset="0.12" style="stop-color:#22ACF7"/>
		<stop  offset="0.2985" style="stop-color:#1981C2"/>
		<stop  offset="0.5461" style="stop-color:#0F4A7F"/>
		<stop  offset="0.754" style="stop-color:#07224E"/>
		<stop  offset="0.9115" style="stop-color:#02092F"/>
		<stop  offset="1" style="stop-color:#000024"/>
	</radialGradient>
	<path fill="url(#SVGID_2_)" d="M912.329-29.746c-1.939-9.84-4.744-19.085-8.418-27.727c-7.448-18.005-17.651-32.288-30.607-42.851
		c-8.52-6.812-17.409-12.106-26.665-15.904l-2.617,10.127c7.896,3.429,15.499,8.056,22.805,13.898
		c11.898,9.701,21.269,22.818,28.108,39.353c3.374,7.937,5.95,16.426,7.73,25.463c1.779,9.04,2.67,18.519,2.67,28.44
		c0,19.953-3.607,38.141-10.821,54.565c-7.122,16.315-16.163,28.828-27.126,37.534c-10.682,8.708-22.395,14.385-35.137,17.03
		c-12.648,2.646-32.232,3.969-58.748,3.969h-90.934V74.09h16.32V-75.788h-16.32v-40.061h93.604c21.362,0,38.79,1.545,52.283,4.629
		c3.358,0.763,6.669,1.727,9.93,2.888l5.776-8.875c-4.142-1.569-8.353-2.85-12.639-3.824c-14.692-3.358-33.67-5.041-56.932-5.041
		H672.669v59.956h16.682V64.418h-16.682v59.956h99.017c28.872,0,50.196-1.44,63.97-4.321c13.875-2.88,26.629-9.062,38.26-18.544
		c11.938-9.481,21.783-23.106,29.537-40.871c7.855-17.884,11.784-37.689,11.784-59.415C915.236-9.581,914.266-19.903,912.329-29.746
		z"/>
	<path opacity="0.75" fill="#CCCCCC" d="M929.202-19.81c-2.003-10.163-4.9-19.711-8.694-28.637
		c-7.343-17.751-16.286-30.989-28.812-41.738c7.79,9.054,14.288,19.851,19.483,32.41c3.794,8.927,6.69,18.475,8.694,28.638
		c2,10.167,3.003,20.828,3.003,31.986c0,22.44-4.058,42.896-12.171,61.367c-8.01,18.348-18.179,32.42-30.508,42.213
		c-12.013,9.795-25.186,16.178-39.517,19.153c-14.226,2.976-36.251,4.464-66.071,4.464h-91.941v8.328h102.27
		c29.82,0,49.846-1.488,64.072-4.463c14.33-2.977,27.504-9.359,39.516-19.154c12.33-9.792,22.498-22.865,30.508-41.213
		c8.113-18.472,12.171-36.927,12.171-59.367C931.205,3.019,931.202-9.643,929.202-19.81z"/>
	<polygon fill="#F01B26" points="813.905,3.405 809.069,38.701 789.895,8.75 751.501,16.097 777.825,-12.908 760.025,-44.706 
		794.688,-30.916 834.692,-92.388 816.197,-20.83 857.603,0.605 	"/>
</g>
<g>
	<radialGradient id="SVGID_3_" cx="-422.0957" cy="13.022" r="154.7718" gradientUnits="userSpaceOnUse">
		<stop  offset="0.12" style="stop-color:#22ACF7"/>
		<stop  offset="0.2985" style="stop-color:#1981C2"/>
		<stop  offset="0.5461" style="stop-color:#0F4A7F"/>
		<stop  offset="0.754" style="stop-color:#07224E"/>
		<stop  offset="0.9115" style="stop-color:#02092F"/>
		<stop  offset="1" style="stop-color:#000024"/>
	</radialGradient>
	<path fill="url(#SVGID_3_)" d="M-273.633-23.587c-2.442-12.397-6.019-24.182-10.627-35.025l-0.015-0.035l-0.016-0.035
		c-9.271-22.411-22.075-40.385-38.055-53.423c-9.53-7.617-19.503-13.741-29.812-18.347l-3.604,13.948l-24.973,96.617l53.8,27.852
		l25.737,13.323l-28.922,1.852l-56.226,3.605l-6.055,44.201l-2.966,21.651l-11.785-18.403l-24.616-38.45l-49.819,9.534
		l-23.662,4.527l16.191-17.839l33.938-37.394l-22.75-40.641l-11.079-19.792l21.074,8.385l43.686,17.378l53.889-82.81l7.603-11.681
		c-3.818-1.295-7.676-2.398-11.567-3.283c-18.746-4.284-43.431-6.456-73.379-6.456h-126.604v41.76h15.548h7.903v7.904v215.371v7.904
		h-7.903h-15.548v41.759h122.767c37.384,0,65.243-1.862,82.8-5.534c16.983-3.525,32.832-11.217,47.115-22.862l0.038-0.032
		l0.04-0.031c14.656-11.64,26.985-28.767,36.652-50.908c9.881-22.502,14.89-47.814,14.89-75.247
		C-269.944,2.085-271.185-11.15-273.633-23.587z"/>
	<radialGradient id="SVGID_4_" cx="-422.0947" cy="13.022" r="177.1344" gradientUnits="userSpaceOnUse">
		<stop  offset="0.12" style="stop-color:#22ACF7"/>
		<stop  offset="0.2985" style="stop-color:#1981C2"/>
		<stop  offset="0.5461" style="stop-color:#0F4A7F"/>
		<stop  offset="0.754" style="stop-color:#07224E"/>
		<stop  offset="0.9115" style="stop-color:#02092F"/>
		<stop  offset="1" style="stop-color:#000024"/>
	</radialGradient>
	<path fill="url(#SVGID_4_)" d="M-251.992-28.503c-2.786-14.14-6.817-27.424-12.096-39.843
		c-10.702-25.873-25.364-46.397-43.983-61.576c-12.241-9.788-25.015-17.396-38.315-22.854l-3.762,14.552
		c11.347,4.927,22.272,11.576,32.771,19.971c17.098,13.94,30.561,32.789,40.391,56.549c4.849,11.404,8.551,23.604,11.108,36.59
		c2.555,12.991,3.837,26.612,3.837,40.869c0,28.671-5.186,54.807-15.55,78.408c-10.234,23.443-23.228,41.425-38.979,53.937
		c-15.349,12.513-32.182,20.67-50.491,24.471c-18.177,3.803-46.317,5.702-84.418,5.702h-130.67v-57.565h23.452V-94.663h-23.452
		v-57.567h134.508c30.697,0,55.74,2.22,75.129,6.652c4.827,1.097,9.583,2.482,14.27,4.15l8.298-12.752
		c-5.949-2.255-12-4.095-18.16-5.495c-21.111-4.826-48.381-7.244-81.807-7.244h-146.463v86.155h23.97v187.573h-23.97v86.154h142.284
		c41.489,0,72.13-2.068,91.923-6.21c19.937-4.137,38.265-13.021,54.979-26.647c17.152-13.623,31.3-33.201,42.442-58.73
		c11.288-25.698,16.936-54.158,16.936-85.377C-247.812,0.474-249.208-14.359-251.992-28.503z"/>
	<path fill="#B8B9BC" d="M-227.746-14.225c-2.877-14.604-7.042-28.324-12.492-41.15c-10.554-25.508-23.402-44.532-41.402-59.977
		c11.195,13.01,20.532,28.525,27.999,46.572c5.449,12.827,9.612,26.547,12.491,41.152c2.874,14.609,4.317,29.929,4.317,45.963
		c0,32.246-5.833,61.64-17.49,88.183c-11.512,26.366-26.122,46.588-43.84,60.659c-17.261,14.076-36.191,23.248-56.783,27.523
		c-20.442,4.275-52.093,6.415-94.944,6.415h-132.117v11.966h146.959c42.85,0,71.625-2.138,92.068-6.413
		c20.592-4.276,39.523-13.449,56.784-27.523c17.718-14.07,32.33-32.856,43.838-59.222c11.66-26.544,17.49-53.063,17.49-85.31
		C-224.867,18.579-224.87,0.385-227.746-14.225z"/>
	<polygon fill="#F01B26" points="-393.425,19.134 -400.373,69.854 -427.926,26.815 -483.097,37.373 -445.271,-4.307 
		-470.848,-49.999 -421.038,-30.184 -363.553,-118.519 -390.13,-15.69 -330.632,15.111 	"/>
</g>
<g>
	
		<line fill="none" stroke="#F01B26" stroke-width="6" stroke-miterlimit="10" x1="-610.622" y1="238.133" x2="-210.621" y2="238.133"/>
	
		<line fill="none" stroke="#F01B26" stroke-width="6" stroke-miterlimit="10" x1="-610.622" y1="334.133" x2="-210.621" y2="334.133"/>
	<g>
		<path fill="#202020" d="M-593.166,370.871c0.119,0.321,0.193,0.576,0.223,0.765c0.03,0.188-0.01,0.329-0.119,0.424
			c-0.109,0.093-0.302,0.151-0.579,0.174s-0.658,0.034-1.143,0.034c-0.505,0-0.898-0.007-1.181-0.02
			c-0.282-0.015-0.497-0.041-0.645-0.081c-0.149-0.041-0.253-0.097-0.312-0.168c-0.06-0.072-0.109-0.166-0.149-0.282l-1.291-3.493
			h-7.216l-1.217,3.399c-0.04,0.125-0.092,0.23-0.156,0.314c-0.065,0.086-0.169,0.153-0.312,0.203
			c-0.144,0.048-0.347,0.082-0.609,0.1c-0.262,0.019-0.606,0.027-1.032,0.027c-0.455,0-0.811-0.014-1.069-0.041
			c-0.257-0.026-0.435-0.091-0.534-0.194c-0.099-0.103-0.134-0.249-0.104-0.437c0.03-0.188,0.104-0.439,0.223-0.752l5.924-15.421
			c0.059-0.152,0.128-0.276,0.207-0.369c0.08-0.095,0.206-0.166,0.379-0.215c0.173-0.049,0.413-0.08,0.72-0.095
			c0.307-0.013,0.713-0.021,1.218-0.021c0.584,0,1.049,0.008,1.395,0.021c0.347,0.015,0.616,0.046,0.809,0.095
			c0.193,0.049,0.332,0.123,0.416,0.221c0.084,0.099,0.156,0.233,0.215,0.403L-593.166,370.871z M-601.985,358.123H-602
			l-2.717,7.388h5.449L-601.985,358.123z"/>
		<path fill="#202020" d="M-573.99,356.255c0,0.26-0.012,0.481-0.037,0.664c-0.025,0.185-0.062,0.333-0.111,0.444
			c-0.05,0.112-0.112,0.194-0.186,0.248c-0.074,0.054-0.156,0.08-0.245,0.08h-4.81v14.011c0,0.09-0.033,0.171-0.097,0.242
			s-0.171,0.129-0.319,0.174c-0.149,0.046-0.349,0.081-0.601,0.108c-0.253,0.027-0.567,0.04-0.943,0.04
			c-0.376,0-0.691-0.013-0.943-0.04s-0.453-0.062-0.601-0.108c-0.149-0.045-0.255-0.103-0.32-0.174
			c-0.064-0.071-0.096-0.152-0.096-0.242v-14.011h-4.81c-0.099,0-0.184-0.026-0.253-0.08c-0.069-0.054-0.129-0.136-0.178-0.248
			c-0.05-0.111-0.087-0.26-0.111-0.444c-0.025-0.183-0.038-0.404-0.038-0.664c0-0.27,0.013-0.497,0.038-0.686
			c0.024-0.188,0.061-0.338,0.111-0.451c0.049-0.11,0.109-0.19,0.178-0.24c0.069-0.05,0.154-0.074,0.253-0.074h13.54
			c0.089,0,0.171,0.024,0.245,0.074c0.074,0.05,0.136,0.13,0.186,0.24c0.049,0.113,0.086,0.264,0.111,0.451
			C-574.001,355.758-573.99,355.986-573.99,356.255"/>
		<path fill="#202020" d="M-550.641,371.703c0,0.09-0.032,0.17-0.097,0.242c-0.064,0.071-0.17,0.13-0.319,0.174
			c-0.148,0.045-0.346,0.081-0.594,0.108c-0.247,0.026-0.559,0.04-0.935,0.04c-0.386,0-0.705-0.014-0.958-0.04
			c-0.252-0.027-0.45-0.063-0.593-0.108c-0.144-0.044-0.248-0.103-0.312-0.174c-0.065-0.072-0.097-0.152-0.097-0.242v-7.024h-7.186
			v7.024c0,0.09-0.029,0.17-0.089,0.242c-0.059,0.071-0.163,0.13-0.312,0.174c-0.148,0.045-0.346,0.081-0.593,0.108
			c-0.248,0.026-0.565,0.04-0.951,0.04c-0.376,0-0.69-0.014-0.942-0.04c-0.253-0.027-0.453-0.063-0.602-0.108
			c-0.148-0.044-0.255-0.103-0.319-0.174c-0.064-0.072-0.096-0.152-0.096-0.242v-16.415c0-0.089,0.032-0.17,0.096-0.242
			c0.064-0.07,0.171-0.13,0.319-0.174c0.149-0.045,0.349-0.081,0.602-0.107c0.252-0.027,0.566-0.04,0.942-0.04
			c0.386,0,0.703,0.013,0.951,0.04c0.247,0.026,0.445,0.062,0.593,0.107c0.149,0.044,0.253,0.104,0.312,0.174
			c0.06,0.072,0.089,0.153,0.089,0.242v6.381h7.186v-6.381c0-0.089,0.032-0.17,0.097-0.242c0.064-0.07,0.168-0.13,0.312-0.174
			c0.143-0.045,0.341-0.081,0.593-0.107c0.253-0.027,0.572-0.04,0.958-0.04c0.376,0,0.688,0.013,0.935,0.04
			c0.248,0.026,0.446,0.062,0.594,0.107c0.149,0.044,0.255,0.104,0.319,0.174c0.065,0.072,0.097,0.153,0.097,0.242V371.703z"/>
		<path fill="#202020" d="M-529.817,370.708c0,0.27-0.012,0.495-0.037,0.68c-0.025,0.183-0.062,0.335-0.111,0.457
			c-0.05,0.119-0.112,0.207-0.186,0.261c-0.074,0.054-0.161,0.081-0.26,0.081h-8.804c-0.327,0-0.601-0.088-0.824-0.263
			c-0.223-0.175-0.334-0.459-0.334-0.853v-15.784c0-0.089,0.032-0.17,0.096-0.242c0.065-0.07,0.171-0.13,0.32-0.174
			c0.148-0.045,0.348-0.081,0.601-0.107c0.252-0.027,0.566-0.04,0.943-0.04c0.386,0,0.702,0.013,0.95,0.04
			c0.247,0.026,0.445,0.062,0.594,0.107c0.148,0.044,0.255,0.104,0.319,0.174c0.064,0.072,0.096,0.153,0.096,0.242v13.984h6.043
			c0.099,0,0.186,0.024,0.26,0.074c0.074,0.049,0.136,0.13,0.186,0.241c0.049,0.112,0.086,0.261,0.111,0.442
			C-529.829,370.214-529.817,370.44-529.817,370.708"/>
		<path fill="#202020" d="M-510.047,370.803c0,0.26-0.012,0.477-0.037,0.65c-0.025,0.176-0.062,0.316-0.111,0.424
			c-0.05,0.107-0.112,0.187-0.186,0.235c-0.074,0.049-0.156,0.074-0.245,0.074h-9.651c-0.326,0-0.601-0.088-0.824-0.263
			c-0.222-0.175-0.334-0.459-0.334-0.853v-15.153c0-0.394,0.112-0.677,0.334-0.853c0.223-0.174,0.498-0.262,0.824-0.262h9.592
			c0.089,0,0.168,0.022,0.237,0.067c0.069,0.044,0.129,0.123,0.178,0.235c0.05,0.112,0.087,0.255,0.112,0.43
			c0.024,0.174,0.037,0.396,0.037,0.664c0,0.251-0.013,0.464-0.037,0.638c-0.025,0.177-0.062,0.316-0.112,0.425
			c-0.049,0.106-0.109,0.186-0.178,0.234c-0.069,0.049-0.148,0.074-0.237,0.074h-6.86v4.244h5.805c0.09,0,0.171,0.024,0.245,0.074
			c0.075,0.05,0.137,0.126,0.186,0.229c0.049,0.104,0.087,0.242,0.111,0.416c0.025,0.175,0.037,0.387,0.037,0.638
			c0,0.261-0.012,0.476-0.037,0.646c-0.024,0.17-0.062,0.307-0.111,0.409c-0.049,0.104-0.111,0.177-0.186,0.222
			c-0.074,0.045-0.155,0.067-0.245,0.067h-5.805v4.902h6.919c0.089,0,0.171,0.025,0.245,0.074c0.074,0.05,0.136,0.128,0.186,0.235
			c0.049,0.107,0.086,0.248,0.111,0.424C-510.059,370.326-510.047,370.542-510.047,370.803"/>
		<path fill="#202020" d="M-487.737,356.255c0,0.26-0.012,0.481-0.037,0.664c-0.025,0.185-0.062,0.333-0.111,0.444
			c-0.05,0.112-0.112,0.194-0.186,0.248c-0.074,0.054-0.156,0.08-0.245,0.08h-4.81v14.011c0,0.09-0.033,0.171-0.097,0.242
			s-0.171,0.129-0.319,0.174c-0.149,0.046-0.349,0.081-0.601,0.108c-0.253,0.027-0.567,0.04-0.943,0.04s-0.691-0.013-0.943-0.04
			c-0.252-0.027-0.453-0.062-0.601-0.108c-0.149-0.045-0.255-0.103-0.32-0.174c-0.064-0.071-0.096-0.152-0.096-0.242v-14.011h-4.81
			c-0.099,0-0.184-0.026-0.253-0.08c-0.069-0.054-0.129-0.136-0.178-0.248c-0.05-0.111-0.087-0.26-0.111-0.444
			c-0.025-0.183-0.038-0.404-0.038-0.664c0-0.27,0.013-0.497,0.038-0.686c0.024-0.188,0.061-0.338,0.111-0.451
			c0.049-0.11,0.109-0.19,0.178-0.24c0.069-0.05,0.154-0.074,0.253-0.074h13.54c0.089,0,0.171,0.024,0.245,0.074
			c0.074,0.05,0.136,0.13,0.186,0.24c0.049,0.113,0.086,0.264,0.111,0.451C-487.75,355.758-487.737,355.986-487.737,356.255"/>
		<path fill="#202020" d="M-475.465,371.703c0,0.09-0.032,0.17-0.097,0.242c-0.064,0.071-0.17,0.13-0.319,0.174
			c-0.148,0.045-0.346,0.081-0.594,0.108c-0.247,0.026-0.564,0.04-0.95,0.04c-0.376,0-0.69-0.014-0.943-0.04
			c-0.252-0.027-0.452-0.063-0.601-0.108c-0.148-0.044-0.255-0.103-0.319-0.174c-0.064-0.072-0.097-0.152-0.097-0.242v-16.415
			c0-0.089,0.033-0.17,0.097-0.242c0.064-0.07,0.173-0.13,0.327-0.174c0.153-0.045,0.353-0.081,0.601-0.107
			c0.247-0.027,0.559-0.04,0.935-0.04c0.386,0,0.703,0.013,0.95,0.04c0.248,0.026,0.446,0.062,0.594,0.107
			c0.149,0.044,0.255,0.104,0.319,0.174c0.065,0.072,0.097,0.153,0.097,0.242V371.703z"/>
		<path fill="#202020" d="M-451.909,369.553c0,0.225-0.007,0.415-0.022,0.571c-0.015,0.157-0.037,0.291-0.067,0.403
			c-0.03,0.111-0.069,0.208-0.119,0.289c-0.049,0.08-0.129,0.173-0.237,0.275c-0.109,0.103-0.32,0.234-0.631,0.396
			c-0.312,0.162-0.693,0.315-1.144,0.464c-0.45,0.146-0.965,0.271-1.544,0.369s-1.205,0.147-1.878,0.147
			c-1.316,0-2.504-0.184-3.563-0.551s-1.96-0.915-2.702-1.646c-0.743-0.729-1.312-1.641-1.708-2.733
			c-0.396-1.092-0.594-2.364-0.594-3.815c0-1.477,0.218-2.788,0.654-3.936c0.435-1.146,1.044-2.109,1.826-2.888
			c0.782-0.779,1.72-1.37,2.813-1.773c1.094-0.403,2.299-0.604,3.616-0.604c0.534,0,1.049,0.04,1.544,0.121
			c0.495,0.079,0.952,0.186,1.373,0.314c0.421,0.131,0.799,0.28,1.136,0.45c0.336,0.17,0.571,0.315,0.705,0.436
			c0.134,0.122,0.225,0.223,0.275,0.304c0.049,0.081,0.089,0.184,0.119,0.309c0.029,0.125,0.051,0.273,0.066,0.443
			c0.015,0.17,0.023,0.381,0.023,0.632c0,0.268-0.01,0.497-0.03,0.685c-0.02,0.188-0.055,0.34-0.104,0.456
			c-0.05,0.117-0.109,0.202-0.178,0.256s-0.149,0.08-0.238,0.08c-0.148,0-0.336-0.078-0.564-0.234s-0.522-0.331-0.883-0.523
			c-0.362-0.193-0.792-0.367-1.292-0.525c-0.5-0.155-1.096-0.234-1.789-0.234c-0.762,0-1.443,0.142-2.042,0.423
			c-0.598,0.283-1.108,0.686-1.529,1.209c-0.42,0.525-0.74,1.158-0.957,1.901c-0.218,0.742-0.327,1.581-0.327,2.512
			c0,1.021,0.116,1.906,0.349,2.653c0.232,0.748,0.564,1.363,0.995,1.847c0.43,0.484,0.95,0.845,1.559,1.081
			c0.608,0.238,1.294,0.355,2.056,0.355c0.693,0,1.292-0.072,1.796-0.222c0.505-0.146,0.938-0.31,1.299-0.49
			c0.362-0.179,0.659-0.34,0.891-0.482c0.233-0.144,0.414-0.215,0.542-0.215c0.099,0,0.178,0.018,0.238,0.054
			c0.059,0.036,0.109,0.106,0.148,0.215c0.04,0.107,0.07,0.258,0.089,0.45C-451.919,368.974-451.909,369.232-451.909,369.553"/>
		<path fill="#202020" d="M-416.778,369.553c0,0.225-0.008,0.415-0.022,0.571c-0.016,0.157-0.037,0.291-0.067,0.403
			c-0.03,0.111-0.069,0.208-0.119,0.289c-0.049,0.08-0.129,0.173-0.237,0.275c-0.109,0.103-0.319,0.234-0.632,0.396
			c-0.311,0.162-0.693,0.315-1.142,0.464c-0.451,0.146-0.966,0.271-1.544,0.369c-0.58,0.099-1.206,0.147-1.879,0.147
			c-1.316,0-2.504-0.184-3.563-0.551s-1.96-0.915-2.702-1.646c-0.743-0.729-1.312-1.641-1.708-2.733
			c-0.396-1.092-0.594-2.364-0.594-3.815c0-1.477,0.218-2.788,0.654-3.936c0.435-1.146,1.044-2.109,1.826-2.888
			c0.782-0.779,1.719-1.37,2.813-1.773c1.094-0.403,2.299-0.604,3.616-0.604c0.534,0,1.049,0.04,1.544,0.121
			c0.495,0.079,0.952,0.186,1.373,0.314c0.42,0.131,0.799,0.28,1.136,0.45c0.336,0.17,0.572,0.315,0.705,0.436
			c0.134,0.122,0.225,0.223,0.275,0.304c0.049,0.081,0.089,0.184,0.119,0.309c0.029,0.125,0.051,0.273,0.067,0.443
			c0.014,0.17,0.022,0.381,0.022,0.632c0,0.268-0.01,0.497-0.03,0.685c-0.02,0.188-0.055,0.34-0.104,0.456
			c-0.049,0.117-0.109,0.202-0.178,0.256s-0.149,0.08-0.238,0.08c-0.148,0-0.336-0.078-0.564-0.234s-0.523-0.331-0.884-0.523
			c-0.361-0.193-0.792-0.367-1.291-0.525c-0.5-0.155-1.096-0.234-1.789-0.234c-0.762,0-1.443,0.142-2.041,0.423
			c-0.6,0.283-1.11,0.686-1.53,1.209c-0.421,0.525-0.74,1.158-0.957,1.901c-0.218,0.742-0.327,1.581-0.327,2.512
			c0,1.021,0.116,1.906,0.349,2.653c0.232,0.748,0.565,1.363,0.994,1.847c0.432,0.484,0.95,0.845,1.56,1.081
			c0.608,0.238,1.294,0.355,2.056,0.355c0.693,0,1.292-0.072,1.796-0.222c0.505-0.146,0.938-0.31,1.299-0.49
			c0.361-0.179,0.658-0.34,0.891-0.482c0.232-0.144,0.414-0.215,0.542-0.215c0.099,0,0.178,0.018,0.238,0.054
			c0.059,0.036,0.109,0.106,0.148,0.215c0.04,0.107,0.07,0.258,0.089,0.45C-416.788,368.974-416.778,369.232-416.778,369.553"/>
		<path fill="#202020" d="M-390.83,363.293c0,1.442-0.198,2.731-0.595,3.869c-0.396,1.138-0.984,2.103-1.767,2.895
			c-0.782,0.793-1.75,1.396-2.902,1.813c-1.154,0.416-2.486,0.624-4.002,0.624c-1.494,0-2.798-0.177-3.912-0.53
			c-1.112-0.353-2.041-0.893-2.784-1.618c-0.741-0.726-1.298-1.648-1.671-2.768c-0.37-1.119-0.556-2.444-0.556-3.976
			c0-1.406,0.198-2.671,0.594-3.794c0.396-1.124,0.985-2.081,1.768-2.869c0.781-0.788,1.749-1.392,2.902-1.813
			c1.152-0.421,2.491-0.632,4.017-0.632c1.455,0,2.737,0.175,3.853,0.524c1.112,0.35,2.043,0.887,2.791,1.612
			c0.746,0.726,1.312,1.642,1.693,2.747C-391.021,360.485-390.83,361.789-390.83,363.293 M-394.929,363.482
			c0-0.913-0.079-1.744-0.238-2.491c-0.157-0.748-0.428-1.388-0.808-1.922c-0.382-0.532-0.889-0.944-1.523-1.236
			c-0.633-0.29-1.425-0.436-2.375-0.436c-0.96,0-1.762,0.164-2.404,0.49c-0.645,0.328-1.163,0.764-1.56,1.31
			c-0.396,0.546-0.676,1.186-0.839,1.914c-0.164,0.73-0.245,1.502-0.245,2.317c0,0.949,0.079,1.803,0.238,2.56
			c0.158,0.756,0.425,1.403,0.801,1.94c0.376,0.538,0.881,0.946,1.516,1.229c0.633,0.281,1.43,0.423,2.39,0.423
			s1.762-0.162,2.405-0.483c0.644-0.322,1.163-0.762,1.559-1.316c0.396-0.556,0.675-1.202,0.84-1.941
			C-395.011,365.101-394.929,364.315-394.929,363.482"/>
		<path fill="#202020" d="M-365.627,370.951c0,0.206-0.04,0.39-0.118,0.551c-0.079,0.161-0.187,0.295-0.318,0.403
			c-0.135,0.106-0.293,0.186-0.477,0.234c-0.184,0.05-0.368,0.074-0.557,0.074h-1.663c-0.346,0-0.646-0.032-0.896-0.094
			c-0.254-0.063-0.486-0.177-0.699-0.343c-0.213-0.165-0.418-0.39-0.616-0.672c-0.198-0.281-0.421-0.647-0.668-1.095l-4.781-8.127
			c-0.276-0.483-0.559-1.005-0.846-1.564s-0.544-1.104-0.771-1.632h-0.03c0.04,0.645,0.069,1.287,0.089,1.928
			c0.02,0.64,0.03,1.3,0.03,1.98v9.095c0,0.089-0.028,0.17-0.081,0.241c-0.057,0.071-0.149,0.133-0.283,0.182
			c-0.133,0.05-0.314,0.087-0.542,0.114c-0.228,0.026-0.52,0.039-0.876,0.039c-0.346,0-0.633-0.013-0.861-0.039
			c-0.227-0.027-0.406-0.064-0.534-0.114c-0.129-0.049-0.218-0.11-0.268-0.182c-0.049-0.071-0.074-0.152-0.074-0.241v-15.623
			c0-0.42,0.136-0.736,0.409-0.947c0.271-0.21,0.606-0.315,1.002-0.315h2.093c0.376,0,0.693,0.029,0.95,0.087
			c0.258,0.06,0.487,0.155,0.69,0.289c0.203,0.135,0.394,0.32,0.571,0.558c0.18,0.237,0.362,0.531,0.551,0.88l3.74,6.354
			c0.219,0.386,0.434,0.765,0.646,1.136c0.212,0.372,0.418,0.743,0.616,1.113c0.197,0.373,0.391,0.737,0.579,1.097
			c0.188,0.357,0.37,0.716,0.549,1.073h0.015c-0.029-0.627-0.052-1.279-0.066-1.961c-0.016-0.68-0.022-1.33-0.022-1.947v-8.153
			c0-0.09,0.03-0.171,0.089-0.242c0.061-0.072,0.159-0.135,0.297-0.188c0.14-0.055,0.322-0.093,0.55-0.114
			c0.228-0.022,0.52-0.034,0.876-0.034c0.336,0,0.618,0.012,0.847,0.034c0.228,0.021,0.402,0.06,0.525,0.114
			c0.124,0.053,0.211,0.115,0.262,0.188c0.049,0.071,0.073,0.152,0.073,0.242V370.951z"/>
		<path fill="#202020" d="M-344.579,356.255c0,0.269-0.014,0.495-0.037,0.679c-0.025,0.183-0.065,0.328-0.118,0.436
			c-0.056,0.107-0.117,0.188-0.187,0.242s-0.148,0.08-0.237,0.08h-6.28v4.675h5.894c0.09,0,0.168,0.022,0.237,0.067
			c0.07,0.045,0.131,0.121,0.188,0.228c0.053,0.108,0.093,0.251,0.117,0.431c0.024,0.179,0.037,0.402,0.037,0.672
			c0,0.269-0.013,0.492-0.037,0.672c-0.024,0.179-0.064,0.326-0.117,0.443c-0.057,0.115-0.117,0.199-0.188,0.249
			c-0.069,0.049-0.147,0.072-0.237,0.072h-5.894v6.476c0,0.098-0.03,0.183-0.089,0.255c-0.061,0.072-0.167,0.133-0.32,0.182
			c-0.154,0.049-0.353,0.087-0.601,0.114c-0.247,0.027-0.564,0.04-0.95,0.04c-0.376,0-0.69-0.013-0.943-0.04
			c-0.252-0.027-0.453-0.065-0.601-0.114c-0.149-0.049-0.256-0.109-0.32-0.182c-0.063-0.072-0.096-0.157-0.096-0.255v-15.757
			c0-0.395,0.112-0.679,0.334-0.854c0.223-0.174,0.498-0.262,0.824-0.262h9.042c0.089,0,0.168,0.024,0.237,0.074
			s0.131,0.13,0.187,0.24c0.053,0.113,0.093,0.264,0.118,0.451C-344.593,355.758-344.579,355.986-344.579,356.255"/>
		<path fill="#202020" d="M-323.934,370.803c0,0.26-0.013,0.477-0.038,0.65c-0.023,0.176-0.061,0.316-0.109,0.424
			c-0.05,0.107-0.111,0.187-0.188,0.235c-0.072,0.049-0.154,0.074-0.244,0.074h-9.65c-0.326,0-0.601-0.088-0.824-0.263
			c-0.222-0.175-0.334-0.459-0.334-0.853v-15.153c0-0.394,0.112-0.677,0.334-0.853c0.224-0.174,0.498-0.262,0.824-0.262h9.592
			c0.089,0,0.168,0.022,0.237,0.067c0.068,0.044,0.129,0.123,0.178,0.235c0.05,0.112,0.086,0.255,0.112,0.43
			c0.023,0.174,0.037,0.396,0.037,0.664c0,0.251-0.014,0.464-0.037,0.638c-0.026,0.177-0.062,0.316-0.112,0.425
			c-0.049,0.106-0.109,0.186-0.178,0.234c-0.069,0.049-0.148,0.074-0.237,0.074h-6.86v4.244h5.806c0.09,0,0.171,0.024,0.246,0.074
			c0.072,0.05,0.136,0.126,0.185,0.229c0.05,0.104,0.086,0.242,0.112,0.416c0.023,0.175,0.036,0.387,0.036,0.638
			c0,0.261-0.013,0.476-0.036,0.646c-0.026,0.17-0.062,0.307-0.112,0.409c-0.049,0.104-0.112,0.177-0.185,0.222
			c-0.075,0.045-0.156,0.067-0.246,0.067h-5.806v4.902h6.919c0.09,0,0.172,0.025,0.244,0.074c0.076,0.05,0.138,0.128,0.188,0.235
			c0.049,0.107,0.086,0.248,0.109,0.424C-323.946,370.326-323.934,370.542-323.934,370.803"/>
		<path fill="#202020" d="M-300.154,371.73c0,0.099-0.021,0.181-0.06,0.249c-0.04,0.065-0.134,0.123-0.281,0.167
			c-0.149,0.045-0.367,0.077-0.654,0.094c-0.287,0.018-0.678,0.027-1.173,0.027c-0.415,0-0.747-0.01-0.994-0.027
			c-0.248-0.017-0.444-0.051-0.586-0.1c-0.146-0.05-0.246-0.112-0.305-0.188c-0.06-0.076-0.109-0.168-0.149-0.276l-1.722-3.882
			c-0.208-0.438-0.411-0.828-0.609-1.168c-0.198-0.341-0.418-0.626-0.66-0.853c-0.243-0.229-0.521-0.401-0.839-0.519
			c-0.317-0.115-0.683-0.174-1.099-0.174h-1.217v6.622c0,0.09-0.033,0.17-0.098,0.242s-0.17,0.13-0.318,0.175
			c-0.148,0.044-0.347,0.08-0.595,0.107c-0.247,0.026-0.563,0.04-0.95,0.04c-0.376,0-0.69-0.014-0.941-0.04
			c-0.254-0.027-0.454-0.063-0.603-0.107c-0.148-0.045-0.253-0.103-0.312-0.175s-0.089-0.152-0.089-0.242v-15.783
			c0-0.394,0.111-0.678,0.334-0.854c0.223-0.174,0.497-0.262,0.824-0.262h4.974c0.505,0,0.92,0.01,1.247,0.027
			s0.624,0.04,0.891,0.067c0.772,0.098,1.467,0.268,2.086,0.51c0.618,0.242,1.144,0.558,1.574,0.947
			c0.43,0.39,0.759,0.851,0.987,1.384c0.228,0.533,0.341,1.144,0.341,1.833c0,0.582-0.081,1.113-0.245,1.592
			c-0.162,0.48-0.403,0.907-0.72,1.283s-0.707,0.703-1.173,0.98c-0.465,0.277-0.994,0.501-1.588,0.672
			c0.286,0.126,0.557,0.277,0.808,0.457c0.254,0.179,0.491,0.396,0.713,0.651c0.224,0.254,0.434,0.546,0.632,0.872
			c0.198,0.328,0.392,0.697,0.579,1.109l1.618,3.425c0.148,0.34,0.247,0.589,0.297,0.746
			C-300.18,371.518-300.154,371.64-300.154,371.73 M-305.188,359.936c0-0.573-0.144-1.058-0.431-1.451
			c-0.287-0.395-0.757-0.671-1.41-0.833c-0.198-0.044-0.424-0.08-0.675-0.107c-0.253-0.026-0.603-0.04-1.047-0.04h-1.752v4.931
			h1.988c0.556,0,1.04-0.062,1.455-0.182c0.416-0.122,0.762-0.291,1.04-0.511c0.277-0.219,0.485-0.482,0.623-0.786
			C-305.257,360.652-305.188,360.312-305.188,359.936"/>
		<path fill="#202020" d="M-279.82,370.803c0,0.26-0.013,0.477-0.037,0.65c-0.024,0.176-0.062,0.316-0.11,0.424
			c-0.05,0.107-0.111,0.187-0.188,0.235c-0.072,0.049-0.154,0.074-0.243,0.074h-9.651c-0.326,0-0.6-0.088-0.824-0.263
			c-0.222-0.175-0.334-0.459-0.334-0.853v-15.153c0-0.394,0.112-0.677,0.334-0.853c0.225-0.174,0.498-0.262,0.824-0.262h9.592
			c0.089,0,0.168,0.022,0.237,0.067c0.068,0.044,0.129,0.123,0.178,0.235c0.05,0.112,0.086,0.255,0.112,0.43
			c0.023,0.174,0.037,0.396,0.037,0.664c0,0.251-0.014,0.464-0.037,0.638c-0.026,0.177-0.062,0.316-0.112,0.425
			c-0.049,0.106-0.109,0.186-0.178,0.234c-0.069,0.049-0.148,0.074-0.237,0.074h-6.86v4.244h5.806c0.09,0,0.171,0.024,0.246,0.074
			c0.072,0.05,0.136,0.126,0.185,0.229c0.05,0.104,0.086,0.242,0.112,0.416c0.023,0.175,0.036,0.387,0.036,0.638
			c0,0.261-0.013,0.476-0.036,0.646c-0.026,0.17-0.062,0.307-0.112,0.409c-0.049,0.104-0.112,0.177-0.185,0.222
			c-0.075,0.045-0.156,0.067-0.246,0.067h-5.806v4.902h6.92c0.089,0,0.171,0.025,0.243,0.074c0.076,0.05,0.138,0.128,0.188,0.235
			c0.049,0.107,0.086,0.248,0.11,0.424C-279.833,370.326-279.82,370.542-279.82,370.803"/>
		<path fill="#202020" d="M-254.452,370.951c0,0.206-0.04,0.39-0.119,0.551s-0.186,0.295-0.318,0.403
			c-0.135,0.106-0.293,0.186-0.476,0.234c-0.184,0.05-0.369,0.074-0.557,0.074h-1.663c-0.347,0-0.646-0.032-0.897-0.094
			c-0.254-0.063-0.486-0.177-0.699-0.343c-0.213-0.165-0.418-0.39-0.615-0.672c-0.198-0.281-0.422-0.647-0.668-1.095l-4.781-8.127
			c-0.277-0.483-0.56-1.005-0.846-1.564c-0.287-0.56-0.545-1.104-0.772-1.632h-0.03c0.04,0.645,0.07,1.287,0.089,1.928
			c0.021,0.64,0.03,1.3,0.03,1.98v9.095c0,0.089-0.028,0.17-0.081,0.241c-0.056,0.071-0.148,0.133-0.283,0.182
			c-0.133,0.05-0.313,0.087-0.542,0.114c-0.227,0.026-0.519,0.039-0.876,0.039c-0.346,0-0.633-0.013-0.86-0.039
			c-0.228-0.027-0.406-0.064-0.534-0.114c-0.129-0.049-0.218-0.11-0.268-0.182s-0.074-0.152-0.074-0.241v-15.623
			c0-0.42,0.136-0.736,0.409-0.947c0.271-0.21,0.605-0.315,1.002-0.315h2.093c0.376,0,0.692,0.029,0.95,0.087
			c0.258,0.06,0.486,0.155,0.689,0.289c0.203,0.135,0.395,0.32,0.572,0.558c0.179,0.237,0.362,0.531,0.55,0.88l3.741,6.354
			c0.218,0.386,0.433,0.765,0.646,1.136c0.212,0.372,0.418,0.743,0.616,1.113c0.198,0.373,0.392,0.737,0.579,1.097
			c0.188,0.357,0.371,0.716,0.55,1.073h0.015c-0.029-0.627-0.053-1.279-0.066-1.961c-0.016-0.68-0.023-1.33-0.023-1.947v-8.153
			c0-0.09,0.03-0.171,0.09-0.242c0.06-0.072,0.158-0.135,0.297-0.188c0.139-0.055,0.321-0.093,0.55-0.114
			c0.227-0.022,0.519-0.034,0.876-0.034c0.336,0,0.618,0.012,0.846,0.034c0.229,0.021,0.403,0.06,0.526,0.114
			c0.124,0.053,0.211,0.115,0.261,0.188c0.049,0.071,0.074,0.152,0.074,0.242V370.951z"/>
		<path fill="#202020" d="M-230.896,369.553c0,0.225-0.008,0.415-0.021,0.571c-0.016,0.157-0.037,0.291-0.067,0.403
			c-0.029,0.111-0.068,0.208-0.119,0.289c-0.049,0.08-0.129,0.173-0.236,0.275c-0.109,0.103-0.319,0.234-0.632,0.396
			c-0.312,0.162-0.693,0.315-1.143,0.464c-0.451,0.146-0.966,0.271-1.544,0.369c-0.58,0.099-1.206,0.147-1.879,0.147
			c-1.316,0-2.504-0.184-3.563-0.551c-1.059-0.367-1.96-0.915-2.701-1.646c-0.743-0.729-1.312-1.641-1.708-2.733
			c-0.396-1.092-0.595-2.364-0.595-3.815c0-1.477,0.219-2.788,0.654-3.936c0.436-1.146,1.044-2.109,1.826-2.888
			c0.782-0.779,1.719-1.37,2.812-1.773c1.095-0.403,2.3-0.604,3.616-0.604c0.534,0,1.049,0.04,1.544,0.121
			c0.495,0.079,0.952,0.186,1.373,0.314c0.42,0.131,0.799,0.28,1.137,0.45c0.336,0.17,0.571,0.315,0.704,0.436
			c0.135,0.122,0.226,0.223,0.275,0.304c0.049,0.081,0.089,0.184,0.119,0.309c0.029,0.125,0.051,0.273,0.066,0.443
			c0.015,0.17,0.022,0.381,0.022,0.632c0,0.268-0.01,0.497-0.03,0.685c-0.02,0.188-0.055,0.34-0.104,0.456
			c-0.049,0.117-0.109,0.202-0.178,0.256c-0.069,0.054-0.149,0.08-0.238,0.08c-0.148,0-0.336-0.078-0.564-0.234
			c-0.228-0.156-0.522-0.331-0.884-0.523c-0.361-0.193-0.792-0.367-1.291-0.525c-0.5-0.155-1.096-0.234-1.789-0.234
			c-0.762,0-1.443,0.142-2.041,0.423c-0.6,0.283-1.109,0.686-1.53,1.209c-0.421,0.525-0.739,1.158-0.957,1.901
			c-0.218,0.742-0.326,1.581-0.326,2.512c0,1.021,0.115,1.906,0.349,2.653c0.232,0.748,0.565,1.363,0.994,1.847
			c0.432,0.484,0.95,0.845,1.56,1.081c0.608,0.238,1.294,0.355,2.057,0.355c0.692,0,1.292-0.072,1.796-0.222
			c0.505-0.146,0.938-0.31,1.299-0.49c0.361-0.179,0.658-0.34,0.891-0.482c0.232-0.144,0.414-0.215,0.542-0.215
			c0.1,0,0.179,0.018,0.238,0.054c0.059,0.036,0.109,0.106,0.148,0.215c0.04,0.107,0.069,0.258,0.089,0.45
			S-230.896,369.232-230.896,369.553"/>
		<path fill="#202020" d="M-210.621,370.803c0,0.26-0.013,0.477-0.038,0.65c-0.023,0.176-0.061,0.316-0.109,0.424
			c-0.051,0.107-0.111,0.187-0.188,0.235c-0.073,0.049-0.155,0.074-0.244,0.074h-9.65c-0.326,0-0.601-0.088-0.824-0.263
			c-0.222-0.175-0.334-0.459-0.334-0.853v-15.153c0-0.394,0.112-0.677,0.334-0.853c0.224-0.174,0.498-0.262,0.824-0.262h9.592
			c0.089,0,0.168,0.022,0.237,0.067c0.068,0.044,0.129,0.123,0.178,0.235c0.05,0.112,0.086,0.255,0.111,0.43
			c0.024,0.174,0.037,0.396,0.037,0.664c0,0.251-0.013,0.464-0.037,0.638c-0.025,0.177-0.062,0.316-0.111,0.425
			c-0.049,0.106-0.109,0.186-0.178,0.234c-0.069,0.049-0.148,0.074-0.237,0.074h-6.86v4.244h5.805c0.091,0,0.172,0.024,0.246,0.074
			c0.073,0.05,0.137,0.126,0.186,0.229c0.049,0.104,0.086,0.242,0.112,0.416c0.023,0.175,0.035,0.387,0.035,0.638
			c0,0.261-0.012,0.476-0.035,0.646c-0.026,0.17-0.063,0.307-0.112,0.409c-0.049,0.104-0.112,0.177-0.186,0.222
			c-0.074,0.045-0.155,0.067-0.246,0.067h-5.805v4.902h6.919c0.089,0,0.171,0.025,0.244,0.074c0.076,0.05,0.137,0.128,0.188,0.235
			c0.049,0.107,0.086,0.248,0.109,0.424C-210.634,370.326-210.621,370.542-210.621,370.803"/>
	</g>
	<g>
		<g>
			<defs>
				<polygon id="SVGID_5_" points="-610.622,258.678 -610.622,281.811 -602.378,281.811 -602.378,271.823 -597.326,271.823 
					-597.326,300.444 -601.115,300.444 -601.115,313.588 -576.451,313.588 -576.451,300.444 -580.335,300.444 -580.335,271.823 
					-575.313,271.823 -575.313,281.811 -567.07,281.811 -567.07,258.678 				"/>
			</defs>
			<radialGradient id="SVGID_6_" cx="-588.8457" cy="286.1333" r="24.7785" gradientUnits="userSpaceOnUse">
				<stop  offset="0.12" style="stop-color:#22ACF7"/>
				<stop  offset="0.2122" style="stop-color:#20A1EA"/>
				<stop  offset="0.3831" style="stop-color:#1A85C7"/>
				<stop  offset="0.6142" style="stop-color:#11588F"/>
				<stop  offset="0.8935" style="stop-color:#051943"/>
				<stop  offset="1" style="stop-color:#000024"/>
			</radialGradient>
			<use xlink:href="#SVGID_5_"  overflow="visible" fill="url(#SVGID_6_)"/>
			<clipPath id="SVGID_7_">
				<use xlink:href="#SVGID_5_"  overflow="visible"/>
			</clipPath>
		</g>
		<g>
			<defs>
				<polygon id="SVGID_8_" points="-532.419,258.678 -532.419,271.823 -529.577,271.823 -529.577,280.192 -539.746,280.192 
					-539.746,271.823 -536.936,271.823 -536.936,258.678 -560.116,258.678 -560.116,271.823 -556.737,271.823 -556.737,300.444 
					-560.052,300.444 -560.052,313.588 -536.936,313.588 -536.936,300.444 -539.746,300.444 -539.746,291.444 -529.577,291.444 
					-529.577,300.444 -532.419,300.444 -532.419,313.588 -509.271,313.588 -509.271,300.444 -512.585,300.444 -512.585,271.823 
					-509.271,271.823 -509.271,258.678 				"/>
			</defs>
			<radialGradient id="SVGID_9_" cx="-534.6934" cy="286.1333" r="26.4585" gradientUnits="userSpaceOnUse">
				<stop  offset="0.12" style="stop-color:#22ACF7"/>
				<stop  offset="0.2122" style="stop-color:#20A1EA"/>
				<stop  offset="0.3831" style="stop-color:#1A85C7"/>
				<stop  offset="0.6142" style="stop-color:#11588F"/>
				<stop  offset="0.8935" style="stop-color:#051943"/>
				<stop  offset="1" style="stop-color:#000024"/>
			</radialGradient>
			<use xlink:href="#SVGID_8_"  overflow="visible" fill="url(#SVGID_9_)"/>
			<clipPath id="SVGID_10_">
				<use xlink:href="#SVGID_8_"  overflow="visible"/>
			</clipPath>
		</g>
		<g>
			<defs>
				<polygon id="SVGID_11_" points="-501.874,258.678 -501.874,271.823 -498.399,271.823 -498.399,300.444 -501.811,300.444 
					-501.811,313.588 -459.901,313.588 -459.901,296.022 -471.428,296.022 -471.428,300.444 -481.409,300.444 -481.409,291.444 
					-472.724,291.444 -472.724,280.272 -481.409,280.272 -481.409,271.823 -471.428,271.823 -471.428,276.245 -459.901,276.245 
					-459.901,258.678 				"/>
			</defs>
			<radialGradient id="SVGID_12_" cx="-480.8877" cy="286.1333" r="24.4357" gradientUnits="userSpaceOnUse">
				<stop  offset="0.12" style="stop-color:#22ACF7"/>
				<stop  offset="0.2122" style="stop-color:#20A1EA"/>
				<stop  offset="0.3831" style="stop-color:#1A85C7"/>
				<stop  offset="0.6142" style="stop-color:#11588F"/>
				<stop  offset="0.8935" style="stop-color:#051943"/>
				<stop  offset="1" style="stop-color:#000024"/>
			</radialGradient>
			<use xlink:href="#SVGID_11_"  overflow="visible" fill="url(#SVGID_12_)"/>
			<clipPath id="SVGID_13_">
				<use xlink:href="#SVGID_11_"  overflow="visible"/>
			</clipPath>
		</g>
		<g>
			<defs>
				<path id="SVGID_14_" d="M-413.084,271.823h0.631c3.37,0,5.706,0.646,7.011,1.934c1.327,1.291,2.254,3.119,2.779,5.488
					c0.506,2.369,0.759,4.764,0.759,7.186c0,4.025-0.591,7.369-1.769,10.027c-1.2,2.658-3.801,3.986-7.802,3.986h-1.61V271.823z
					 M-433.519,258.678v13.145h3.443v28.621h-3.443v13.145h20.434c5.958,0,10.359-0.314,13.201-0.945
					c2.863-0.631,5.496-1.988,7.896-4.066c2.463-2.08,4.495-5.066,6.097-8.961c1.621-3.922,2.432-8.264,2.432-13.029
					c0-2.367-0.201-4.631-0.601-6.789c-0.4-2.156-0.979-4.184-1.737-6.08c-1.537-3.947-3.644-7.078-6.316-9.395
					c-2.694-2.289-5.568-3.803-8.622-4.539c-3.031-0.738-6.947-1.105-11.749-1.105H-433.519z"/>
			</defs>
			<radialGradient id="SVGID_15_" cx="-408.4893" cy="286.1333" r="26.2702" gradientUnits="userSpaceOnUse">
				<stop  offset="0.12" style="stop-color:#22ACF7"/>
				<stop  offset="0.2122" style="stop-color:#20A1EA"/>
				<stop  offset="0.3831" style="stop-color:#1A85C7"/>
				<stop  offset="0.6142" style="stop-color:#11588F"/>
				<stop  offset="0.8935" style="stop-color:#051943"/>
				<stop  offset="1" style="stop-color:#000024"/>
			</radialGradient>
			<use xlink:href="#SVGID_14_"  overflow="visible" fill="url(#SVGID_15_)"/>
			<clipPath id="SVGID_16_">
				<use xlink:href="#SVGID_14_"  overflow="visible"/>
			</clipPath>
		</g>
		<g>
			<defs>
				<path id="SVGID_17_" d="M-358.284,272.612l3.728,15.199h-7.864L-358.284,272.612z M-371.77,258.678v13.145h3.537l-8.242,28.621
					h-3.349v13.145h17.402v-12.039h-3.6l1.926-6.908h11.243l1.674,6.908h-3.854v12.039h22.929v-13.145h-3.222l-8.4-28.621h3.537
					v-13.145H-371.77z"/>
			</defs>
			<radialGradient id="SVGID_18_" cx="-355.9629" cy="286.1333" r="25.7206" gradientUnits="userSpaceOnUse">
				<stop  offset="0.12" style="stop-color:#22ACF7"/>
				<stop  offset="0.2122" style="stop-color:#20A1EA"/>
				<stop  offset="0.3831" style="stop-color:#1A85C7"/>
				<stop  offset="0.6142" style="stop-color:#11588F"/>
				<stop  offset="0.8935" style="stop-color:#051943"/>
				<stop  offset="1" style="stop-color:#000024"/>
			</radialGradient>
			<use xlink:href="#SVGID_17_"  overflow="visible" fill="url(#SVGID_18_)"/>
			<clipPath id="SVGID_19_">
				<use xlink:href="#SVGID_17_"  overflow="visible"/>
			</clipPath>
		</g>
		<g>
			<defs>
				<polygon id="SVGID_20_" points="-327.517,258.678 -327.517,271.823 -323.475,271.823 -323.475,300.444 -327.517,300.444 
					-327.517,313.588 -302.473,313.588 -302.473,300.444 -306.484,300.444 -306.484,271.823 -302.473,271.823 -302.473,258.678 				
					"/>
			</defs>
			<radialGradient id="SVGID_21_" cx="-314.9951" cy="286.1333" r="21.3377" gradientUnits="userSpaceOnUse">
				<stop  offset="0.12" style="stop-color:#22ACF7"/>
				<stop  offset="0.2122" style="stop-color:#20A1EA"/>
				<stop  offset="0.3831" style="stop-color:#1A85C7"/>
				<stop  offset="0.6142" style="stop-color:#11588F"/>
				<stop  offset="0.8935" style="stop-color:#051943"/>
				<stop  offset="1" style="stop-color:#000024"/>
			</radialGradient>
			<use xlink:href="#SVGID_20_"  overflow="visible" fill="url(#SVGID_21_)"/>
			<clipPath id="SVGID_22_">
				<use xlink:href="#SVGID_20_"  overflow="visible"/>
			</clipPath>
		</g>
		<g>
			<defs>
				<polygon id="SVGID_23_" points="-296.245,258.678 -296.245,271.823 -292.298,271.823 -292.298,300.444 -296.245,300.444 
					-296.245,313.588 -254.431,313.588 -254.431,291.641 -264.916,291.641 -264.916,300.444 -275.307,300.444 -275.307,271.823 
					-271.138,271.823 -271.138,258.678 				"/>
			</defs>
			<radialGradient id="SVGID_24_" cx="-275.3379" cy="286.1333" r="24.4018" gradientUnits="userSpaceOnUse">
				<stop  offset="0.12" style="stop-color:#22ACF7"/>
				<stop  offset="0.2122" style="stop-color:#20A1EA"/>
				<stop  offset="0.3831" style="stop-color:#1A85C7"/>
				<stop  offset="0.6142" style="stop-color:#11588F"/>
				<stop  offset="0.8935" style="stop-color:#051943"/>
				<stop  offset="1" style="stop-color:#000024"/>
			</radialGradient>
			<use xlink:href="#SVGID_23_"  overflow="visible" fill="url(#SVGID_24_)"/>
			<clipPath id="SVGID_25_">
				<use xlink:href="#SVGID_23_"  overflow="visible"/>
			</clipPath>
		</g>
		<g>
			<defs>
				<polygon id="SVGID_26_" points="-227.518,258.678 -227.518,271.823 -224.833,271.823 -230.486,283.034 -235.16,271.823 
					-232.539,271.823 -232.539,258.678 -255.499,258.678 -255.499,271.823 -252.498,271.823 -241.413,291.719 -241.413,300.444 
					-244.951,300.444 -244.951,313.588 -220.948,313.588 -220.948,300.444 -224.422,300.444 -224.422,291.719 -213.369,271.823 
					-210.621,271.823 -210.621,258.678 				"/>
			</defs>
			<radialGradient id="SVGID_27_" cx="-233.0596" cy="286.1333" r="25.0726" gradientUnits="userSpaceOnUse">
				<stop  offset="0.12" style="stop-color:#22ACF7"/>
				<stop  offset="0.2122" style="stop-color:#20A1EA"/>
				<stop  offset="0.3831" style="stop-color:#1A85C7"/>
				<stop  offset="0.6142" style="stop-color:#11588F"/>
				<stop  offset="0.8935" style="stop-color:#051943"/>
				<stop  offset="1" style="stop-color:#000024"/>
			</radialGradient>
			<use xlink:href="#SVGID_26_"  overflow="visible" fill="url(#SVGID_27_)"/>
			<clipPath id="SVGID_28_">
				<use xlink:href="#SVGID_26_"  overflow="visible"/>
			</clipPath>
		</g>
	</g>
</g>
<g>
	<g>
		<defs>
			<polygon id="SVGID_29_" points="1.001,77.619 1.001,106.424 11.267,106.424 11.267,93.986 17.558,93.986 17.558,129.625 
				12.839,129.625 12.839,145.993 43.552,145.993 43.552,129.625 38.714,129.625 38.714,93.986 44.966,93.986 44.966,106.424 
				55.231,106.424 55.231,77.619 			"/>
		</defs>
		<use xlink:href="#SVGID_29_"  overflow="visible" fill="#000024"/>
		<clipPath id="SVGID_30_">
			<use xlink:href="#SVGID_29_"  overflow="visible"/>
		</clipPath>
	</g>
	<g>
		<defs>
			<polygon id="SVGID_31_" points="98.378,77.619 98.378,93.986 101.917,93.986 101.917,104.407 89.255,104.407 89.255,93.986 
				92.755,93.986 92.755,77.619 63.89,77.619 63.89,93.986 68.097,93.986 68.097,129.625 63.97,129.625 63.97,145.993 
				92.755,145.993 92.755,129.625 89.255,129.625 89.255,118.418 101.917,118.418 101.917,129.625 98.378,129.625 98.378,145.993 
				127.202,145.993 127.202,129.625 123.075,129.625 123.075,93.986 127.202,93.986 127.202,77.619 			"/>
		</defs>
		<use xlink:href="#SVGID_31_"  overflow="visible" fill="#000024"/>
		<clipPath id="SVGID_32_">
			<use xlink:href="#SVGID_31_"  overflow="visible"/>
		</clipPath>
	</g>
	<g>
		<defs>
			<polygon id="SVGID_33_" points="136.411,77.619 136.411,93.986 140.739,93.986 140.739,129.625 136.491,129.625 136.491,145.993 
				188.677,145.993 188.677,124.12 174.321,124.12 174.321,129.625 161.896,129.625 161.896,118.418 172.71,118.418 172.71,104.506 
				161.896,104.506 161.896,93.986 174.321,93.986 174.321,99.493 188.677,99.493 188.677,77.619 			"/>
		</defs>
		<use xlink:href="#SVGID_33_"  overflow="visible" fill="#000024"/>
		<clipPath id="SVGID_34_">
			<use xlink:href="#SVGID_33_"  overflow="visible"/>
		</clipPath>
	</g>
	<g>
		<defs>
			<path id="SVGID_35_" d="M246.972,93.986h0.785c4.195,0,7.105,0.805,8.73,2.407c1.652,1.609,2.807,3.885,3.461,6.834
				c0.629,2.951,0.945,5.932,0.945,8.947c0,5.014-0.736,9.178-2.203,12.486c-1.494,3.311-4.732,4.965-9.715,4.965h-2.004V93.986z
				 M221.526,77.619v16.368h4.289v35.639h-4.289v16.367h25.445c7.418,0,12.898-0.393,16.438-1.178
				c3.564-0.785,6.844-2.477,9.83-5.062c3.068-2.592,5.598-6.309,7.592-11.158c2.02-4.885,3.029-10.291,3.029-16.225
				c0-2.947-0.252-5.766-0.748-8.453c-0.5-2.686-1.221-5.209-2.164-7.57c-1.914-4.916-4.537-8.814-7.865-11.699
				c-3.355-2.851-6.934-4.735-10.736-5.652c-3.773-0.919-8.65-1.376-14.629-1.376H221.526z"/>
		</defs>
		<use xlink:href="#SVGID_35_"  overflow="visible" fill="#000024"/>
		<clipPath id="SVGID_36_">
			<use xlink:href="#SVGID_35_"  overflow="visible"/>
		</clipPath>
	</g>
	<g>
		<defs>
			<path id="SVGID_37_" d="M315.208,94.969l4.641,18.926h-9.791L315.208,94.969z M298.417,77.619v16.368h4.404l-10.264,35.639h-4.17
				v16.367h21.67V131h-4.482l2.398-8.602h14l2.084,8.602h-4.799v14.992h28.551v-16.367h-4.012l-10.461-35.639h4.404V77.619H298.417z
				"/>
		</defs>
		<use xlink:href="#SVGID_37_"  overflow="visible" fill="#000024"/>
		<clipPath id="SVGID_38_">
			<use xlink:href="#SVGID_37_"  overflow="visible"/>
		</clipPath>
	</g>
	<polygon fill="#000024" points="374.337,87.261 373.015,96.915 367.761,88.709 360.661,77.619 353.519,77.619 353.519,93.986 
		358.552,93.986 358.552,129.625 353.519,129.625 353.519,145.993 384.704,145.993 384.704,129.625 379.708,129.625 379.708,93.986 
		384.704,93.986 384.704,77.619 375.657,77.619 	"/>
	<g>
		<defs>
			<polygon id="SVGID_39_" points="392.458,77.619 392.458,93.986 397.374,93.986 397.374,129.625 392.458,129.625 392.458,145.993 
				444.524,145.993 444.524,118.665 431.47,118.665 431.47,129.625 418.53,129.625 418.53,93.986 423.722,93.986 423.722,77.619 			
				"/>
		</defs>
		<use xlink:href="#SVGID_39_"  overflow="visible" fill="#000024"/>
		<clipPath id="SVGID_40_">
			<use xlink:href="#SVGID_39_"  overflow="visible"/>
		</clipPath>
	</g>
	<g>
		<defs>
			<polygon id="SVGID_41_" points="478.036,77.619 478.036,93.986 481.38,93.986 474.341,107.946 468.521,93.986 471.784,93.986 
				471.784,77.619 443.194,77.619 443.194,93.986 446.931,93.986 460.733,118.76 460.733,129.625 456.329,129.625 456.329,145.993 
				486.218,145.993 486.218,129.625 481.892,129.625 481.892,118.76 495.653,93.986 499.075,93.986 499.075,77.619 			"/>
		</defs>
		<use xlink:href="#SVGID_41_"  overflow="visible" fill="#000024"/>
		<clipPath id="SVGID_42_">
			<use xlink:href="#SVGID_41_"  overflow="visible"/>
		</clipPath>
	</g>
	<polygon fill="#F01B26" points="373.937,63.748 370.782,86.773 358.272,67.234 333.226,72.027 350.399,53.105 338.786,32.361 
		361.399,41.357 387.499,1.254 375.433,47.937 402.444,61.921 	"/>
</g>
</svg>
