<?xml version="1.0" encoding="utf-8"?>
<!-- Generator: Adobe Illustrator 16.0.4, SVG Export Plug-In . SVG Version: 6.00 Build 0)  -->
<!DOCTYPE svg PUBLIC "-//W3C//DTD SVG 1.1//EN" "http://www.w3.org/Graphics/SVG/1.1/DTD/svg11.dtd">
<svg version="1.1" id="Layer_1" xmlns="http://www.w3.org/2000/svg" xmlns:xlink="http://www.w3.org/1999/xlink" x="0px" y="0px"
	 width="500.422px" height="146.993px" viewBox="0 0 500.422 146.993" enable-background="new 0 0 500.422 146.993"
	 xml:space="preserve">
<g>
	<g>
		<defs>
			<polygon id="SVGID_21_" points="1.001,77.619 1.001,106.424 11.267,106.424 11.267,93.986 17.558,93.986 17.558,129.625 
				12.839,129.625 12.839,145.993 43.552,145.993 43.552,129.625 38.714,129.625 38.714,93.986 44.966,93.986 44.966,106.424 
				55.231,106.424 55.231,77.619 			"/>
		</defs>
		<use xlink:href="#SVGID_21_"  overflow="visible" fill="#000024"/>
		<clipPath id="SVGID_1_">
			<use xlink:href="#SVGID_21_"  overflow="visible"/>
		</clipPath>
	</g>
	<g>
		<defs>
			<polygon id="SVGID_23_" points="98.378,77.619 98.378,93.986 101.917,93.986 101.917,104.407 89.255,104.407 89.255,93.986 
				92.755,93.986 92.755,77.619 63.89,77.619 63.89,93.986 68.097,93.986 68.097,129.625 63.97,129.625 63.97,145.993 
				92.755,145.993 92.755,129.625 89.255,129.625 89.255,118.418 101.917,118.418 101.917,129.625 98.378,129.625 98.378,145.993 
				127.202,145.993 127.202,129.625 123.075,129.625 123.075,93.986 127.202,93.986 127.202,77.619 			"/>
		</defs>
		<use xlink:href="#SVGID_23_"  overflow="visible" fill="#000024"/>
		<clipPath id="SVGID_2_">
			<use xlink:href="#SVGID_23_"  overflow="visible"/>
		</clipPath>
	</g>
	<g>
		<defs>
			<polygon id="SVGID_25_" points="136.411,77.619 136.411,93.986 140.739,93.986 140.739,129.625 136.491,129.625 136.491,145.993 
				188.677,145.993 188.677,124.12 174.321,124.12 174.321,129.625 161.896,129.625 161.896,118.418 172.71,118.418 172.71,104.506 
				161.896,104.506 161.896,93.986 174.321,93.986 174.321,99.493 188.677,99.493 188.677,77.619 			"/>
		</defs>
		<use xlink:href="#SVGID_25_"  overflow="visible" fill="#000024"/>
		<clipPath id="SVGID_3_">
			<use xlink:href="#SVGID_25_"  overflow="visible"/>
		</clipPath>
	</g>
	<g>
		<defs>
			<path id="SVGID_27_" d="M246.972,93.986h0.785c4.195,0,7.105,0.805,8.73,2.407c1.652,1.609,2.807,3.885,3.461,6.834
				c0.629,2.951,0.945,5.932,0.945,8.947c0,5.014-0.736,9.178-2.203,12.486c-1.494,3.311-4.732,4.965-9.715,4.965h-2.004V93.986z
				 M221.526,77.619v16.368h4.289v35.639h-4.289v16.367h25.445c7.418,0,12.898-0.393,16.438-1.178
				c3.564-0.785,6.844-2.477,9.83-5.062c3.068-2.592,5.598-6.309,7.592-11.158c2.02-4.885,3.029-10.291,3.029-16.225
				c0-2.947-0.252-5.766-0.748-8.453c-0.5-2.686-1.221-5.209-2.164-7.57c-1.914-4.916-4.537-8.814-7.865-11.699
				c-3.355-2.851-6.934-4.735-10.736-5.652c-3.773-0.919-8.65-1.376-14.629-1.376H221.526z"/>
		</defs>
		<use xlink:href="#SVGID_27_"  overflow="visible" fill="#000024"/>
		<clipPath id="SVGID_4_">
			<use xlink:href="#SVGID_27_"  overflow="visible"/>
		</clipPath>
	</g>
	<g>
		<defs>
			<path id="SVGID_29_" d="M315.208,94.969l4.641,18.926h-9.791L315.208,94.969z M298.417,77.619v16.368h4.404l-10.264,35.639h-4.17
				v16.367h21.67V131h-4.482l2.398-8.602h14l2.084,8.602h-4.799v14.992h28.551v-16.367h-4.012l-10.461-35.639h4.404V77.619H298.417z
				"/>
		</defs>
		<use xlink:href="#SVGID_29_"  overflow="visible" fill="#000024"/>
		<clipPath id="SVGID_6_">
			<use xlink:href="#SVGID_29_"  overflow="visible"/>
		</clipPath>
	</g>
	<polygon fill="#000024" points="374.337,87.261 373.015,96.915 367.761,88.709 360.661,77.619 353.519,77.619 353.519,93.986 
		358.552,93.986 358.552,129.625 353.519,129.625 353.519,145.993 384.704,145.993 384.704,129.625 379.708,129.625 379.708,93.986 
		384.704,93.986 384.704,77.619 375.657,77.619 	"/>
	<g>
		<defs>
			<polygon id="SVGID_31_" points="392.458,77.619 392.458,93.986 397.374,93.986 397.374,129.625 392.458,129.625 392.458,145.993 
				444.524,145.993 444.524,118.665 431.47,118.665 431.47,129.625 418.53,129.625 418.53,93.986 423.722,93.986 423.722,77.619 			
				"/>
		</defs>
		<use xlink:href="#SVGID_31_"  overflow="visible" fill="#000024"/>
		<clipPath id="SVGID_8_">
			<use xlink:href="#SVGID_31_"  overflow="visible"/>
		</clipPath>
	</g>
	<g>
		<defs>
			<polygon id="SVGID_33_" points="478.036,77.619 478.036,93.986 481.38,93.986 474.341,107.946 468.521,93.986 471.784,93.986 
				471.784,77.619 443.194,77.619 443.194,93.986 446.931,93.986 460.733,118.76 460.733,129.625 456.329,129.625 456.329,145.993 
				486.218,145.993 486.218,129.625 481.892,129.625 481.892,118.76 495.653,93.986 499.075,93.986 499.075,77.619 			"/>
		</defs>
		<use xlink:href="#SVGID_33_"  overflow="visible" fill="#000024"/>
		<clipPath id="SVGID_10_">
			<use xlink:href="#SVGID_33_"  overflow="visible"/>
		</clipPath>
	</g>
	<polygon fill="#F01B26" points="373.937,63.748 370.782,86.773 358.272,67.234 333.226,72.027 350.399,53.105 338.786,32.361 
		361.399,41.357 387.499,1.254 375.433,47.937 402.444,61.921 	"/>
</g>
</svg>
