<?xml version="1.0" encoding="utf-8"?>
<!-- Generator: Adobe Illustrator 16.0.4, SVG Export Plug-In . SVG Version: 6.00 Build 0)  -->
<!DOCTYPE svg PUBLIC "-//W3C//DTD SVG 1.1//EN" "http://www.w3.org/Graphics/SVG/1.1/DTD/svg11.dtd">
<svg version="1.1" id="Layer_1" xmlns="http://www.w3.org/2000/svg" xmlns:xlink="http://www.w3.org/1999/xlink" x="0px" y="0px"
	 width="410px" height="419.979px" viewBox="0 0 410 419.979" enable-background="new 0 0 410 419.979" xml:space="preserve">
<g>
	<g>
		<path fill="#FFFFFF" d="M176.603,38.563c32.994,0,60.14,2.381,80.688,7.077c2.508,0.571,5.05,1.237,7.598,1.992l-5.624,8.641
			l-58.136,89.337l-45.555-18.123l-23.424-9.32l-10.335-4.112l5.433,9.706l12.314,22l23.901,42.697l-35.813,39.461l-17.997,19.828
			l-7.942,8.75l11.606-2.222l26.299-5.035l52.753-10.09l25.92,40.484l13.1,20.457l5.779,9.024l1.454-10.617l3.295-24.065
			l6.292-45.934l59.278-3.802l32.146-2.059l14.186-0.909l-12.624-6.534l-28.606-14.807l-57.006-29.512l26.97-104.347l2.817-10.905
			c9.673,4.728,19.084,10.729,28.011,17.863c17.252,14.078,31.096,33.536,41.146,57.834l0.042,0.097l0.006,0.015
			c5.016,11.802,8.91,24.637,11.574,38.149c2.67,13.574,4.024,28.031,4.024,42.969c0,29.941-5.457,57.549-16.221,82.062
			c-10.485,24.012-23.801,42.541-39.595,55.087l-0.073,0.059l-0.037,0.03c-15.378,12.541-32.429,20.819-50.684,24.608
			c-19.245,4.027-49.938,6.069-91.227,6.069H39.823v-38.525h13.336h8.784h3.946v-3.946v-8.784V89.821v-8.786v-3.946h-3.946h-8.784
			H39.823V38.563H176.603 M176.603,34.617H35.876v46.418h17.282h8.784v8.786v239.394v8.784h-8.784H35.876v46.418h136.46
			c41.553,0,72.521-2.069,92.035-6.153c18.878-3.918,36.495-12.467,52.37-25.412l0.043-0.035l0.045-0.036
			c16.29-12.939,29.994-31.976,40.74-56.584c10.984-25.013,16.551-53.15,16.551-83.642c0-15.194-1.379-29.906-4.099-43.731
			c-2.716-13.779-6.691-26.879-11.814-38.931l-0.016-0.039l-0.017-0.038c-10.305-24.913-24.538-44.891-42.298-59.383
			c-10.594-8.467-21.679-15.272-33.138-20.392l-4.006,15.504l-27.757,107.392l59.8,30.958l28.606,14.808l-32.146,2.059
			l-62.498,4.009l-6.73,49.13l-3.295,24.065l-13.1-20.457l-27.361-42.734l-55.377,10.592l-26.3,5.035l17.997-19.828l37.722-41.564
			l-25.288-45.175l-12.314-21.999l23.424,9.32l48.558,19.317l59.899-92.046l8.451-12.984c-4.244-1.439-8.531-2.664-12.856-3.648
			C237.329,37.03,209.89,34.617,176.603,34.617L176.603,34.617z"/>
	</g>
	<path fill="#FFFFFF" d="M399.227,162.102c-3.18-16.146-7.785-31.313-13.811-45.493c-12.22-29.542-28.962-52.979-50.22-70.31
		c-13.978-11.175-28.563-19.863-43.75-26.095l-4.294,16.615c12.954,5.626,25.432,13.219,37.418,22.806
		c19.523,15.917,34.896,37.437,46.121,64.568c5.535,13.022,9.762,26.952,12.683,41.779c2.917,14.833,4.38,30.386,4.38,46.665
		c0,32.737-5.92,62.581-17.755,89.528c-11.686,26.768-26.52,47.302-44.508,61.587c-17.525,14.29-36.746,23.605-57.652,27.942
		c-20.753,4.342-52.886,6.509-96.392,6.509H22.245V324.58h25.648V94.45H22.245V20.827h153.584c35.049,0,63.645,2.535,85.783,7.595
		c5.514,1.253,10.944,2.835,16.295,4.739l9.475-14.561c-6.792-2.577-13.703-4.677-20.736-6.276
		c-24.105-5.509-55.244-8.271-93.408-8.271H6v106.268h26.242v198.393H6v106.265h162.464c47.374,0,82.361-2.359,104.961-7.093
		c22.763-4.724,43.691-14.868,62.775-30.426c19.585-15.555,35.74-37.907,48.462-67.058C397.551,281.058,404,248.558,404,212.915
		C404,195.188,402.407,178.251,399.227,162.102z"/>
	<polygon fill="#F01B26" points="237.324,216.408 229.49,273.593 198.425,225.067 136.221,236.971 178.869,189.979 150.032,138.461 
		206.191,160.802 271.004,61.207 241.039,177.143 308.122,211.872 	"/>
</g>
</svg>
