<svg xmlns="http://www.w3.org/2000/svg" id="Layer_1" width="92" height="28" viewBox="0 0 92 28"><style>.a{fill:#FFF;}</style><path d="M1.3 12.7C1.1 9.2 0.8 5.7 0.6 2.1c2.5-0.2 5-0.3 7.6-0.4 0 0.8 0.1 1.7 0.1 2.5 -1.5 0.1-3 0.2-4.5 0.3 0 0.6 0.1 1.2 0.1 1.8 1.2-0.1 2.5-0.1 3.7-0.2C7.6 6.8 7.7 7.6 7.7 8.4 6.5 8.5 5.3 8.5 4 8.6c0.1 1.3 0.2 2.6 0.2 3.9C3.3 12.6 2.3 12.7 1.3 12.7z" class="a"/><path d="M9.8 12.3C9.6 8.7 9.5 5.2 9.3 1.6c1.7-0.1 3.4-0.2 5.1-0.2 2.2-0.1 3.8 1.7 3.9 3.5 0 1.2-0.5 2.4-1.5 3.1 0.9 1.3 1.7 2.5 2.6 3.8 -1.1 0-2.2 0.1-3.4 0.1 -0.7-1.1-1.5-2.1-2.2-3.2 -0.4 0-0.7 0-1.1 0.1 0.1 1.1 0.1 2.2 0.2 3.3C11.8 12.2 10.8 12.2 9.8 12.3zM12.5 6.3c0.6 0 1.3-0.1 1.9-0.1 0.4 0 0.7-0.5 0.7-1.2 0-0.7-0.5-1.1-0.9-1.1 -0.6 0-1.2 0.1-1.8 0.1C12.5 4.8 12.5 5.6 12.5 6.3z" class="a"/><path d="M20.3 11.8c-0.1-3.5-0.3-7.1-0.4-10.6 1 0 2-0.1 3-0.1 0.1 3.5 0.2 7.1 0.3 10.6C22.3 11.7 21.3 11.8 20.3 11.8z" class="a"/><path d="M32.9 8.9c0 0.8 0 1.7 0 2.5 -2.6 0-5.2 0.1-7.7 0.2 -0.1-3.5-0.2-7.1-0.3-10.6 2.6-0.1 5.1-0.1 7.7-0.2 0 0.8 0 1.7 0 2.5 -1.6 0-3.1 0.1-4.7 0.1 0 0.5 0 1 0 1.5 1.3 0 2.7-0.1 4-0.1 0 0.8 0 1.6 0 2.4 -1.3 0-2.6 0.1-4 0.1 0 0.6 0 1.1 0 1.7C29.7 9 31.3 8.9 32.9 8.9z" class="a"/><path d="M37.2 6.2c0 1.7 0 3.5 0.1 5.2 -1 0-2 0-3 0 -0.1-3.5-0.1-7.1-0.2-10.6 0.8 0 1.6 0 2.4 0 1.5 1.8 3 3.6 4.5 5.4 0-1.8 0-3.6 0-5.4 1 0 2 0 3 0 0 3.5 0 7.1 0 10.6 -0.8 0-1.6 0-2.4 0C40.2 9.6 38.7 7.9 37.2 6.2z" class="a"/><path d="M45.9 11.3c0-3.5 0-7.1 0-10.6 1.4 0 2.8 0 4.2 0 3.7 0 5.5 2.4 5.5 5.4 0 3.2-2.2 5.3-5.6 5.3C48.7 11.3 47.3 11.3 45.9 11.3zM50.1 3.3c-0.4 0-0.8 0-1.2 0 0 1.8 0 3.7 0 5.5 0.4 0 0.8 0 1.2 0 1.6 0 2.5-1.2 2.5-2.8C52.6 4.4 51.6 3.3 50.1 3.3z" class="a"/><path d="M63.5 4.4c0 0-1.6-1-2.9-1 -0.5 0-0.9 0.1-0.9 0.5 0 0.6 0.8 0.7 2 1.1 2 0.7 3.3 1.4 3.2 3.4 -0.1 2.6-2.2 3.3-4.2 3.3 -1.6 0-3.4-0.6-4.7-1.3 0.4-0.8 0.9-1.7 1.3-2.5 0 0 1.8 1.2 3.5 1.2 0.6 0 0.9-0.2 0.9-0.4 0-0.6-1.1-0.8-2.4-1.2 -1.9-0.7-2.8-1.5-2.7-3 0-2.4 2-3.6 4.2-3.5 1.6 0 3.1 0.7 4.1 1.2C64.4 2.8 64 3.6 63.5 4.4z" class="a"/><path d="M76.3 1.3c-0.1 3.5-0.3 7.1-0.4 10.6 -1 0-2-0.1-3-0.1 0.1-1.4 0.1-2.8 0.2-4.2C71.8 7.6 70.5 7.6 69.3 7.6c0 1.4-0.1 2.8-0.1 4.2 -1 0-2-0.1-3-0.1 0.1-3.5 0.2-7.1 0.3-10.6 1 0 2 0.1 3 0.1 0 1.3-0.1 2.6-0.1 3.9 1.2 0 2.5 0.1 3.7 0.1 0.1-1.3 0.1-2.6 0.1-3.9C74.2 1.3 75.3 1.3 76.3 1.3z" class="a"/><path d="M77.7 12c0.2-3.5 0.3-7.1 0.5-10.6 1 0 2 0.1 3 0.1 -0.2 3.5-0.3 7.1-0.5 10.6C79.7 12.1 78.7 12.1 77.7 12z" class="a"/><path d="M82.5 12.3c0.2-3.5 0.4-7.1 0.5-10.6 1.6 0.1 3.2 0.2 4.8 0.3 2.2 0.1 3.6 2.1 3.5 3.9 -0.1 1.9-1.7 3.6-3.8 3.5 -0.6 0-1.2-0.1-1.8-0.1 -0.1 1.1-0.1 2.2-0.2 3.3C84.5 12.4 83.5 12.3 82.5 12.3zM85.8 6.6c0.5 0 1.1 0.1 1.6 0.1 0.4 0 0.8-0.2 0.8-1.1 0.1-0.9-0.4-1.2-0.8-1.2 -0.5 0-1-0.1-1.5-0.1C85.9 5.1 85.9 5.9 85.8 6.6z" class="a"/><path d="M11.9 27.3c-0.1-2.3-0.2-4.6-0.3-6.9 -0.7 1.7-1.3 3.3-2 5 -0.6 0-1.3 0.1-1.9 0.1 -0.8-1.6-1.7-3.2-2.5-4.7 0.1 2.3 0.3 4.6 0.4 6.9 -1.2 0.1-2.4 0.1-3.6 0.2 -0.3-4.4-0.5-8.7-0.8-13.1 1.3-0.1 2.7-0.2 4-0.2 1.1 2 2.1 4 3.2 6 0.9-2.1 1.7-4.2 2.6-6.3 1.3-0.1 2.7-0.1 4-0.2 0.2 4.4 0.4 8.8 0.6 13.1C14.3 27.2 13.1 27.2 11.9 27.3z" class="a"/><path d="M16.5 27.1c1.5-4.4 2.9-8.9 4.4-13.3 1 0 2-0.1 3-0.1 1.8 4.3 3.6 8.7 5.3 13 -1.3 0-2.5 0.1-3.8 0.1 -0.3-0.8-0.6-1.7-0.9-2.5 -1.2 0-2.3 0.1-3.5 0.1 -0.2 0.9-0.5 1.7-0.7 2.6C19.1 27 17.8 27 16.5 27.1zM22.6 17.4c-0.4 1.5-0.7 3-1.1 4.4 0.8 0 1.6-0.1 2.4-0.1C23.5 20.4 23 18.9 22.6 17.4z" class="a"/><path d="M30.2 26.6c-0.1-4.4-0.2-8.8-0.3-13.1 1.7 0 3.4-0.1 5.2-0.1 4.5-0.1 6.8 2.9 6.8 6.5 0 4-2.6 6.6-6.6 6.7C33.6 26.6 31.9 26.6 30.2 26.6zM35.1 16.5c-0.5 0-1 0-1.5 0 0 2.3 0.1 4.6 0.1 6.8 0.5 0 1 0 1.5 0 1.9 0 3-1.5 2.9-3.5C38.2 17.9 37 16.5 35.1 16.5z" class="a"/><path d="M47.1 20c0 2.2 0 4.3 0 6.5 -1.2 0-2.4 0-3.6 0 0-4.4 0-8.8 0-13.1 1 0 1.9 0 2.9 0 1.8 2.2 3.6 4.5 5.3 6.7 0-2.2 0-4.5 0.1-6.7 1.2 0 2.5 0 3.7 0 -0.1 4.4-0.1 8.8-0.2 13.1 -1 0-1.9 0-2.9 0C50.6 24.3 48.9 22.1 47.1 20z" class="a"/><path d="M67 23.6c0 1-0.1 2.1-0.1 3.1 -3.1-0.1-6.2-0.2-9.4-0.2 0.1-4.4 0.1-8.8 0.2-13.1 3.1 0.1 6.3 0.1 9.4 0.2 0 1-0.1 2.1-0.1 3.1 -1.9-0.1-3.8-0.1-5.7-0.1 0 0.6 0 1.2 0 1.9 1.6 0 3.2 0.1 4.8 0.1 0 1-0.1 1.9-0.1 2.9 -1.6 0-3.2-0.1-4.8-0.1 0 0.7 0 1.4 0 2.1C63.1 23.5 65 23.6 67 23.6z" class="a"/><path d="M76.8 18.3c0 0-1.9-1.3-3.5-1.3 -0.6 0-1.1 0.1-1.1 0.6 0 0.7 0.9 0.9 2.4 1.4 2.4 0.9 3.9 1.8 3.8 4.2 -0.1 3.2-2.7 4.1-5.2 4 -1.9-0.1-4.1-0.8-5.7-1.7 0.6-1 1.1-2.1 1.7-3.1 0 0 2.2 1.5 4.2 1.6 0.8 0 1.1-0.2 1.1-0.5 0-0.8-1.3-1-2.9-1.6 -2.3-0.9-3.3-1.9-3.2-3.8 0.1-2.9 2.5-4.4 5.1-4.3 1.9 0.1 3.8 1 5 1.6C77.9 16.3 77.4 17.3 76.8 18.3z" class="a"/><path d="M88.4 18.9c0 0-1.9-1.3-3.5-1.4 -0.6 0-1.1 0.1-1.1 0.6 0 0.7 0.9 0.9 2.4 1.4 2.4 0.9 3.9 1.8 3.8 4.3 -0.2 3.2-2.8 4-5.3 3.9 -1.9-0.1-4.1-0.8-5.6-1.8 0.6-1 1.1-2.1 1.7-3.1 0 0 2.1 1.6 4.2 1.7 0.8 0 1.1-0.2 1.1-0.5 0-0.8-1.3-1-2.9-1.6 -2.3-0.9-3.3-1.9-3.2-3.8 0.1-2.9 2.6-4.3 5.2-4.2 1.9 0.1 3.8 1 4.9 1.7C89.5 16.9 88.9 17.9 88.4 18.9z" class="a"/></svg>