<?xml version="1.0" encoding="utf-8"?>
<!-- Generator: Adobe Illustrator 16.0.4, SVG Export Plug-In . SVG Version: 6.00 Build 0)  -->
<!DOCTYPE svg PUBLIC "-//W3C//DTD SVG 1.1//EN" "http://www.w3.org/Graphics/SVG/1.1/DTD/svg11.dtd">
<svg version="1.1" id="Layer_1" xmlns="http://www.w3.org/2000/svg" xmlns:xlink="http://www.w3.org/1999/xlink" x="0px" y="0px"
	 width="400px" height="360px" viewBox="0 0 400 360" enable-background="new 0 0 400 360" xml:space="preserve">
<g>
	<g>
		<g>
			<path fill="#063C64" d="M266.245,118.8c-0.122-0.004-0.238-0.007-0.358-0.014c-0.102,0.01-0.206,0.007-0.309,0.014H266.245z"/>
		</g>
		<g>
			<path fill="#063C64" d="M157.411,119c36.38,0,72.1-1.414,108.476-0.114c10.489-0.567,19.706,3.271,30.221,1.956
				c9.95-1.331,19.903-2.017,29.862,1.303c3.576,1.021,7.548,0.457,11.308,0.149c-24.705-50.465-76.548-85.221-136.532-85.221
				c-60.528,0-112.78,35.486-137.205,86.703c31.569-2.08,62.816-4.775,94.532-4.775H157.411z"/>
		</g>
		<g>
			<path fill="#063C64" d="M163.377,256.173c-3.977,0-7.958-1.332-12.606-1.332c-28.039,2.199-56.075,3.939-84.121,5.608
				c25.568,47.879,76.021,80.463,134.095,80.463c58.549,0,109.351-33.122,134.716-81.642
				C278.317,254.443,221.103,253.252,163.377,256.173z"/>
		</g>
		<g>
			<g>
				<path fill="#137CC8" d="M94.584,297.656c11.348-12.101,20.635-25.768,27.706-40.727c-18.544,1.28-37.085,2.416-55.625,3.52
					C74.04,274.264,83.478,286.804,94.584,297.656z"/>
			</g>
			<g>
				<path fill="#137CC8" d="M266.245,118.8c-0.122-0.004-0.238-0.007-0.358-0.014c-0.102,0.01-0.206,0.007-0.309,0.014H266.245z"/>
			</g>
			<g>
				<path fill="#137CC8" d="M209,37.313v81.016c19-0.193,37.731-0.224,56.65,0.457c1.59-0.082,3.26-0.068,4.799,0.016
					c7.24-16.289,16.863-31.478,29.027-45.04C274.941,52.659,244,39.263,209,37.313z"/>
			</g>
			<g>
				<path fill="#137CC8" d="M63.548,123.672c19.45-1.28,38.781-2.828,58.17-3.828c-7.011-14.511-16.104-27.752-27.137-39.521
					C81.853,92.761,71.304,107.426,63.548,123.672z"/>
			</g>
			<g>
				<path fill="#137CC8" d="M105.077,71.163c13.223,14.153,23.76,30.362,31.611,48.129c7.149-0.245,14.193-0.292,21.385-0.292
					h-0.662c11.757,0,23.589-0.336,35.589-0.482V37.286C159,39.053,129.248,51.468,105.077,71.163z"/>
			</g>
			<g>
				<path fill="#137CC8" d="M335.455,259.271c-17.074-1.448-34.156-2.559-51.247-3.335c6.498,13.998,15.081,27.074,25.577,38.834
					C319.954,284.285,328.624,272.333,335.455,259.271z"/>
			</g>
			<g>
				<path fill="#137CC8" d="M296.107,120.792c9.95-1.331,19.903-1.992,29.862,1.328c3.576,1.018,7.542,0.469,11.299,0.161
					c-7.084-14.47-16.391-27.648-27.494-39.087c-10.14,11.363-18.482,23.949-24.901,37.411
					C288.524,121.048,292.227,121.277,296.107,120.792z"/>
			</g>
			<g>
				<path fill="#137CC8" d="M209,254.713v85.943c35-1.95,66.003-15.351,90.54-36.453c-13.107-14.618-23.597-31.122-30.975-48.872
					C248.782,254.668,229,254.455,209,254.713z"/>
			</g>
			<g>
				<path fill="#137CC8" d="M150.771,254.841c-4.309,0.336-8.625,0.664-12.936,0.983c-0.227,0.532-0.441,1.064-0.67,1.592
					c-7.894,18.287-18.505,34.873-32.078,49.4C129.254,326.51,159,338.915,193,340.686v-85.632c-10,0.268-19.646,0.626-29.381,1.119
					C159.643,256.173,155.42,254.841,150.771,254.841z"/>
			</g>
		</g>
		<path fill="#063C64" d="M93.484,81.714c13.931-13.935,30.156-24.872,48.217-32.51C160.396,41.3,180.26,37.29,200.745,37.29
			c20.488,0,40.353,4.011,59.044,11.915c18.062,7.638,34.29,18.575,48.227,32.51c11.934,11.948,21.67,25.567,29.021,40.586
			c1.201-0.103,2.386-0.181,3.53-0.181c4.153,0,8.245,0.238,12.317,0.621c-25.574-58.654-84.064-99.66-152.14-99.66
			c-68.807,0-127.821,41.889-152.962,101.551c5.352-0.291,10.688-0.619,16.011-0.977C71.215,108.101,81.182,94.017,93.484,81.714z"
			/>
		<path fill="#063C64" d="M308.016,296.248c-13.937,13.941-30.165,24.877-48.227,32.523c-18.691,7.904-38.556,11.909-59.044,11.909
			c-20.485,0-40.35-4.005-59.044-11.909c-18.062-7.646-34.286-18.582-48.217-32.523c-10.671-10.655-19.572-22.672-26.596-35.814
			c-5.153,0.311-10.313,0.611-15.467,0.913c26.879,55.373,83.643,93.542,149.324,93.542c65.969,0,122.944-38.498,149.68-94.263
			c-5.065-0.488-10.135-0.95-15.199-1.375C328.116,272.856,318.998,285.271,308.016,296.248z"/>
	</g>
	<g>
		<g>
			<g>
				<g>
					<path fill="#063C64" d="M10.966,185.091c-0.921-14.959-1.843-29.919-2.765-44.879c10.699-0.659,21.401-1.263,32.104-1.812
						c0.184,3.585,0.368,7.17,0.551,10.755c-6.396,0.328-12.792,0.675-19.186,1.043c0.143,2.488,0.286,4.975,0.429,7.463
						c5.201-0.299,10.403-0.584,15.604-0.857c0.175,3.33,0.349,6.659,0.523,9.988c-5.185,0.271-10.37,0.557-15.554,0.854
						c0.32,5.563,0.64,11.127,0.959,16.69C19.41,184.58,15.188,184.831,10.966,185.091z"/>
					<path fill="#063C64" d="M47.285,183.069c-0.744-14.969-1.488-29.939-2.231-44.909c7.166-0.356,14.332-0.687,21.499-0.994
						c9.178-0.392,16.072,7.281,16.352,14.936c0.194,5.188-2.112,10.093-6.176,13.104c3.704,5.366,7.389,10.739,11.056,16.119
						c-4.769,0.174-9.536,0.358-14.304,0.555c-3.114-4.479-6.24-8.952-9.379-13.42c-1.59,0.07-3.18,0.141-4.769,0.213
						c0.209,4.598,0.418,9.195,0.628,13.792C55.735,182.658,51.51,182.859,47.285,183.069z M58.843,157.922
						c2.685-0.123,5.371-0.241,8.057-0.356c1.578-0.068,3.134-1.91,3.008-4.946c-0.129-3.1-2.165-4.726-3.749-4.657
						c-2.585,0.111-5.169,0.226-7.754,0.343C58.551,151.511,58.697,154.717,58.843,157.922z"/>
					<path fill="#063C64" d="M91.876,181.18c-0.526-14.979-1.051-29.958-1.577-44.938c4.288-0.15,8.576-0.292,12.864-0.425
						c0.464,14.981,0.927,29.962,1.391,44.943C100.328,180.892,96.102,181.031,91.876,181.18z"/>
					<path fill="#063C64" d="M145.21,169.008c0.063,3.587,0.126,7.174,0.189,10.761c-10.972,0.193-21.943,0.445-32.914,0.756
						c-0.425-14.982-0.85-29.964-1.274-44.946c10.933-0.31,21.867-0.562,32.801-0.757c0.063,3.589,0.127,7.178,0.191,10.768
						c-6.621,0.118-13.242,0.256-19.862,0.417c0.051,2.108,0.102,4.216,0.153,6.325c5.644-0.137,11.287-0.258,16.931-0.363
						c0.062,3.336,0.125,6.673,0.188,10.01c-5.625,0.105-11.251,0.226-16.876,0.362c0.057,2.364,0.114,4.728,0.172,7.092
						C131.676,169.269,138.443,169.127,145.21,169.008z"/>
					<path fill="#063C64" d="M163.742,157.397c0.085,7.367,0.17,14.735,0.254,22.102c-4.227,0.049-8.454,0.106-12.681,0.172
						c-0.235-14.987-0.469-29.973-0.704-44.959c3.344-0.052,6.688-0.099,10.033-0.141c6.363,7.542,12.68,15.103,18.951,22.684
						c-0.048-7.621-0.097-15.241-0.146-22.861c4.29-0.028,8.581-0.046,12.871-0.056c0.034,14.988,0.067,29.977,0.101,44.965
						c-3.361,0.007-6.721,0.021-10.082,0.039C176.185,172.009,169.985,164.693,163.742,157.397z"/>
					<path fill="#063C64" d="M200.358,179.296c0.006-14.988,0.011-29.977,0.017-44.965c6.005,0.002,12.01,0.021,18.016,0.059
						c15.596,0.102,23.507,10.249,23.322,22.654c-0.203,13.62-9.562,22.398-23.6,22.31
						C212.195,179.318,206.276,179.298,200.358,179.296z M218.324,145.159c-1.708-0.011-3.416-0.02-5.124-0.027
						c-0.035,7.811-0.071,15.622-0.106,23.432c1.695,0.008,3.391,0.017,5.086,0.027c6.656,0.042,10.49-4.922,10.559-11.698
						C228.808,149.926,224.907,145.2,218.324,145.159z"/>
					<path fill="#063C64" d="M275.313,149.962c0.003-0.001-6.659-4.281-12.256-4.395c-2.242-0.046-3.767,0.557-3.797,2.14
						c-0.045,2.341,3.231,2.912,8.575,4.673c8.54,2.79,13.9,5.857,13.673,14.271c-0.298,10.823-9.363,14.068-17.941,13.891
						c-6.698-0.143-14.523-2.368-20.017-5.612c1.876-3.583,3.758-7.165,5.646-10.744c0.004,0,7.694,5.067,14.802,5.219
						c2.74,0.058,3.741-0.681,3.769-1.885c0.058-2.593-4.704-3.274-10.23-5.213c-8.123-2.814-11.682-6.215-11.583-12.798
						c0.142-9.949,8.472-15.082,17.721-14.889c6.798,0.141,13.26,3.154,17.425,5.287
						C279.165,143.257,277.236,146.608,275.313,149.962z"/>
					<path fill="#063C64" d="M329.449,137.061c-0.629,14.975-1.257,29.95-1.885,44.926c-4.226-0.178-8.452-0.346-12.679-0.506
						c0.222-5.864,0.443-11.728,0.665-17.592c-5.188-0.196-10.375-0.379-15.562-0.549c-0.192,5.865-0.385,11.73-0.576,17.595
						c-4.226-0.138-8.452-0.268-12.678-0.389c0.428-14.982,0.856-29.964,1.284-44.946c4.288,0.123,8.576,0.254,12.864,0.395
						c-0.181,5.529-0.362,11.059-0.543,16.588c5.206,0.17,10.412,0.354,15.617,0.551c0.209-5.528,0.418-11.057,0.627-16.585
						C320.872,136.71,325.161,136.881,329.449,137.061z"/>
					<path fill="#063C64" d="M335.49,182.329c0.667-14.974,1.334-29.947,2.001-44.92c4.288,0.191,8.576,0.391,12.864,0.6
						c-0.729,14.97-1.458,29.941-2.188,44.912C343.942,182.714,339.717,182.517,335.49,182.329z"/>
					<path fill="#063C64" d="M356.092,183.316c0.768-14.969,1.535-29.938,2.303-44.906c6.727,0.345,13.451,0.712,20.176,1.101
						c9.17,0.531,15.262,8.856,14.772,16.501c-0.508,7.965-7.11,15.154-16.239,14.625c-2.525-0.146-5.053-0.29-7.579-0.43
						c-0.255,4.595-0.51,9.19-0.764,13.786C364.538,183.758,360.314,183.532,356.092,183.316z M370.12,159.46
						c2.25,0.125,4.5,0.252,6.749,0.382c1.569,0.09,3.276-1.015,3.488-4.619c0.22-3.729-1.682-4.919-3.258-5.01
						c-2.148-0.124-4.297-0.245-6.446-0.364C370.476,153.053,370.298,156.256,370.12,159.46z"/>
				</g>
				<g>
					<path fill="#063C64" d="M56.137,246.573c-0.466-9.746-0.932-19.492-1.397-29.239c-2.823,7.005-5.625,14.013-8.405,21.024
						c-2.735,0.14-5.47,0.282-8.205,0.429c-3.495-6.684-7.012-13.361-10.55-20.032c0.554,9.741,1.107,19.483,1.66,29.226
						c-5.112,0.29-10.223,0.594-15.334,0.91c-1.146-18.488-2.291-36.977-3.436-55.465c5.686-0.353,11.372-0.688,17.059-1.009
						c4.574,8.469,9.114,16.948,13.62,25.438c3.624-8.915,7.283-17.823,10.978-26.725c5.659-0.273,11.319-0.53,16.979-0.771
						c0.79,18.507,1.579,37.014,2.369,55.521C66.361,246.098,61.249,246.329,56.137,246.573z"/>
					<path fill="#063C64" d="M75.645,245.705c6.189-18.795,12.507-37.571,18.955-56.327c4.219-0.145,8.438-0.28,12.657-0.407
						c7.613,18.303,15.098,36.634,22.455,54.991c-5.406,0.126-10.812,0.266-16.218,0.42c-1.229-3.593-2.463-7.185-3.701-10.776
						c-4.978,0.148-9.955,0.309-14.932,0.481c-0.979,3.663-1.955,7.326-2.927,10.99C86.503,245.271,81.074,245.48,75.645,245.705z
						 M101.436,205.045c-1.555,6.264-3.099,12.528-4.633,18.795c3.408-0.116,6.817-0.226,10.226-0.33
						C105.175,217.354,103.311,211.198,101.436,205.045z"/>
					<path fill="#063C64" d="M133.883,243.868c-0.404-18.52-0.808-37.039-1.212-55.558c7.296-0.159,14.592-0.293,21.889-0.399
						c18.947-0.268,28.789,12.086,28.848,27.422c0.064,16.837-11.056,27.897-28.035,28.144
						C148.21,243.581,141.046,243.712,133.883,243.868z M154.755,201.218c-2.075,0.03-4.15,0.062-6.226,0.097
						c0.161,9.651,0.322,19.303,0.483,28.954c2.056-0.034,4.111-0.066,6.167-0.097c8.058-0.116,12.579-6.345,12.497-14.716
						C167.591,206.849,162.74,201.102,154.755,201.218z"/>
					<path fill="#063C64" d="M205.731,215.845c-0.02,9.106-0.039,18.212-0.059,27.317c-5.116-0.011-10.232-0.009-15.349,0.007
						c-0.055-18.524-0.11-37.048-0.166-55.571c4.063-0.012,8.126-0.016,12.19-0.012c7.607,9.426,15.144,18.88,22.61,28.361
						c0.08-9.418,0.16-18.835,0.24-28.253c5.212,0.044,10.424,0.102,15.636,0.173c-0.252,18.522-0.504,37.044-0.757,55.566
						c-4.066-0.056-8.133-0.103-12.2-0.142C220.563,234.116,213.181,224.967,205.731,215.845z"/>
					<path fill="#063C64" d="M289.911,231.215c-0.134,4.434-0.268,8.866-0.4,13.3c-13.272-0.4-26.548-0.712-39.823-0.935
						c0.312-18.521,0.623-37.043,0.935-55.563c13.281,0.224,26.562,0.533,39.84,0.93c-0.133,4.435-0.266,8.868-0.397,13.302
						c-8.032-0.239-16.065-0.448-24.099-0.624c-0.057,2.606-0.114,5.214-0.171,7.821c6.847,0.15,13.692,0.323,20.538,0.521
						c-0.118,4.121-0.236,8.243-0.354,12.365c-6.818-0.196-13.637-0.369-20.455-0.519c-0.064,2.921-0.129,5.842-0.192,8.763
						C273.524,230.755,281.719,230.968,289.911,231.215z"/>
					<path fill="#063C64" d="M331.669,208.63c0.004-0.001-7.99-5.441-14.779-5.7c-2.712-0.105-4.577,0.608-4.649,2.567
						c-0.108,2.894,3.856,3.664,10.299,5.96c10.293,3.632,16.719,7.546,16.232,17.948c-0.633,13.363-11.677,17.16-22.058,16.758
						c-8.1-0.32-17.521-3.229-24.106-7.354c2.348-4.389,4.704-8.774,7.07-13.158c0.006-0.001,9.21,6.412,17.812,6.754
						c3.317,0.131,4.548-0.759,4.609-2.244c0.131-3.203-5.622-4.148-12.274-6.658c-9.785-3.645-14.028-7.925-13.771-16.063
						c0.379-12.284,10.609-18.458,21.842-18.019c8.26,0.32,16.044,4.184,21.041,6.922
						C336.505,200.436,334.083,204.531,331.669,208.63z"/>
					<path fill="#063C64" d="M380.8,211.175c0.004-0.001-7.9-5.57-14.687-5.939c-2.71-0.149-4.585,0.534-4.689,2.491
						c-0.155,2.892,3.79,3.727,10.195,6.126c10.242,3.799,16.599,7.816,15.944,18.209c-0.85,13.353-11.957,16.969-22.33,16.398
						c-8.095-0.451-17.472-3.512-23.989-7.743c2.419-4.351,4.847-8.697,7.285-13.042c0.005-0.001,9.104,6.561,17.708,7.042
						c3.316,0.186,4.553-0.686,4.638-2.169c0.183-3.201-5.547-4.238-12.16-6.856c-9.728-3.803-13.903-8.151-13.514-16.284
						c0.578-12.277,10.91-18.284,22.138-17.662c8.253,0.453,15.97,4.442,20.929,7.262C385.77,203.06,383.28,207.115,380.8,211.175z"
						/>
				</g>
			</g>
			<path fill="#063C64" d="M3.345,127.162c0,0,3.04-0.315,5.873-0.714c2.833-0.384,7.753-1.074,13.042-1.706
				c5.294-0.651,12.113-1.479,19.498-2.229c3.695-0.391,7.814-0.81,11.96-1.233c4.148-0.417,8.604-0.77,13.158-1.174
				c4.551-0.386,9.343-0.783,14.254-1.181c4.913-0.39,10.022-0.691,15.241-1.04c5.228-0.332,10.603-0.664,16.093-0.986
				c1.371-0.079,2.758-0.162,4.143-0.24c1.388-0.062,2.783-0.125,4.186-0.184c2.798-0.129,5.632-0.247,8.482-0.363
				c5.706-0.238,11.509-0.456,17.382-0.67c2.934-0.104,5.893-0.208,8.86-0.301c2.973-0.056,5.957-0.118,8.952-0.168
				c11.989-0.206,24.169-0.347,36.35-0.413c12.179,0.082,24.36,0.238,36.352,0.456c2.997,0.059,5.981,0.122,8.949,0.187
				c2.97,0.101,5.929,0.208,8.867,0.318c5.864,0.209,11.671,0.433,17.375,0.679c11.413,0.417,22.432,1.142,32.879,1.811
				c5.225,0.351,10.306,0.648,15.213,1.052c4.913,0.403,9.657,0.799,14.209,1.197c4.552,0.395,8.916,0.752,13.062,1.178
				c4.143,0.425,8.068,0.833,11.761,1.225c7.395,0.758,13.82,1.572,19.115,2.224c5.296,0.626,9.146,1.258,11.987,1.641
				c2.833,0.4,4.045,0.602,4.046,0.602c-0.017,0.251-0.032,0.502-0.048,0.754c0.016-0.073-98.36-6.291-195.597-5.744
				c-97.236-0.531-195.612,5.704-195.596,5.776C3.376,127.665,3.361,127.413,3.345,127.162z"/>
			<path fill="#063C64" d="M11.929,263.597c0,0,2.906-0.306,5.615-0.698c2.709-0.37,7.412-1.055,12.468-1.666
				c5.061-0.644,11.58-1.457,18.641-2.185c3.532-0.387,7.471-0.793,11.435-1.208c3.966-0.406,8.227-0.758,12.581-1.146
				c4.351-0.385,8.933-0.775,13.629-1.161c4.697-0.384,9.583-0.681,14.574-1.018c4.999-0.326,10.139-0.646,15.388-0.968
				c1.311-0.072,2.637-0.153,3.961-0.233c1.328-0.062,2.662-0.116,4.003-0.181c2.676-0.116,5.386-0.236,8.111-0.353
				c5.456-0.23,11.005-0.443,16.622-0.648c2.805-0.103,5.635-0.206,8.473-0.296c2.843-0.057,5.696-0.117,8.561-0.167
				c11.464-0.197,23.112-0.334,34.761-0.398c11.646,0.078,23.295,0.227,34.762,0.438c2.866,0.06,5.72,0.115,8.558,0.189
				c2.841,0.099,5.67,0.199,8.479,0.305c5.607,0.201,11.16,0.429,16.615,0.659c10.913,0.417,21.449,1.116,31.439,1.774
				c4.996,0.346,9.854,0.634,14.547,1.024c4.697,0.397,9.232,0.789,13.586,1.171c4.352,0.399,8.525,0.736,12.488,1.157
				c3.961,0.41,7.715,0.816,11.244,1.2c7.07,0.738,13.214,1.539,18.275,2.176c5.064,0.613,8.743,1.237,11.46,1.613
				c2.708,0.389,3.867,0.586,3.867,0.586c-0.016,0.253-0.031,0.507-0.048,0.76c0.016-0.069-94.05-6.008-187.023-5.479
				c-92.974-0.513-187.039,5.441-187.023,5.512C11.96,264.104,11.945,263.851,11.929,263.597z"/>
		</g>
	</g>
	<g>
		<g>
			<g>
				<path fill="#137CC8" d="M46.394,111.909c0.037,0.011,0.07-0.007,0.083-0.037l0.011-0.024c0.013-0.029,0.002-0.072-0.032-0.093
					c-1.769-1.099-2.384-2.663-1.85-4.681c0.01-0.041-0.005-0.079-0.04-0.092l-0.018-0.003c-0.028-0.017-0.073-0.006-0.092,0.023
					c-1.108,1.775-2.667,2.388-4.693,1.855c-0.028-0.01-0.062,0.008-0.08,0.044l-0.008,0.016c-0.015,0.026-0.002,0.071,0.031,0.085
					c1.772,1.11,2.386,2.671,1.847,4.692c-0.007,0.036,0.011,0.072,0.045,0.083l0.024,0.008c0.026,0.023,0.06,0,0.083-0.02
					C42.811,111.995,44.371,111.369,46.394,111.909z"/>
			</g>
		</g>
		<g>
			<g>
				<path fill="#137CC8" d="M360.012,113.768c0.021,0.025,0.064,0.035,0.099,0.016l0.02-0.006c0.029-0.013,0.047-0.058,0.029-0.098
					c-0.762-2.049-0.273-3.74,1.461-5.069c0.026-0.02,0.04-0.066,0.024-0.1l-0.014-0.016c-0.018-0.034-0.062-0.048-0.095-0.034
					c-2.054,0.757-3.739,0.278-5.073-1.464c-0.021-0.026-0.065-0.034-0.097-0.013l-0.021,0.004c-0.028,0.024-0.045,0.064-0.028,0.1
					c0.76,2.046,0.274,3.733-1.46,5.069c-0.035,0.024-0.041,0.067-0.022,0.101l0.014,0.02c0.016,0.032,0.053,0.048,0.084,0.032
					C356.985,111.545,358.676,112.029,360.012,113.768z"/>
			</g>
		</g>
		<g>
			<g>
				<path fill="#137CC8" d="M70.721,72.727c0.05,0.023,0.118,0.015,0.154-0.024l0.019-0.024c0.037-0.044,0.037-0.116-0.005-0.155
					c-2.203-2.455-2.448-5.098-0.745-7.923c0.031-0.049,0.019-0.118-0.024-0.155l-0.023-0.015c-0.044-0.034-0.115-0.034-0.154,0.003
					c-2.456,2.202-5.101,2.454-7.926,0.744c-0.049-0.025-0.115-0.015-0.149,0.029L61.85,65.23c-0.04,0.043-0.04,0.116,0,0.151
					c2.2,2.455,2.451,5.098,0.75,7.928c-0.032,0.048-0.018,0.116,0.023,0.15l0.034,0.026c0.039,0.037,0.094,0.029,0.13-0.004
					C65.249,71.271,67.891,71.019,70.721,72.727z"/>
			</g>
		</g>
		<g>
			<g>
				<path fill="#137CC8" d="M338.31,73.474c0.046,0.041,0.109,0.041,0.153,0.004l0.023-0.023c0.045-0.032,0.053-0.101,0.025-0.153
					c-1.774-2.832-1.568-5.514,0.627-8.04c0.039-0.044,0.035-0.11,0-0.156l-0.02-0.023c-0.037-0.041-0.104-0.053-0.153-0.025
					c-2.836,1.776-5.52,1.571-8.044-0.627c-0.049-0.041-0.11-0.034-0.153,0l-0.026,0.023c-0.051,0.038-0.055,0.104-0.024,0.149
					c1.772,2.837,1.565,5.516-0.626,8.048c-0.033,0.043-0.033,0.111,0,0.152l0.027,0.035c0.037,0.041,0.094,0.051,0.133,0.021
					C333.096,71.079,335.776,71.288,338.31,73.474z"/>
			</g>
		</g>
		<g>
			<g>
				<path fill="#137CC8" d="M113.081,38.032c0.041,0.047,0.117,0.062,0.167,0.025l0.034-0.021c0.052-0.029,0.079-0.101,0.052-0.165
					c-1.536-3.452-0.875-6.415,1.97-8.894c0.055-0.045,0.063-0.116,0.032-0.174l-0.019-0.026c-0.039-0.057-0.11-0.083-0.17-0.052
					c-3.454,1.531-6.417,0.871-8.895-1.983c-0.044-0.043-0.123-0.054-0.176-0.02l-0.031,0.02c-0.054,0.037-0.076,0.104-0.047,0.168
					c1.538,3.452,0.875,6.413-1.978,8.893c-0.047,0.043-0.057,0.119-0.025,0.173l0.025,0.038c0.037,0.049,0.096,0.072,0.151,0.043
					C107.627,34.523,110.594,35.179,113.081,38.032z"/>
			</g>
		</g>
		<g>
			<g>
				<path fill="#137CC8" d="M297.027,36.064c0.061,0.03,0.134,0.008,0.167-0.049l0.02-0.025c0.033-0.055,0.021-0.132-0.026-0.175
					c-2.848-2.48-3.506-5.453-1.971-8.905c0.033-0.063,0.011-0.13-0.045-0.168l-0.031-0.02c-0.052-0.035-0.128-0.023-0.171,0.023
					c-2.485,2.851-5.453,3.506-8.909,1.968c-0.059-0.027-0.132-0.008-0.165,0.054l-0.014,0.026
					c-0.041,0.056-0.031,0.126,0.019,0.169c2.851,2.485,3.507,5.452,1.971,8.908c-0.03,0.063-0.008,0.136,0.048,0.165l0.039,0.03
					c0.052,0.034,0.115,0.02,0.154-0.021C290.597,35.187,293.568,34.527,297.027,36.064z"/>
			</g>
		</g>
		<g>
			<g>
				<path fill="#137CC8" d="M169.262,18.942c0.023,0.06,0.097,0.094,0.165,0.076l0.039-0.012c0.063-0.015,0.106-0.086,0.097-0.154
					c-0.515-3.956,1.04-6.767,4.675-8.422c0.065-0.027,0.091-0.095,0.073-0.167l-0.008-0.035c-0.018-0.062-0.083-0.111-0.154-0.097
					c-3.956,0.514-6.765-1.044-8.421-4.674c-0.029-0.067-0.102-0.098-0.167-0.083l-0.034,0.012c-0.068,0.021-0.112,0.082-0.1,0.153
					c0.517,3.96-1.042,6.767-4.677,8.427c-0.058,0.025-0.091,0.102-0.076,0.163l0.019,0.055c0.016,0.058,0.071,0.095,0.128,0.088
					C164.786,13.746,167.598,15.307,169.262,18.942z"/>
			</g>
		</g>
		<g>
			<g>
				<path fill="#137CC8" d="M231.729,17.767c-0.002,0.077,0.049,0.132,0.11,0.145h0.037c0.071,0.016,0.134-0.029,0.154-0.092
					c1.222-3.698,3.784-5.506,7.682-5.421c0.066,0,0.128-0.047,0.14-0.115l0.002-0.034c0.017-0.067-0.024-0.136-0.091-0.155
					c-3.7-1.224-5.506-3.783-5.422-7.681c0-0.067-0.052-0.127-0.114-0.135l-0.041-0.009c-0.064-0.008-0.132,0.031-0.15,0.089
					c-1.225,3.705-3.783,5.513-7.68,5.427c-0.069,0-0.13,0.045-0.138,0.113l-0.009,0.052c-0.009,0.057,0.023,0.121,0.077,0.137
					C229.999,11.309,231.809,13.869,231.729,17.767z"/>
			</g>
		</g>
	</g>
</g>
</svg>
