<?xml version="1.0" encoding="utf-8"?>
<!-- Generator: Adobe Illustrator 16.0.4, SVG Export Plug-In . SVG Version: 6.00 Build 0)  -->
<!DOCTYPE svg PUBLIC "-//W3C//DTD SVG 1.1//EN" "http://www.w3.org/Graphics/SVG/1.1/DTD/svg11.dtd">
<svg version="1.1" id="Layer_1" xmlns="http://www.w3.org/2000/svg" xmlns:xlink="http://www.w3.org/1999/xlink" x="0px" y="0px"
	 width="400px" height="120px" viewBox="0 0 400 120" enable-background="new 0 0 400 120" xml:space="preserve">
<g>
	<g>
		<path fill="#063C64" d="M18.13,115.946C14.015,83.374,9.9,50.801,5.785,18.229c23.91-3.02,47.871-5.497,71.865-7.429
			c0.631,7.836,1.263,15.673,1.894,23.509c-14.174,1.142-28.336,2.476-42.482,4.002c0.586,5.425,1.171,10.851,1.757,16.276
			c11.41-1.231,22.831-2.336,34.26-3.314c0.623,7.281,1.246,14.561,1.869,21.842C63.68,74.079,52.42,75.169,41.17,76.383
			c1.311,12.135,2.62,24.27,3.93,36.405C36.103,113.759,27.112,114.812,18.13,115.946z"/>
		<path fill="#063C64" d="M170.148,104.57c-0.41-17.288-0.82-34.576-1.23-51.864C163.506,65,158.229,77.322,153.087,89.67
			c-4.869,0.169-9.737,0.362-14.605,0.579c-6.104-11.902-12.34-23.769-18.71-35.595c0.959,17.266,1.919,34.533,2.878,51.799
			c-9.027,0.501-18.051,1.085-27.07,1.75c-2.415-32.742-4.83-65.485-7.246-98.228c10.499-0.774,21.003-1.444,31.511-2.011
			c8.38,15.017,16.543,30.098,24.487,45.241c6.767-15.726,13.755-31.407,20.965-47.04c10.468-0.265,20.938-0.427,31.409-0.485
			c0.184,32.831,0.367,65.662,0.551,98.492C188.22,104.224,179.183,104.356,170.148,104.57z"/>
		<path fill="#063C64" d="M204.687,104.15c12.257-32.84,25.322-65.528,39.192-98.036c7.806,0.188,15.609,0.432,23.411,0.734
			c11.759,33.311,22.707,66.75,32.845,100.29c-9.529-0.604-19.063-1.115-28.601-1.535c-1.709-6.509-3.443-13.015-5.203-19.518
			c-8.863-0.355-17.729-0.633-26.597-0.833c-2.114,6.382-4.204,12.767-6.27,19.157C223.873,104.23,214.279,104.145,204.687,104.15z
			 M254.708,34.59c-3.547,10.899-7.027,21.812-10.44,32.734c6.125,0.154,12.248,0.346,18.371,0.573
			C260.061,56.789,257.416,45.686,254.708,34.59z"/>
		<path fill="#063C64" d="M297.965,107.002c14.285-32.011,29.37-63.82,45.25-95.399c7.786,0.674,15.567,1.406,23.345,2.195
			c9.671,33.981,18.528,68.041,26.57,102.149c-9.488-1.198-18.984-2.306-28.488-3.322c-1.301-6.603-2.627-13.204-3.979-19.804
			c-8.835-0.909-17.676-1.739-26.521-2.492c-2.513,6.236-5,12.479-7.463,18.727C317.112,108.278,307.541,107.594,297.965,107.002z
			 M352.25,40.698c-4.221,10.657-8.375,21.331-12.462,32.02c6.109,0.536,12.216,1.109,18.319,1.72
			C356.22,63.188,354.268,51.942,352.25,40.698z"/>
	</g>
</g>
</svg>
