<?xml version="1.0" encoding="utf-8"?>
<!-- Generator: Adobe Illustrator 16.0.4, SVG Export Plug-In . SVG Version: 6.00 Build 0)  -->
<!DOCTYPE svg PUBLIC "-//W3C//DTD SVG 1.1//EN" "http://www.w3.org/Graphics/SVG/1.1/DTD/svg11.dtd">
<svg version="1.1" id="Layer_1" xmlns="http://www.w3.org/2000/svg" xmlns:xlink="http://www.w3.org/1999/xlink" x="0px" y="0px"
	 width="510px" height="485px" viewBox="0 0 510 485" enable-background="new 0 0 510 485" xml:space="preserve">
<g>
	<path fill="#F81F05" d="M486.953,243.446c0,128.404-104.094,232.5-232.5,232.5S21.952,371.851,21.952,243.446
		c0-128.406,104.095-232.5,232.501-232.5S486.953,115.04,486.953,243.446"/>
	<circle fill="none" stroke="#0424B6" stroke-width="5" stroke-miterlimit="10" cx="254.453" cy="243.446" r="232.5"/>
	<path fill="#0424B6" d="M423.016,243.446c0,93.094-75.469,168.561-168.562,168.561c-93.096,0-168.563-75.467-168.563-168.561
		c0-93.095,75.468-168.562,168.563-168.562C347.547,74.884,423.016,150.351,423.016,243.446"/>
	<path fill="#0424B6" d="M491.107,378.907c-160.539-33.414-326.471-32.279-486.654,3.633v-44.607
		c7.709-1.664,15.434-3.256,23.17-4.777c1.063-60.52,2.127-120.763,3.191-180.733c-8.803-2.729-17.591-5.584-26.361-8.576V92.352
		c165.293,36.947,336.705,36.947,502,0v51.974c-10.516,4.572-21.055,8.898-31.615,13.009c-1.232,53.054-2.463,105.833-3.693,158.344
		c6.662,1.414,13.318,2.879,19.963,4.4V378.907z"/>
	<polygon fill="#FFFFFF" points="283.195,328.812 266.656,349.423 219.779,349.423 204.109,328.812 204.109,149.983 
		219.779,129.247 266.656,129.247 283.195,150.108 283.195,188.992 260.201,188.992 260.201,158.112 228.57,158.112 228.57,320.556 
		258.734,320.556 258.734,285.272 283.195,285.272 	"/>
	<polygon fill="#FFFFFF" points="450.959,324.896 425.592,217.747 425.91,289.626 434.732,290.118 434.732,319.997 382.518,313.063 
		382.518,283.167 393.498,284.149 394.506,158.005 382.643,159.469 382.643,130.076 430.219,121.49 456.049,217.746 
		457.467,145.354 446.795,146.809 446.795,117.958 497.852,106.936 497.852,138.226 487.086,140.183 487.086,329.794 	"/>
	<path fill="#0424B6" d="M493.85,111.891v22.996l-10.764,1.958v188.372l-28.867-3.914l-32.781-138.465l0.488,110.577l8.807,0.488
		v21.529l-44.215-5.871v-22.02l10.945,0.98l1.078-135.043l-11.898,1.468v-21.526l40.666-7.34l32.186,119.944l2.064-105.265
		l-10.764,1.468v-21.039L493.85,111.891z M501.85,101.979l-9.688,2.092l-43.057,9.296l-6.311,1.363v6.457v21.039v9.164l9.08-1.238
		l1.502-0.205l-0.775,39.521l-17.566-65.462l-1.906-7.106l-7.24,1.307l-40.666,7.339l-6.58,1.187v6.686v21.526v9.048l8.979-1.108
		l2.848-0.351l-0.938,117.244l-2.303-0.205l-8.711-0.779v8.746v22.02v7.008l6.947,0.922l44.215,5.871l9.053,1.203v-9.133v-21.529
		v-3.283l7.701,32.527l1.266,5.346l5.445,0.738l28.867,3.914l9.074,1.23v-9.158V143.521l4.195-0.763l6.568-1.194v-6.677v-22.996
		V101.979z M429.893,285.843l-0.146-33.185l7.961,33.618l-6.529-0.363L429.893,285.843z"/>
	<path fill="#FFFFFF" d="M12.261,340.851l7.325-1.021l3.193-201.499l-9.854-1.461v-28.133l44.496,6.46l2.568,14.407l0.131-14.262
		l45.939,9.156v29.359l-7.623-1.43l-0.085,198.219l-31.567,6.217L48.154,229.626l-2.693,104.632l10.346-1.541l0.059,28.973
		l-43.687,8.092L12.261,340.851z M69.807,184.687v-36.462l-6.689-1.071L69.807,184.687z"/>
	<path fill="#0424B6" d="M16.926,113.358l37.064,5.382l19.816,111.188v-85.115l-9.941-1.591l0.211-23.014l37.984,7.57v21.258
		l-7.621-1.43l-0.086,199.75l-24.219,4.77l-24.78-169.22L41.34,338.915l10.477-1.559l0.041,21.008l-35.666,6.605l0.059-20.637
		l7.281-1.014l3.303-208.433l-9.908-1.467V113.358z M8.926,104.113v9.245v20.061v6.902l6.828,1.011l2.97,0.44l-3.083,194.568
		l-0.494,0.068l-6.877,0.957l-0.02,6.943l-0.059,20.637l-0.027,9.646l9.484-1.758l35.666-6.604l6.557-1.215l-0.014-6.668
		l-0.041-21.01l-0.002-0.475l2.404,16.42l1.218,8.314l8.244-1.623l24.22-4.771l6.45-1.27l0.003-6.576l0.082-190.112l7.625,1.431
		v-9.641v-21.258v-6.563l-6.436-1.282l-37.985-7.571l-9.476-1.888l-0.004,0.497l-1.02-0.148l-37.066-5.382L8.926,104.113z
		 M49.582,329.601l1.371-53.254l7.602,51.918l-7.918,1.178L49.582,329.601z"/>
	<polygon fill="#FFFFFF" points="191.734,338.915 110.134,346.226 110.134,325.216 191.734,316.778 	"/>
	<path fill="#FFFFFF" d="M483.461,362.79c0,0-70.059-13.473-93.721-16.52c-23.291-3-93.723-7.711-93.723-7.711v-21.01
		c0,0,70.291,3.609,93.723,6.279c23.43,2.67,93.721,15.086,93.721,15.086V362.79z"/>
	<path fill="#FFFFFF" d="M191.734,281.61l-17.389,23.545l-50.01,4.402l-14.202-16.207V152.688l15.669-20.737l48.543,4.404
		l17.389,22.204V281.61z M165.678,160.817h-31.082v119.877h31.082V160.817z"/>
	<path fill="#FFFFFF" d="M376.193,288.948l-12.986,16.207l-52.945-1.467l-15.67-19.145V158.559l17.137-20.736l50.012-2.936
		l14.453,19.268V288.948z M351.604,160.817h-31.082v119.877h31.082V160.817z"/>
	<polygon fill="#FFFFFF" points="233.664,383.765 230.168,386.235 222.904,386.235 222.904,391.476 228.357,391.476 
		228.357,389.573 233.664,389.573 233.664,395.817 217.598,395.817 217.598,384.333 221.018,381.88 228.357,381.88 228.357,376.638 
		222.959,376.638 222.959,378.538 217.598,378.538 217.598,374.751 221.018,372.298 230.262,372.298 233.664,374.751 	"/>
	<path fill="#FFFFFF" d="M255.322,393.362l-3.439,2.455h-9.48l-3.367-2.455v-18.596l3.441-2.471h9.406l3.439,2.471V393.362z
		 M250.016,376.638h-5.672v14.836h5.672V376.638z"/>
	<polygon fill="#FFFFFF" points="260.695,395.817 260.695,391.476 262.213,391.476 262.213,377.64 260.695,377.64 260.695,373.3 
		263.971,372.296 267.521,372.296 267.521,391.476 269.039,391.476 269.039,395.817 	"/>
	<path fill="#FFFFFF" d="M290.699,393.362l-3.441,2.455h-9.479l-3.367-2.455v-18.596l3.439-2.471h9.406l3.441,2.471V393.362z
		 M285.391,376.638h-5.672v14.836h5.672V376.638z"/>
	<path fill="#FFFFFF" d="M185.881,75.278c-4.51-4.402-9.228-8.66-14.146-12.759c1.655,3.4,3.313,6.8,4.969,10.199
		c0.588-0.286,1.177-0.569,1.769-0.849c0.881,1.86,1.761,3.719,2.642,5.579c-3.101,1.469-6.167,3.035-9.195,4.701
		c-0.991-1.804-1.983-3.607-2.974-5.41c0.576-0.317,1.154-0.631,1.734-0.941c-3.319-6.199-6.638-12.398-9.957-18.597
		c-0.641,0.343-1.279,0.69-1.916,1.04c-0.991-1.803-1.983-3.606-2.975-5.41c3.122-1.715,6.277-3.343,9.462-4.884
		c5.117,4.019,10.032,8.202,14.741,12.534c-1.506-3.477-3.012-6.954-4.518-10.431c-0.668,0.29-1.336,0.583-2.002,0.88
		c-0.838-1.879-1.676-3.758-2.515-5.637c3.726-1.663,7.491-3.21,11.287-4.64c0.726,1.926,1.45,3.852,2.175,5.777
		c-0.678,0.256-1.354,0.515-2.031,0.778c3.295,8.471,6.592,16.942,9.889,25.412C190.16,73.461,188.014,74.348,185.881,75.278"/>
	<path fill="#FFFFFF" d="M218.367,61.235c-1.135,1.428-2.242,2.868-3.316,4.317c-3.877,0.915-7.727,1.967-11.547,3.156
		c-1.652-0.703-3.332-1.383-5.029-2.037c-2.822-8.348-5.643-16.697-8.463-25.046c1.152-1.626,2.338-3.241,3.553-4.846
		c4.564-1.421,9.168-2.679,13.801-3.773c1.875,0.761,3.725,1.548,5.549,2.36C214.732,43.989,216.549,52.612,218.367,61.235
		 M211.314,60.108c-1.707-6.821-3.416-13.642-5.123-20.463c-2.746,0.687-5.482,1.435-8.205,2.242c2,6.741,3.998,13.483,5.996,20.224
		C206.416,61.39,208.859,60.722,211.314,60.108"/>
	<path fill="#FFFFFF" d="M247.055,61.13c-2.279,0.098-4.555,0.241-6.828,0.43c-2.182-4.376-4.504-8.711-6.969-12.998
		c-0.676,0.077-1.354,0.159-2.029,0.244c0.312,2.464,0.623,4.928,0.934,7.392c0.627-0.079,1.254-0.155,1.881-0.227
		c0.236,2.044,0.473,4.088,0.709,6.132c-3.334,0.384-6.656,0.867-9.969,1.448c-0.354-2.026-0.711-4.053-1.066-6.08
		c0.623-0.109,1.246-0.215,1.869-0.318c-1.141-6.938-2.283-13.876-3.426-20.814c-0.697,0.115-1.395,0.233-2.092,0.356
		c-0.357-2.027-0.713-4.054-1.068-6.08c6.754-1.186,13.555-2.029,20.373-2.531c1.705,1.049,3.381,2.119,5.029,3.209
		c0.203,4.089,0.408,8.178,0.611,12.267c-1.535,1.39-3.035,2.8-4.5,4.226c1.279,2.423,2.514,4.859,3.705,7.306
		c0.857-0.049,1.713-0.092,2.57-0.129C246.879,57.019,246.967,59.075,247.055,61.13 M230.453,42.661
		c2.445-0.309,4.896-0.57,7.352-0.784c-0.217-2.474-0.432-4.948-0.648-7.422c-2.549,0.222-5.096,0.494-7.639,0.815
		C229.83,37.733,230.141,40.197,230.453,42.661"/>
	<path fill="#FFFFFF" d="M270.449,61.726c0.193-2.049,0.387-4.097,0.58-6.146c0.604,0.057,1.209,0.117,1.814,0.181
		c0.439-4.199,0.879-8.398,1.318-12.597c-2.449,3.597-4.775,7.239-6.98,10.923c-1.648-3.96-3.422-7.897-5.32-11.806
		c-0.166,4.218-0.33,8.437-0.496,12.655c0.605,0.024,1.213,0.051,1.82,0.081c-0.102,2.055-0.203,4.11-0.307,6.165
		c-3.346-0.165-6.695-0.233-10.045-0.202c-0.02-2.058-0.037-4.116-0.057-6.173c0.66-0.006,1.32-0.009,1.982-0.007
		c0.014-7.032,0.029-14.063,0.043-21.095c-0.715-0.001-1.428,0.001-2.141,0.008c-0.02-2.058-0.037-4.116-0.055-6.173
		c3.275-0.029,6.553,0.021,9.828,0.15c2.057,3.915,3.986,7.861,5.791,11.832c2.363-3.672,4.848-7.301,7.453-10.881
		c3.264,0.341,6.52,0.76,9.768,1.258c-0.312,2.034-0.625,4.068-0.938,6.102c-0.699-0.107-1.398-0.211-2.098-0.31
		c-0.992,6.961-1.986,13.922-2.979,20.883c0.648,0.092,1.295,0.188,1.943,0.288c-0.314,2.033-0.627,4.067-0.939,6.101
		C277.119,62.452,273.787,62.041,270.449,61.726"/>
	<path fill="#FFFFFF" d="M299.492,67.016c0.541-1.985,1.084-3.97,1.625-5.955c0.605,0.165,1.211,0.334,1.814,0.506
		c0.062-0.919,0.123-1.839,0.18-2.759c-2.082-0.585-4.17-1.132-6.268-1.64c-0.4,0.83-0.799,1.661-1.193,2.493
		c0.623,0.149,1.248,0.302,1.871,0.458c-0.5,1.996-1.002,3.992-1.502,5.988c-3.271-0.82-6.562-1.542-9.865-2.165
		c0.381-2.022,0.762-4.044,1.145-6.066c0.576,0.109,1.152,0.221,1.729,0.335c3.689-8.533,7.67-16.976,11.934-25.313
		c3.502,0.818,6.988,1.729,10.453,2.734c-0.359,9.36-1.014,18.673-1.967,27.924c0.578,0.189,1.154,0.38,1.729,0.575
		c-0.658,1.949-1.316,3.898-1.975,5.848C305.988,68.893,302.75,67.905,299.492,67.016 M299.678,51.509
		c1.254,0.314,2.506,0.642,3.754,0.982c0.125-2.93,0.221-5.864,0.285-8.803C302.344,46.284,300.996,48.891,299.678,51.509"/>
	<path fill="#FFFFFF" d="M328.938,78.052c0.398-6.294,0.561-12.647,0.484-19.045c-1.504,3.47-3.008,6.941-4.51,10.411
		c0.598,0.259,1.193,0.521,1.787,0.787c-0.838,1.878-1.678,3.757-2.516,5.636c-3.125-1.395-6.281-2.692-9.463-3.891
		c0.725-1.925,1.449-3.851,2.174-5.777c0.605,0.228,1.211,0.46,1.816,0.695c2.549-6.553,5.1-13.106,7.648-19.659
		c-0.668-0.26-1.338-0.516-2.008-0.769c0.725-1.925,1.451-3.851,2.176-5.776c3.281,1.235,6.537,2.559,9.766,3.969
		c0.266,6.496,0.291,12.952,0.076,19.352c1.66-3.406,3.32-6.812,4.98-10.218c-0.658-0.32-1.316-0.637-1.979-0.95
		c0.881-1.86,1.764-3.719,2.645-5.579c3.697,1.752,7.354,3.622,10.967,5.608c-0.992,1.803-1.982,3.606-2.973,5.409
		c-0.646-0.355-1.293-0.706-1.941-1.053c-4.291,8.013-8.58,16.026-12.869,24.039C333.127,80.132,331.039,79.069,328.938,78.052"/>
	<path fill="#FFFFFF" d="M127.312,413.19c-2.135-0.189-4.281-0.418-6.441-0.689c-3.867-3.182-7.646-6.521-11.331-10.021
		c-0.517-2.098-1-4.193-1.449-6.287c6.231-6.232,12.463-12.463,18.694-18.695c1.937,0.281,3.863,0.523,5.777,0.729
		c3.098,2.941,6.275,5.752,9.527,8.428c0.447,1.893,0.928,3.789,1.443,5.684c-1.094,1.406-2.187,2.812-3.28,4.217
		c-1.947-1.518-3.87-3.078-5.769-4.686c0.582-0.689,1.162-1.377,1.744-2.066c-2.013-1.703-3.998-3.457-5.953-5.262
		c-4.765,5.172-9.529,10.342-14.295,15.512c2.181,2.014,4.394,3.969,6.64,5.869c0.581-0.688,1.161-1.377,1.743-2.066
		c2.06,1.742,4.146,3.438,6.257,5.084C129.518,410.356,128.415,411.772,127.312,413.19"/>
	<path fill="#FFFFFF" d="M154.338,431.036c-2.077,0.182-4.172,0.33-6.284,0.441c-4.401-2.578-8.728-5.332-12.972-8.258
		c-0.793-1.961-1.553-3.926-2.28-5.895c5.178-7.133,10.354-14.266,15.532-21.398c1.916-0.053,3.818-0.141,5.705-0.264
		c3.566,2.461,7.205,4.775,10.905,6.943c0.69,1.762,1.413,3.52,2.169,5.275C162.854,415.601,158.597,423.317,154.338,431.036
		 M148.711,424.683c3.637-6.02,7.273-12.039,10.91-18.061c-2.332-1.41-4.64-2.879-6.92-4.404
		c-3.902,5.852-7.806,11.701-11.707,17.553C143.537,421.472,146.11,423.108,148.711,424.683"/>
	<path fill="#FFFFFF" d="M176.283,445.274c-0.573-6.518-0.899-13.002-0.982-19.439c-1.549,3.451-3.097,6.902-4.646,10.354
		c0.695,0.311,1.391,0.617,2.087,0.922c-0.821,1.887-1.644,3.773-2.464,5.66c-3.907-1.699-7.772-3.523-11.59-5.473
		c0.935-1.832,1.869-3.666,2.805-5.5c0.681,0.348,1.363,0.691,2.048,1.031c3.125-6.301,6.25-12.604,9.375-18.904
		c-0.606-0.299-1.211-0.604-1.813-0.912c0.935-1.834,1.869-3.666,2.805-5.5c2.768,1.412,5.564,2.746,8.389,4.002
		c-0.1,6.357,0.043,12.764,0.434,19.205c1.395-3.523,2.787-7.049,4.182-10.572c-0.633-0.25-1.264-0.504-1.893-0.76
		c0.779-1.904,1.557-3.811,2.334-5.717c3.303,1.348,6.639,2.59,10.002,3.73c-0.662,1.947-1.324,3.896-1.984,5.846
		c-0.643-0.217-1.281-0.438-1.922-0.662c-3.018,8.576-6.037,17.15-9.055,25.727C181.672,447.356,178.969,446.343,176.283,445.274"/>
	<path fill="#FFFFFF" d="M215.525,428.81c-1.975-0.424-3.941-0.883-5.9-1.373c-0.605,2.41-1.211,4.818-1.814,7.227
		c3.205,0.803,6.428,1.52,9.666,2.152c-0.398,2.027-0.797,4.053-1.195,6.078c-3.342-0.652-6.67-1.393-9.98-2.221
		c-0.605,2.408-1.211,4.816-1.814,7.227c0.711,0.178,1.424,0.352,2.137,0.521c-0.48,2.002-0.959,4.004-1.439,6.004
		c-4.086-0.975-8.148-2.074-12.18-3.297c0.6-1.969,1.197-3.938,1.797-5.906c0.713,0.215,1.426,0.428,2.141,0.635
		c1.973-6.75,3.945-13.5,5.918-20.25c-0.639-0.186-1.279-0.377-1.918-0.57c0.6-1.969,1.199-3.938,1.797-5.906
		c6.818,2.066,13.736,3.713,20.715,4.938c-0.514,2.914-1.029,5.828-1.543,8.742c-2.326-0.408-4.645-0.861-6.957-1.357
		C215.145,430.571,215.334,429.69,215.525,428.81"/>
	<path fill="#FFFFFF" d="M224.236,458.054c0.293-2.037,0.586-4.074,0.879-6.111c0.732,0.105,1.465,0.205,2.199,0.303
		c0.924-6.971,1.85-13.941,2.775-20.912c-0.656-0.086-1.312-0.176-1.971-0.271c0.293-2.037,0.586-4.072,0.879-6.109
		c7.008,1.002,14.062,1.584,21.125,1.742c-0.066,2.959-0.135,5.916-0.201,8.875c-2.346-0.053-4.691-0.15-7.033-0.293
		c0.055-0.898,0.107-1.799,0.162-2.697c-2.021-0.121-4.043-0.277-6.061-0.467c-0.232,2.473-0.465,4.945-0.699,7.418
		c3.283,0.307,6.572,0.529,9.865,0.668c-0.088,2.062-0.174,4.125-0.26,6.188c-3.4-0.141-6.797-0.371-10.188-0.689
		c-0.232,2.473-0.465,4.945-0.699,7.418c2.252,0.211,4.506,0.385,6.762,0.521c0.055-0.9,0.109-1.799,0.164-2.699
		c2.541,0.154,5.084,0.258,7.627,0.316c-0.066,2.959-0.133,5.916-0.201,8.875C240.961,459.937,232.57,459.245,224.236,458.054"/>
	<path fill="#FFFFFF" d="M283.926,458.073c-2.826,0.402-5.658,0.746-8.496,1.035c-2.715-4.291-5.285-8.631-7.711-13.016
		c-0.736,0.051-1.471,0.098-2.207,0.139c0.143,2.479,0.287,4.959,0.43,7.438c0.738-0.043,1.475-0.088,2.211-0.139
		c0.143,2.053,0.283,4.105,0.426,6.158c-4.18,0.287-8.367,0.447-12.555,0.484c-0.018-2.057-0.037-4.115-0.055-6.172
		c0.738-0.008,1.477-0.018,2.215-0.031c-0.139-7.031-0.279-14.061-0.418-21.09c-0.662,0.012-1.324,0.021-1.984,0.027
		c-0.02-2.057-0.037-4.115-0.055-6.174c6.008-0.053,12.016-0.41,17.994-1.074c1.549,1.008,3.123,1.994,4.723,2.957
		c0.553,4.059,1.105,8.115,1.658,12.172c-1.473,1.523-2.982,3.031-4.525,4.52c1.449,2.369,2.943,4.723,4.482,7.059
		c0.998-0.129,1.996-0.262,2.992-0.404C283.344,453.999,283.635,456.036,283.926,458.073 M265.152,440.048
		c2.494-0.145,4.988-0.336,7.477-0.578c-0.242-2.471-0.484-4.943-0.725-7.414c-2.391,0.23-4.785,0.416-7.182,0.555
		C264.867,435.091,265.01,437.569,265.152,440.048"/>
	<path fill="#FFFFFF" d="M290.521,457.026c-0.355-2.027-0.713-4.053-1.068-6.08c0.73-0.127,1.459-0.258,2.188-0.395
		c-1.293-6.912-2.586-13.824-3.879-20.736c-0.654,0.121-1.307,0.24-1.963,0.354c-0.355-2.027-0.711-4.053-1.066-6.08
		c6.979-1.221,13.898-2.863,20.719-4.926c0.859,2.832,1.717,5.662,2.578,8.494c-2.266,0.688-4.541,1.328-6.826,1.924
		c-0.229-0.871-0.457-1.744-0.686-2.615c-1.973,0.516-3.951,0.996-5.936,1.445c0.549,2.422,1.1,4.844,1.648,7.266
		c3.229-0.729,6.439-1.541,9.635-2.441c0.561,1.988,1.123,3.975,1.684,5.963c-3.299,0.928-6.615,1.768-9.947,2.521
		c0.549,2.422,1.098,4.844,1.646,7.266c2.213-0.5,4.422-1.037,6.621-1.611c-0.229-0.873-0.457-1.744-0.686-2.615
		c2.477-0.648,4.945-1.344,7.402-2.086c0.859,2.832,1.719,5.664,2.578,8.494C307.053,453.622,298.822,455.575,290.521,457.026"/>
	<path fill="#FFFFFF" d="M339.482,442.13c-5.076-4.137-9.945-8.436-14.604-12.877c1.391,3.52,2.779,7.037,4.168,10.555
		c0.705-0.277,1.408-0.559,2.111-0.846c0.777,1.906,1.555,3.812,2.332,5.719c-3.938,1.604-7.912,3.082-11.92,4.438
		c-0.662-1.949-1.322-3.898-1.982-5.85c0.715-0.242,1.43-0.486,2.143-0.736c-2.33-6.637-4.662-13.271-6.992-19.906
		c-0.633,0.221-1.266,0.438-1.898,0.652c-0.662-1.947-1.322-3.898-1.982-5.848c2.906-0.982,5.791-2.043,8.652-3.18
		c4.473,4.514,9.16,8.887,14.055,13.102c-1.549-3.457-3.098-6.916-4.648-10.375c-0.623,0.279-1.246,0.553-1.871,0.826
		c-0.82-1.889-1.643-3.775-2.463-5.664c3.279-1.424,6.521-2.951,9.727-4.584c0.934,1.834,1.867,3.668,2.801,5.502
		c-0.611,0.312-1.223,0.619-1.836,0.924c4.033,8.146,8.068,16.295,12.102,24.443C344.766,439.716,342.135,440.952,339.482,442.13"/>
	<path fill="#FFFFFF" d="M374.924,417.741c-0.77,1.992-1.576,3.98-2.416,5.965c-4.07,2.783-8.217,5.406-12.434,7.871
		c-2.096-0.123-4.174-0.281-6.236-0.473c-4.252-7.721-8.506-15.441-12.76-23.162c0.744-1.748,1.455-3.498,2.135-5.252
		c3.543-2.072,7.029-4.277,10.453-6.617c1.922,0.113,3.859,0.191,5.812,0.232c1.041,1.445,2.082,2.891,3.125,4.336
		c-1.99,1.438-4,2.828-6.031,4.178c-0.498-0.752-0.996-1.504-1.492-2.254c-2.152,1.428-4.33,2.807-6.529,4.135
		c3.631,6.023,7.264,12.047,10.895,18.07c2.453-1.482,4.881-3.021,7.283-4.615c-0.498-0.75-0.996-1.502-1.494-2.254
		c2.203-1.461,4.385-2.973,6.541-4.529C372.824,414.829,373.875,416.284,374.924,417.741"/>
	<path fill="#FFFFFF" d="M382.559,416.39c-1.258-1.629-2.516-3.256-3.773-4.885c0.613-0.477,1.225-0.955,1.836-1.439
		c-4.361-5.516-8.725-11.031-13.086-16.547c-0.547,0.432-1.096,0.863-1.646,1.289c-1.258-1.629-2.516-3.258-3.773-4.887
		c5.873-4.547,11.525-9.518,16.916-14.906c2.092,2.092,4.184,4.184,6.275,6.275c-1.789,1.791-3.607,3.537-5.451,5.238
		c-0.609-0.662-1.221-1.326-1.832-1.986c-1.592,1.467-3.203,2.902-4.832,4.305c1.617,1.885,3.234,3.77,4.852,5.654
		c2.65-2.281,5.254-4.646,7.807-7.096c1.428,1.49,2.859,2.98,4.287,4.471c-2.635,2.529-5.322,4.971-8.059,7.324
		c1.615,1.887,3.232,3.771,4.852,5.654c1.818-1.562,3.615-3.164,5.389-4.803c-0.609-0.662-1.221-1.324-1.832-1.988
		c2-1.844,3.973-3.738,5.914-5.68c2.092,2.092,4.186,4.184,6.277,6.275C396.266,405.071,389.543,410.981,382.559,416.39"/>
	<path fill="#0424B6" d="M447.293,386.501c0-5.273,3.996-8.818,8.773-8.818c4.775,0,8.771,3.545,8.771,8.818
		c0,5.271-3.996,8.725-8.771,8.725C451.289,395.226,447.293,391.772,447.293,386.501 M463.473,386.501
		c0-4.363-3.314-7.637-7.406-7.637c-4.096,0-7.408,3.273-7.408,7.637s3.312,7.545,7.408,7.545
		C460.158,394.046,463.473,390.864,463.473,386.501 M452.848,381.591h3.219c1.852,0,3.703,0.637,3.703,2.91
		c0,1.182-0.879,2.271-1.949,2.545l2.436,4H458.6l-1.949-3.545h-2.438v3.545h-1.365V381.591z M455.676,386.319
		c1.559,0,2.631-0.455,2.631-1.729c0-1.09-0.584-1.818-2.436-1.818h-1.658v3.547H455.676z"/>
</g>
</svg>
