<?xml version="1.0" encoding="utf-8"?>
<!-- Generator: Adobe Illustrator 16.0.4, SVG Export Plug-In . SVG Version: 6.00 Build 0)  -->
<!DOCTYPE svg PUBLIC "-//W3C//DTD SVG 1.1//EN" "http://www.w3.org/Graphics/SVG/1.1/DTD/svg11.dtd">
<svg version="1.1" id="Layer_1" xmlns="http://www.w3.org/2000/svg" xmlns:xlink="http://www.w3.org/1999/xlink" x="0px" y="0px"
	 width="385px" height="157px" viewBox="464.14 50.338 385 157" enable-background="new 464.14 50.338 385 157"
	 xml:space="preserve">
<g>
	<path fill="#FFFFFF" d="M-81.833-0.865c8.197,135.15,86.23,251.447,198.504,313.275C228.936,250.583,306.96,134.286,315.167-0.865
		c-57.94-35.007-125.857-55.164-198.496-55.164C44.026-56.029-23.895-35.872-81.833-0.865"/>
	<path fill="#002B5C" d="M-30.662,142.141c32.287,63.49,83.659,117.068,147.332,154.385
		c63.676-37.316,115.04-90.895,147.328-154.385l7.525-15.68l0,0c16.701-37.308,26.953-77.706,29.425-120.017
		C247.63-24.741,184.438-42.816,116.67-42.816c-67.766,0-130.968,18.076-184.287,49.27c2.46,41.997,12.562,82.122,29.059,119.201"/>
	<path fill="#FFFFFF" d="M116.67-25.711c58.133,0,115.394,14.669,166.074,42.406c-1.223,11.355-3.043,22.569-5.358,33.639H-44.031
		c-2.322-11.069-4.143-22.278-5.358-33.633C1.285-11.037,58.548-25.711,116.67-25.711"/>
	<path fill="#FFFFFF" d="M116.67,276.12c-46.257-27.816-84.72-65.654-113.14-109.873h225.884
		C201.039,210.202,162.71,248.438,116.67,276.12"/>
	<path fill="#00A160" d="M22.943,175.68c19.881,28.191,44.184,53.334,72.139,74.451c-5.223-17.49-12.255-43.133-19.057-74.451
		H22.943z"/>
	<path fill="#00A160" d="M-34.504,39.958h88.953c-1.242-15.651-2.09-31.684-2.442-47.972C20.99-1.913-9.083,8.517-37.18,23.066
		C-36.439,28.732-35.53,34.366-34.504,39.958"/>
	<path fill="#00A160" d="M267.873,39.958c1.019-5.601,1.932-11.229,2.681-16.901C242.46,8.517,212.39-1.913,181.372-8.011
		c-0.355,16.285-1.203,32.32-2.445,47.969H267.873z"/>
	<path fill="#00A160" d="M210.413,175.68h-53.064c-6.798,31.314-13.822,56.941-19.049,74.424
		C166.238,228.993,190.542,203.872,210.413,175.68"/>
	<polygon fill="#A7A9AC" points="116.681,182.901 122.056,199.473 139.478,199.473 125.383,209.721 130.766,226.276 
		116.681,216.034 102.587,226.276 107.966,209.721 93.875,199.473 111.297,199.473 	"/>
	<polygon fill="#A7A9AC" points="88.101,2.95 94.87,2.95 82.847,29.159 76.072,29.159 	"/>
	<path fill="#A7A9AC" d="M119.095,5.606c-0.024,0.349-0.13,0.685-0.267,0.993l-8.96,19.427c-0.887,1.814-2.766,3.094-4.853,3.094
		l-16.464,0.04l2.467-5.268h13.057l2.238-4.869h-9.807c-1.465,0-2.561-1.184-2.441-2.65c0.023-0.347,0.112-0.685,0.258-0.986
		l4.303-9.337c0.886-1.821,2.773-3.099,4.852-3.099h13.165C118.12,2.95,119.206,4.14,119.095,5.606 M101.882,13.749h6.892
		l2.521-5.515h-6.899L101.882,13.749z"/>
	<g>
		<polygon fill="#A7A9AC" points="126.831,2.95 133.599,2.95 121.575,29.159 114.801,29.159 		"/>
		<path fill="#A7A9AC" d="M128.877,26.509c0.035-0.356,0.13-0.686,0.277-0.991l8.96-19.429c0.876-1.812,2.76-3.094,4.845-3.094
			l16.468-0.045l-2.47,5.276h-13.059l-2.24,4.862h9.811c1.471,0,2.562,1.189,2.452,2.653c-0.037,0.347-0.129,0.679-0.265,0.988
			l-4.299,9.337c-0.891,1.811-2.774,3.092-4.864,3.092h-13.162C129.857,29.159,128.768,27.976,128.877,26.509 M146.1,18.363h-6.896
			l-2.519,5.515h6.892L146.1,18.363z"/>
	</g>
	<path fill="#002B5C" d="M213.108,257.28h-2.86l-3.508,7.867h-2.713l3.508-7.867h-2.871l0.97-2.17h8.445L213.108,257.28z
		 M223.956,265.147h-2.688l3.487-7.852h-0.285l-4.912,5.498h-1.895l-0.01-5.598h-0.364l-3.533,7.951h-2.558l4.475-10.037h4.371
		l-0.157,4.9l4.299-4.9h4.235L223.956,265.147z"/>
	<g>
		<path fill="#FFFFFF" d="M248.084,111.341l14.731-30.713c0.597-1.337,0.993-2.825,0.95-4.409c-0.068-5.457-4.41-9.886-9.635-9.886
			h-62.224c-3.565,0-6.653,2.088-8.135,5.184l-31.734,65.304c-0.615,1.321-0.92,2.798-0.92,4.366
			c0.07,5.512,4.395,9.939,9.671,9.939h96.081c3.588,0,6.646-2.121,8.131-5.225l6.788-13.912h-88.346l22.668-46.549h25.334
			l-12.438,25.896h29.076V111.341z"/>
		<path fill="#FFFFFF" d="M79.157,76.219c-0.073-5.456-4.387-9.885-9.617-9.885H7.337c-3.604,0-6.674,2.091-8.16,5.185
			l-31.75,65.302c-0.604,1.326-0.911,2.799-0.911,4.363c0.066,5.516,4.403,9.943,9.644,9.943H38.4c3.559,0,6.631-2.113,8.111-5.225
			L78.24,80.625C78.822,79.293,79.183,77.804,79.157,76.219 M24.209,131.991H-1.13l22.659-46.543h25.338L24.209,131.991z"/>
		<polygon fill="#FFFFFF" points="173.122,66.334 143.664,66.334 124.863,105.504 108.058,105.504 127.088,66.442 98.016,66.442 
			56.685,151.235 85.779,151.235 98.737,124.603 98.867,124.603 111.672,151.235 141.109,151.235 128.286,124.559 136.842,124.538 
			136.842,124.537 145.163,124.537 		"/>
	</g>
</g>
<g>
	<polygon fill="#002B5C" points="522.805,154.841 551.126,154.841 576.449,102.823 548.13,102.823 	"/>
	<path fill="#002B5C" d="M846.167,53.338h-380v150.883h380V53.338z M566.986,176.23h-69.562c-5.856,0-10.704-4.949-10.778-11.113
		c0-1.749,0.344-3.395,1.019-4.877l35.485-72.984c1.661-3.458,5.093-5.795,9.12-5.795h69.521c5.846,0,10.666,4.95,10.748,11.048
		c0.029,1.771-0.374,3.436-1.024,4.924l-35.462,72.958C574.397,173.868,570.963,176.23,566.986,176.23z M681.779,176.35h-32.9
		l-14.312-29.766h-0.146l-14.482,29.766h-32.517l46.193-94.769h32.493l-21.27,43.658h18.782l21.012-43.779h32.924l-31.248,65.05
		h-9.299v0.002l-9.563,0.023L681.779,176.35z M820.247,170.39c-1.66,3.469-5.077,5.84-9.087,5.84H703.775
		c-5.897,0-10.73-4.949-10.809-11.109c0-1.753,0.34-3.403,1.027-4.88l35.468-72.986c1.656-3.46,5.107-5.794,9.092-5.794h69.545
		c5.839,0,10.691,4.95,10.768,11.049c0.048,1.77-0.395,3.433-1.062,4.927l-16.465,34.326v-0.004h-32.497l13.901-28.942h-28.314
		l-25.335,52.025h98.739L820.247,170.39z"/>
	<path fill="#FFFFFF" d="M754.429,102.816h28.314l-13.901,28.942h32.497v0.004l16.465-34.326c0.667-1.494,1.109-3.157,1.062-4.927
		c-0.076-6.099-4.929-11.049-10.768-11.049h-69.545c-3.984,0-7.436,2.333-9.092,5.794l-35.468,72.986
		c-0.688,1.477-1.027,3.127-1.027,4.88c0.078,6.16,4.911,11.109,10.809,11.109H811.16c4.01,0,7.427-2.371,9.087-5.84l7.587-15.549
		h-98.739L754.429,102.816z"/>
	<path fill="#FFFFFF" d="M612.538,92.508c-0.082-6.098-4.902-11.048-10.748-11.048h-69.521c-4.027,0-7.459,2.337-9.12,5.795
		l-35.485,72.984c-0.675,1.482-1.019,3.128-1.019,4.877c0.074,6.164,4.922,11.113,10.778,11.113h69.562
		c3.978,0,7.411-2.362,9.065-5.84l35.462-72.958C612.164,95.944,612.567,94.279,612.538,92.508z M551.126,154.841h-28.321
		l25.325-52.019h28.318L551.126,154.841z"/>
	<polygon fill="#FFFFFF" points="677.01,146.51 686.309,146.51 717.557,81.46 684.633,81.46 663.622,125.239 644.839,125.239 
		666.109,81.581 633.616,81.581 587.422,176.35 619.939,176.35 634.421,146.584 634.567,146.584 648.878,176.35 681.779,176.35 
		667.447,146.536 677.01,146.512 	"/>
</g>
</svg>
