<?xml version="1.0" encoding="utf-8"?>
<!-- Generator: Adobe Illustrator 16.0.4, SVG Export Plug-In . SVG Version: 6.00 Build 0)  -->
<!DOCTYPE svg PUBLIC "-//W3C//DTD SVG 1.1//EN" "http://www.w3.org/Graphics/SVG/1.1/DTD/svg11.dtd">
<svg version="1.1" id="Layer_1" xmlns="http://www.w3.org/2000/svg" xmlns:xlink="http://www.w3.org/1999/xlink" x="0px" y="0px"
	 width="385px" height="157px" viewBox="464.14 50.338 385 157" enable-background="new 464.14 50.338 385 157"
	 xml:space="preserve">
<g>
	<polygon fill="#002B5C" points="522.805,154.841 551.126,154.841 576.449,102.823 548.13,102.823 	"/>
	<path fill="#002B5C" d="M846.167,53.338h-380v150.883h380V53.338z M566.986,176.23h-69.562c-5.856,0-10.704-4.949-10.778-11.113
		c0-1.749,0.344-3.395,1.019-4.877l35.485-72.984c1.661-3.458,5.093-5.795,9.12-5.795h69.521c5.846,0,10.666,4.95,10.748,11.048
		c0.029,1.771-0.374,3.436-1.024,4.924l-35.462,72.958C574.397,173.868,570.963,176.23,566.986,176.23z M681.779,176.35h-32.9
		l-14.312-29.766h-0.146l-14.482,29.766h-32.517l46.193-94.769h32.493l-21.27,43.658h18.782l21.012-43.779h32.924l-31.248,65.05
		h-9.299v0.002l-9.563,0.023L681.779,176.35z M820.247,170.39c-1.66,3.469-5.077,5.84-9.087,5.84H703.775
		c-5.897,0-10.73-4.949-10.809-11.109c0-1.753,0.34-3.403,1.027-4.88l35.468-72.986c1.656-3.46,5.107-5.794,9.092-5.794h69.545
		c5.839,0,10.691,4.95,10.768,11.049c0.048,1.77-0.395,3.433-1.062,4.927l-16.465,34.326v-0.004h-32.497l13.901-28.942h-28.314
		l-25.335,52.025h98.739L820.247,170.39z"/>
	<path fill="#FFFFFF" d="M754.429,102.816h28.314l-13.901,28.942h32.497v0.004l16.465-34.326c0.667-1.494,1.109-3.157,1.062-4.927
		c-0.076-6.099-4.929-11.049-10.768-11.049h-69.545c-3.984,0-7.436,2.333-9.092,5.794l-35.468,72.986
		c-0.688,1.477-1.027,3.127-1.027,4.88c0.078,6.16,4.911,11.109,10.809,11.109H811.16c4.01,0,7.427-2.371,9.087-5.84l7.587-15.549
		h-98.739L754.429,102.816z"/>
	<path fill="#FFFFFF" d="M612.538,92.508c-0.082-6.098-4.902-11.048-10.748-11.048h-69.521c-4.027,0-7.459,2.337-9.12,5.795
		l-35.485,72.984c-0.675,1.482-1.019,3.128-1.019,4.877c0.074,6.164,4.922,11.113,10.778,11.113h69.562
		c3.978,0,7.411-2.362,9.065-5.84l35.462-72.958C612.164,95.944,612.567,94.279,612.538,92.508z M551.126,154.841h-28.321
		l25.325-52.019h28.318L551.126,154.841z"/>
	<polygon fill="#FFFFFF" points="677.01,146.51 686.309,146.51 717.557,81.46 684.633,81.46 663.622,125.239 644.839,125.239 
		666.109,81.581 633.616,81.581 587.422,176.35 619.939,176.35 634.421,146.584 634.567,146.584 648.878,176.35 681.779,176.35 
		667.447,146.536 677.01,146.512 	"/>
</g>
</svg>
