<?xml version="1.0" encoding="utf-8"?>
<!-- Generator: Adobe Illustrator 16.0.4, SVG Export Plug-In . SVG Version: 6.00 Build 0)  -->
<!DOCTYPE svg PUBLIC "-//W3C//DTD SVG 1.1//EN" "http://www.w3.org/Graphics/SVG/1.1/DTD/svg11.dtd">
<svg version="1.1" id="Layer_1" xmlns="http://www.w3.org/2000/svg" xmlns:xlink="http://www.w3.org/1999/xlink" x="0px" y="0px"
	 width="402px" height="374px" viewBox="-84.333 -58.162 402 374" enable-background="new -84.333 -58.162 402 374"
	 xml:space="preserve">
<g>
	<path fill="#FFFFFF" d="M-81.833-0.865c8.197,135.15,86.23,251.447,198.504,313.275C228.936,250.583,306.96,134.286,315.167-0.865
		c-57.94-35.007-125.857-55.164-198.496-55.164C44.026-56.029-23.895-35.872-81.833-0.865"/>
	<path fill="#002B5C" d="M-30.662,142.141c32.287,63.49,83.659,117.068,147.332,154.385
		c63.676-37.316,115.04-90.895,147.328-154.385l7.525-15.68l0,0c16.701-37.308,26.953-77.706,29.425-120.017
		C247.63-24.741,184.438-42.816,116.67-42.816c-67.766,0-130.968,18.076-184.287,49.27c2.46,41.997,12.562,82.122,29.059,119.201"/>
	<path fill="#FFFFFF" d="M116.67-25.711c58.133,0,115.394,14.669,166.074,42.406c-1.223,11.355-3.043,22.569-5.358,33.639H-44.031
		c-2.322-11.069-4.143-22.278-5.358-33.633C1.285-11.037,58.548-25.711,116.67-25.711"/>
	<path fill="#FFFFFF" d="M116.67,276.12c-46.257-27.816-84.72-65.654-113.14-109.873h225.884
		C201.039,210.202,162.71,248.438,116.67,276.12"/>
	<path fill="#00A160" d="M22.943,175.68c19.881,28.191,44.184,53.334,72.139,74.451c-5.223-17.49-12.255-43.133-19.057-74.451
		H22.943z"/>
	<path fill="#00A160" d="M-34.504,39.958h88.953c-1.242-15.651-2.09-31.684-2.442-47.972C20.99-1.913-9.083,8.517-37.18,23.066
		C-36.439,28.732-35.53,34.366-34.504,39.958"/>
	<path fill="#00A160" d="M267.873,39.958c1.019-5.601,1.932-11.229,2.681-16.901C242.46,8.517,212.39-1.913,181.372-8.011
		c-0.355,16.285-1.203,32.32-2.445,47.969H267.873z"/>
	<path fill="#00A160" d="M210.413,175.68h-53.064c-6.798,31.314-13.822,56.941-19.049,74.424
		C166.238,228.993,190.542,203.872,210.413,175.68"/>
	<polygon fill="#A7A9AC" points="116.681,182.901 122.056,199.473 139.478,199.473 125.383,209.721 130.766,226.276 
		116.681,216.034 102.587,226.276 107.966,209.721 93.875,199.473 111.297,199.473 	"/>
	<polygon fill="#A7A9AC" points="88.101,2.95 94.87,2.95 82.847,29.159 76.072,29.159 	"/>
	<path fill="#A7A9AC" d="M119.095,5.606c-0.024,0.349-0.13,0.685-0.267,0.993l-8.96,19.427c-0.887,1.814-2.766,3.094-4.853,3.094
		l-16.464,0.04l2.467-5.268h13.057l2.238-4.869h-9.807c-1.465,0-2.561-1.184-2.441-2.65c0.023-0.347,0.112-0.685,0.258-0.986
		l4.303-9.337c0.886-1.821,2.773-3.099,4.852-3.099h13.165C118.12,2.95,119.206,4.14,119.095,5.606 M101.882,13.749h6.892
		l2.521-5.515h-6.899L101.882,13.749z"/>
	<g>
		<polygon fill="#A7A9AC" points="126.831,2.95 133.599,2.95 121.575,29.159 114.801,29.159 		"/>
		<path fill="#A7A9AC" d="M128.877,26.509c0.035-0.356,0.13-0.686,0.277-0.991l8.96-19.429c0.876-1.812,2.76-3.094,4.845-3.094
			l16.468-0.045l-2.47,5.276h-13.059l-2.24,4.862h9.811c1.471,0,2.562,1.189,2.452,2.653c-0.037,0.347-0.129,0.679-0.265,0.988
			l-4.299,9.337c-0.891,1.811-2.774,3.092-4.864,3.092h-13.162C129.857,29.159,128.768,27.976,128.877,26.509 M146.1,18.363h-6.896
			l-2.519,5.515h6.892L146.1,18.363z"/>
	</g>
	<path fill="#002B5C" d="M213.108,257.28h-2.86l-3.508,7.867h-2.713l3.508-7.867h-2.871l0.97-2.17h8.445L213.108,257.28z
		 M223.956,265.147h-2.688l3.487-7.852h-0.285l-4.912,5.498h-1.895l-0.01-5.598h-0.364l-3.533,7.951h-2.558l4.475-10.037h4.371
		l-0.157,4.9l4.299-4.9h4.235L223.956,265.147z"/>
	<g>
		<path fill="#FFFFFF" d="M248.084,111.341l14.731-30.713c0.597-1.337,0.993-2.825,0.95-4.409c-0.068-5.457-4.41-9.886-9.635-9.886
			h-62.224c-3.565,0-6.653,2.088-8.135,5.184l-31.734,65.304c-0.615,1.321-0.92,2.798-0.92,4.366
			c0.07,5.512,4.395,9.939,9.671,9.939h96.081c3.588,0,6.646-2.121,8.131-5.225l6.788-13.912h-88.346l22.668-46.549h25.334
			l-12.438,25.896h29.076V111.341z"/>
		<path fill="#FFFFFF" d="M79.157,76.219c-0.073-5.456-4.387-9.885-9.617-9.885H7.337c-3.604,0-6.674,2.091-8.16,5.185
			l-31.75,65.302c-0.604,1.326-0.911,2.799-0.911,4.363c0.066,5.516,4.403,9.943,9.644,9.943H38.4c3.559,0,6.631-2.113,8.111-5.225
			L78.24,80.625C78.822,79.293,79.183,77.804,79.157,76.219 M24.209,131.991H-1.13l22.659-46.543h25.338L24.209,131.991z"/>
		<polygon fill="#FFFFFF" points="173.122,66.334 143.664,66.334 124.863,105.504 108.058,105.504 127.088,66.442 98.016,66.442 
			56.685,151.235 85.779,151.235 98.737,124.603 98.867,124.603 111.672,151.235 141.109,151.235 128.286,124.559 136.842,124.538 
			136.842,124.537 145.163,124.537 		"/>
	</g>
</g>
</svg>
