<?xml version="1.0" encoding="utf-8"?>
<!-- Generator: Adobe Illustrator 16.0.4, SVG Export Plug-In . SVG Version: 6.00 Build 0)  -->
<!DOCTYPE svg PUBLIC "-//W3C//DTD SVG 1.1//EN" "http://www.w3.org/Graphics/SVG/1.1/DTD/svg11.dtd">
<svg version="1.1" id="Layer_1" xmlns="http://www.w3.org/2000/svg" xmlns:xlink="http://www.w3.org/1999/xlink" x="0px" y="0px"
	 width="510px" height="316.5px" viewBox="0 0 510 316.5" enable-background="new 0 0 510 316.5" xml:space="preserve">
<g>
	<path fill="#00549D" d="M277.711,125.353c-52.594-24.632-99.653-10.94-99.653-10.94L256.013,3.647l143.539,215.567
		c2.241,3.366-2.334,7.061-5.146,4.155C363.121,191.038,311.802,141.319,277.711,125.353"/>
	<path fill="#949599" d="M379.837,203.18c-0.494-0.597-49.99-59.913-100.633-84.891c-23.902-11.789-48.835-14.264-65.54-14.264
		c-11.405,0-18.85,1.174-18.924,1.186l-2.955,0.474l64.257-89.903l125.793,185.899L379.837,203.18z"/>
	<path fill="#FFFFFF" d="M256.014,17.972l124.787,184.41c0,0-49.565-59.824-101.044-85.214
		c-24.199-11.935-49.428-14.392-66.093-14.392c-11.656,0-19.121,1.201-19.121,1.201L256.014,17.972 M256.069,13.593l-2.09,2.924
		l-61.47,86.006l-3.483,4.873l5.914-0.951c0.071-0.012,7.437-1.17,18.724-1.17c16.573,0,41.301,2.452,64.987,14.134
		c50.416,24.866,99.73,83.974,100.224,84.567l3.995-2.996L258.083,16.57L256.069,13.593z"/>
	<path fill="#949599" d="M178.822,233.526c0,47.793-34.553,78.884-86.715,78.884C39.688,312.41,5,281.319,5,233.526l11.243-108.305
		h75.396L80.395,233.526c0,0,0.465,15.535,11.969,15.882c10.172,0.308,11.957-16.776,11.957-16.776l10.35-107.411h74.501
		L178.822,233.526z"/>
	<path fill="#00549D" d="M92.107,314.41c-26.266,0-48.586-7.619-64.552-22.035C11.491,277.869,3,257.52,3,233.526l0.011-0.206
		l11.429-110.099h79.418L82.398,233.589c0.07,1.445,0.928,13.546,10.025,13.82l0.21,0.003c8.013,0,9.682-14.84,9.698-14.99
		l10.521-109.201h78.518l-10.549,110.401c-0.023,23.948-8.477,44.262-24.453,58.75C140.471,306.789,118.25,314.41,92.107,314.41z
		 M7,233.629c0.024,22.785,8.059,42.072,23.236,55.777c15.219,13.741,36.613,21.004,61.871,21.004
		c25.133,0,46.425-7.262,61.574-21.001c15.139-13.729,23.141-33.053,23.141-55.883l0.01-0.19l10.139-106.115h-70.484
		l-10.176,105.602c-0.08,0.774-2.074,18.589-13.677,18.589l-0.331-0.005c-10.588-0.319-13.727-11.797-13.907-17.821l-0.004-0.133
		l0.014-0.133L89.42,127.221H18.047L7,233.629z"/>
	<path fill="#00549D" d="M92.581,304.995c-23.685,0-43.81-6.866-58.195-19.856c-14.468-13.063-22.114-31.396-22.114-53.014v-0.078
		l10.319-99.411h59.906l-10.336,99.566c0.026,15.144,8.128,24.926,20.651,24.926c12.092,0,19.025-9.113,19.025-25.003v-0.078
		l10.32-99.411h59.904l-10.334,99.567C171.689,276.424,140.632,304.995,92.581,304.995"/>
	<path fill="#FFFFFF" d="M180.399,134.136l-10.172,97.989c0,43.24-30.453,71.371-77.646,71.371
		c-47.427,0-78.811-28.131-78.811-71.371l10.172-97.989h56.889L70.66,232.125c0,16.042,8.67,26.503,22.153,26.503
		c13.251,0,20.524-10.229,20.524-26.503l10.172-97.989H180.399 M183.728,131.136h-3.328h-56.89h-2.705l-0.278,2.689l-10.172,97.989
		l-0.017,0.155v0.155c0,7.066-1.707,23.503-17.524,23.503c-11.772,0-19.101-8.943-19.151-23.351l10.154-97.831l0.344-3.311h-3.328
		H23.943h-2.705l-0.279,2.689l-10.172,97.989l-0.016,0.155v0.155c0,22.054,7.818,40.771,22.609,54.127
		c14.666,13.244,35.138,20.244,59.201,20.244c23.902,0,44.15-7.008,58.551-20.264c14.42-13.272,22.059-31.926,22.095-53.951
		l10.155-97.835L183.728,131.136z"/>
	<path fill="#949599" d="M245.773,264.993h-0.193l-4.561,45.626h-72.084l15.959-185.399h86.038
		c49.498,0,77.896,28.267,77.896,69.952c0,26.573-15.779,44.583-34.536,56.047l37.745,59.4h-84.379L245.773,264.993z
		 M268.765,209.479c7.129,0,11.263-4.157,11.263-11.396c0-6.974-4.134-10.994-11.263-10.994h-14.007l-2.496,22.391H268.765z"/>
	<path fill="#00549D" d="M355.678,312.619h-89.278l-19.505-40.665l-4.064,40.665h-76.074l16.303-189.399h87.874
		c24.439,0,44.796,6.873,58.867,19.875c13.757,12.712,21.028,30.72,21.028,52.076c0,28.753-17.962,46.568-33.768,56.675
		L355.678,312.619z M268.917,308.619h79.479l-36.884-58.046l1.736-1.061c15.318-9.363,33.579-26.391,33.579-54.341
		c0-41.914-29.081-67.952-75.896-67.952H186.73l-15.615,181.399h68.094l4.561-45.626h3.263L268.917,308.619z M268.765,211.479
		h-18.738l2.942-26.391h15.796c8.181,0,13.263,4.979,13.263,12.994C282.027,206.472,277.069,211.479,268.765,211.479z
		 M254.497,207.479h14.268c6.06,0,9.263-3.249,9.263-9.396c0-5.884-3.203-8.994-9.263-8.994h-12.218L254.497,207.479z"/>
	<path fill="#949599" d="M427.103,125.22c44.029,0,72.427,22.797,72.427,50.674c0,17.977-4.069,28.947-15.517,38.182
		C495.46,220.918,505,238.159,505,261.086c0,31.265-35.757,49.533-80.308,49.533h-96.915l22.799-185.399H427.103z M408.101,192.246
		h12.439c3.846,0,6.369-1.343,6.369-3.426c0-2.015-2.523-3.291-6.369-3.291h-11.231L408.101,192.246z M403.687,253.733h16.411
		c5.792,0,9.562-1.657,9.562-4.219c0-2.334-3.771-3.842-9.562-3.842h-14.949L403.687,253.733z"/>
	<path fill="#00549D" d="M424.692,312.619h-99.176l23.29-189.399h78.296c43.126,0,74.427,22.153,74.427,52.674
		c0,17.983-4.019,28.903-14.19,37.983c12.023,8.71,19.661,26.852,19.661,47.208c0,15.663-8.45,28.878-24.438,38.218
		C467.863,307.891,447.312,312.619,424.692,312.619z M330.038,308.619h94.654c21.921,0,41.756-4.535,55.852-12.77
		c14.69-8.582,22.456-20.603,22.456-34.764c0-24.602-10.781-39.775-20.014-45.293l-2.463-1.472l2.233-1.802
		c10.631-8.575,14.772-18.845,14.772-36.625c0-28.203-29.619-48.674-70.427-48.674h-74.757L330.038,308.619z M420.098,255.733
		h-18.807l2.188-12.061h16.619c7.24,0,11.562,2.184,11.562,5.842C431.66,253.351,427.229,255.733,420.098,255.733z M406.082,251.733
		h14.016c5.279,0,7.562-1.47,7.562-2.219c0-0.375-1.974-1.842-7.562-1.842h-13.279L406.082,251.733z M420.54,194.246h-14.831
		l1.927-10.717h12.904c6.178,0,8.369,2.851,8.369,5.291C428.909,191.323,426.718,194.246,420.54,194.246z M410.492,190.246h10.048
		c2.813,0,4.369-0.843,4.369-1.426c0-0.38-1.257-1.291-4.369-1.291h-9.559L410.492,190.246z"/>
	<path fill="#00549D" d="M271.348,302.672L251.82,260.36h-13.835l-4.07,42.312h-56.929l14.496-170.036h78.152
		c43.801,0,71.01,24.492,71.01,63.92c0,23.576-20.068,41.233-37.458,52.105l32.69,54.011H271.348z M269.635,216.445
		c10.876,0,16.865-6.485,16.865-18.26c0-11.326-5.989-17.564-16.865-17.564h-21.49l-3.754,35.824H269.635z"/>
	<path fill="#FFFFFF" d="M269.635,134.136c44.169,0,69.51,25.225,69.51,62.42c0,23.713-21.273,41.381-38.011,51.611l32.083,53.005
		h-60.91l-19.526-42.312h-16.158l-4.069,42.312h-53.934l14.24-167.036H269.635 M242.725,217.944h26.91
		c11.625,0,18.365-7.206,18.365-19.759c0-12.091-6.74-19.063-18.365-19.063h-22.841L242.725,217.944 M269.635,131.136h-76.775
		h-2.754l-0.234,2.745L175.63,300.918l-0.278,3.254h3.268h53.934h2.726l0.261-2.712l3.809-39.601h11.512l18.724,40.569l0.805,1.743
		h1.919h60.91h5.322l-2.756-4.553l-30.552-50.477c17.413-11.135,36.913-28.896,36.913-52.587c0-19.404-6.624-35.783-19.155-47.361
		C310.204,137.38,291.755,131.136,269.635,131.136 M249.496,182.122h20.139c9.908,0,15.365,5.705,15.365,16.063
		c0,10.808-5.457,16.759-15.365,16.759h-23.578L249.496,182.122z"/>
	<path fill="#00549D" d="M335.623,302.672l20.71-170.036h69.615c38.319,0,66.13,19.648,66.13,46.718
		c0,15.276-9.283,28.463-24.025,34.687c17.716,5.932,28.907,21.69,28.907,41.334c0,13.755-7.684,26.057-21.637,34.638
		c-13.274,8.164-31.572,12.66-51.525,12.66H335.623z M422.926,260.149c9.116,0,15.007-4.521,15.007-11.519
		c0-6.291-5.891-10.356-15.007-10.356h-24.528l-3.578,21.875H422.926z M422.926,199.473c6.677,0,10.823-3.968,10.823-10.356
		c0-6.101-4.146-9.89-10.823-9.89h-20.475l-3.544,20.246H422.926z"/>
	<path fill="#FFFFFF" d="M425.948,134.136c39.29,0,64.631,20.342,64.631,45.219c0,16.041-10.693,29.757-27.435,34.87
		c19.528,4.417,32.315,20.69,32.315,41.148c0,27.898-31.907,45.799-71.661,45.799h-86.481l20.345-167.036H425.948 M397.123,200.974
		h25.804c7.438,0,12.323-4.65,12.323-11.857c0-6.972-4.885-11.389-12.323-11.389h-21.735L397.123,200.974 M393.054,261.65h29.873
		c9.997,0,16.505-5.114,16.505-13.021c0-7.204-6.508-11.855-16.505-11.855h-25.804L393.054,261.65 M425.948,131.136h-68.286h-2.657
		l-0.321,2.638L334.34,300.81l-0.41,3.362h3.388h86.481c20.226,0,38.803-4.574,52.31-12.882
		c14.413-8.865,22.352-21.62,22.352-35.917c0-10.715-3.276-20.551-9.476-28.442c-4.504-5.734-10.32-10.153-17.094-13.033
		c13.403-6.942,21.688-19.806,21.688-34.543c0-13.318-6.683-25.521-18.814-34.362C462.324,135.927,445.444,131.136,425.948,131.136
		 M403.712,180.728h19.215c5.838,0,9.323,3.136,9.323,8.389c0,5.546-3.485,8.857-9.323,8.857h-22.234L403.712,180.728z
		 M399.672,239.774h23.255c6.529,0,13.505,2.327,13.505,8.855c0,6.182-5.175,10.021-13.505,10.021h-26.342L399.672,239.774z"/>
	<rect x="328.587" y="278.952" fill="#949599" width="5.562" height="7.837"/>
	<rect x="325.811" y="304.164" fill="#949599" width="4.946" height="4.437"/>
	<path fill="#949599" d="M340.784,229.892l-5.987-0.753l2.887-14.143c0,0,3.219-6.24,3.919-14.441
		c0.671-7.865-0.375-15.97-0.375-15.97l0.959-14.172l5.986,0.754L340.784,229.892z"/>
	<path fill="#949599" d="M331.925,293.28c0,0-1.45-2.439-2.114-3.489c-0.754-1.191-2.07-3.486-2.07-3.486l8.035,0.422
		L331.925,293.28z"/>
	<polygon fill="#00549D" points="331.061,277.16 314.292,251.218 335.293,233.295 336.788,244.852 	"/>
	<rect x="242.639" y="262.495" fill="#949599" width="6.732" height="3.842"/>
	
		<rect x="176.545" y="128.364" transform="matrix(0.9962 0.0866 -0.0866 0.9962 17.7268 -14.7391)" fill="#949599" width="4.352" height="137.11"/>
	<polygon fill="#FFFFFF" points="174.977,212.385 172.434,210.88 180.719,131.117 184.912,131.117 	"/>
	<rect x="182.197" y="127.228" fill="#949599" width="6.732" height="2.809"/>
	<polygon fill="#00549D" points="88.031,91.961 81.031,113.032 66.733,113.032 73.278,91.961 61.937,91.961 64.715,83.423 
		101.4,83.423 99.025,91.961 	"/>
	<polygon fill="#00549D" points="119.691,113.031 122.295,102.402 112.379,102.402 109.504,113.031 95.432,113.031 103.744,83.422 
		117.498,83.422 114.918,93.389 125.091,93.399 127.49,83.422 141.242,83.422 134.111,113.031 	"/>
	<polygon fill="#00549D" points="156.516,91.218 155.974,94.271 173.966,94.237 172.439,101.966 154.33,101.952 153.736,104.708 
		172.074,104.708 170.074,113.031 137.982,113.031 144.461,83.422 176.058,83.422 174.629,91.186 	"/>
</g>
</svg>
