<?xml version="1.0" encoding="utf-8"?>
<!-- Generator: Adobe Illustrator 16.0.4, SVG Export Plug-In . SVG Version: 6.00 Build 0)  -->
<!DOCTYPE svg PUBLIC "-//W3C//DTD SVG 1.1//EN" "http://www.w3.org/Graphics/SVG/1.1/DTD/svg11.dtd">
<svg version="1.1" id="Layer_1" xmlns="http://www.w3.org/2000/svg" xmlns:xlink="http://www.w3.org/1999/xlink" x="0px" y="0px"
	 width="510px" height="357.332px" viewBox="0 0 510 357.332" enable-background="new 0 0 510 357.332" xml:space="preserve">
<g>
	<path fill="#00549D" d="M277.711,123.185c-52.594-24.631-99.653-10.939-99.653-10.939L256.013,1.479l143.539,215.567
		c2.241,3.365-2.334,7.061-5.146,4.154C363.121,188.869,311.802,139.151,277.711,123.185"/>
	<path fill="#949599" d="M379.837,201.012c-0.494-0.598-49.99-59.913-100.633-84.89c-23.902-11.789-48.835-14.264-65.54-14.264
		c-11.405,0-18.85,1.174-18.924,1.186l-2.955,0.473l64.257-89.902l125.793,185.899L379.837,201.012z"/>
	<path fill="#FFFFFF" d="M256.014,15.804l124.787,184.409c0,0-49.565-59.823-101.044-85.214
		c-24.199-11.934-49.428-14.391-66.093-14.391c-11.656,0-19.121,1.201-19.121,1.201L256.014,15.804 M256.069,11.426l-2.09,2.925
		l-61.47,86.006l-3.483,4.873l5.914-0.951c0.071-0.012,7.437-1.17,18.724-1.17c16.573,0,41.301,2.451,64.987,14.133
		c50.416,24.867,99.73,83.974,100.224,84.567l3.995-2.996L258.083,14.403L256.069,11.426z"/>
	<path fill="#949599" d="M178.822,231.357c0,47.793-34.553,78.885-86.715,78.885C39.688,310.242,5,279.15,5,231.357l11.243-108.304
		h75.396L80.395,231.357c0,0,0.465,15.535,11.969,15.883c10.172,0.307,11.957-16.777,11.957-16.777l10.35-107.409h74.501
		L178.822,231.357z"/>
	<path fill="#00549D" d="M92.107,312.242c-26.265,0-48.586-7.619-64.552-22.035C11.491,275.701,3,255.352,3,231.357l0.011-0.205
		L14.44,121.054h79.417L82.399,231.42c0.069,1.445,0.927,13.547,10.024,13.82l0.21,0.004c8.013,0,9.682-14.84,9.698-14.99
		l10.522-109.2h78.518l-10.549,110.399c-0.023,23.949-8.477,44.262-24.453,58.75C140.471,304.621,118.25,312.242,92.107,312.242z
		 M7,231.461c0.024,22.785,8.058,42.072,23.237,55.777c15.218,13.74,36.612,21.004,61.871,21.004
		c25.133,0,46.425-7.262,61.575-21.002c15.138-13.729,23.14-33.053,23.14-55.883l0.009-0.189l10.139-106.114h-70.484
		l-10.175,105.601c-0.081,0.775-2.075,18.59-13.677,18.59l-0.331-0.006c-10.588-0.318-13.727-11.797-13.907-17.82l-0.004-0.133
		l0.014-0.133L89.42,125.054H18.046L7,231.461z"/>
	<path fill="#00549D" d="M92.581,302.826c-23.685,0-43.81-6.865-58.195-19.855c-14.468-13.064-22.114-31.396-22.114-53.014v-0.078
		l10.319-99.411h59.906l-10.336,99.565c0.026,15.145,8.128,24.926,20.651,24.926c12.092,0,19.025-9.113,19.025-25.002v-0.078
		l10.32-99.411h59.904l-10.334,99.567C171.689,274.256,140.632,302.826,92.581,302.826"/>
	<path fill="#FFFFFF" d="M180.399,131.968l-10.172,97.989c0,43.24-30.453,71.371-77.646,71.371
		c-47.427,0-78.811-28.131-78.811-71.371l10.172-97.989h56.889L70.66,229.957c0,16.041,8.67,26.502,22.153,26.502
		c13.251,0,20.524-10.229,20.524-26.502l10.172-97.989H180.399 M183.728,128.968h-3.328h-56.89h-2.705l-0.278,2.689l-10.172,97.989
		l-0.017,0.154v0.156c0,7.066-1.707,23.502-17.524,23.502c-11.772,0-19.101-8.943-19.151-23.35l10.154-97.831l0.344-3.311h-3.328
		H23.943h-2.705l-0.279,2.689l-10.172,97.989l-0.016,0.154v0.156c0,22.053,7.818,40.77,22.609,54.127
		c14.666,13.244,35.138,20.244,59.201,20.244c23.902,0,44.15-7.008,58.551-20.264c14.42-13.273,22.059-31.926,22.095-53.951
		l10.155-97.835L183.728,128.968z"/>
	<path fill="#949599" d="M245.773,262.824h-0.193l-4.561,45.627h-72.084l15.959-185.399h86.038
		c49.498,0,77.896,28.268,77.896,69.952c0,26.572-15.779,44.582-34.536,56.047l37.745,59.4h-84.379L245.773,262.824z
		 M268.765,207.311c7.129,0,11.263-4.156,11.263-11.396c0-6.973-4.134-10.994-11.263-10.994h-14.007l-2.496,22.391H268.765z"/>
	<path fill="#00549D" d="M355.678,310.451h-89.278l-19.505-40.666l-4.064,40.666h-76.074l16.303-189.399h87.874
		c24.439,0,44.796,6.873,58.867,19.877c13.757,12.711,21.028,30.719,21.028,52.075c0,28.752-17.962,46.568-33.768,56.674
		L355.678,310.451z M268.917,306.451h79.479l-36.884-58.047l1.736-1.061c15.318-9.363,33.579-26.391,33.579-54.34
		c0-41.913-29.081-67.952-75.896-67.952H186.73l-15.615,181.399h68.094l4.561-45.627h3.262L268.917,306.451z M268.765,209.311
		h-18.738l2.942-26.391h15.796c8.181,0,13.263,4.98,13.263,12.994C282.027,204.303,277.069,209.311,268.765,209.311z
		 M254.497,205.311h14.268c6.06,0,9.263-3.248,9.263-9.396c0-5.883-3.203-8.994-9.263-8.994h-12.218L254.497,205.311z"/>
	<path fill="#949599" d="M427.103,123.052c44.029,0,72.427,22.799,72.427,50.676c0,17.976-4.069,28.946-15.517,38.181
		C495.46,218.75,505,235.99,505,258.918c0,31.264-35.757,49.533-80.308,49.533h-96.915l22.799-185.399H427.103z M408.101,190.078
		h12.439c3.846,0,6.369-1.344,6.369-3.426c0-2.016-2.523-3.291-6.369-3.291h-11.231L408.101,190.078z M403.687,251.564h16.411
		c5.792,0,9.562-1.656,9.562-4.219c0-2.334-3.771-3.842-9.562-3.842h-14.949L403.687,251.564z"/>
	<path fill="#00549D" d="M424.692,310.451h-99.176l23.29-189.399h78.296c43.126,0,74.427,22.154,74.427,52.676
		c0,17.981-4.019,28.901-14.19,37.981C499.362,220.42,507,238.561,507,258.918c0,15.662-8.45,28.877-24.438,38.217
		C467.863,305.723,447.312,310.451,424.692,310.451z M330.038,306.451h94.654c21.921,0,41.756-4.535,55.852-12.77
		C495.234,285.1,503,273.078,503,258.918c0-24.602-10.781-39.775-20.014-45.293l-2.463-1.473l2.233-1.801
		c10.631-8.576,14.772-18.846,14.772-36.624c0-28.203-29.619-48.676-70.427-48.676h-74.757L330.038,306.451z M420.098,253.564
		h-18.807l2.188-12.061h16.619c7.24,0,11.562,2.184,11.562,5.842C431.66,251.182,427.229,253.564,420.098,253.564z M406.082,249.564
		h14.016c5.279,0,7.562-1.469,7.562-2.219c0-0.375-1.974-1.842-7.562-1.842h-13.279L406.082,249.564z M420.54,192.078h-14.831
		l1.927-10.717h12.904c6.178,0,8.369,2.85,8.369,5.291C428.909,189.154,426.718,192.078,420.54,192.078z M410.492,188.078h10.048
		c2.813,0,4.369-0.844,4.369-1.426c0-0.381-1.257-1.291-4.369-1.291h-9.559L410.492,188.078z"/>
	<path fill="#00549D" d="M271.348,300.504l-19.527-42.312h-13.835l-4.07,42.312h-56.929l14.496-170.036h78.152
		c43.801,0,71.01,24.492,71.01,63.919c0,23.576-20.068,41.234-37.458,52.105l32.69,54.012H271.348z M269.635,214.277
		c10.876,0,16.865-6.486,16.865-18.26c0-11.326-5.989-17.564-16.865-17.564h-21.49l-3.754,35.824H269.635z"/>
	<path fill="#FFFFFF" d="M269.635,131.968c44.169,0,69.51,25.225,69.51,62.419c0,23.713-21.273,41.381-38.011,51.611l32.083,53.006
		h-60.91l-19.526-42.312h-16.158l-4.069,42.312h-53.934l14.24-167.036H269.635 M242.725,215.775h26.91
		c11.625,0,18.365-7.205,18.365-19.758c0-12.092-6.74-19.064-18.365-19.064h-22.841L242.725,215.775 M269.635,128.968h-76.775
		h-2.754l-0.234,2.746L175.63,298.75l-0.278,3.254h3.268h53.934h2.726l0.261-2.713l3.809-39.6h11.512l18.724,40.568l0.805,1.744
		h1.919h60.91h5.322l-2.756-4.553l-30.552-50.477c17.413-11.135,36.913-28.896,36.913-52.588c0-19.404-6.624-35.782-19.155-47.36
		C310.204,135.212,291.755,128.968,269.635,128.968 M249.496,179.953h20.139c9.908,0,15.365,5.705,15.365,16.064
		c0,10.807-5.457,16.758-15.365,16.758h-23.578L249.496,179.953z"/>
	<path fill="#00549D" d="M335.623,300.504l20.71-170.036h69.615c38.319,0,66.13,19.648,66.13,46.718
		c0,15.275-9.283,28.463-24.025,34.686c17.716,5.932,28.907,21.691,28.907,41.334c0,13.756-7.684,26.057-21.637,34.639
		c-13.274,8.164-31.572,12.66-51.525,12.66H335.623z M422.926,257.98c9.116,0,15.007-4.52,15.007-11.518
		c0-6.291-5.891-10.357-15.007-10.357h-24.528l-3.578,21.875H422.926z M422.926,197.305c6.677,0,10.823-3.969,10.823-10.357
		c0-6.1-4.146-9.889-10.823-9.889h-20.475l-3.544,20.246H422.926z"/>
	<path fill="#FFFFFF" d="M425.948,131.968c39.29,0,64.631,20.342,64.631,45.218c0,16.041-10.693,29.758-27.435,34.871
		c19.528,4.416,32.315,20.689,32.315,41.148c0,27.898-31.907,45.799-71.661,45.799h-86.481l20.345-167.036H425.948 M397.123,198.805
		h25.804c7.438,0,12.323-4.65,12.323-11.857c0-6.971-4.885-11.389-12.323-11.389h-21.735L397.123,198.805 M393.054,259.482h29.873
		c9.997,0,16.505-5.115,16.505-13.021c0-7.203-6.508-11.855-16.505-11.855h-25.804L393.054,259.482 M425.948,128.968h-68.286h-2.657
		l-0.321,2.639L334.34,298.641l-0.41,3.363h3.388h86.481c20.226,0,38.803-4.574,52.31-12.883
		c14.413-8.865,22.352-21.619,22.352-35.916c0-10.715-3.276-20.551-9.476-28.443c-4.504-5.734-10.32-10.152-17.094-13.033
		c13.403-6.941,21.688-19.805,21.688-34.543c0-13.317-6.683-25.521-18.814-34.36C462.324,133.759,445.444,128.968,425.948,128.968
		 M403.712,178.559h19.215c5.838,0,9.323,3.137,9.323,8.389c0,5.547-3.485,8.857-9.323,8.857h-22.234L403.712,178.559z
		 M399.672,237.605h23.255c6.529,0,13.505,2.328,13.505,8.855c0,6.182-5.175,10.021-13.505,10.021h-26.342L399.672,237.605z"/>
	<rect x="328.587" y="276.783" fill="#949599" width="5.562" height="7.838"/>
	<rect x="325.811" y="301.996" fill="#949599" width="4.946" height="4.436"/>
	<path fill="#949599" d="M340.784,227.723l-5.987-0.752l2.887-14.143c0,0,3.219-6.24,3.919-14.441
		c0.671-7.865-0.375-15.971-0.375-15.971l0.959-14.171l5.986,0.754L340.784,227.723z"/>
	<path fill="#949599" d="M331.925,291.111c0,0-1.45-2.439-2.114-3.488c-0.754-1.191-2.07-3.486-2.07-3.486l8.035,0.422
		L331.925,291.111z"/>
	<polygon fill="#00549D" points="331.061,274.992 314.292,249.049 335.293,231.127 336.788,242.684 	"/>
	<rect x="242.639" y="260.326" fill="#949599" width="6.732" height="3.842"/>
	
		<rect x="176.545" y="126.196" transform="matrix(0.9962 0.0866 -0.0866 0.9962 17.539 -14.7472)" fill="#949599" width="4.352" height="137.109"/>
	<polygon fill="#FFFFFF" points="174.977,210.217 172.434,208.711 180.718,128.948 184.912,128.948 	"/>
	<rect x="182.197" y="125.06" fill="#949599" width="6.732" height="2.809"/>
	<polygon fill="#FFFFFF" points="88.031,89.794 81.031,110.864 66.733,110.864 73.278,89.794 61.937,89.794 64.715,81.255 
		101.4,81.255 99.025,89.794 	"/>
	<polygon fill="#FFFFFF" points="119.691,110.864 122.295,100.235 112.379,100.235 109.504,110.864 95.432,110.864 103.744,81.255 
		117.498,81.255 114.918,91.222 125.091,91.231 127.49,81.255 141.242,81.255 134.111,110.864 	"/>
	<polygon fill="#FFFFFF" points="156.516,89.05 155.974,92.103 173.966,92.069 172.439,99.798 154.33,99.784 153.736,102.54 
		172.074,102.54 170.074,110.864 137.982,110.864 144.461,81.255 176.058,81.255 174.629,89.019 	"/>
	<polygon fill="#FFFFFF" points="160.994,344.441 159.827,354.541 122.494,354.541 127.398,321.703 142.827,321.703 
		139.766,344.441 	"/>
	<polygon fill="#FFFFFF" points="181.994,330.275 181.994,333.525 201.994,333.525 201.244,341.775 180.744,341.775 
		180.744,345.443 201.244,345.443 200.661,354.541 164.244,354.541 167.577,321.701 202.434,321.701 201.872,330.275 	"/>
	<path fill="#FFFFFF" d="M222.93,348.971l-2.242,5.57h-17.693l18-32.838h19.75l15.5,32.838h-17.5l-1.667-5.57H222.93z
		 M230.17,331.441l-4.273,8.75h8.431L230.17,331.441z"/>
	<path fill="#FFFFFF" d="M295.958,336.191v17.668c-4.857,2.4-12.893,1.143-19.12,1.143c-13.702,0-23.668-7.016-23.668-16.617
		c0-9.555,8.562-17.877,22.824-17.877c6.788,0,17.583,1.354,17.583,1.354l-1.5,8.914c0,0-10.755-0.006-14.368-0.006
		c-5.604,0-8.465,3.197-8.465,7.582c0,4.479,2.335,7.271,8,7.09c2.614-0.082,3.166-0.408,3.166-0.408v-8.842H295.958z"/>
	<path fill="#FFFFFF" d="M342.857,340.832c0,8.584-5.093,14.17-20.802,14.17c-15.423,0-23.113-5.586-23.113-14.17v-19.131h15.449
		l0.873,19.131c0,3.186,3.275,4.332,6.853,3.84c4.086-0.562,4.336-0.812,4.836-3.84l-1.25-19.131h17.154V340.832z"/>
	<polygon fill="#FFFFFF" points="361.812,330.309 362.146,333.584 382.25,333.584 383.492,341.785 362.965,341.785 363.275,345.488 
		383.758,345.488 384.978,354.541 348.215,354.541 345.43,321.701 381.147,321.701 381.874,330.309 	"/>
</g>
</svg>
