<?xml version="1.0" encoding="utf-8"?>
<!-- Generator: Adobe Illustrator 16.0.4, SVG Export Plug-In . SVG Version: 6.00 Build 0)  -->
<!DOCTYPE svg PUBLIC "-//W3C//DTD SVG 1.1//EN" "http://www.w3.org/Graphics/SVG/1.1/DTD/svg11.dtd">
<svg version="1.1" id="Layer_1" xmlns="http://www.w3.org/2000/svg" xmlns:xlink="http://www.w3.org/1999/xlink" x="0px" y="0px"
	 width="800px" height="342px" viewBox="0 0 800 342" enable-background="new 0 0 800 342" xml:space="preserve">
<g>
	<path fill="#FFFFFF" d="M113.521,22.259c0.131-0.012,0.262-0.024,0.393-0.036c-0.395-4.077-1.067-8.151-1.101-12.232
		c-0.028-3.38-1.682-5.773-3.672-8.042c-1.829-2.084-6.685-1.344-7.15,1.134c-0.396,2.112,0.008,4.402,0.241,6.594
		c0.164,1.535,0.733,3.023,0.949,4.557c0.46,3.266,0.7,6.567,1.231,9.82c0.643,3.936,1.746,7.809,2.179,11.761
		c0.384,3.499,0.074,7.069,0.168,10.606c0.038,1.427-0.084,3.108,0.603,4.216c1.362,2.195,0.979,4.426,0.978,6.705
		c-0.001,1.925-0.005,3.855,0.128,5.774c0.228,3.292,0.446,6.592,0.884,9.859c0.396,2.954,0.824,5.951,1.739,8.767
		c0.534,1.647,0.761,2.89-0.167,4.388c-0.43,0.695-0.585,1.648-0.609,2.491c-0.096,3.319-0.008,6.645-0.141,9.961
		c-0.157,3.941-0.424,7.881-0.74,11.814c-0.113,1.417-0.939,2.894-0.692,4.204c0.825,4.383,1.426,8.683,0.816,13.2
		c-0.356,2.633,0.576,5.414,0.528,8.121c-0.089,5.018-0.461,10.03-0.734,15.043c-0.297,5.453-0.62,10.905-0.923,16.356
		c-0.2,3.587-0.442,7.174-0.557,10.764c-0.089,2.803-0.03,5.611-0.004,8.417c0.017,1.906,0.279,3.832,0.09,5.714
		c-0.22,2.204-1.036,4.354-1.188,6.557c-0.23,3.308-0.08,6.643-0.156,9.963c-0.021,0.843-0.259,1.684-0.442,2.516
		c-0.334,1.521-0.885,3.021-1.024,4.561c-0.468,5.209-0.619,10.455-1.232,15.645c-0.542,4.595-2.57,8.936-2.43,13.689
		c0.037,1.244-0.482,2.519-0.82,3.758c-0.881,3.24-1.76,6.481-2.725,9.697c-0.842,2.812-1.686,5.631-2.742,8.364
		c-0.845,2.187-2.141,4.196-3.008,6.376c-1.875,4.717-4.434,8.955-8.063,12.532c-1.592,1.569-3.23,3.11-4.674,4.812
		c-4.323,5.094-9.241,9.375-15.437,12.076c-3.917,1.708-8.026,2.66-12.216,3.314c-2.977,0.464-6.026,1.39-8.944,1.103
		c-6.342-0.623-12.715-1.397-18.769-3.677c-2.945-1.109-6.079-1.797-8.89-3.162c-3.03-1.474-5.919-3.303-6.247-7.354
		c-0.142-1.754-0.969-3.457-1.509-5.176c-0.509-1.621-1.803-2.386-3.322-2.203c-0.965,0.117-2.413,0.811-2.658,1.563
		c-1.439,4.438,0.528,12.591,4.435,15.368c2.865,2.038,5.846,3.928,8.875,5.714c1.976,1.164,4.053,2.26,6.221,2.976
		c5.227,1.723,10.932,1.27,16.109,3.402c0.948,0.389,2.149,0.278,3.224,0.221c3.488-0.188,6.969-0.074,10.456-0.06
		c9.107,0.045,17.568-2.562,25.472-7.062c3.801-2.164,7.386-4.56,10.45-7.742c2.841-2.952,5.911-5.686,8.839-8.557
		c0.546-0.535,0.938-1.246,1.329-1.918c1.548-2.664,3.079-5.336,4.589-8.019c0.42-0.748,0.982-1.517,1.081-2.325
		c0.532-4.326,1.715-8.378,4.352-11.931c0.324-0.438,0.401-1.072,0.533-1.63c0.981-4.125,1.833-8.285,2.943-12.375
		c2.045-7.534,3.344-15.156,3.387-22.981c0.009-1.562-0.062-3.286,0.55-4.644c0.897-1.99,0.881-3.791,0.531-5.864
		c-0.328-1.938-0.279-4.019,0.026-5.97c0.561-3.584,1.557-7.099,2.132-10.681c0.442-2.755,0.578-5.565,0.735-8.358
		c0.092-1.647,0.025-3.312-0.087-4.957c-0.132-1.932-0.416-3.851-0.59-5.777c-0.63-6.964,1.375-13.908,0.178-20.881
		c-0.067-0.397,0.046-0.889,0.233-1.257c2.388-4.695,1.105-9.606,0.899-14.457c-0.234-5.512-0.722-11.033-0.56-16.534
		c0.102-3.471,1.602-6.897,1.738-10.372c0.167-4.279-0.448-8.586-0.687-12.884c-0.051-0.929,0.056-1.868,0.105-2.801
		c0.163-3.077,0.698-6.188,0.413-9.221c-0.395-4.204-1.96-8.392-1.1-12.601c0.862-4.225-0.787-7.407-2.885-10.693
		c-0.485-0.76-0.608-2.042-0.354-2.929c0.842-2.938,1.699-5.787,0.678-8.896c-0.315-0.961,0.015-2.132,0.043-3.208
		c0.058-2.219,0.309-4.455,0.124-6.653c-0.341-4.085-1.064-8.137-1.397-12.222C114.043,33.025,113.83,27.638,113.521,22.259z
		 M475.538,141.902c-0.263-0.052-0.525-0.104-0.787-0.156c0.618-3.459,1.416-6.897,1.809-10.381c0.53-4.69,0.868-9.325,2.21-13.96
		c1.77-6.107,1.354-12.839,5.355-18.323c0.24-0.329,0.286-0.811,0.388-1.23c1.313-5.446,2.349-10.98,4.884-16.048
		c0.923-1.843,1.888-3.683,3.022-5.396c0.652-0.986,1.825-1.621,2.521-2.588c1.326-1.849,2.302-3.972,3.744-5.714
		c2.707-3.271,5.646-6.35,8.488-9.51c0.771-0.857,1.62-1.658,2.283-2.591c1.873-2.627,4.201-4.241,7.594-4.146
		c1.184,0.033,2.512-0.182,3.543-0.723c2.957-1.551,5.822-1.237,8.729-0.034c4.656,1.927,6.501,6.315,8.895,10.218
		c1.276,2.08,1.717,4.146,0.618,6.545c-0.844,1.843,0.002,2.903,1.996,3.071c3.352,0.282,6.059-1.797,6.212-5.146
		c0.088-1.901-0.757-3.848-0.651-5.745c0.222-3.914-2.502-6.157-4.839-8.254c-3.514-3.151-7.604-5.657-11.443-8.447
		c-1.934-1.405-3.971-1.707-6.344-1.168c-4.793,1.086-9.392,2.478-13.727,4.948c-4.295,2.447-8.084,5.464-11.256,9.125
		c-4.962,5.727-9.579,11.751-14.325,17.665c-0.397,0.495-0.756,1.066-0.967,1.66c-1.49,4.178-2.437,8.604-5.648,11.978
		c-0.275,0.29-0.357,0.781-0.49,1.192c-0.872,2.703-1.729,5.412-2.601,8.115c-0.901,2.795-2.042,5.536-2.672,8.39
		c-1.141,5.165-2.049,10.384-2.916,15.603c-0.623,3.745-1.038,7.526-1.518,11.295c-0.152,1.209-0.163,2.437-0.323,3.645
		c-0.447,3.346-1.256,6.677-1.351,10.03c-0.205,7.437-0.081,14.883-0.045,22.326c0.006,1.142-0.046,2.453,0.466,3.392
		c1.249,2.289,1.242,4.686,1.279,7.145c0.021,1.283,0.36,2.56,0.534,3.84c0.428,3.189,1.002,6.371,1.218,9.576
		c0.194,2.873-0.071,5.775-0.009,8.664c0.023,1.053,0.354,2.114,0.643,3.146c0.901,3.218,1.781,6.444,2.81,9.625
		c0.44,1.364,1.024,2.78,1.913,3.875c1.021,1.261,1.442,2.405,1.43,4.079c-0.017,1.921,0.535,3.912,1.188,5.751
		c0.564,1.603,1.724,2.985,2.421,4.553c0.93,2.088,1.624,4.278,2.495,6.394c1.775,4.299,5.591,6.909,8.594,10.183
		c2.68,2.923,5.589,5.635,8.356,8.479c0.746,0.766,1.191,1.928,2.054,2.459c2.295,1.416,4.658,2.789,7.148,3.797
		c2.561,1.037,5.259,1.866,7.975,2.34c4.268,0.744,8.472,2.205,12.918,1.52c2.399-0.37,4.967-0.268,7.178-1.113
		c2.497-0.959,4.643-2.756,7.569-2.593c0.582,0.032,1.242-0.667,1.812-1.103c3.656-2.815,6.201-7.076,10.982-8.439
		c0.224-0.062,0.408-0.39,0.535-0.632c1.571-3.013,4.063-4.667,7.381-5.319c2.528-0.5,3.793-2.144,4.003-4.709
		c0.087-1.074,0.268-2.148,0.264-3.224c-0.003-0.937,0-2.565-0.356-2.671c-0.978-0.287-2.229-0.154-3.212,0.227
		c-1.32,0.512-2.44,1.508-3.73,2.124c-2.448,1.177-5.028,2.066-6.61,4.558c-0.471,0.74-1.445,1.156-2.172,1.74
		c-1.046,0.84-2.076,1.697-3.112,2.549c-0.608,0.502-1.16,1.105-1.836,1.486c-2.847,1.602-5.662,3.282-8.618,4.655
		c-2.812,1.305-5.556,3.147-9.015,1.905c-0.812-0.295-1.926,0.262-2.903,0.416c-1.533,0.24-3.07,0.666-4.604,0.654
		c-1.78-0.015-3.569-0.675-5.331-0.588c-2.524,0.127-4.021-1.068-5.379-2.949c-0.634-0.875-1.609-1.56-2.548-2.146
		c-1.627-1.018-3.722-1.545-4.953-2.889c-4.86-5.297-9.538-10.766-14.112-16.311c-1.481-1.795-2.555-3.962-3.605-6.062
		c-1.688-3.381-3.204-6.848-4.793-10.277c-0.299-0.646-0.894-1.323-0.837-1.938c0.331-3.498-1.258-6.404-2.501-9.479
		c-1.075-2.664-2.54-5.435-0.589-8.427c0.337-0.518,0.247-1.428,0.121-2.111c-0.9-4.938-2.48-9.718-2.645-14.829
		c-0.155-4.862-0.911-9.708-1.421-14.56c-0.218-2.067-0.597-4.125-0.693-6.197c-0.111-2.369-0.22-4.777,0.08-7.117
		C474.116,148.336,474.908,145.129,475.538,141.902z M747.314,327.839c0.549,3.754,0.901,6.676,1.448,9.562
		c0.138,0.717,0.859,1.806,1.394,1.854c0.854,0.079,2.003-0.344,2.605-0.964c0.823-0.847,1.366-2.033,1.827-3.157
		c1.518-3.7,3.728-7.436,1.028-11.443c-2.042-3.036-1.157-5.464,0.854-8.053c0.694-0.891,0.895-2.354,0.896-3.559
		c0.009-3.812-0.201-7.624-0.271-11.438c-0.009-0.464,0.218-1.023,0.519-1.39c4.109-5.017,4.59-11.166,5.521-17.205
		c0.437-2.817,1.19-5.592,1.88-8.364c0.439-1.771,1.076-3.49,1.528-5.261c0.267-1.032,0.138-2.202,0.537-3.163
		c1.612-3.851,2.065-7.816,2.261-11.979c0.137-2.854,1.217-5.961,2.77-8.381c2.596-4.047,3.705-8.268,4.126-12.975
		c0.239-2.685,1.694-5.262,2.622-7.883c0.801-2.264,1.656-4.509,2.426-6.782c0.405-1.2,0.602-2.469,1.017-3.661
		c0.755-2.17,2.009-4.248,2.32-6.47c0.514-3.644,0.725-7.284,2.841-10.478c0.298-0.45,0.469-1.104,0.428-1.643
		c-0.396-5.152,1.93-9.822,2.582-14.785c0.385-2.916,0.831-5.826,1.248-8.739c0.094-0.639,0.049-1.335,0.289-1.91
		c1.41-3.352,1.549-6.856,1.472-10.416c-0.021-0.976,0.273-1.968,0.493-2.937c0.372-1.655,0.992-3.278,1.163-4.951
		c0.298-2.916-1.081-5.948,0.716-8.8c0.312-0.495-0.004-1.404-0.074-2.117c-0.188-1.926-0.399-3.85-0.604-5.773
		c-0.097-0.93-0.062-1.899-0.32-2.782c-0.65-2.218-3.997-3.909-5.534-2.589c-2.039,1.75-4.257,3.689-5.362,6.035
		c-1.518,3.221-3.408,5.977-5.926,8.4c-0.412,0.397-0.769,0.859-1.117,1.316c-1.604,2.09-3.048,4.331-4.855,6.221
		c-0.839,0.874-2.359,1.131-3.607,1.56c-1.531,0.528-3.078,1.059-4.662,1.366c-1.009,0.196-2.535,0.43-3.074-0.109
		c-2.461-2.462-5.149-4.913-6.83-7.89c-2.658-4.714-3.854-10.231-8.035-14.13c-0.67-0.625-0.723-1.871-1.212-2.744
		c-0.517-0.917-1.104-1.854-1.876-2.544c-0.457-0.409-1.446-0.644-1.975-0.423c-0.443,0.186-0.745,1.131-0.79,1.763
		c-0.113,1.654-0.233,3.345-0.014,4.976c0.282,2.09,0.817,4.155,1.387,6.192c0.649,2.335,1.354,4.667,2.229,6.926
		c0.582,1.507,1.386,2.966,2.304,4.3c1.383,2.01,3.294,3.723,4.365,5.869c1.728,3.461,4.741,5.738,7.656,7.59
		c3.375,2.143,7.594,0.638,11.05-0.823c2.16-0.913,3.653-3.35,5.52-5.021c2.787-2.496,5.862-4.736,6.986-8.582
		c0.055-0.186,0.285-0.318,0.431-0.479c1.082-1.195,2.106-1.217,3.333-0.087c1.521,1.404,1.626,3.123,1.483,4.972
		c-0.283,3.701-0.378,7.428-0.884,11.098c-0.478,3.454-1.388,6.85-2.097,10.271c-0.393,1.885-1.056,3.768-1.087,5.66
		c-0.073,4.51-0.112,8.961-2.232,13.131c-0.875,1.722-1.397,3.619-2.127,5.416c-0.81,1.99-1.424,4.119-2.58,5.89
		c-1.14,1.747-1.489,3.512-1.521,5.474c-0.016,0.924-0.035,1.864-0.214,2.764c-0.929,4.64-1.891,9.271-2.893,13.896
		c-0.147,0.681-0.572,1.299-0.869,1.943c-0.804,1.745-1.606,3.489-2.41,5.235c-0.444,0.965-0.969,1.901-1.316,2.901
		c-0.479,1.371-0.92,2.769-1.207,4.188c-0.268,1.315,0.101,2.918-0.521,3.979c-2.744,4.682-3.646,9.782-4.053,15.059
		c-0.056,0.69-0.188,1.572-0.636,2c-2.025,1.936-2.062,4.371-1.919,6.848c0.147,2.539-0.697,4.595-2.386,6.494
		c-0.741,0.832-1.141,2.115-1.339,3.256c-0.557,3.234-0.9,6.506-1.386,9.755c-0.493,3.315-1.031,6.627-1.604,9.93
		c-0.131,0.763-0.336,1.575-0.743,2.214c-1.399,2.19-1.083,4.43-0.807,6.87c0.368,3.25,0.46,6.628-0.009,9.854
		C749.378,321.536,748.095,324.973,747.314,327.839z M207.779,177.479c0.221-5.629-2.607-7.909-7.181-6.708
		c-0.416,0.109-0.851,0.205-1.277,0.206c-1.632,0.004-2.901,0.767-3.362,2.246c-0.913,2.928-1.646,5.916-2.322,8.911
		c-0.313,1.386-0.101,2.907-0.504,4.255c-1.476,4.928-0.787,10.381-3.641,14.971c-0.175,0.283-0.105,0.709-0.189,1.06
		c-1.008,4.224-1.979,8.455-3.06,12.659c-0.497,1.932-1.308,3.783-1.799,5.718c-0.483,1.899-0.303,4.097-1.196,5.736
		c-1.521,2.796-1.813,5.378-1.046,8.454c0.486,1.951,0.435,3.935,2.73,4.623c2.46,0.738,3.64-1.189,5.013-2.629
		c0.242-0.254,0.349-0.631,0.564-0.916c2.299-3.06,3.443-6.637,4.191-10.275c0.63-3.066,0.649-6.254,1.002-9.381
		c0.176-1.555-0.009-3.504,0.851-4.555c1.838-2.246,2.04-4.648,2.04-7.291c0-1.123,0.271-2.299,0.664-3.359
		c0.273-0.737,1.021-1.891,1.455-1.848c0.759,0.076,1.683,0.785,2.103,1.487c0.955,1.599,1.654,3.349,2.443,5.044
		c2.538,5.454,7.508,7.076,11.409,2.793c1.289-1.416,3.069-2.373,4.469-3.705c1.794-1.703,4.252-3.135,4.206-5.99
		c-0.043-2.713,1.54-4.256,3.35-5.717c1.343-1.084,1.858-0.74,2.222,0.978c0.739,3.481,1.284,6.915,0.111,10.442
		c-0.293,0.881,0.118,1.988,0.164,2.992c0.039,0.846-0.005,1.692,0.027,2.537c0.078,2.066,0.083,4.139,0.294,6.19
		c0.285,2.782,0.997,5.544,1.042,8.321c0.048,2.828,0.798,5.207,2.557,7.373c1.404,1.73,4.193,2.592,6.385,1.684
		c2.042-0.848,2.574-2.727,2.399-4.648c-0.285-3.142-0.854-6.259-1.319-9.383c-0.052-0.354-0.127-0.757-0.336-1.021
		c-1.531-1.93-1.295-3.98-0.622-6.154c0.292-0.941,0.316-2.004,0.273-3.004c-0.259-6.036-0.635-12.067-0.834-18.106
		c-0.077-2.334,0.202-4.681,0.323-7.021c0.057-1.118,0.117-2.236,0.188-3.354c0.103-1.61,0.391-3.233,0.28-4.829
		c-0.135-1.927-0.562-3.836-0.938-5.74c-0.608-3.081-2.306-5.417-5.122-6.812c-3.033-1.504-5.654-0.125-6.662,3.054
		c-0.8,2.521-1.973,4.929-3.047,7.357c-1.461,3.305-2.953,6.598-4.492,9.866c-1.494,3.172-2.899,6.403-4.656,9.427
		c-1.39,2.393-3.98,2.188-5.073-0.391c-1.165-2.754-2.03-5.655-2.777-8.557C208.417,181.9,208.097,179.246,207.779,177.479z
		 M139.035,229.928c0-0.796-0.058-1.091,0.009-1.354c0.978-3.848,2.131-7.678,0.594-11.666c-0.168-0.436-0.083-1.021,0.028-1.504
		c0.785-3.43,1.573-6.86,2.428-10.272c0.822-3.276,1.798-6.516,2.578-9.803c1.191-5.017,2.268-10.058,3.403-15.087
		c0.363-1.611,0.615-3.271,1.2-4.799c0.32-0.838,1.23-1.447,1.875-2.158c0.502,0.539,1.183,0.999,1.474,1.636
		c0.983,2.156,2.198,4.304,2.653,6.586c1.053,5.286,2.968,10.164,5.769,14.732c0.182,0.297,0.415,0.743,0.316,1.003
		c-1.142,3.006-0.165,5.943,0.076,8.938c0.271,3.354,0.864,6.48,2.408,9.532c1.351,2.668,2.386,5.56,3.124,8.463
		c0.774,3.046,0.981,6.232,1.542,9.339c0.186,1.026,0.664,2.014,1.077,2.987c0.526,1.235,1.298,2.394,1.65,3.672
		c0.706,2.556,1.121,5.191,1.816,7.75c0.293,1.079,0.882,2.128,1.535,3.05c0.921,1.297,2.209,2.336,3.872,1.532
		c1.717-0.83,2.849-2.241,2.496-4.354c-0.178-1.064-0.426-2.116-0.657-3.17c-0.908-4.14-1.611-8.338-2.791-12.397
		c-1.33-4.579-3.224-8.99-4.624-13.55c-1.159-3.777-2.516-7.626-2.793-11.516c-0.532-7.44-2.351-14.541-4.188-21.699
		c-0.626-2.438-0.875-4.922-2.378-7.041c-0.202-0.285-0.294-0.658-0.396-1.004c-1.258-4.258-2.543-8.504-3.751-12.773
		c-1.541-5.449-5.147-8.267-10.747-8.641c-1.882-0.126-3.542,0.251-4.142,2.299c-1.366,4.662-2.627,9.354-3.966,14.023
		c-1.784,6.221-3.857,12.346-4.367,18.896c-0.257,3.306-0.666,6.577-2.012,9.862c-1.85,4.518-2.387,9.562-3.632,14.346
		c-0.368,1.41-1.061,2.806-1.886,4.016c-2.895,4.241-5.273,8.551-4.4,14.012c0.509,3.188,1.668,4.414,4.854,4.562
		c1.785,0.082,3.563,0.581,5.338,0.548c1.807-0.033,3.655-0.312,5.396-0.801c3.407-0.958,6.363-3.034,10.044-3.51
		c5.671-0.731,7.455-4.299,5.233-9.484c-0.798-1.861-1.868-2.334-3.751-1.34c-3.276,1.729-6.46,3.637-9.724,5.396
		C140.903,229.568,140.021,229.654,139.035,229.928z M629.623,140.625c-1.614,0.322-4.445,0.823-7.244,1.465
		c-2.016,0.462-4.204,0.741-5.941,1.749c-4.589,2.661-8.993,5.644-13.426,8.569c-0.947,0.626-1.799,1.469-2.521,2.352
		c-2.389,2.915-1.944,6.657,0.841,9.163c0.747,0.674,1.271,1.71,1.632,2.681c2.07,5.58-0.511,11.102-0.312,16.669
		c0.025,0.75-0.271,1.623-0.688,2.256c-2.387,3.601-1.788,7.371-1.006,11.268c0.279,1.395,0.021,3.01-0.393,4.403
		c-0.635,2.128-1.719,4.118-2.423,6.231c-0.824,2.478,0.101,3.782,2.606,4.008c5.883,0.525,7.104-0.574,7.122-6.418
		c0-0.071,0-0.146,0-0.217c0.015-3.744,2.848-7.6,6.525-7.91c3.392-0.283,6.001-3.254,9.632-2.428
		c0.462,0.105,1.072-0.679,1.673-0.894c1.195-0.429,2.538-1.25,3.628-1.015c3.216,0.688,6.036-0.764,8.726-1.709
		c3.867-1.359,7.462-3.645,10.921-5.918c0.909-0.598,1.075-2.598,1.173-3.982c0.026-0.379-1.387-1.039-2.222-1.26
		c-1.306-0.344-2.678-0.491-4.03-0.594c-1.276-0.095-2.616-0.244-3.841,0.027c-2.148,0.479-4.265,1.176-6.331,1.947
		c-1.654,0.619-3.203,1.512-4.825,2.225c-0.709,0.312-1.482,0.484-2.231,0.709c-0.955,0.287-1.953,0.479-2.864,0.866
		c-1.165,0.498-2.229,1.124-3.252-0.246c-1.079-1.445-0.122-2.345,0.715-3.394c1.34-1.672,2.569-3.432,3.85-5.15
		c1.887-2.533,3.732-5.097,5.681-7.582c1.052-1.342,2.397-2.461,3.396-3.836c1.683-2.317,3.238-4.731,4.754-7.163
		c0.479-0.769,0.664-1.724,0.966-2.599c0.299-0.873,0.703-1.735,0.833-2.635c0.238-1.647,0.771-3.444,0.362-4.958
		C640.062,143.437,635.429,140.611,629.623,140.625z M258.651,201.352c0.197,1.549,0.428,4.2,0.898,6.808
		c0.324,1.801,0.92,3.562,1.511,5.3c0.343,1.01,0.873,1.961,1.387,2.902c2.048,3.746,3.5,7.931,7.994,9.769
		c0.975,0.399,1.794,1.675,2.249,2.733c0.761,1.771,1.949,2.205,3.742,2.229c2.275,0.03,4.83-0.179,6.753,0.762
		c3.427,1.672,5.583,0.596,7.647-1.99c0.582-0.73,1.337-1.318,1.958-2.021c1.906-2.156,2.104-6.355,0.338-8.595
		c-0.416-0.526-1.129-1.063-1.757-1.134c-3.202-0.356-6.415-0.918-9.508,0.793c-0.822,0.455-2.131,0.52-3.047,0.229
		c-3.949-1.259-4.839-5.762-1.747-8.408c0.598-0.515,1.226-1.055,1.934-1.369c3.853-1.719,7.779-3.278,11.575-5.114
		c0.994-0.479,2.303-1.771,2.271-2.644c-0.109-2.893-1.901-5.154-4.255-6.631c-2.168-1.357-3.59,0.735-5.311,1.727
		c-2.946,1.695-6.108,3.02-9.205,4.441c-0.331,0.15-0.844-0.029-1.256-0.126c-3.641-0.854-3.911-4.489-2.629-8.267
		c1.694-4.995,5.49-8.521,9.218-12.062c2.801-2.664,5.457-5.481,8.112-8.291c1.393-1.476,1.651-4.251,0.464-4.578
		c-1.695-0.465-3.613-0.942-5.258-0.589c-3.181,0.684-6.042,2.234-8.295,4.758c-2.733,3.062-5.562,6.041-8.362,9.043
		C261.021,186.438,258.733,192.918,258.651,201.352z M695.73,175.014c-1,3.273,1.621,6.201,2.401,9.575
		c0.942,4.079,3.792,4.854,7.406,5.228c3.05,0.313,5.59-1.08,8.321-1.942c2.238-0.709,4.822-0.653,6.822-1.733
		c4.128-2.233,8.051-4.882,11.903-7.578c3.82-2.676,3.736-2.793,2.634-7.123c-0.726-2.842-1.464-3.17-4.107-1.727
		c-5.008,2.733-10,5.493-14.998,8.243c-1.278,0.702-2.428,0.521-3.181-0.729c-0.825-1.377,0.36-1.93,1.272-2.49
		c3.749-2.313,7.465-4.688,11.293-6.865c1.847-1.051,3.896-1.76,5.883-2.551c2.403-0.959,4.913-1.69,7.218-2.839
		c0.812-0.406,1.429-1.692,1.646-2.684c0.284-1.289,0.015-2.689,0.108-4.033c0.122-1.778-0.631-2.726-2.39-2.931
		c-2.493-0.29-4.662,0.345-6.646,1.936c-2.188,1.754-4.455,3.425-6.798,4.967c-1.664,1.097-3.957,1.539-5.159,2.959
		c-1.557,1.84-3.216,3.217-5.382,4.104c-1.656,0.679-3.285,1.447-4.979,2.017c-1.769,0.596-4.394-0.937-4.463-2.741
		c-0.15-3.831,0.019-7.787,3.889-9.924c4.617-2.549,7.755-6.654,11.35-10.258c1.261-1.265,1.846-3.307,2.44-5.094
		c0.383-1.139-0.377-1.877-1.686-1.877c-2.854,0-5.429,0.778-7.511,2.779c-3.562,3.423-7.342,6.268-12.686,5.928
		c-1.812-0.115-2.728,0.98-2.859,2.808c-0.277,3.889-0.065,7.848-1.629,11.564c-0.186,0.44-0.113,0.999-0.113,1.503
		C695.727,167.16,695.73,170.818,695.73,175.014z M590.798,178.945c-0.704-2.672-0.792-5.465-2.116-7.42
		c-1.766-2.604-4.068-4.927-7.104-6.486c-1.681-0.863-3.381-2.716-3.963-4.487c-1.58-4.819-2.901-5.787-7.881-4.413
		c-0.417,0.115-0.893,0.095-1.266,0.286c-2.867,1.471-5.839,2.827-7.577,5.775c-0.795,1.348-1.529,2.73-2.302,4.091
		c-0.813,1.435-1.791,2.801-2.425,4.311c-0.991,2.362-1.897,4.782-2.574,7.25c-0.636,2.316-0.927,4.729-1.366,7.1
		c-0.103,0.547-0.139,1.111-0.3,1.64c-1.487,4.888-2.038,9.869-0.076,14.661c0.726,1.766,2.53,3.25,4.154,4.436
		c1.24,0.902,3.014,1.651,4.477,1.539c2.311-0.182,4.549-1.019,6.932-0.31c0.456,0.137,1.133-0.204,1.622-0.481
		c3.218-1.812,6.309-3.893,9.639-5.463c5.09-2.402,7.702-6.951,9.859-11.57C590.02,186.215,590.108,182.371,590.798,178.945z
		 M315.889,223.104c0.014,0.186,0.031,0.982,0.137,1.768c0.183,1.357,1.048,2.197,2.361,1.996c2.832-0.438,5.737-0.807,7.917-3.02
		c1.166-1.183,2.299-2.406,3.539-3.508c2.235-1.986,4.272-4.46,6.881-5.701c3.733-1.779,6.287-4.308,6.94-8.188
		c0.514-3.051,0.953-6.646-0.194-9.301c-1.289-2.983-4.115-5.539-6.776-7.645c-4.051-3.201-7.092-9.354-5.177-13.458
		c2.112-4.53,4.515-9.04,8.376-12.475c2.029-1.806,4.077-3.588,6.1-5.4c2.344-2.099,3.049-4.007,2.092-5.562
		c-0.937-1.52-3.979-2.042-6.377-1.085c-0.199,0.08-0.367,0.258-0.569,0.305c-2.566,0.603-4.297,2.474-6.208,4.068
		c-3.748,3.125-7.619,6.094-9.308,11.029c-0.872,2.549-2.096,5.012-3.438,7.355c-1.229,2.146-1.275,4.217-0.527,6.439
		c0.368,1.094,0.814,2.17,1.069,3.288c0.924,4.062,3.219,7.345,5.925,10.351c2.06,2.289,4.619,4.238,4.002,7.865
		c-0.044,0.265,0.208,0.58,0.158,0.84c-0.204,1.057-0.191,2.305-0.773,3.108c-1.386,1.916-3.015,3.667-4.642,5.394
		c-1.272,1.351-2.649,2.607-4.063,3.811c-0.453,0.385-1.157,0.579-1.771,0.654C317.053,216.585,315.882,217.895,315.889,223.104z
		 M668.574,152.661c0.125-0.069,0.248-0.138,0.372-0.208c-0.731-1.515-1.273-3.168-2.245-4.509c-1.15-1.587-3.5-1.403-4.413,0.07
		c-1.953,3.154-3.246,6.554-3.699,10.234c-0.34,2.76-0.677,5.535-0.756,8.311c-0.122,4.272-0.065,8.55,0.008,12.826
		c0.023,1.397-0.044,2.991,0.577,4.149c2.439,4.556,5.845,7.752,11.588,7.139c1.095-0.118,2.242,0.358,3.371,0.413
		c1.263,0.062,2.591,0.18,3.788-0.126c2.339-0.597,4.57-1.616,6.913-2.196c3.421-0.851,6.398-6.773,4.748-9.861
		c-0.312-0.588-0.995-1.346-1.541-1.375c-2.342-0.125-5.259-0.866-6.916,0.219c-2.68,1.754-5.537,1.708-8.286,2.543
		c-2.011,0.609-3.442,0.051-4.523-1.487c-1.278-1.819-3.02-3.411-2.079-6.19c0.786-2.326,1.099-4.854,1.319-7.321
		c0.337-3.743-0.716-7.652,1.521-11.151C668.568,153.75,668.497,153.158,668.574,152.661z"/>
	<path fill="#333333" d="M113.521,22.259c0.309,5.379,0.522,10.767,0.959,16.135c0.333,4.085,1.056,8.137,1.397,12.222
		c0.185,2.198-0.066,4.434-0.124,6.653c-0.028,1.076-0.358,2.247-0.043,3.208c1.021,3.109,0.165,5.957-0.678,8.896
		c-0.254,0.887-0.131,2.169,0.354,2.929c2.098,3.286,3.748,6.468,2.885,10.693c-0.86,4.209,0.705,8.397,1.1,12.601
		c0.285,3.034-0.25,6.145-0.413,9.221c-0.05,0.934-0.157,1.872-0.105,2.801c0.238,4.298,0.854,8.605,0.687,12.884
		c-0.136,3.475-1.636,6.9-1.738,10.372c-0.162,5.5,0.326,11.021,0.56,16.534c0.206,4.85,1.489,9.761-0.899,14.457
		c-0.187,0.368-0.301,0.86-0.233,1.257c1.196,6.974-0.809,13.917-0.178,20.881c0.174,1.929,0.458,3.847,0.59,5.777
		c0.112,1.646,0.18,3.31,0.087,4.958c-0.157,2.792-0.292,5.604-0.735,8.357c-0.575,3.582-1.571,7.098-2.132,10.682
		c-0.305,1.949-0.354,4.029-0.026,5.969c0.35,2.072,0.366,3.874-0.531,5.863c-0.613,1.357-0.542,3.082-0.55,4.645
		c-0.043,7.825-1.342,15.447-3.387,22.98c-1.11,4.091-1.961,8.252-2.943,12.375c-0.132,0.559-0.209,1.193-0.533,1.631
		c-2.637,3.553-3.82,7.604-4.352,11.931c-0.099,0.81-0.661,1.577-1.081,2.325c-1.511,2.684-3.042,5.354-4.589,8.018
		c-0.391,0.672-0.783,1.383-1.329,1.918c-2.928,2.873-5.998,5.604-8.839,8.558c-3.063,3.184-6.649,5.579-10.45,7.742
		c-7.904,4.5-16.365,7.106-25.472,7.062c-3.487-0.016-6.968-0.128-10.456,0.061c-1.075,0.058-2.276,0.168-3.224-0.222
		c-5.177-2.134-10.882-1.681-16.109-3.403c-2.168-0.715-4.246-1.811-6.221-2.975c-3.029-1.786-6.01-3.676-8.875-5.714
		c-3.907-2.776-5.874-10.931-4.435-15.368c0.245-0.754,1.693-1.445,2.658-1.562c1.519-0.184,2.813,0.582,3.322,2.201
		c0.54,1.72,1.367,3.422,1.509,5.178c0.328,4.05,3.217,5.879,6.247,7.353c2.811,1.365,5.945,2.054,8.89,3.162
		c6.054,2.278,12.427,3.054,18.769,3.677c2.918,0.287,5.968-0.639,8.944-1.103c4.189-0.654,8.298-1.606,12.216-3.313
		c6.196-2.701,11.114-6.983,15.437-12.076c1.444-1.701,3.082-3.241,4.674-4.812c3.629-3.577,6.188-7.814,8.063-12.532
		c0.868-2.18,2.163-4.19,3.008-6.376c1.056-2.732,1.9-5.554,2.742-8.363c0.965-3.217,1.843-6.459,2.725-9.699
		c0.337-1.238,0.856-2.514,0.82-3.758c-0.14-4.754,1.888-9.095,2.43-13.688c0.614-5.188,0.764-10.435,1.232-15.646
		c0.139-1.537,0.689-3.037,1.024-4.56c0.183-0.832,0.423-1.673,0.442-2.515c0.076-3.321-0.074-6.656,0.156-9.965
		c0.153-2.201,0.968-4.352,1.188-6.556c0.189-1.882-0.073-3.808-0.09-5.714c-0.026-2.806-0.085-5.613,0.004-8.417
		c0.115-3.59,0.357-7.176,0.557-10.764c0.303-5.452,0.626-10.903,0.923-16.356c0.273-5.013,0.646-10.026,0.734-15.043
		c0.048-2.707-0.884-5.487-0.528-8.121c0.61-4.518,0.009-8.817-0.816-13.2c-0.247-1.31,0.579-2.786,0.692-4.204
		c0.316-3.934,0.583-7.873,0.74-11.814c0.132-3.317,0.045-6.643,0.141-9.961c0.024-0.843,0.18-1.796,0.609-2.491
		c0.928-1.498,0.701-2.741,0.167-4.388c-0.915-2.816-1.342-5.813-1.739-8.767c-0.438-3.268-0.657-6.568-0.884-9.859
		c-0.133-1.919-0.129-3.85-0.128-5.774c0.001-2.279,0.384-4.51-0.978-6.705c-0.688-1.108-0.565-2.79-0.603-4.216
		c-0.094-3.537,0.215-7.107-0.168-10.606c-0.433-3.952-1.536-7.825-2.179-11.761c-0.531-3.253-0.771-6.554-1.231-9.82
		c-0.216-1.534-0.786-3.022-0.949-4.557c-0.233-2.192-0.637-4.482-0.241-6.594c0.465-2.478,5.322-3.218,7.15-1.134
		c1.99,2.269,3.644,4.661,3.672,8.042c0.034,4.081,0.706,8.155,1.101,12.232C113.783,22.235,113.652,22.247,113.521,22.259z"/>
	<path fill="#333333" d="M475.538,141.902c-0.63,3.227-1.422,6.434-1.835,9.688c-0.299,2.339-0.191,4.748-0.08,7.117
		c0.098,2.072,0.477,4.13,0.694,6.197c0.509,4.852,1.265,9.696,1.42,14.56c0.164,5.111,1.744,9.892,2.645,14.829
		c0.126,0.686,0.216,1.594-0.121,2.111c-1.95,2.992-0.485,5.763,0.589,8.427c1.243,3.074,2.832,5.981,2.501,9.479
		c-0.057,0.613,0.538,1.291,0.837,1.938c1.589,3.432,3.104,6.896,4.794,10.277c1.051,2.102,2.124,4.269,3.604,6.062
		c4.574,5.545,9.252,11.014,14.112,16.311c1.231,1.344,3.327,1.871,4.954,2.889c0.938,0.587,1.914,1.271,2.547,2.146
		c1.356,1.881,2.854,3.076,5.379,2.949c1.762-0.087,3.551,0.573,5.331,0.587c1.533,0.013,3.07-0.413,4.604-0.653
		c0.979-0.154,2.092-0.711,2.903-0.416c3.459,1.242,6.203-0.602,9.015-1.905c2.956-1.373,5.771-3.054,8.618-4.655
		c0.676-0.381,1.228-0.984,1.836-1.486c1.036-0.852,2.066-1.709,3.112-2.549c0.727-0.584,1.701-1,2.172-1.74
		c1.582-2.49,4.162-3.381,6.61-4.558c1.29-0.616,2.411-1.612,3.73-2.124c0.982-0.381,2.234-0.514,3.212-0.227
		c0.356,0.104,0.354,1.734,0.356,2.671c0.004,1.073-0.177,2.147-0.263,3.224c-0.21,2.565-1.476,4.209-4.003,4.708
		c-3.317,0.653-5.811,2.308-7.382,5.32c-0.127,0.242-0.312,0.567-0.534,0.632c-4.782,1.363-7.327,5.624-10.983,8.439
		c-0.568,0.436-1.229,1.135-1.811,1.103c-2.929-0.163-5.073,1.634-7.57,2.593c-2.211,0.846-4.777,0.743-7.178,1.113
		c-4.446,0.686-8.65-0.775-12.917-1.52c-2.717-0.474-5.415-1.303-7.976-2.34c-2.489-1.008-4.854-2.381-7.148-3.797
		c-0.861-0.531-1.308-1.693-2.054-2.46c-2.769-2.844-5.678-5.556-8.356-8.479c-3.003-3.272-6.817-5.884-8.593-10.183
		c-0.872-2.115-1.566-4.306-2.496-6.394c-0.697-1.567-1.855-2.95-2.421-4.554c-0.651-1.838-1.203-3.829-1.188-5.75
		c0.015-1.674-0.407-2.818-1.43-4.079c-0.888-1.095-1.472-2.511-1.913-3.875c-1.027-3.181-1.907-6.407-2.809-9.625
		c-0.289-1.031-0.619-2.095-0.644-3.146c-0.062-2.888,0.203-5.791,0.009-8.663c-0.216-3.205-0.79-6.387-1.218-9.576
		c-0.174-1.28-0.513-2.557-0.534-3.84c-0.037-2.459-0.029-4.854-1.278-7.145c-0.513-0.939-0.46-2.25-0.467-3.392
		c-0.036-7.443-0.159-14.889,0.046-22.326c0.094-3.353,0.901-6.684,1.35-10.03c0.16-1.208,0.171-2.436,0.324-3.645
		c0.479-3.769,0.894-7.55,1.517-11.295c0.867-5.219,1.776-10.438,2.916-15.603c0.63-2.854,1.771-5.595,2.672-8.39
		c0.872-2.703,1.729-5.412,2.602-8.115c0.132-0.411,0.214-0.902,0.489-1.192c3.213-3.374,4.158-7.8,5.648-11.978
		c0.211-0.594,0.569-1.166,0.967-1.66c4.746-5.913,9.363-11.938,14.325-17.665c3.172-3.66,6.961-6.677,11.256-9.125
		c4.335-2.47,8.935-3.861,13.728-4.948c2.373-0.538,4.409-0.237,6.343,1.168c3.84,2.79,7.931,5.295,11.444,8.447
		c2.337,2.097,5.06,4.34,4.839,8.254c-0.105,1.897,0.738,3.843,0.65,5.745c-0.152,3.348-2.859,5.427-6.212,5.146
		c-1.994-0.168-2.84-1.228-1.996-3.071c1.1-2.399,0.658-4.465-0.617-6.545c-2.395-3.903-4.238-8.291-8.896-10.218
		c-2.905-1.203-5.771-1.517-8.728,0.034c-1.031,0.542-2.36,0.756-3.544,0.723c-3.393-0.095-5.721,1.519-7.594,4.146
		c-0.663,0.933-1.514,1.734-2.283,2.591c-2.842,3.16-5.78,6.24-8.487,9.51c-1.443,1.742-2.418,3.865-3.745,5.714
		c-0.694,0.967-1.867,1.602-2.521,2.588c-1.136,1.715-2.101,3.554-3.021,5.397c-2.536,5.068-3.57,10.603-4.884,16.048
		c-0.103,0.419-0.147,0.901-0.389,1.23c-4.001,5.484-3.587,12.215-5.354,18.323c-1.342,4.635-1.681,9.27-2.21,13.96
		c-0.394,3.484-1.19,6.922-1.81,10.381C475.013,141.798,475.275,141.851,475.538,141.902z"/>
	<path fill="#333333" d="M747.314,327.839c0.779-2.866,2.062-6.303,2.576-9.85c0.47-3.226,0.377-6.604,0.01-9.854
		c-0.276-2.44-0.595-4.68,0.807-6.87c0.407-0.639,0.612-1.451,0.743-2.214c0.571-3.303,1.108-6.614,1.603-9.93
		c0.485-3.249,0.829-6.521,1.387-9.755c0.197-1.141,0.598-2.424,1.339-3.256c1.688-1.899,2.532-3.955,2.386-6.494
		c-0.143-2.477-0.107-4.912,1.919-6.848c0.447-0.428,0.58-1.31,0.635-2c0.408-5.275,1.31-10.377,4.054-15.059
		c0.621-1.061,0.254-2.662,0.521-3.979c0.287-1.42,0.727-2.817,1.207-4.188c0.349-1,0.872-1.938,1.316-2.901
		c0.804-1.746,1.606-3.49,2.409-5.235c0.297-0.646,0.722-1.265,0.869-1.943c1.003-4.623,1.964-9.256,2.894-13.896
		c0.179-0.898,0.197-1.84,0.214-2.764c0.03-1.962,0.382-3.727,1.521-5.474c1.156-1.771,1.771-3.897,2.579-5.89
		c0.729-1.797,1.253-3.694,2.128-5.416c2.12-4.17,2.159-8.62,2.232-13.131c0.031-1.894,0.693-3.775,1.087-5.66
		c0.709-3.422,1.619-6.817,2.096-10.271c0.506-3.669,0.601-7.396,0.884-11.098c0.144-1.849,0.039-3.568-1.482-4.972
		c-1.228-1.13-2.251-1.108-3.333,0.087c-0.146,0.161-0.376,0.293-0.432,0.479c-1.124,3.846-4.198,6.086-6.985,8.582
		c-1.865,1.671-3.358,4.108-5.52,5.021c-3.457,1.461-7.675,2.966-11.05,0.823c-2.916-1.852-5.93-4.129-7.657-7.59
		c-1.07-2.146-2.981-3.858-4.365-5.869c-0.918-1.334-1.721-2.793-2.304-4.3c-0.874-2.258-1.58-4.59-2.229-6.926
		c-0.568-2.037-1.104-4.103-1.388-6.192c-0.221-1.631-0.1-3.322,0.015-4.976c0.045-0.631,0.347-1.577,0.79-1.763
		c0.526-0.221,1.518,0.014,1.975,0.423c0.771,0.69,1.359,1.627,1.876,2.544c0.489,0.873,0.542,2.119,1.211,2.744
		c4.181,3.899,5.377,9.416,8.036,14.13c1.68,2.978,4.369,5.428,6.83,7.89c0.539,0.539,2.064,0.305,3.074,0.109
		c1.584-0.308,3.131-0.838,4.662-1.366c1.248-0.429,2.77-0.687,3.606-1.56c1.81-1.89,3.254-4.13,4.856-6.221
		c0.35-0.457,0.705-0.919,1.117-1.316c2.518-2.423,4.407-5.179,5.926-8.4c1.104-2.346,3.322-4.285,5.361-6.035
		c1.537-1.32,4.885,0.371,5.535,2.589c0.259,0.883,0.225,1.852,0.32,2.782c0.203,1.924,0.414,3.848,0.603,5.773
		c0.07,0.713,0.388,1.622,0.075,2.117c-1.798,2.852-0.418,5.884-0.716,8.8c-0.171,1.673-0.791,3.296-1.164,4.951
		c-0.219,0.969-0.515,1.96-0.493,2.937c0.077,3.56-0.061,7.064-1.471,10.416c-0.241,0.575-0.196,1.271-0.289,1.91
		c-0.417,2.912-0.864,5.822-1.248,8.738c-0.653,4.963-2.979,9.633-2.583,14.785c0.041,0.538-0.129,1.191-0.427,1.643
		c-2.116,3.193-2.327,6.835-2.841,10.478c-0.312,2.222-1.565,4.3-2.32,6.47c-0.415,1.192-0.611,2.461-1.017,3.662
		c-0.77,2.272-1.625,4.52-2.427,6.781c-0.927,2.621-2.382,5.198-2.622,7.883c-0.421,4.707-1.529,8.928-4.126,12.975
		c-1.553,2.421-2.633,5.527-2.769,8.381c-0.195,4.16-0.648,8.128-2.261,11.979c-0.4,0.961-0.271,2.131-0.537,3.163
		c-0.452,1.771-1.089,3.49-1.529,5.261c-0.688,2.772-1.442,5.547-1.879,8.364c-0.933,6.039-1.411,12.188-5.521,17.205
		c-0.302,0.365-0.526,0.927-0.519,1.39c0.07,3.813,0.28,7.625,0.271,11.438c-0.002,1.203-0.201,2.668-0.896,3.559
		c-2.013,2.589-2.897,5.017-0.854,8.053c2.697,4.009,0.487,7.743-1.028,11.443c-0.461,1.124-1.004,2.312-1.827,3.157
		c-0.604,0.62-1.753,1.043-2.606,0.964c-0.532-0.049-1.256-1.138-1.393-1.854C748.217,334.515,747.863,331.593,747.314,327.839z"/>
	<path fill="#333333" d="M207.779,177.479c0.318,1.769,0.638,4.422,1.3,6.988c0.748,2.9,1.613,5.803,2.777,8.557
		c1.092,2.578,3.683,2.781,5.073,0.391c1.756-3.023,3.162-6.255,4.656-9.428c1.54-3.269,3.031-6.562,4.492-9.865
		c1.074-2.428,2.248-4.836,3.047-7.357c1.008-3.18,3.628-4.558,6.662-3.054c2.815,1.396,4.513,3.731,5.122,6.812
		c0.375,1.903,0.804,3.813,0.938,5.74c0.111,1.596-0.177,3.219-0.28,4.829c-0.07,1.117-0.13,2.235-0.188,3.354
		c-0.121,2.341-0.4,4.688-0.323,7.021c0.2,6.039,0.576,12.07,0.834,18.106c0.043,1,0.018,2.062-0.273,3.004
		c-0.674,2.174-0.91,4.225,0.622,6.154c0.209,0.266,0.284,0.67,0.336,1.021c0.466,3.124,1.034,6.241,1.319,9.383
		c0.175,1.924-0.356,3.803-2.399,4.648c-2.192,0.908-4.981,0.048-6.385-1.684c-1.759-2.166-2.509-4.546-2.557-7.373
		c-0.046-2.777-0.757-5.539-1.042-8.322c-0.211-2.051-0.216-4.123-0.294-6.189c-0.032-0.845,0.011-1.691-0.027-2.537
		c-0.045-1.004-0.457-2.111-0.164-2.992c1.173-3.527,0.627-6.961-0.111-10.442c-0.364-1.718-0.879-2.062-2.222-0.978
		c-1.81,1.461-3.394,3.004-3.35,5.717c0.046,2.855-2.411,4.287-4.206,5.99c-1.4,1.331-3.181,2.288-4.469,3.704
		c-3.901,4.284-8.871,2.662-11.409-2.792c-0.789-1.695-1.488-3.445-2.443-5.044c-0.42-0.703-1.344-1.412-2.103-1.487
		c-0.435-0.043-1.182,1.109-1.455,1.848c-0.393,1.061-0.664,2.236-0.664,3.359c0,2.643-0.201,5.045-2.04,7.291
		c-0.859,1.051-0.675,3-0.851,4.555c-0.353,3.127-0.373,6.313-1.002,9.381c-0.748,3.64-1.892,7.217-4.191,10.275
		c-0.215,0.284-0.322,0.662-0.563,0.916c-1.373,1.438-2.553,3.367-5.013,2.629c-2.295-0.688-2.245-2.672-2.73-4.623
		c-0.767-3.076-0.476-5.658,1.046-8.455c0.893-1.639,0.713-3.836,1.196-5.735c0.492-1.935,1.303-3.786,1.799-5.718
		c1.081-4.204,2.052-8.438,3.06-12.659c0.084-0.351,0.014-0.776,0.189-1.06c2.854-4.59,2.165-10.043,3.641-14.971
		c0.403-1.348,0.191-2.869,0.504-4.255c0.676-2.995,1.409-5.983,2.322-8.912c0.461-1.478,1.73-2.241,3.362-2.245
		c0.426-0.001,0.861-0.096,1.277-0.206C205.172,169.569,208,171.85,207.779,177.479z"/>
	<path fill="#333333" d="M139.035,229.928c0.985-0.272,1.868-0.359,2.587-0.746c3.263-1.76,6.447-3.666,9.724-5.396
		c1.884-0.994,2.954-0.522,3.751,1.34c2.222,5.187,0.438,8.753-5.233,9.485c-3.681,0.475-6.637,2.551-10.044,3.509
		c-1.741,0.489-3.59,0.767-5.396,0.801c-1.775,0.033-3.553-0.466-5.338-0.548c-3.187-0.146-4.346-1.374-4.854-4.561
		c-0.873-5.463,1.506-9.771,4.4-14.013c0.825-1.21,1.518-2.604,1.886-4.016c1.245-4.782,1.782-9.828,3.632-14.345
		c1.347-3.287,1.755-6.559,2.012-9.863c0.51-6.551,2.583-12.676,4.367-18.896c1.339-4.669,2.601-9.361,3.966-14.022
		c0.6-2.048,2.26-2.425,4.142-2.299c5.6,0.374,9.207,3.192,10.747,8.641c1.208,4.27,2.493,8.517,3.751,12.772
		c0.102,0.347,0.193,0.72,0.396,1.006c1.503,2.119,1.752,4.604,2.378,7.039c1.837,7.158,3.656,14.26,4.188,21.701
		c0.277,3.889,1.634,7.736,2.793,11.515c1.4,4.56,3.294,8.971,4.624,13.55c1.18,4.061,1.882,8.259,2.791,12.396
		c0.23,1.055,0.479,2.105,0.657,3.17c0.353,2.113-0.779,3.525-2.496,4.355c-1.663,0.805-2.951-0.234-3.872-1.533
		c-0.653-0.921-1.242-1.97-1.535-3.049c-0.696-2.559-1.11-5.193-1.816-7.75c-0.353-1.277-1.125-2.436-1.65-3.672
		c-0.414-0.975-0.891-1.961-1.077-2.986c-0.561-3.106-0.768-6.294-1.542-9.34c-0.738-2.902-1.773-5.795-3.124-8.463
		c-1.544-3.052-2.137-6.178-2.408-9.532c-0.241-2.993-1.218-5.932-0.076-8.938c0.098-0.261-0.135-0.706-0.316-1.003
		c-2.801-4.568-4.716-9.446-5.769-14.732c-0.455-2.281-1.669-4.43-2.653-6.586c-0.291-0.637-0.972-1.097-1.474-1.636
		c-0.645,0.711-1.555,1.321-1.875,2.157c-0.585,1.528-0.836,3.188-1.2,4.8c-1.136,5.028-2.212,10.071-3.403,15.087
		c-0.78,3.287-1.756,6.525-2.578,9.803c-0.855,3.412-1.643,6.844-2.428,10.273c-0.111,0.481-0.196,1.066-0.028,1.503
		c1.537,3.987,0.384,7.817-0.594,11.666C138.977,228.837,139.035,229.132,139.035,229.928z"/>
	<path fill="#333333" d="M629.623,140.625c5.806-0.014,10.439,2.812,11.48,6.682c0.408,1.515-0.123,3.311-0.361,4.958
		c-0.13,0.9-0.534,1.762-0.833,2.635c-0.302,0.875-0.487,1.83-0.966,2.599c-1.516,2.432-3.071,4.846-4.754,7.163
		c-1,1.375-2.346,2.494-3.396,3.836c-1.947,2.485-3.794,5.049-5.681,7.582c-1.279,1.72-2.511,3.479-3.85,5.15
		c-0.837,1.049-1.794,1.947-0.715,3.394c1.022,1.37,2.087,0.744,3.252,0.246c0.911-0.39,1.909-0.579,2.864-0.866
		c0.749-0.225,1.521-0.396,2.23-0.709c1.622-0.713,3.172-1.605,4.826-2.224c2.066-0.772,4.183-1.47,6.331-1.948
		c1.225-0.271,2.563-0.122,3.84-0.027c1.354,0.103,2.727,0.25,4.031,0.594c0.835,0.221,2.248,0.881,2.221,1.26
		c-0.097,1.386-0.263,3.386-1.172,3.982c-3.459,2.273-7.054,4.559-10.921,5.918c-2.688,0.945-5.51,2.396-8.726,1.709
		c-1.09-0.235-2.434,0.586-3.628,1.015c-0.601,0.215-1.211,0.999-1.673,0.894c-3.632-0.826-6.24,2.145-9.633,2.428
		c-3.678,0.312-6.511,4.166-6.524,7.91c0,0.071,0,0.146,0,0.217c-0.02,5.844-1.239,6.943-7.122,6.418
		c-2.507-0.226-3.433-1.53-2.606-4.008c0.704-2.113,1.788-4.104,2.422-6.231c0.414-1.396,0.672-3.011,0.394-4.403
		c-0.782-3.896-1.381-7.667,1.006-11.267c0.419-0.634,0.715-1.507,0.688-2.257c-0.197-5.567,2.384-11.092,0.312-16.669
		c-0.359-0.97-0.885-2.007-1.632-2.681c-2.785-2.506-3.229-6.248-0.841-9.163c0.724-0.883,1.574-1.726,2.521-2.352
		c4.432-2.925,8.837-5.908,13.426-8.569c1.737-1.007,3.927-1.286,5.941-1.749C625.178,141.448,628.009,140.947,629.623,140.625z
		 M610.887,167.449c0.815,1.266,1.51,3.001,2.778,4.017c0.588,0.472,2.534-0.142,3.458-0.818c2.929-2.149,5.629-4.607,8.497-6.844
		c1.045-0.815,1.337-1.623,1.218-2.945c-0.1-1.122,0.184-2.424,0.72-3.417c0.622-1.153,1.832-2.299,0.773-3.459
		c-0.975-1.068-2.442-1.96-3.845-2.299c-1.953-0.472-8.884,2.823-10.18,4.449c-0.312,0.394-0.729,0.783-0.852,1.241
		C612.611,160.532,611.831,163.709,610.887,167.449z"/>
	<path fill="#333333" d="M258.651,201.352c0.082-8.434,2.369-14.914,7.422-20.328c2.801-3.002,5.629-5.979,8.362-9.043
		c2.254-2.523,5.115-4.074,8.295-4.758c1.645-0.354,3.562,0.124,5.258,0.589c1.187,0.326,0.929,3.103-0.464,4.578
		c-2.656,2.81-5.311,5.627-8.112,8.291c-3.728,3.541-7.524,7.067-9.218,12.062c-1.282,3.777-1.012,7.412,2.629,8.267
		c0.412,0.097,0.925,0.276,1.256,0.126c3.097-1.423,6.259-2.746,9.205-4.441c1.72-0.99,3.143-3.084,5.311-1.727
		c2.354,1.477,4.146,3.738,4.255,6.631c0.033,0.873-1.277,2.164-2.271,2.644c-3.796,1.836-7.723,3.396-11.575,5.114
		c-0.708,0.314-1.335,0.854-1.934,1.369c-3.093,2.646-2.202,7.149,1.747,8.408c0.916,0.291,2.225,0.227,3.047-0.229
		c3.093-1.711,6.306-1.149,9.508-0.793c0.628,0.07,1.341,0.605,1.757,1.134c1.766,2.237,1.568,6.438-0.338,8.595
		c-0.621,0.703-1.376,1.291-1.958,2.021c-2.064,2.586-4.22,3.662-7.647,1.99c-1.924-0.939-4.479-0.73-6.753-0.762
		c-1.792-0.021-2.981-0.456-3.742-2.229c-0.454-1.061-1.274-2.334-2.249-2.733c-4.495-1.838-5.946-6.021-7.994-9.769
		c-0.515-0.941-1.044-1.894-1.387-2.902c-0.59-1.739-1.187-3.499-1.511-5.3C259.079,205.552,258.848,202.9,258.651,201.352z"/>
	<path fill="#333333" d="M695.73,175.014c0-4.196-0.005-7.854,0.005-11.511c0-0.504-0.071-1.063,0.113-1.503
		c1.562-3.717,1.352-7.676,1.63-11.564c0.132-1.828,1.046-2.922,2.858-2.808c5.344,0.34,9.123-2.504,12.687-5.928
		c2.082-2.001,4.655-2.779,7.51-2.779c1.309,0,2.068,0.738,1.686,1.877c-0.596,1.787-1.181,3.829-2.44,5.094
		c-3.595,3.604-6.731,7.708-11.35,10.258c-3.87,2.138-4.039,6.094-3.889,9.924c0.069,1.804,2.694,3.336,4.463,2.741
		c1.692-0.57,3.321-1.337,4.979-2.017c2.164-0.887,3.824-2.264,5.381-4.104c1.202-1.42,3.496-1.863,5.16-2.959
		c2.342-1.542,4.607-3.213,6.797-4.967c1.984-1.591,4.153-2.226,6.646-1.936c1.759,0.206,2.512,1.153,2.389,2.931
		c-0.094,1.344,0.177,2.744-0.107,4.033c-0.219,0.992-0.834,2.278-1.646,2.684c-2.305,1.149-4.813,1.88-7.218,2.839
		c-1.985,0.792-4.036,1.5-5.883,2.551c-3.828,2.179-7.544,4.552-11.293,6.864c-0.912,0.562-2.099,1.115-1.272,2.49
		c0.752,1.252,1.901,1.434,3.181,0.73c4.998-2.75,9.991-5.51,14.998-8.243c2.645-1.444,3.383-1.116,4.107,1.727
		c1.104,4.329,1.188,4.447-2.634,7.124c-3.854,2.695-7.775,5.344-11.903,7.576c-2,1.081-4.584,1.025-6.822,1.734
		c-2.731,0.863-5.271,2.257-8.321,1.943c-3.614-0.373-6.464-1.148-7.406-5.229C697.354,181.215,694.731,178.287,695.73,175.014z"/>
	<path fill="#333333" d="M590.798,178.945c-0.688,3.426-0.778,7.27-2.269,10.455c-2.157,4.619-4.771,9.168-9.859,11.569
		c-3.33,1.571-6.421,3.65-9.639,5.464c-0.489,0.277-1.166,0.618-1.622,0.481c-2.383-0.709-4.621,0.128-6.932,0.31
		c-1.463,0.112-3.235-0.637-4.477-1.539c-1.624-1.186-3.43-2.67-4.154-4.436c-1.962-4.792-1.411-9.773,0.076-14.661
		c0.161-0.526,0.197-1.093,0.3-1.64c0.439-2.37,0.73-4.782,1.366-7.1c0.677-2.468,1.583-4.888,2.574-7.25
		c0.634-1.509,1.61-2.875,2.425-4.311c0.771-1.361,1.507-2.743,2.302-4.091c1.738-2.948,4.71-4.304,7.577-5.775
		c0.373-0.191,0.849-0.171,1.266-0.286c4.979-1.374,6.301-0.406,7.881,4.413c0.582,1.771,2.283,3.625,3.963,4.487
		c3.036,1.559,5.34,3.882,7.104,6.486C590.006,173.48,590.094,176.273,590.798,178.945z M559.516,190.48
		c0.189,0.067,0.378,0.135,0.568,0.201c0,0.867-0.021,1.735,0.003,2.603c0.084,2.786,1.844,4.325,4.188,5.235
		c2.029,0.789,3.722,0.088,5.255-1.483c0.978-1.004,2.277-1.734,3.521-2.433c2.56-1.44,4.922-3.049,6.03-5.933
		c0.771-2.007,1.295-4.136,2.274-6.028c1.575-3.048,0.285-5.078-2.173-7.369c-1.657-1.545-3.304-3.121-4.799-4.82
		c-1.755-1.996-3.372-2.237-5.397-0.568c-0.667,0.548-1.312,1.204-2.084,1.53c-3.472,1.466-4.381,4.187-4.307,7.698
		c0.037,1.807-0.477,3.664-0.974,5.432C561.056,186.562,560.229,188.505,559.516,190.48z"/>
	<path fill="#333333" d="M315.889,223.104c-0.007-5.209,1.165-6.52,5.674-7.068c0.614-0.075,1.318-0.27,1.771-0.654
		c1.414-1.201,2.791-2.46,4.063-3.811c1.627-1.727,3.255-3.478,4.642-5.394c0.582-0.805,0.569-2.053,0.773-3.108
		c0.05-0.26-0.202-0.575-0.158-0.84c0.616-3.627-1.942-5.576-4.002-7.864c-2.706-3.007-5-6.29-5.925-10.351
		c-0.255-1.119-0.702-2.195-1.069-3.289c-0.748-2.224-0.702-4.293,0.527-6.439c1.342-2.344,2.566-4.806,3.438-7.355
		c1.689-4.935,5.56-7.903,9.308-11.029c1.912-1.594,3.643-3.465,6.208-4.068c0.202-0.047,0.371-0.226,0.569-0.305
		c2.399-0.957,5.441-0.435,6.377,1.085c0.957,1.555,0.252,3.463-2.092,5.562c-2.023,1.812-4.071,3.595-6.1,5.4
		c-3.861,3.435-6.264,7.944-8.376,12.475c-1.915,4.105,1.126,10.257,5.177,13.458c2.662,2.105,5.487,4.66,6.776,7.645
		c1.147,2.654,0.708,6.25,0.194,9.301c-0.653,3.88-3.207,6.408-6.94,8.188c-2.609,1.241-4.646,3.715-6.881,5.701
		c-1.24,1.102-2.373,2.325-3.539,3.508c-2.18,2.213-5.085,2.582-7.917,3.02c-1.312,0.202-2.178-0.639-2.361-1.996
		C315.92,224.087,315.902,223.289,315.889,223.104z"/>
	<path fill="#333333" d="M668.574,152.661c-0.077,0.498-0.006,1.089-0.253,1.477c-2.237,3.499-1.186,7.408-1.521,11.151
		c-0.222,2.466-0.533,4.995-1.319,7.322c-0.939,2.777,0.801,4.369,2.079,6.189c1.081,1.538,2.514,2.098,4.523,1.487
		c2.749-0.835,5.606-0.789,8.286-2.543c1.657-1.085,4.574-0.343,6.916-0.218c0.546,0.029,1.229,0.785,1.541,1.373
		c1.65,3.089-1.327,9.013-4.748,9.861c-2.343,0.581-4.574,1.602-6.913,2.197c-1.197,0.307-2.525,0.188-3.788,0.126
		c-1.129-0.055-2.276-0.53-3.371-0.413c-5.743,0.613-9.147-2.583-11.588-7.139c-0.621-1.158-0.554-2.752-0.577-4.149
		c-0.073-4.274-0.13-8.554-0.008-12.826c0.079-2.775,0.416-5.55,0.756-8.311c0.453-3.68,1.746-7.08,3.699-10.234
		c0.913-1.474,3.263-1.657,4.413-0.07c0.972,1.341,1.514,2.995,2.245,4.509C668.822,152.522,668.699,152.592,668.574,152.661z"/>
	<path fill="#FFFFFF" d="M610.887,167.449c0.944-3.739,1.726-6.917,2.569-10.077c0.123-0.458,0.538-0.847,0.852-1.241
		c1.295-1.626,8.227-4.921,10.18-4.449c1.401,0.339,2.87,1.231,3.845,2.299c1.059,1.161-0.151,2.307-0.773,3.459
		c-0.537,0.994-0.818,2.296-0.72,3.417c0.119,1.322-0.173,2.13-1.218,2.945c-2.868,2.237-5.568,4.694-8.497,6.844
		c-0.924,0.677-2.87,1.29-3.458,0.818C612.396,170.45,611.702,168.714,610.887,167.449z"/>
	<path fill="#FFFFFF" d="M559.516,190.48c0.713-1.977,1.54-3.92,2.106-5.937c0.497-1.769,1.011-3.625,0.974-5.433
		c-0.073-3.512,0.835-6.23,4.307-7.697c0.771-0.326,1.417-0.982,2.084-1.53c2.025-1.668,3.644-1.428,5.397,0.568
		c1.495,1.698,3.142,3.274,4.799,4.821c2.458,2.289,3.748,4.32,2.173,7.367c-0.979,1.895-1.504,4.022-2.274,6.029
		c-1.108,2.884-3.472,4.491-6.03,5.932c-1.242,0.698-2.543,1.43-3.521,2.434c-1.533,1.572-3.226,2.271-5.255,1.484
		c-2.345-0.912-4.104-2.451-4.188-5.236c-0.024-0.866-0.003-1.734-0.003-2.602C559.894,190.615,559.705,190.549,559.516,190.48z"/>
</g>
</svg>
