<?xml version="1.0" encoding="utf-8"?>
<!-- Generator: Adobe Illustrator 16.0.4, SVG Export Plug-In . SVG Version: 6.00 Build 0)  -->
<!DOCTYPE svg PUBLIC "-//W3C//DTD SVG 1.1//EN" "http://www.w3.org/Graphics/SVG/1.1/DTD/svg11.dtd">
<svg version="1.1" id="Layer_1" xmlns="http://www.w3.org/2000/svg" xmlns:xlink="http://www.w3.org/1999/xlink" x="0px" y="0px"
	 width="92px" height="28px" viewBox="0 0 92 28" enable-background="new 0 0 92 28" xml:space="preserve">
<g>
	<g>
		<g>
			<g>
				<path fill="#FFFFFF" d="M1.279,12.742C1.058,9.203,0.836,5.665,0.615,2.126c2.52-0.158,5.04-0.302,7.561-0.434
					c0.044,0.848,0.088,1.696,0.132,2.544c-1.506,0.079-3.013,0.162-4.519,0.25c0.035,0.588,0.069,1.176,0.103,1.765
					c1.225-0.072,2.45-0.14,3.675-0.205C7.609,6.833,7.651,7.622,7.693,8.41C6.472,8.475,5.25,8.542,4.03,8.614
					c0.077,1.315,0.154,2.631,0.23,3.947C3.267,12.62,2.273,12.68,1.279,12.742z"/>
				<path fill="#FFFFFF" d="M9.828,12.258C9.649,8.717,9.47,5.176,9.291,1.635c1.688-0.085,3.377-0.165,5.066-0.238
					c2.161-0.094,3.786,1.721,3.854,3.531c0.047,1.229-0.496,2.386-1.452,3.102c0.874,1.269,1.742,2.539,2.606,3.811
					c-1.123,0.042-2.246,0.086-3.369,0.133c-0.734-1.059-1.471-2.117-2.211-3.173c-0.374,0.017-0.749,0.034-1.123,0.051
					c0.05,1.087,0.101,2.175,0.151,3.263C11.817,12.16,10.823,12.208,9.828,12.258z M12.543,6.308
					c0.633-0.029,1.266-0.058,1.899-0.085c0.371-0.017,0.737-0.453,0.707-1.171c-0.031-0.732-0.512-1.117-0.883-1.101
					c-0.609,0.027-1.219,0.054-1.828,0.083C12.473,4.792,12.508,5.55,12.543,6.308z"/>
				<path fill="#FFFFFF" d="M20.327,11.805c-0.127-3.543-0.254-7.087-0.381-10.63c1.009-0.037,2.019-0.07,3.028-0.103
					c0.112,3.544,0.224,7.088,0.336,10.631C22.316,11.735,21.322,11.769,20.327,11.805z"/>
				<path fill="#FFFFFF" d="M32.884,8.918c0.015,0.848,0.031,1.697,0.046,2.545c-2.583,0.047-5.167,0.108-7.75,0.183
					c-0.103-3.544-0.206-7.088-0.309-10.632c2.574-0.075,5.148-0.136,7.723-0.183c0.016,0.849,0.031,1.698,0.047,2.547
					c-1.559,0.029-3.117,0.062-4.676,0.101c0.013,0.499,0.025,0.997,0.037,1.496c1.329-0.033,2.658-0.062,3.986-0.088
					c0.015,0.79,0.031,1.579,0.046,2.369c-1.324,0.025-2.649,0.055-3.973,0.088c0.014,0.559,0.028,1.118,0.042,1.677
					C29.696,8.981,31.29,8.947,32.884,8.918z"/>
				<path fill="#FFFFFF" d="M37.244,6.169c0.021,1.743,0.042,3.485,0.063,5.228c-0.996,0.012-1.991,0.026-2.987,0.042
					c-0.058-3.545-0.115-7.09-0.173-10.635c0.788-0.013,1.577-0.024,2.365-0.035c1.499,1.783,2.987,3.571,4.464,5.364
					c-0.013-1.803-0.025-3.605-0.038-5.408c1.011-0.007,2.021-0.012,3.032-0.015c0.01,3.546,0.019,7.091,0.029,10.637
					c-0.791,0.002-1.582,0.006-2.373,0.011C40.176,9.624,38.715,7.895,37.244,6.169z"/>
				<path fill="#FFFFFF" d="M45.868,11.345c0-3.545-0.001-7.091-0.001-10.637c1.415,0,2.829,0.004,4.243,0.012
					c3.671,0.022,5.535,2.422,5.492,5.356c-0.047,3.222-2.247,5.3-5.553,5.28C48.655,11.349,47.262,11.345,45.868,11.345z
					 M50.095,3.268c-0.402-0.002-0.805-0.004-1.207-0.006c-0.007,1.848-0.015,3.695-0.022,5.543
					c0.399,0.001,0.799,0.003,1.197,0.006c1.566,0.009,2.472-1.165,2.486-2.769C52.564,4.395,51.645,3.277,50.095,3.268z"/>
				<path fill="#FFFFFF" d="M63.514,4.397c0,0-1.566-1.011-2.885-1.037c-0.529-0.01-0.887,0.131-0.894,0.506
					c-0.011,0.554,0.76,0.688,2.02,1.105c2.012,0.659,3.271,1.384,3.219,3.374c-0.07,2.561-2.204,3.329-4.223,3.288
					c-1.578-0.033-3.421-0.558-4.715-1.325c0.441-0.848,0.885-1.696,1.33-2.543c0.001,0,1.811,1.198,3.482,1.233
					c0.647,0.014,0.883-0.161,0.89-0.445c0.014-0.614-1.107-0.774-2.408-1.232c-1.914-0.665-2.751-1.47-2.729-3.026
					c0.033-2.354,1.993-3.569,4.172-3.524c1.6,0.032,3.122,0.745,4.104,1.249C64.421,2.812,63.966,3.604,63.514,4.397z"/>
				<path fill="#FFFFFF" d="M76.262,1.341c-0.148,3.542-0.296,7.085-0.444,10.627c-0.995-0.042-1.99-0.081-2.985-0.119
					c0.053-1.387,0.104-2.774,0.156-4.162C71.768,7.642,70.547,7.6,69.325,7.56c-0.045,1.388-0.091,2.775-0.136,4.163
					c-0.995-0.032-1.99-0.062-2.985-0.091c0.101-3.544,0.2-7.088,0.301-10.632c1.01,0.028,2.021,0.059,3.03,0.092
					c-0.042,1.308-0.085,2.617-0.127,3.925c1.226,0.04,2.451,0.083,3.676,0.129c0.05-1.308,0.099-2.616,0.147-3.924
					C74.242,1.259,75.252,1.299,76.262,1.341z"/>
				<path fill="#FFFFFF" d="M77.684,12.049c0.157-3.542,0.314-7.084,0.472-10.626c1.01,0.045,2.02,0.092,3.028,0.141
					c-0.172,3.542-0.344,7.083-0.516,10.625C79.673,12.14,78.678,12.093,77.684,12.049z"/>
				<path fill="#FFFFFF" d="M82.533,12.281c0.182-3.541,0.362-7.082,0.544-10.623c1.585,0.081,3.169,0.167,4.754,0.259
					c2.158,0.125,3.593,2.094,3.477,3.902c-0.12,1.885-1.677,3.585-3.825,3.46c-0.595-0.034-1.19-0.068-1.786-0.101
					c-0.06,1.087-0.12,2.174-0.181,3.262C84.521,12.385,83.527,12.332,82.533,12.281z M85.837,6.637
					c0.53,0.029,1.061,0.06,1.591,0.09c0.368,0.021,0.771-0.241,0.82-1.094c0.053-0.881-0.395-1.163-0.767-1.184
					c-0.507-0.029-1.013-0.058-1.519-0.086C85.921,5.122,85.879,5.879,85.837,6.637z"/>
			</g>
			<g>
				<path fill="#FFFFFF" d="M11.93,27.277c-0.112-2.305-0.224-4.609-0.336-6.914c-0.663,1.657-1.32,3.314-1.972,4.974
					c-0.645,0.033-1.29,0.067-1.934,0.103c-0.824-1.58-1.653-3.159-2.487-4.736c0.133,2.304,0.266,4.607,0.399,6.911
					c-1.204,0.069-2.407,0.143-3.61,0.218c-0.275-4.373-0.55-8.746-0.825-13.119c1.339-0.084,2.678-0.165,4.018-0.242
					c1.079,2.003,2.149,4.008,3.212,6.016c0.852-2.109,1.711-4.218,2.58-6.324c1.332-0.065,2.664-0.127,3.997-0.185
					c0.19,4.378,0.38,8.755,0.571,13.133C14.337,27.164,13.134,27.22,11.93,27.277z"/>
				<path fill="#FFFFFF" d="M16.521,27.069c1.452-4.446,2.935-8.889,4.449-13.326c0.993-0.035,1.986-0.068,2.979-0.099
					c1.796,4.328,3.562,8.664,5.297,13.006c-1.271,0.03-2.543,0.063-3.815,0.102c-0.292-0.85-0.583-1.699-0.877-2.549
					c-1.171,0.036-2.342,0.074-3.513,0.116c-0.23,0.866-0.459,1.732-0.688,2.6C19.077,26.966,17.799,27.016,16.521,27.069z
					 M22.585,17.449c-0.365,1.481-0.728,2.964-1.088,4.446c0.802-0.028,1.605-0.055,2.408-0.079
					C23.468,20.36,23.028,18.904,22.585,17.449z"/>
				<path fill="#FFFFFF" d="M30.229,26.627c-0.098-4.381-0.197-8.761-0.295-13.142c1.718-0.039,3.436-0.071,5.154-0.098
					c4.461-0.066,6.779,2.857,6.795,6.483c0.018,3.984-2.6,6.601-6.595,6.661C33.602,26.558,31.915,26.59,30.229,26.627z
					 M35.136,16.536c-0.489,0.007-0.978,0.016-1.466,0.023c0.039,2.283,0.079,4.566,0.118,6.849
					c0.484-0.008,0.968-0.016,1.452-0.023c1.896-0.028,2.958-1.501,2.938-3.482C38.157,17.868,37.016,16.507,35.136,16.536z"/>
				<path fill="#FFFFFF" d="M47.139,19.99c-0.004,2.154-0.007,4.308-0.011,6.461c-1.205-0.002-2.41,0-3.615,0.004
					c-0.015-4.382-0.03-8.764-0.046-13.146c0.957-0.003,1.914-0.005,2.871-0.004c1.792,2.229,3.567,4.465,5.326,6.708
					c0.018-2.228,0.036-4.456,0.054-6.684c1.228,0.01,2.454,0.023,3.682,0.039c-0.059,4.381-0.116,8.763-0.174,13.144
					c-0.958-0.013-1.915-0.023-2.872-0.032C50.631,24.311,48.893,22.147,47.139,19.99z"/>
				<path fill="#FFFFFF" d="M66.953,23.616c-0.031,1.049-0.063,2.098-0.095,3.146c-3.123-0.093-6.247-0.166-9.372-0.217
					c0.072-4.382,0.145-8.763,0.217-13.144c3.127,0.051,6.254,0.124,9.381,0.216c-0.031,1.049-0.062,2.098-0.094,3.147
					c-1.891-0.057-3.782-0.105-5.674-0.146c-0.014,0.616-0.026,1.233-0.04,1.851c1.611,0.035,3.224,0.075,4.835,0.121
					c-0.027,0.975-0.056,1.949-0.083,2.924c-1.605-0.046-3.21-0.086-4.815-0.121c-0.015,0.691-0.03,1.382-0.045,2.073
					C63.097,23.51,65.024,23.56,66.953,23.616z"/>
				<path fill="#FFFFFF" d="M76.783,18.271c0.001,0-1.88-1.286-3.479-1.347c-0.639-0.024-1.078,0.145-1.095,0.607
					c-0.025,0.686,0.909,0.866,2.425,1.409c2.423,0.859,3.934,1.784,3.819,4.244c-0.149,3.162-2.748,4.061-5.19,3.967
					c-1.906-0.075-4.127-0.762-5.676-1.737c0.553-1.038,1.108-2.076,1.666-3.113c0.001-0.001,2.164,1.517,4.191,1.597
					c0.782,0.03,1.068-0.181,1.084-0.531c0.031-0.759-1.322-0.981-2.889-1.576c-2.304-0.86-3.301-1.871-3.24-3.796
					c0.09-2.907,2.494-4.368,5.141-4.265c1.943,0.074,3.776,0.987,4.953,1.634C77.922,16.332,77.352,17.301,76.783,18.271z"/>
				<path fill="#FFFFFF" d="M88.35,18.868c0.001,0-1.859-1.316-3.457-1.403c-0.638-0.035-1.081,0.127-1.105,0.59
					c-0.036,0.685,0.895,0.881,2.4,1.448c2.411,0.898,3.908,1.849,3.754,4.306c-0.201,3.16-2.817,4.016-5.259,3.882
					c-1.906-0.105-4.112-0.829-5.646-1.829c0.569-1.029,1.142-2.059,1.715-3.086c0.002,0,2.144,1.551,4.167,1.664
					c0.781,0.044,1.071-0.162,1.092-0.514c0.043-0.757-1.305-1.002-2.86-1.622c-2.29-0.898-3.273-1.925-3.182-3.849
					c0.137-2.906,2.568-4.327,5.212-4.18c1.943,0.106,3.761,1.049,4.926,1.714C89.519,16.948,88.934,17.908,88.35,18.868z"/>
			</g>
		</g>
	</g>
</g>
</svg>
