<svg xmlns="http://www.w3.org/2000/svg" id="Layer_1" width="215" height="50" viewBox="0 0 215 50"><style>.a{fill:#FFF;}</style><path d="M1.5 29.7c-0.1 0-0.3 0-0.6-0.1 -0.2-0.2-0.4-0.5-0.5-0.8 -0.1-0.3-0.3-0.7-0.3-1.1 -0.1-0.4-0.1-0.8-0.1-1.2 0-0.4 0.1-0.7 0.2-1.1 0 0 0.1-0.2 0.2-0.4 0.1-0.3 0.3-0.6 0.4-1 0.2-0.4 0.4-0.9 0.6-1.4 0.2-0.5 0.4-1 0.7-1.5 0.2-0.5 0.4-1 0.7-1.4 0.2-0.4 0.4-0.7 0.5-1 0.1-0.2 0.2-0.3 0.3-0.5 0.1-0.2 0.2-0.3 0.3-0.4 0.1-0.2 0.3-0.4 0.4-0.6 0.1-0.2 0.2-0.3 0.4-0.5 0.1-0.1 0.3-0.3 0.5-0.4C5.2 16.2 5.4 16.1 5.6 16c0.1 0.1 0.3 0.1 0.4 0.2 0.1 0.1 0.2 0.1 0.3 0.2l0.1 0.3c0 0.1 0.1 0.1 0.1 0.2 0.1 0 0.1 0 0.1 0 0.2 0 0.3 0.1 0.4 0.1 0.1 0 0.2 0.1 0.4 0.1 0 0.1 0.1 0.1 0.1 0.2 0 0.1 0.1 0.1 0.1 0.2 0.2 0.3 0.4 0.7 0.6 1 0.2 0.3 0.2 0.7 0 1.1l0 0.2c0.1 0.1 0.1 0.2 0.1 0.2 0 0.1 0 0.2 0 0.3 0 0.1 0 0.2 0 0.3 0 0.1 0 0.2 0 0.4l0.1 0.1c0.2 0.1 0.4 0.1 0.6 0.1 0.2 0 0.5-0.1 0.6-0.2 0.2-0.1 0.4-0.2 0.5-0.3 0.1-0.1 0.3-0.2 0.4-0.2 0.1-0.1 0.2-0.1 0.3-0.1 0.3-0.2 0.5-0.4 0.7-0.6 0.2-0.2 0.4-0.4 0.7-0.6 0.4-0.3 0.8-0.7 1.2-1.1 0.4-0.4 0.7-0.9 1-1.5 0.1-0.1 0.3-0.1 0.4-0.1s0.3 0 0.5 0.1c0.2 0.1 0.3 0.1 0.5 0.2 0 0 0.1 0 0.1 0.1 0 0 0.1 0 0.1 0.1 0 0.1 0.1 0.3 0.2 0.4 0.1 0 0.1 0.1 0.1 0.1 0 0 0 0 0.1 0 0.1 0.1 0.2 0.1 0.2 0.2 0.1 0 0.1 0.1 0.2 0.2 0.1 0.3 0.3 0.6 0.5 0.7 0 0.1 0 0.3 0 0.4 0 0.1 0.1 0.2 0.1 0.4 0 0 0 0.1 0.1 0.1 0 0 0 0.1 0.1 0.2l-0.4 0 0.1 0.4c0 0.2 0 0.4 0 0.7 -0.1 0.2-0.1 0.4-0.2 0.6 0 0.4 0 0.6 0 0.8 0 0.2 0 0.4 0 0.6 0 0.2-0.1 0.3-0.1 0.5 -0.1 0.2-0.1 0.3-0.2 0.5 0 0.9-0.1 1.7-0.3 2.5 -0.3 0.7-0.5 1.4-0.8 2.1 0 0.1-0.1 0.2-0.1 0.2 0 0.1-0.1 0.1-0.1 0.2 -0.1 0-0.2 0.1-0.4 0.1 -0.1 0-0.2 0.1-0.3 0.2 -0.1 0.1-0.3 0.2-0.4 0.2 -0.1 0.1-0.3 0.1-0.4 0.1 -0.6-0.4-0.9-1.1-0.9-2.2 0-1 0.2-2.3 0.6-3.9 0.1-0.1 0.1-0.1 0.1-0.3v-0.2l-0.2 0c-0.1 0-0.1 0-0.2 0 0 0-0.1 0.1-0.1 0.2 -0.4 0.3-0.8 0.6-1.2 0.8 -0.4 0.3-0.9 0.6-1.4 0.8 -0.5 0.2-1 0.4-1.5 0.6 -0.5 0.2-1 0.2-1.4 0.2 -1.2 0-2.1-0.6-2.7-1.8l-0.2-0.3 -0.2 0.3c0 0.1-0.1 0.2-0.2 0.3C4.5 24 4.4 24.2 4.3 24.4c-0.1 0.2-0.2 0.5-0.2 0.7 -0.1 0.2-0.1 0.4-0.1 0.6 -0.1 0.1-0.3 0.3-0.4 0.4s-0.2 0.4-0.3 0.6c0 0.1 0 0.1 0 0.2 0 0.1 0 0.1 0.1 0.2 0 0.1 0 0.1-0.1 0.2 0 0-0.1 0.1-0.1 0.1 -0.1 0.1-0.1 0.1-0.2 0.2 -0.1 0.1-0.1 0.1-0.2 0.2 0 0.1 0 0.1-0.1 0.2 0 0.1 0 0.1 0 0.2 0 0.1 0 0.2-0.1 0.3 -0.1 0.3-0.2 0.5-0.3 0.6 -0.1 0.2-0.2 0.3-0.3 0.4 -0.1 0.1-0.2 0.1-0.3 0.2C1.7 29.6 1.6 29.7 1.5 29.7z" class="a"/><path d="M27.1 27.9c-0.1 0.2-0.2 0.4-0.3 0.6 -0.1 0.2-0.3 0.4-0.5 0.6 -0.2 0.2-0.4 0.3-0.6 0.4 -0.2 0.1-0.5 0.2-0.7 0.2 -0.2 0-0.3-0.1-0.3-0.1 0 0-0.1-0.1-0.2-0.1 0 0-0.1 0-0.1-0.1 0 0-0.1 0-0.1 0l-0.2-0.1L24.2 29c0-0.1 0-0.2 0-0.2 0-0.1-0.1-0.1-0.2-0.2 0 0-0.1-0.1-0.1-0.1 0 0-0.1-0.1-0.1-0.1l-0.3-0.3 0.5-0.1c0.3-0.1 0.5-0.2 0.6-0.3 0.1-0.1 0.1-0.3 0.1-0.7 -0.2 0-0.4-0.1-0.6 0 -0.2 0-0.3 0.1-0.5 0.1 -0.2 0.1-0.4 0.1-0.6 0.2 -0.2 0-0.5 0.1-0.7 0.1 -0.1 0-0.2 0-0.3 0 -0.1 0-0.2 0-0.3 0l-0.2 0c0-0.1 0-0.2-0.1-0.2 0 0 0 0-0.1-0.1 -0.1-0.1-0.1-0.1-0.2-0.2 -0.1-0.1-0.1-0.2 0-0.4 -0.1-0.1-0.1-0.2-0.1-0.3 -0.1 0.1-0.1 0.3-0.2 0.4l-0.1 0.2 -0.2 0c0 0 0 0-0.1 0.1 0 0 0 0.1 0 0.1l-0.1 0.3c0 0 0 0-0.1 0.1 0 0 0 0-0.1 0.1 0 0.1-0.1 0.2-0.1 0.3 0 0.1-0.1 0.2-0.1 0.3 -0.1 0.2-0.1 0.3-0.2 0.5 0 0.1-0.1 0.3 0 0.4l-0.1 0.2c-0.1 0.1-0.1 0.1-0.2 0.2 -0.1 0-0.1 0.1-0.2 0.1 0 0-0.1 0-0.1 0.1 0 0-0.1 0-0.1 0l-0.1 0.2 -0.2 0c-0.1 0-0.2 0-0.3 0.1 -0.1 0-0.1 0-0.2 0l-0.2 0c-0.1-0.1-0.2-0.2-0.3-0.3 -0.1-0.1-0.2-0.1-0.2-0.2 -0.1-0.1-0.2-0.2-0.2-0.3 0-0.1 0-0.1 0-0.2 0-0.1 0-0.1 0-0.2 0 0 0-0.1 0-0.1l-0.2-0.2 0.2-0.2 0-0.3c0.2-0.6 0.5-1.2 0.8-1.7 0.3-0.6 0.5-1.1 0.8-1.7 0.1-0.2 0.2-0.4 0.3-0.6 0.1-0.2 0.2-0.4 0.3-0.6 0 0 0-0.1 0-0.1 0 0 0-0.1 0-0.2 0.1-0.2 0.2-0.4 0.3-0.5 0.1-0.2 0.2-0.3 0.3-0.5 0.1-0.2 0.2-0.4 0.3-0.6 0.1-0.2 0.2-0.4 0.4-0.6l0.3-0.1c0 0 0.1 0 0.1 0 0 0 0.1 0 0.2 0l0.3 0c0.3-0.2 0.6-0.4 0.9-0.6 0.3-0.3 0.5-0.6 0.8-1l0.2-0.2 0.2 0.1c0.1 0 0.1 0.1 0.3 0.1 0.1 0 0.2 0.1 0.3 0.1 0.2 0 0.4 0.1 0.6 0.2 0.2 0.1 0.3 0.1 0.5 0.3 0.1 0.2 0.1 0.3 0.1 0.4 0 0.1 0 0.2 0.1 0.3 0 0.2 0.1 0.4 0.1 0.6 0 0.2 0.1 0.4 0.1 0.7 0.1 0.2 0.1 0.4 0.1 0.6 0 0.2 0.1 0.4 0.1 0.6 0.1 0.3 0.1 0.6 0.2 0.8 0.1 0.3 0.1 0.5 0.2 0.8 0.1 0 0.2 0 0.2 0 0.1 0 0.1 0 0.2-0.1 0.1 0 0.1 0 0.2 0l0.2 0 0.1 0.2c0 0.1 0.1 0.1 0.2 0.2 0.2 0 0.3 0 0.3 0.1 0.1 0.1 0.1 0.1 0.2 0.2 0 0 0.1 0.1 0.1 0.1l0.3 0.1 -0.1 0.3c-0.1 0.2-0.3 0.4-0.5 0.6 -0.2 0.2-0.5 0.4-0.7 0.5 0 0.1 0 0.1 0 0.2 0 0.1 0 0.1 0 0.2 0 0.2 0.1 0.4 0.1 0.6 0 0.2 0 0.4 0 0.7L27.1 27.9zM21.9 24.8c0.4 0 0.7-0.1 1-0.1 0.3 0 0.6-0.1 1-0.2 -0.1-0.4-0.2-0.7-0.3-1.1 -0.1-0.4-0.2-0.8-0.3-1.1l-0.1 0.2c-0.2 0.3-0.5 0.5-0.7 0.8 -0.2 0.3-0.4 0.6-0.6 0.9 -0.1 0.1-0.1 0.2-0.2 0.3 -0.1 0.1-0.1 0.2-0.2 0.3 0.1 0 0.1 0 0.2 0C21.8 24.9 21.9 24.8 21.9 24.8z" class="a"/><path d="M33.4 24.7c-0.1 0.1-0.1 0.2-0.2 0.3 -0.1 0.1-0.1 0.2-0.2 0.3 -0.1 0.1-0.1 0.3-0.2 0.4 -0.1 0.1-0.2 0.2-0.3 0.3 -0.1 0.2-0.1 0.3-0.2 0.4 -0.1 0.1-0.2 0.2-0.3 0.3 -0.1 0.5-0.4 1-0.8 1.5 0 0.1 0 0.2-0.1 0.3 -0.1 0.1-0.1 0.2-0.2 0.3 0 0 0 0.1-0.1 0.1 0 0 0 0.1-0.1 0.1l0 0.2c-0.1 0.1-0.1 0.2-0.2 0.2 -0.1 0.1-0.1 0.1-0.2 0.2 0 0-0.1 0.1-0.1 0.1l-0.3 0.1c-0.9-0.1-1.4-0.6-1.6-1.4l0-0.2c0-0.1 0-0.1 0.1-0.2 0-0.1 0-0.1 0.1-0.2 0-0.2 0.1-0.3 0.2-0.5 0.1-0.2 0.2-0.3 0.3-0.4 0-0.1 0.1-0.2 0.2-0.4 0.1-0.2 0.2-0.5 0.4-0.8 0.2-0.3 0.3-0.5 0.4-0.7 0.1-0.2 0.2-0.3 0.2-0.4 -0.1-0.2-0.3-0.4-0.4-0.5 -0.2-0.3-0.3-0.6-0.4-0.9 -0.1-0.3-0.2-0.5-0.3-0.7 0-0.2 0-0.3-0.1-0.4 0-0.1 0-0.2-0.1-0.3 0-0.1-0.1-0.3-0.1-0.4s0-0.3 0-0.4c-0.1-0.1-0.1-0.2-0.1-0.3l0-0.2c0-0.1 0-0.2 0-0.3 0-0.1-0.1-0.3-0.1-0.4 0-0.1-0.1-0.2-0.1-0.4 0-0.1 0-0.3 0-0.4 0-0.1 0.1-0.3 0.1-0.4 0.1-0.1 0.2-0.2 0.3-0.3l0.3 0c0.1 0.1 0.2 0.1 0.3 0.2 0.1 0.1 0.2 0.1 0.3 0.2 0.1 0.1 0.3 0.1 0.4 0.2 0.1 0.1 0.2 0.1 0.4 0.2l0.1 0.2 0.2 0.2v0.2c0 0 0 0.1 0 0.2 0 0.2 0 0.2 0.1 0.3l0.1 0.2c0 0.2 0 0.3 0.1 0.5 0 0.1 0.1 0.3 0.1 0.4s0.1 0.3 0.1 0.4c0 0.1 0 0.3 0 0.5 0.1 0 0.1-0.1 0.2-0.1 0 0 0 0 0.1-0.1 0 0 0 0 0.1-0.1l1.1-1.4 0-0.2 0.4-0.4C33.4 20 33.5 19.9 33.6 19.8c0.1-0.1 0.2-0.2 0.2-0.3l0.2-0.1c0.4-0.6 0.9-1 1.6-1.1l0.2 0 0.1 0.2c0.1 0.1 0.2 0.3 0.3 0.4s0.3 0.2 0.5 0.3l0.2 0.1c0.1 0.1 0.1 0.2 0.1 0.3s0 0.1 0 0.2l0.1 0.2c-0.1 0.3-0.2 0.5-0.3 0.6 -0.1 0.1-0.3 0.3-0.4 0.4 -0.1 0.1-0.2 0.2-0.3 0.3 -0.1 0.1-0.2 0.2-0.2 0.3l-0.1 0.1c-0.2 0.1-0.4 0.3-0.5 0.6l-0.1 0.2h-0.2c0 0 0 0-0.1 0.1 0 0-0.1 0.1-0.2 0.3 -0.1 0.1-0.1 0.2-0.2 0.2 0 0-0.1 0.1-0.1 0.1 0 0 0 0.1 0 0.1 0 0 0 0.1-0.1 0.2 -0.2 0.2-0.2 0.3-0.3 0.3 0 0.1-0.1 0.2-0.1 0.3 0 0.1-0.1 0.2-0.1 0.3 0 0.1-0.1 0.2-0.2 0.3L33.4 24.7z" class="a"/><path d="M51.9 20.8c-0.3 0-0.6 0-1 0.1 -0.3 0-0.7 0.1-1 0.1 -0.2 0-0.5 0.1-0.7 0.1 -0.2 0-0.4 0-0.6 0.1 -0.1 0.3-0.2 0.5-0.2 0.7 -0.1 0.2-0.2 0.4-0.3 0.6 -0.1 0.2-0.2 0.4-0.3 0.6 -0.1 0.2-0.2 0.4-0.2 0.7 -0.1 0.2-0.2 0.4-0.3 0.5 -0.1 0.2-0.1 0.3-0.2 0.5 -0.1 0.2-0.2 0.4-0.3 0.6 -0.1 0.2-0.1 0.4-0.2 0.5l-0.1 0.2c-0.1 0.1-0.1 0.1-0.1 0.2 0 0 0 0.1-0.1 0.1 0 0.1-0.1 0.3-0.1 0.4 0 0.1 0 0.1-0.1 0.2 0 0.1 0 0.1 0 0.1 0 0.1 0 0.2-0.1 0.2 0 0.1 0 0.1 0 0.2 0 0.1 0 0.1 0 0.2 0 0.1 0 0.3 0 0.3 0 0 0.1 0.1 0.1 0.1 0 0 0.1 0.1 0.1 0.1 0.1 0 0.1 0.1 0.2 0.1 0 0 0.1 0.1 0.2 0.1l0.2 0.2c0.1 0.3 0 0.6-0.2 0.8 -0.2 0.2-0.5 0.3-0.9 0.3h-0.2c-0.1-0.1-0.1-0.1-0.1-0.1 -0.1 0-0.2-0.1-0.2-0.1 -0.1 0-0.1-0.1-0.2-0.1 -0.2-0.1-0.3-0.1-0.4-0.2l-0.2-0.1c0-0.1 0-0.2 0-0.2 -0.1-0.1-0.1-0.2-0.2-0.4 0-0.1-0.1-0.3-0.1-0.4 0-0.1-0.1-0.2-0.1-0.3 0-0.1-0.1-0.2-0.1-0.2 0-0.7 0-1.3 0.2-1.7 0.2-0.5 0.3-0.9 0.5-1.4 0.1-0.2 0.2-0.5 0.3-0.7 0.1-0.2 0.2-0.5 0.2-0.8l0.2-0.2c0.1-0.2 0.2-0.3 0.2-0.5 0.1-0.1 0.1-0.2 0.2-0.4 0-0.1 0.1-0.2 0.1-0.2 0-0.1 0.1-0.1 0.1-0.2 -0.1 0-0.1 0-0.2 0 -0.1 0-0.1 0-0.2 0 -0.1 0-0.1 0-0.2 0 -0.1 0-0.1 0-0.2 0 -0.1 0-0.1 0-0.2 0 -0.1 0.1-0.3 0.1-0.4 0.1h-0.2c0 0-0.1 0-0.1 0 0 0-0.1 0-0.1 0 -0.1 0-0.2 0-0.3 0.1 -0.1 0-0.3 0-0.4 0h-0.2c0 0-0.1 0-0.1 0 0 0-0.1 0-0.1 0 -0.1 0-0.2 0-0.3 0 -0.1 0-0.2-0.1-0.3-0.1 -0.1-0.2-0.2-0.3-0.3-0.3l-0.2-0.2c0-0.1 0-0.1-0.1-0.2 0-0.1 0-0.1-0.1-0.2 0-0.1-0.1-0.2-0.1-0.4 0-0.1-0.1-0.3-0.1-0.5 0-0.1 0-0.2 0.1-0.2 0 0 0.1-0.1 0.1-0.1l0.1-0.3 0.2 0h0.5c0.4 0 0.8 0 1.2 0 0.4 0 0.8-0.1 1.2-0.1 0.2 0 0.5 0 0.7-0.1 0.2 0 0.5 0 0.8-0.1 0-0.1 0.1-0.2 0.1-0.3l0.2-0.1c0.2 0 0.4 0 0.5 0.1 0.1 0.1 0.2 0.1 0.2 0.2 0.3 0 0.5-0.1 0.8-0.1 0.3 0 0.5-0.1 0.8-0.1 0.4-0.1 0.8-0.1 1.2-0.2 0.4 0 0.8-0.1 1.2-0.1 0.2 0 0.3 0 0.5 0 0.2 0 0.3 0 0.4 0.1l0.2 0.1c0 0.1 0.1 0.1 0.2 0.2 0.1 0.1 0.1 0.1 0.2 0.2 0.1 0.1 0.3 0.3 0.4 0.5 0.1 0.2 0.2 0.4 0.2 0.8 -0.1 0.1-0.2 0.2-0.2 0.2l-0.2 0.2 -0.2 0c-0.1 0-0.1 0-0.2 0 -0.1 0-0.1 0-0.2 0.1 0 0-0.1 0-0.1 0.1 0 0-0.1 0-0.2 0 -0.1 0-0.2 0-0.3 0C52 20.8 52 20.8 51.9 20.8z" class="a"/><path d="M59.6 27.7c0 0.3 0 0.6-0.1 0.8 -0.1 0.2-0.2 0.4-0.4 0.5 -0.2 0.1-0.4 0.3-0.6 0.3 -0.2 0.1-0.4 0.2-0.6 0.2 -0.1-0.1-0.2-0.1-0.3-0.2 -0.1-0.1-0.2-0.1-0.3-0.2 -0.2-0.3-0.3-0.5-0.4-0.8 -0.1-0.2-0.2-0.5-0.2-0.8 0 0 0-0.1 0-0.2 0-0.1 0-0.3 0.1-0.4 0-0.1 0.1-0.3 0.1-0.4 0-0.1 0-0.2 0-0.2 -0.3 0-0.6 0.1-0.9 0.2 -0.3 0.1-0.6 0.2-0.9 0.3 -0.3 0.1-0.5 0.3-0.8 0.4 -0.2 0.1-0.4 0.2-0.6 0.3 0 0 0 0.1-0.1 0.3 0 0.1-0.1 0.3-0.2 0.4 -0.1 0.1-0.1 0.3-0.2 0.4C53.2 28.9 53.1 29 53.1 29c0 0 0 0.1 0.1 0.1 0 0 0 0.1 0 0.1 -0.2 0-0.3 0.1-0.4 0.2 -0.1 0.1-0.3 0.1-0.4 0.2 -0.1 0.1-0.3 0.1-0.5 0.1s-0.4-0.1-0.6-0.2c0-0.1 0-0.1-0.1-0.2 -0.1-0.1-0.1-0.1-0.2-0.1 -0.1 0-0.1-0.1-0.2-0.1 0 0-0.1-0.1-0.1-0.1 -0.1 0-0.1 0-0.1-0.1s0.1-0.1 0.1-0.1c-0.1-0.2-0.2-0.3-0.2-0.4 0-0.1-0.1-0.3-0.2-0.5 0 0 0-0.1 0.1-0.1 0-0.1 0-0.1 0-0.2 0 0 0-0.1 0.1-0.1 0 0 0.1 0 0.1 0 0-0.1 0-0.2 0-0.3 0-0.1 0-0.1 0.1-0.2 0-0.1 0-0.1 0.1-0.2 0-0.1 0-0.1-0.1-0.2 0.2-0.3 0.3-0.5 0.4-0.8 0.1-0.3 0.1-0.6 0.1-0.8 0.1-0.1 0.2-0.2 0.2-0.4 0.1-0.2 0.1-0.3 0.2-0.5 0-0.2 0.1-0.3 0-0.5 0-0.1 0-0.3-0.1-0.4 0-0.1 0.1-0.1 0.2-0.1 0.1-0.4 0.1-0.8 0.2-1.3 0-0.5 0.1-1 0.1-1.4 0.1-0.4 0.2-0.8 0.4-1.2 0.2-0.3 0.4-0.6 0.8-0.7 0.1 0.2 0.2 0.5 0.3 0.7 0.1 0.2 0.2 0.4 0.4 0.5 0.1 0.2 0.3 0.3 0.4 0.5 0.1 0.2 0.3 0.4 0.4 0.6 0 0.2 0 0.5-0.1 0.8 0 0.3-0.1 0.6-0.1 0.9 -0.1 0.3-0.1 0.6-0.2 0.9 -0.1 0.3-0.1 0.5-0.1 0.7 0 0.1 0 0.1 0.1 0.1 0.1 0 0.1 0.1 0 0.2 0.3-0.1 0.6-0.1 0.9-0.2 0.3-0.1 0.6-0.1 0.9-0.2 0.3-0.1 0.6-0.1 0.9-0.2 0.3-0.1 0.6-0.2 0.8-0.3 0.1-0.5 0.1-0.9 0.2-1.4 0.1-0.5 0.1-0.9 0-1.4 0.1 0 0.1-0.1 0.1-0.2 0-0.1 0.1-0.1 0.2-0.1 -0.1-0.2-0.1-0.5-0.1-0.7 0-0.3 0.1-0.5 0.1-0.7 0.1-0.2 0.2-0.4 0.3-0.6 0.1-0.2 0.3-0.3 0.5-0.3 0.1 0.2 0.2 0.4 0.3 0.6s0.2 0.4 0.3 0.7c0.1 0.2 0.2 0.4 0.3 0.6 0.1 0.2 0.3 0.4 0.4 0.5 0 0.3 0.1 0.7 0.1 1.1 0 0.4 0 0.7 0 1.1 -0.1 0.5-0.2 0.9-0.3 1.3 -0.1 0.4-0.2 0.9-0.2 1.3 -0.1 0.1-0.1 0.2-0.2 0.3 0 0.1-0.1 0.2-0.1 0.4 0 0.1-0.1 0.2-0.2 0.4 -0.1 0.1-0.1 0.2-0.2 0.3 0 0.1 0.1 0.3 0 0.4C59.5 27.4 59.5 27.5 59.6 27.7z" class="a"/><path d="M71.1 19.4c0 0.1 0 0.1 0 0.2 0 0 0 0.1 0 0.1 0 0 0 0.1 0 0.1 0 0 0 0.1 0 0.2 -0.3 0.4-0.5 0.7-0.9 0.8 -0.3 0.1-0.7 0.3-1.1 0.3 -0.4 0.1-0.8 0.1-1.2 0.2 -0.4 0.1-0.8 0.2-1.2 0.5 -0.2-0.1-0.3-0.1-0.4 0 -0.1 0.1-0.3 0.1-0.5 0.1 -0.1 0.1-0.2 0.1-0.3 0.2 -0.1 0-0.2 0.1-0.3 0.1 0 0.1 0.1 0.2 0.1 0.3 0 0.1 0 0.2 0 0.3 0.4 0 0.9 0 1.4 0 0.5 0 1-0.1 1.5-0.1 0 0.1 0 0.1 0 0.1 0 0 0 0.1 0 0.1 0.1 0.1 0.2 0.1 0.2 0.2 0.1 0.1 0.2 0.2 0.3 0.3 0.1 0.1 0.2 0.2 0.3 0.2 0.1 0.1 0.2 0.1 0.3 0.1 0 0.1 0.1 0.2 0.1 0.3 0 0.1 0 0.2 0 0.3 -0.2 0.1-0.4 0.3-0.6 0.4 -0.2 0.1-0.4 0.3-0.6 0.4 -0.2 0.1-0.4 0.2-0.7 0.3 -0.2 0.1-0.5 0.1-0.8 0.1 -0.1 0-0.1 0-0.1 0 0 0-0.1 0-0.1-0.1 -0.1 0.1-0.2 0.1-0.4 0.1 -0.2 0-0.3 0-0.4 0.1 -0.1-0.1-0.3-0.1-0.5-0.1 -0.2 0-0.3 0-0.5-0.1 -0.2 0.2-0.4 0.5-0.5 0.8 -0.1 0.3-0.3 0.6-0.4 0.9 0.4 0.1 0.7 0.1 1 0.1 0.3 0 0.5 0 0.8-0.1 0.2 0 0.5-0.1 0.7-0.1 0.2 0 0.6 0 0.9 0 0.2-0.1 0.5-0.2 0.8-0.3 0.3 0 0.6-0.1 0.9-0.2 0.1 0 0.2 0.1 0.2 0.2 0.1 0.1 0.1 0.2 0.2 0.2 0.1 0.1 0.1 0.1 0.2 0.2 0.1 0.1 0.2 0.1 0.3 0.1 0 0 0.1 0.1 0.1 0.2 0 0.1 0 0.1 0 0.2 0 0.1 0 0.1 0.1 0.2 0 0 0.1 0.1 0.2 0 -0.2 0.4-0.4 0.7-0.6 0.9 -0.2 0.2-0.5 0.4-0.8 0.5 -0.3 0.1-0.6 0.2-1 0.3 -0.4 0.1-0.8 0.1-1.2 0.2 -0.1 0-0.2 0-0.3 0 -0.1 0-0.2 0-0.2 0 -0.3 0.1-0.6 0.1-1 0.2 -0.4 0-0.8 0.1-1.2 0.1 -0.4 0-0.8-0.1-1.1-0.1 -0.4-0.1-0.6-0.2-0.9-0.5 -0.1-0.1-0.2-0.2-0.2-0.3 0-0.1-0.1-0.2-0.2-0.3 0-0.2 0-0.3-0.1-0.5s-0.1-0.4-0.1-0.6c0-0.2-0.1-0.4-0.1-0.6 0-0.2 0-0.4 0-0.6 0-0.2 0.1-0.3 0.2-0.5 0.1-0.1 0.2-0.3 0.1-0.5 0.1 0 0.1 0 0.1-0.1 0-0.1 0.1-0.1 0.1-0.1 0.1-0.2 0.1-0.4 0.2-0.6 0.1-0.2 0.2-0.4 0.3-0.5 0.1-0.2 0.2-0.4 0.3-0.5 0.1-0.2 0.2-0.4 0.3-0.6 -0.2-0.2-0.3-0.3-0.4-0.5 -0.1-0.2-0.1-0.4-0.2-0.6 0-0.2-0.1-0.4-0.1-0.6 0-0.2-0.1-0.4-0.1-0.6 0.1-0.2 0.3-0.3 0.4-0.4 0.2-0.1 0.4-0.2 0.6-0.3 0.2-0.1 0.4-0.1 0.7-0.2 0.2 0 0.5-0.1 0.8-0.2 0.5-0.2 0.9-0.3 1.3-0.4 0.4-0.1 0.7-0.2 1.1-0.2 0.4-0.1 0.7-0.1 1.1-0.2 0.4 0 0.8-0.1 1.3-0.2 0.1 0.1 0.2 0.2 0.3 0.2 0-0.1 0.1-0.1 0.2-0.1 0.1 0 0.1 0 0.1-0.1 0.1 0.2 0.3 0.4 0.5 0.5C70.6 19.2 70.8 19.3 71.1 19.4z" class="a"/><path d="M87.1 26.5c0.1 0 0.1 0.1 0.1 0.2 0 0.1 0 0.1 0 0.2 -0.2 0.3-0.4 0.5-0.4 0.6 -0.1 0.1-0.1 0.2-0.2 0.2s-0.1 0.1-0.1 0.1c0 0-0.1 0.1-0.3 0.2 -0.5 0.3-1.1 0.6-1.6 0.9 -0.6 0.2-1.2 0.4-1.8 0.5 -0.1 0.1-0.3 0.2-0.5 0.3 -0.3 0.1-0.5 0.1-0.7 0.2 0 0-0.1-0.1-0.1-0.1 0 0 0-0.1-0.1-0.1 0 0.1-0.1 0.2-0.2 0.2 -0.1 0-0.2 0-0.3-0.1 -0.1-0.1-0.3-0.1-0.4-0.2 -0.1-0.1-0.3-0.2-0.4-0.2 -0.1 0.1-0.1 0.2-0.2 0.3 -0.1 0.1-0.1 0.2-0.2 0.2 -0.1 0-0.2 0-0.3-0.1 -0.1 0-0.1 0-0.2 0.1 -0.1 0-0.1-0.1-0.2-0.1 0 0-0.1-0.1-0.1-0.1 0 0-0.1-0.1-0.1-0.1 -0.1 0-0.1-0.1-0.2-0.1 0-0.1 0-0.1 0-0.2 0-0.1-0.1-0.2-0.2-0.2 0-0.1 0-0.2-0.1-0.3 -0.1-0.1-0.2-0.3-0.2-0.4 0-0.1 0-0.3 0.1-0.4 0-0.2 0.1-0.2 0.2-0.3 0-0.1 0-0.2-0.1-0.2 0-0.1 0-0.1-0.1-0.2 0.1-0.1 0.1-0.2 0.2-0.3 0-0.1 0.1-0.2 0.1-0.3 0-0.1 0.1-0.2 0.1-0.3 0-0.1 0.1-0.2 0.2-0.3 0.1-0.4 0.2-0.6 0.2-0.8 0.1-0.2 0.1-0.3 0.1-0.5 0-0.2 0.1-0.3 0.1-0.5 0-0.2 0.1-0.4 0.2-0.7 0-0.2 0-0.3 0.1-0.5 0-0.1 0.1-0.3 0.2-0.4 0.1-0.1 0.1-0.3 0.1-0.4 0-0.1 0-0.3 0-0.5 -0.2 0-0.3 0.1-0.4 0.2 -0.1 0.1-0.1 0.2-0.1 0.4 -0.1 0.1-0.2 0.1-0.3 0.1 -0.1 0-0.3 0-0.4 0 -0.4-0.2-0.8-0.4-1-0.7 -0.3-0.3-0.5-0.7-0.7-1.1 0.1-0.3 0.3-0.5 0.5-0.7 0.2-0.2 0.5-0.3 0.7-0.5 0.3-0.1 0.6-0.2 0.9-0.3 0.3-0.1 0.6-0.2 0.9-0.2 0.5-0.1 0.9-0.2 1.4-0.3 0.5-0.1 1-0.1 1.5-0.1 0.1 0 0.2-0.1 0.3-0.1 0.1 0 0.2 0 0.3 0s0.2 0 0.3 0c0.1 0 0.2 0 0.3-0.1 0.1 0.1 0.1 0.1 0.3 0.1 0.1 0 0.2 0.1 0.4 0.2 0.1-0.1 0.3-0.1 0.4-0.1 0.1 0.1 0.2 0.1 0.3 0.2 0.1 0.1 0.2 0.1 0.2 0.2 0.1 0.1 0.2 0.1 0.2 0.1 0.1 0.1 0.2 0.2 0.3 0.3 0.1 0.1 0.2 0.2 0.4 0.3 0.1 0.1 0.2 0.2 0.3 0.3 0.1 0.1 0.1 0.3 0.1 0.4 0 0.1 0 0.1 0.1 0.1 0.1 0 0.1 0 0.1 0.1 0 0.4 0 0.7-0.2 1 -0.1 0.3-0.3 0.5-0.5 0.7 -0.2 0.2-0.4 0.4-0.6 0.6 -0.2 0.2-0.4 0.4-0.6 0.6 0.1 0.2 0.3 0.3 0.4 0.4 0.2 0.1 0.3 0.2 0.5 0.4 0.2 0.1 0.3 0.2 0.5 0.4 0.1 0.1 0.3 0.3 0.4 0.5 0 0 0.1 0 0.1 0.1 0 0 0.1 0 0.1 0.1 0 0.1 0.1 0.2 0.1 0.4 0.1 0.1 0.1 0.2 0.2 0.4 0 0.1 0.1 0.2 0.1 0.3C87.2 26.4 87.2 26.4 87.1 26.5zM84 20.6c-0.6 0-1.2 0-1.8 0.2 -0.6 0.1-1.1 0.3-1.5 0.6 0.2 0.2 0.4 0.3 0.6 0.4 0.2 0.1 0.4 0.3 0.5 0.5 0.5-0.2 0.9-0.4 1.2-0.7C83.4 21.2 83.7 20.9 84 20.6zM84.2 26.2c0-0.1 0.1-0.2 0.2-0.3 0.1-0.1 0.2-0.1 0.3-0.2 0.1-0.1 0.2-0.1 0.3-0.2 0.1-0.1 0.1-0.2 0.1-0.3 -0.4-0.2-0.7-0.3-1-0.4 -0.3 0-0.6 0-0.9 0 -0.3 0-0.5 0.1-0.8 0.2 -0.3 0.1-0.5 0.1-0.8 0.2 -0.1 0.3-0.3 0.7-0.4 1.1 -0.1 0.4-0.3 0.8-0.4 1.2 0.4 0 0.7-0.1 1-0.2 0.3-0.1 0.6-0.2 0.9-0.3 0.3-0.1 0.6-0.2 0.8-0.4C83.7 26.5 83.9 26.3 84.2 26.2z" class="a"/><path d="M97.8 19.4c0 0.1 0 0.1 0 0.2 0 0 0 0.1 0 0.1 0 0 0 0.1 0 0.1 0 0 0 0.1 0 0.2 -0.3 0.4-0.5 0.7-0.9 0.8 -0.3 0.1-0.7 0.3-1.1 0.3 -0.4 0.1-0.8 0.1-1.2 0.2 -0.4 0.1-0.8 0.2-1.2 0.5 -0.2-0.1-0.3-0.1-0.4 0 -0.1 0.1-0.3 0.1-0.5 0.1 -0.1 0.1-0.2 0.1-0.3 0.2 -0.1 0-0.2 0.1-0.3 0.1 0 0.1 0.1 0.2 0.1 0.3 0 0.1 0 0.2 0 0.3 0.4 0 0.9 0 1.4 0 0.5 0 1-0.1 1.5-0.1 0 0.1 0 0.1 0 0.1 0 0 0 0.1 0 0.1 0.1 0.1 0.2 0.1 0.3 0.2 0.1 0.1 0.2 0.2 0.2 0.3 0.1 0.1 0.2 0.2 0.3 0.2 0.1 0.1 0.2 0.1 0.3 0.1 0 0.1 0.1 0.2 0.1 0.3 0 0.1 0 0.2 0 0.3 -0.2 0.1-0.4 0.3-0.6 0.4 -0.2 0.1-0.4 0.3-0.6 0.4 -0.2 0.1-0.4 0.2-0.7 0.3 -0.2 0.1-0.5 0.1-0.8 0.1 -0.1 0-0.1 0-0.1 0 0 0-0.1 0-0.1-0.1 -0.1 0.1-0.2 0.1-0.4 0.1 -0.2 0-0.3 0-0.4 0.1 -0.1-0.1-0.3-0.1-0.5-0.1 -0.2 0-0.3 0-0.5-0.1 -0.2 0.2-0.4 0.5-0.5 0.8 -0.2 0.3-0.3 0.6-0.4 0.9 0.4 0.1 0.7 0.1 1 0.1 0.3 0 0.5 0 0.8-0.1 0.2 0 0.5-0.1 0.7-0.1 0.3 0 0.6 0 0.9 0 0.2-0.1 0.5-0.2 0.8-0.3 0.3 0 0.6-0.1 0.9-0.2 0.1 0 0.2 0.1 0.2 0.2 0.1 0.1 0.1 0.2 0.2 0.2s0.1 0.1 0.2 0.2c0.1 0.1 0.2 0.1 0.3 0.1 0 0 0.1 0.1 0.1 0.2 0 0.1 0 0.1 0 0.2 0 0.1 0 0.1 0.1 0.2 0 0 0.1 0.1 0.2 0 -0.2 0.4-0.4 0.7-0.6 0.9 -0.2 0.2-0.5 0.4-0.8 0.5 -0.3 0.1-0.6 0.2-1 0.3 -0.4 0.1-0.8 0.1-1.2 0.2 -0.1 0-0.2 0-0.3 0 -0.1 0-0.2 0-0.2 0 -0.3 0.1-0.6 0.1-1 0.2 -0.4 0-0.8 0.1-1.2 0.1 -0.4 0-0.8-0.1-1.1-0.1 -0.4-0.1-0.6-0.2-0.9-0.5 -0.1-0.1-0.2-0.2-0.2-0.3 0-0.1-0.1-0.2-0.2-0.3 0-0.2 0-0.3-0.1-0.5 0-0.2-0.1-0.4-0.1-0.6 0-0.2-0.1-0.4-0.1-0.6s0-0.4 0-0.6c0-0.2 0.1-0.3 0.2-0.5 0.1-0.1 0.2-0.3 0.1-0.5 0.1 0 0.1 0 0.1-0.1 0-0.1 0.1-0.1 0.1-0.1 0.1-0.2 0.1-0.4 0.2-0.6 0.1-0.2 0.2-0.4 0.3-0.5 0.1-0.2 0.2-0.4 0.3-0.5 0.1-0.2 0.2-0.4 0.3-0.6 -0.2-0.2-0.3-0.3-0.4-0.5 -0.1-0.2-0.1-0.4-0.2-0.6 0-0.2-0.1-0.4-0.1-0.6 0-0.2-0.1-0.4-0.1-0.6 0.1-0.2 0.3-0.3 0.4-0.4 0.2-0.1 0.4-0.2 0.6-0.3 0.2-0.1 0.4-0.1 0.7-0.2 0.2 0 0.5-0.1 0.7-0.2 0.5-0.2 0.9-0.3 1.3-0.4 0.4-0.1 0.7-0.2 1.1-0.2 0.4-0.1 0.7-0.1 1.1-0.2 0.4 0 0.8-0.1 1.3-0.2 0.1 0.1 0.2 0.2 0.3 0.2 0-0.1 0.1-0.1 0.2-0.1 0.1 0 0.1 0 0.1-0.1 0.1 0.2 0.3 0.4 0.5 0.5C97.3 19.2 97.5 19.3 97.8 19.4z" class="a"/><path d="M97.6 21.4c0.1-0.3 0.2-0.5 0.4-0.6 0.2-0.2 0.4-0.3 0.6-0.5 0.2-0.1 0.4-0.2 0.7-0.3 0.2-0.1 0.5-0.2 0.7-0.2 0.5-0.2 1-0.4 1.5-0.6 0.5-0.2 1.1-0.3 1.7-0.5 0.6-0.1 1.1-0.2 1.7-0.3 0.6 0 1.2 0 1.9 0.2 0 0.1 0.1 0.2 0.2 0.3 0.1 0.1 0.1 0.2 0.2 0.3 0.1 0.1 0.1 0.2 0.2 0.3 0.1 0.1 0.1 0.2 0.1 0.3 0.1 0.1 0.2 0.2 0.3 0.3 0.1 0.1 0.1 0.3 0 0.5 -0.1 0.1-0.2 0.2-0.3 0.3 -0.1 0.1-0.2 0.1-0.4 0.2 -0.4-0.1-0.9-0.1-1.3-0.1 -0.5 0-0.9 0.1-1.2 0.1 -0.1-0.1-0.2-0.2-0.4-0.2 -0.2 0-0.3 0-0.5 0.1 -0.2 0-0.3 0.1-0.5 0.1 -0.2 0-0.3 0.1-0.5 0 -0.1 0.1-0.3 0.2-0.4 0.2 -0.2 0-0.4 0.1-0.6 0.1 0 0.1 0 0.1 0 0.1s0 0.1 0 0.1c0.1 0.1 0.2 0.1 0.3 0.2 0.1 0 0.2 0.1 0.4 0.1 0.1 0 0.2 0.1 0.3 0.1 0.1 0.1 0.2 0.1 0.2 0.3 0.2 0 0.3 0 0.5 0.1 0.1 0.1 0.2 0.2 0.3 0.3 0.1 0.1 0.1 0.2 0.2 0.4 0 0.1 0.1 0.3 0.1 0.4 0 0.1 0.1 0.1 0.1 0.1 0 0 0.1 0 0.2 0.1 0 0.2 0.1 0.3 0.3 0.5 0.1 0.2 0.3 0.3 0.3 0.5 0 0.3 0 0.6 0.1 0.8s0 0.5-0.1 0.7c-0.2 0.4-0.4 0.8-0.7 1.2 -0.3 0.3-0.7 0.7-1.1 0.9 -0.4 0.3-0.8 0.5-1.3 0.7 -0.5 0.2-0.9 0.4-1.3 0.5 0 0-0.1 0-0.1 0 0 0-0.1 0 0-0.1 -0.1 0.1-0.2 0.1-0.3 0.2 -0.1 0-0.2 0-0.4 0 -0.1 0-0.3 0-0.4 0 -0.1 0-0.3 0-0.4 0 -0.1-0.1-0.2-0.2-0.2-0.2 -0.1-0.1-0.1-0.2-0.2-0.3 -0.1 0-0.1 0-0.1-0.1 0-0.1 0-0.1-0.1-0.1 0.1-0.1 0.1-0.2 0.1-0.2 0 0 0 0-0.1 0 0 0-0.1 0-0.1 0s0 0 0-0.1c0-0.1 0.1-0.2 0.1-0.3 0-0.1 0-0.3 0-0.4 0-0.1 0-0.3 0-0.4 0-0.1 0.1-0.2 0.3-0.3 0.4 0.1 0.8 0 1.1 0 0.4-0.1 0.7-0.2 1-0.3 0.3-0.1 0.6-0.3 0.9-0.5 0.3-0.2 0.6-0.3 0.9-0.4 0-0.1 0.1-0.2 0.2-0.3 0.1-0.1 0.1-0.1 0.2-0.2 0.1-0.1 0.1-0.1 0.2-0.2s0.1-0.2 0.1-0.3c0-0.1 0-0.1-0.1-0.1 -0.1 0-0.1-0.1-0.1-0.1l-0.2-0.1c-0.2-0.1-0.5-0.2-0.8-0.3 -0.3-0.1-0.5-0.2-0.7-0.3 -0.1 0.1-0.2 0.1-0.4 0.1 -0.1 0-0.3-0.1-0.4-0.1 -0.4 0-0.8-0.1-1.2-0.1 -0.4-0.1-0.7-0.2-1.1-0.3 0-0.1-0.1-0.1-0.1-0.2 0 0-0.1-0.1-0.2 0 -0.1-0.1-0.1-0.2-0.2-0.3 -0.1-0.1-0.1-0.2-0.2-0.3 0-0.1 0-0.3 0.1-0.4 0-0.1 0-0.2-0.1-0.3 0-0.2 0.1-0.3 0.1-0.4C97.6 21.7 97.6 21.5 97.6 21.4z" class="a"/><path d="M115.9 20.8c-0.3 0-0.6 0-1 0.1 -0.3 0-0.7 0.1-1 0.1 -0.2 0-0.5 0.1-0.7 0.1 -0.2 0-0.4 0-0.6 0.1 -0.1 0.3-0.2 0.5-0.2 0.7 -0.1 0.2-0.2 0.4-0.3 0.6 -0.1 0.2-0.2 0.4-0.3 0.6 -0.1 0.2-0.2 0.4-0.2 0.7 -0.1 0.2-0.2 0.4-0.3 0.5 -0.1 0.2-0.1 0.3-0.2 0.5 -0.1 0.2-0.3 0.4-0.3 0.6 -0.1 0.2-0.1 0.4-0.2 0.5l-0.1 0.2c-0.1 0.1-0.1 0.1-0.1 0.2s0 0.1-0.1 0.1c0 0.1-0.1 0.3-0.1 0.4 0 0.1 0 0.1-0.1 0.2 0 0.1 0 0.1 0 0.1 0 0.1 0 0.2-0.1 0.2 0 0.1 0 0.1 0 0.2 0 0.1 0 0.1 0 0.2 0 0.1 0 0.3 0 0.3 0 0 0.1 0.1 0.1 0.1 0 0 0.1 0.1 0.1 0.1 0.1 0 0.1 0.1 0.2 0.1 0.1 0 0.1 0.1 0.2 0.1l0.2 0.2c0.1 0.3 0 0.6-0.2 0.8 -0.2 0.2-0.5 0.3-0.9 0.3h-0.2c-0.1-0.1-0.1-0.1-0.1-0.1 -0.1 0-0.2-0.1-0.2-0.1 -0.1 0-0.1-0.1-0.2-0.1 -0.2-0.1-0.3-0.1-0.4-0.2l-0.2-0.1c0-0.1 0-0.2 0-0.2 -0.1-0.1-0.1-0.2-0.2-0.4 0-0.1-0.1-0.3-0.1-0.4 0-0.1-0.1-0.2-0.1-0.3 0-0.1-0.1-0.2-0.1-0.2 0-0.7 0-1.3 0.2-1.7 0.2-0.5 0.3-0.9 0.5-1.4 0.1-0.2 0.2-0.5 0.3-0.7 0.1-0.2 0.2-0.5 0.2-0.8l0.2-0.2c0.1-0.2 0.2-0.3 0.2-0.5 0.1-0.1 0.1-0.2 0.2-0.4 0-0.1 0.1-0.2 0.1-0.2 0-0.1 0.1-0.1 0.1-0.2 -0.1 0-0.1 0-0.2 0 -0.1 0-0.1 0-0.2 0 -0.1 0-0.1 0-0.2 0 -0.1 0-0.1 0-0.2 0 -0.1 0-0.1 0-0.2 0 -0.1 0.1-0.3 0.1-0.4 0.1h-0.2c0 0-0.1 0-0.1 0 0 0-0.1 0-0.1 0 -0.1 0-0.2 0-0.3 0.1 -0.1 0-0.3 0-0.4 0h-0.2c0 0-0.1 0-0.1 0 0 0-0.1 0-0.1 0 -0.1 0-0.2 0-0.3 0 -0.1 0-0.2-0.1-0.3-0.1 -0.1-0.2-0.2-0.3-0.3-0.3l-0.2-0.2c0-0.1 0-0.1-0.1-0.2 0-0.1 0-0.1-0.1-0.2 0-0.1-0.1-0.2-0.1-0.4 0-0.1-0.1-0.3-0.1-0.5 0-0.1 0-0.2 0.1-0.2 0 0 0.1-0.1 0.1-0.1l0.1-0.3 0.2 0h0.5c0.4 0 0.8 0 1.2 0 0.4 0 0.8-0.1 1.2-0.1 0.2 0 0.5 0 0.7-0.1 0.2 0 0.5 0 0.8-0.1 0.1-0.1 0.1-0.2 0.1-0.3l0.2-0.1c0.2 0 0.4 0 0.5 0.1 0.1 0.1 0.2 0.1 0.2 0.2 0.3 0 0.5-0.1 0.8-0.1 0.3 0 0.5-0.1 0.8-0.1 0.4-0.1 0.8-0.1 1.2-0.2 0.4 0 0.8-0.1 1.2-0.1 0.2 0 0.3 0 0.5 0 0.2 0 0.3 0 0.4 0.1l0.2 0.1c0 0.1 0.1 0.1 0.1 0.2 0.1 0.1 0.1 0.1 0.2 0.2 0.1 0.1 0.3 0.3 0.4 0.5s0.2 0.4 0.2 0.8c-0.1 0.1-0.2 0.2-0.2 0.2l-0.2 0.2 -0.2 0c-0.1 0-0.1 0-0.2 0 -0.1 0-0.1 0-0.2 0.1 0 0-0.1 0-0.1 0.1 0 0-0.1 0-0.2 0 -0.1 0-0.2 0-0.3 0C116.1 20.8 116 20.8 115.9 20.8z" class="a"/><path d="M123.8 28.8c-0.1 0.4-0.3 0.7-0.6 0.8 -0.2 0-0.3 0-0.3 0 -0.1 0-0.2-0.1-0.2-0.1 -0.1 0-0.2-0.1-0.3-0.1l-0.2-0.1c0-0.1-0.1-0.1-0.1-0.2 0-0.1-0.1-0.1-0.1-0.2 -0.1-0.1-0.2-0.3-0.3-0.4 -0.1-0.3-0.1-0.6 0-0.9 0-0.2 0.1-0.5 0.2-0.7 0-0.1 0-0.1 0.1-0.2 0-0.1 0-0.1 0.1-0.2 -0.3-0.2-0.5-0.4-0.7-0.7 -0.2-0.3-0.2-0.6-0.3-0.9 0-0.2 0.1-0.4 0.2-0.5 0.1-0.1 0.2-0.2 0.3-0.3 0.1-0.1 0.3-0.1 0.4-0.2 0.1 0 0.3-0.1 0.4-0.1l0.2 0.1c0.1 0.1 0.2 0.2 0.3 0.3 0.1 0 0.1-0.1 0.2-0.2 0-0.1 0.1-0.2 0.1-0.3 0-0.1 0.1-0.2 0.1-0.3 0-0.1 0.1-0.2 0.2-0.3 0-0.2 0-0.3 0.1-0.4 -0.1-0.1-0.2-0.1-0.3-0.1 0 0-0.1 0-0.2 0 -0.1-0.1-0.2-0.2-0.3-0.3 -0.1-0.1-0.1-0.2-0.2-0.2 -0.1-0.2-0.2-0.3-0.3-0.4l-0.2-0.1 0.1-0.2c0 0 0-0.1 0-0.1 0 0 0-0.1-0.1-0.2 0-0.1 0-0.2 0-0.3l0-0.2c0.1-0.1 0.1-0.2 0.1-0.2l0.2-0.2c0.2-0.1 0.5-0.1 0.7-0.2 0.2-0.1 0.5-0.2 0.7-0.2 0.2-0.1 0.5-0.1 0.7-0.2 0.2-0.1 0.5-0.1 0.7-0.2 0.1-0.1 0.2-0.1 0.3-0.1s0.2 0 0.3 0c0.1 0 0.1 0 0.2 0 0.1 0 0.1 0 0.1-0.1 0.1 0 0.3-0.1 0.5-0.2 0.3-0.1 0.7-0.2 1.2-0.3 0.5-0.1 1-0.2 1.6-0.2l0.3 0c0.1 0 0.1 0 0.2 0 0.1 0 0.1 0 0.2 0 0.5 0 0.9 0.2 1 0.5 0.1 0.1 0.2 0.1 0.3 0.2 0.1 0.1 0.2 0.1 0.2 0.2 0 0 0.1 0.1 0.1 0.1 0 0 0.1 0.1 0.1 0.1 0.2 0.3 0.3 0.6 0.2 0.8 -0.1 0.2-0.2 0.2-0.4 0.3L131.4 20.6c-0.1 0-0.2 0-0.3 0 -0.1 0-0.1 0-0.2 0 -0.3 0-0.6 0-1 0.1 -0.4 0-0.8 0.1-1.2 0.2 -0.4 0.1-0.8 0.1-1.2 0.2 -0.4 0.1-0.7 0.2-1 0.3l-0.3 0.2c-0.1 0.1-0.1 0.2-0.1 0.3 0 0.1 0 0.2 0 0.2 0 0 0 0.1 0 0.1 0 0 0 0.1 0 0.2 -0.2 0.3-0.3 0.5-0.3 0.9 -0.1 0.1-0.1 0.2-0.2 0.3 0 0.1 0 0.1 0 0.2 0.2 0.1 0.4 0.1 0.6 0.1 0.2 0 0.4-0.1 0.6-0.1 0.3 0 0.6-0.1 0.8-0.1 0.3 0 0.6-0.1 0.9-0.1h0.6l-0.1 0.1 0.1 0.3c0.1 0 0.1 0.1 0.2 0.1 0 0 0.1 0 0.1 0.1l0.1 0.2c0 0 0.1 0.1 0.1 0.1 0 0.1 0.1 0.2 0.1 0.3l-0.7 1 -0.2 0.1c-0.2 0-0.4 0-0.5 0.1 -0.1 0-0.2 0-0.2 0.1 -0.1 0-0.2 0-0.3 0 -0.2 0-0.4 0.1-0.6 0.1 -0.2 0-0.3 0-0.5 0.1 -0.2 0-0.4 0.1-0.6 0.1 -0.2 0-0.4 0.1-0.6 0.2 -0.1 0-0.2 0-0.2 0 -0.1 0-0.2 0-0.3 0 -0.1 0-0.2 0.1-0.3 0.1 -0.1 0-0.1 0.1-0.1 0.2 0 0.1 0 0.1-0.1 0.2 0 0.2-0.1 0.3-0.2 0.4v0.3c-0.1 0.1-0.1 0.2-0.2 0.3 0 0.1 0 0.1-0.1 0.2 0 0 0 0.1-0.1 0.1 0 0 0 0.1 0 0.1C123.8 28.4 123.8 28.6 123.8 28.8z" class="a"/><path d="M132.4 27.6c-0.1 0.5-0.2 0.8-0.3 1.1 -0.1 0.2-0.3 0.5-0.5 0.8 -0.2 0-0.3 0-0.3 0.1 -0.1 0.1-0.1 0.1-0.2 0.2 -0.1 0-0.2 0-0.2 0 0 0-0.1-0.1-0.1-0.1 0 0-0.1-0.1-0.1-0.1 -0.1 0-0.1 0-0.2 0 0-0.1-0.1-0.2-0.1-0.3 0-0.1-0.1-0.1-0.2-0.1 0-0.1 0-0.2 0-0.2 0-0.1 0-0.1 0-0.2 0-0.1 0-0.1 0-0.2 0-0.1 0-0.1 0-0.2 -0.1 0-0.1 0-0.1-0.1 0-0.1-0.1-0.2-0.1-0.2 0-0.2 0.1-0.4 0.1-0.6 0-0.2 0.1-0.4 0.1-0.5 0.1-0.2 0.1-0.3 0.1-0.5 0-0.2 0-0.3-0.1-0.5 0 0 0.1 0 0.1 0 0-0.1 0-0.1 0.1-0.2 0-0.1 0-0.2 0-0.3 0-0.1 0-0.2 0-0.2 0.1-0.3 0.2-0.6 0.3-1 0.1-0.3 0.1-0.6 0.2-1 0.1-0.3 0.1-0.6 0.2-0.9 0.1-0.3 0.2-0.6 0.3-0.9 0.1 0 0.3 0 0.4 0 0.2 0.1 0.3 0.1 0.3 0.2 0.3-0.2 0.6-0.5 0.8-0.9 0.2-0.3 0.5-0.7 0.7-1 0.2-0.3 0.5-0.6 0.8-0.9 0.3-0.2 0.7-0.4 1.2-0.4 0.2 0.2 0.5 0.4 0.8 0.5 0.3 0.2 0.5 0.4 0.7 0.7 0.1 0 0.2 0.1 0.2 0.2 0.1 0.1 0.1 0.1 0.2 0.2v0.2c0.1 0.1 0.3 0.3 0.3 0.5 0.1 0.2 0.2 0.4 0.2 0.6 0.1 0.2 0.1 0.4 0.2 0.6 0.1 0.2 0.2 0.4 0.2 0.6 0 0.1 0 0.1 0 0.2 0 0 0 0.1 0 0.1 0 0 0 0.1 0 0.1 0 0 0 0.1 0 0.2 0 0.5-0.2 0.9-0.5 1.3 -0.3 0.3-0.7 0.6-1.1 0.8 -0.4 0.2-0.9 0.4-1.4 0.5 -0.5 0.1-0.9 0.3-1.3 0.5 0 0 0 0.1 0.1 0.1 0 0 0.1 0 0 0.1 0.3 0.2 0.5 0.3 0.7 0.4 0.2 0.1 0.3 0.2 0.5 0.3 0.1 0.1 0.3 0.1 0.5 0.2 0.2 0.1 0.4 0.1 0.7 0.2 0.3 0.1 0.5 0.1 0.7 0.2 0.2 0 0.3 0.1 0.5 0.1s0.3 0.1 0.4 0.1c0.1 0 0.4 0 0.6 0.1 0.1 0.1 0.2 0.2 0.3 0.4 0.1 0.1 0.1 0.3 0.2 0.4 0 0.1 0 0.3 0 0.4 0 0.1-0.1 0.2-0.1 0.3 0 0 0 0.1 0.1 0 0 0 0.1 0 0.1 0 -0.1 0-0.1 0.1-0.2 0.2 0 0.1-0.1 0.1-0.1 0.2 0 0.1-0.1 0.1-0.2 0.2 -0.1 0.1-0.1 0.1-0.3 0.1 -0.4 0.1-0.8 0.2-1.4 0 -0.6-0.1-1.3-0.4-2.1-0.7 -0.4-0.2-0.8-0.3-1-0.4 -0.3-0.1-0.5-0.2-0.7-0.4 -0.2-0.1-0.4-0.3-0.5-0.4C132.9 27.9 132.7 27.8 132.4 27.6zM135 21.4c-0.1 0.2-0.3 0.4-0.4 0.5 -0.2 0.2-0.3 0.3-0.5 0.5 -0.1 0.2-0.3 0.3-0.4 0.5 -0.1 0.2-0.2 0.4-0.3 0.7 0.4 0 0.8-0.2 1.3-0.3 0.5-0.2 0.9-0.4 1.3-0.5 0-0.4-0.2-0.7-0.4-0.9C135.4 21.7 135.2 21.5 135 21.4z" class="a"/><path d="M143.2 28.2c0.1 0.4 0 0.6-0.1 0.8 -0.1 0.2-0.2 0.4-0.4 0.5 -0.2 0.1-0.4 0.2-0.6 0.2 -0.2 0-0.5 0-0.7 0 -0.1-0.2-0.2-0.4-0.3-0.6 -0.1-0.2-0.2-0.5-0.3-0.8 -0.1-0.3-0.2-0.5-0.2-0.8s-0.1-0.5-0.2-0.7c0.1-0.1 0.1-0.3 0.1-0.5 0-0.2 0-0.4 0-0.6 0-0.2 0-0.4 0-0.6 0-0.2 0-0.4 0-0.6 0.1-0.5 0.2-1 0.4-1.4 0.2-0.5 0.3-0.9 0.4-1.4 0-0.1 0-0.2 0-0.3 0-0.1-0.1-0.2 0-0.3 0 0 0-0.1 0.1-0.1 0.1 0 0.1-0.1 0.1-0.1 0-0.1 0-0.2 0-0.3 0-0.1 0-0.2 0.1-0.3 0.1-0.1 0.1-0.2 0.2-0.4 0.1-0.2 0.1-0.4 0.1-0.6 0.1-0.1 0.2-0.2 0.3-0.3 0.1-0.1 0.2-0.2 0.3-0.3 0.1-0.1 0.2-0.1 0.3-0.2 0.1-0.1 0.3-0.1 0.5-0.1 0.1 0.1 0.2 0.3 0.2 0.4 0 0.1 0.1 0.3 0.1 0.4 0 0.1 0.1 0.3 0.1 0.4 0.1 0.1 0.2 0.2 0.3 0.3 0 0.1 0 0.2 0 0.4 0 0.1 0 0.3 0 0.4 0 0.1 0 0.3 0.1 0.4 0 0.1 0.1 0.2 0.2 0.2 -0.2 0.6-0.4 1.1-0.6 1.7 -0.2 0.6-0.3 1.1-0.5 1.7 -0.1 0.6-0.2 1.1-0.2 1.7C143.1 27 143.1 27.6 143.2 28.2z" class="a"/><path d="M155.2 19.4c0 0.1 0 0.1 0 0.2 0 0 0 0.1 0 0.1 0 0 0 0.1 0 0.1 0 0 0 0.1 0 0.2 -0.2 0.4-0.5 0.7-0.9 0.8 -0.3 0.1-0.7 0.3-1.1 0.3 -0.4 0.1-0.8 0.1-1.2 0.2 -0.4 0.1-0.8 0.2-1.2 0.5 -0.1-0.1-0.3-0.1-0.4 0 -0.1 0.1-0.3 0.1-0.5 0.1 -0.1 0.1-0.2 0.1-0.3 0.2 -0.1 0-0.2 0.1-0.3 0.1 0 0.1 0.1 0.2 0.1 0.3 0 0.1 0 0.2 0 0.3 0.4 0 0.9 0 1.4 0 0.5 0 1-0.1 1.5-0.1 0 0.1 0 0.1 0 0.1 0 0 0 0.1 0 0.1 0.1 0.1 0.2 0.1 0.3 0.2 0.1 0.1 0.2 0.2 0.2 0.3 0.1 0.1 0.2 0.2 0.3 0.2 0.1 0.1 0.2 0.1 0.3 0.1 0 0.1 0.1 0.2 0.1 0.3 0 0.1 0 0.2 0 0.3 -0.2 0.1-0.4 0.3-0.6 0.4 -0.2 0.1-0.4 0.3-0.6 0.4 -0.2 0.1-0.4 0.2-0.7 0.3 -0.2 0.1-0.5 0.1-0.8 0.1 -0.1 0-0.1 0-0.1 0 0 0-0.1 0-0.1-0.1 -0.1 0.1-0.2 0.1-0.4 0.1 -0.2 0-0.3 0-0.4 0.1 -0.1-0.1-0.3-0.1-0.5-0.1 -0.2 0-0.3 0-0.5-0.1 -0.2 0.2-0.4 0.5-0.5 0.8 -0.1 0.3-0.3 0.6-0.4 0.9 0.4 0.1 0.7 0.1 1 0.1 0.3 0 0.5 0 0.8-0.1 0.2 0 0.5-0.1 0.7-0.1 0.2 0 0.6 0 0.9 0 0.2-0.1 0.5-0.2 0.8-0.3 0.3 0 0.6-0.1 0.9-0.2 0.1 0 0.2 0.1 0.2 0.2 0.1 0.1 0.1 0.2 0.2 0.2 0.1 0.1 0.1 0.1 0.2 0.2 0.1 0.1 0.2 0.1 0.3 0.1 0 0 0.1 0.1 0.1 0.2 0 0.1 0 0.1 0 0.2 0 0.1 0 0.1 0.1 0.2 0 0 0.1 0.1 0.2 0 -0.2 0.4-0.4 0.7-0.6 0.9 -0.2 0.2-0.5 0.4-0.8 0.5 -0.3 0.1-0.6 0.2-1 0.3 -0.4 0.1-0.8 0.1-1.2 0.2 -0.1 0-0.2 0-0.3 0 -0.1 0-0.2 0-0.2 0 -0.3 0.1-0.6 0.1-1 0.2 -0.4 0-0.8 0.1-1.2 0.1 -0.4 0-0.8-0.1-1.1-0.1 -0.4-0.1-0.6-0.2-0.9-0.5 -0.1-0.1-0.2-0.2-0.2-0.3 0-0.1-0.1-0.2-0.2-0.3 0-0.2 0-0.3-0.1-0.5 0-0.2-0.1-0.4-0.1-0.6 0-0.2-0.1-0.4-0.1-0.6s0-0.4 0-0.6c0-0.2 0.1-0.3 0.2-0.5 0.1-0.1 0.2-0.3 0.1-0.5 0.1 0 0.1 0 0.1-0.1 0-0.1 0.1-0.1 0.1-0.1 0.1-0.2 0.1-0.4 0.2-0.6 0.1-0.2 0.2-0.4 0.3-0.5 0.1-0.2 0.2-0.4 0.3-0.5 0.1-0.2 0.2-0.4 0.3-0.6 -0.2-0.2-0.3-0.3-0.4-0.5 -0.1-0.2-0.1-0.4-0.2-0.6 0-0.2-0.1-0.4-0.1-0.6 0-0.2-0.1-0.4-0.1-0.6 0.1-0.2 0.3-0.3 0.4-0.4 0.2-0.1 0.4-0.2 0.6-0.3 0.2-0.1 0.4-0.1 0.7-0.2 0.2 0 0.5-0.1 0.8-0.2 0.5-0.2 0.9-0.3 1.3-0.4 0.4-0.1 0.7-0.2 1.1-0.2 0.4-0.1 0.7-0.1 1.1-0.2 0.4 0 0.8-0.1 1.3-0.2 0.1 0.1 0.2 0.2 0.3 0.2 0-0.1 0.1-0.1 0.2-0.1 0.1 0 0.1 0 0.1-0.1 0.1 0.2 0.3 0.4 0.5 0.5C154.8 19.2 155 19.3 155.2 19.4z" class="a"/><path d="M158.5 26.2c-0.1 0-0.2 0.1-0.2 0.2 0 0.1-0.1 0.2-0.1 0.3 0 0.1-0.1 0.2-0.1 0.3 0 0.1-0.1 0.1-0.2 0.1 0 0.1 0 0.2-0.1 0.3 -0.1 0.1-0.1 0.1-0.2 0.2 0 0.1-0.1 0.2-0.1 0.2 0 0.1 0 0.2 0 0.3 -0.1 0.1-0.2 0.2-0.2 0.3 0 0.1-0.1 0.3-0.1 0.4 0 0.1-0.1 0.2-0.1 0.3 -0.1 0.1-0.2 0.1-0.4 0.1 0 0.1 0 0.1 0 0.1 0 0 0 0.1 0.1 0.1 -0.1 0-0.2 0-0.3 0 -0.1 0-0.1 0.1-0.2 0.1 -0.2-0.1-0.4-0.2-0.6-0.4 -0.1-0.2-0.3-0.4-0.4-0.6 -0.1-0.2-0.2-0.4-0.3-0.7 -0.1-0.2-0.2-0.4-0.3-0.6 0-0.1 0-0.3 0-0.4 0-0.1-0.1-0.2-0.1-0.3 0.6-1.2 1.2-2.6 1.9-4 0.7-1.4 1.3-2.8 2-4.1 0.3 0.1 0.5 0.2 0.8 0.4 0.3 0.1 0.5 0.3 0.7 0.5 0.2 0.2 0.4 0.4 0.6 0.6 0.2 0.2 0.3 0.5 0.3 0.8 0 0.1-0.1 0.1-0.1 0.1 0 0-0.1 0-0.1 0 0 0.1 0.1 0.1 0.1 0.1 0 0 0 0 0 0.1 0 0 0 0.1 0 0.1 0 0 0 0.1 0.1 0.2 0 0-0.1 0-0.1 0 0 0-0.1 0-0.1 0 0 0.1 0.1 0.2 0 0.3 0 0.1 0 0.2-0.1 0.2 0 0.1-0.1 0.1-0.1 0.2 0 0.1 0 0.2 0 0.3 0 0-0.1 0-0.1 0 0 0 0 0 0 0.1 0 0 0 0 0 0.1 0 0 0 0-0.1 0 0 0.3 0 0.5 0 0.8 0 0.3 0 0.5 0 0.8 0 0.3 0 0.5 0 0.8 0 0.3 0.1 0.6 0.1 0.9 0.4-0.2 0.8-0.6 1-1 0.3-0.4 0.5-0.8 0.6-1.3 0.2-0.5 0.3-1 0.4-1.6 0.1-0.6 0.2-1.1 0.3-1.7 0.1-0.1 0.2-0.2 0.2-0.4 0.1-0.2 0.1-0.3 0.2-0.5 0-0.2 0.1-0.3 0.1-0.5 0.1-0.2 0.1-0.3 0.2-0.5 0.2 0 0.3 0.1 0.5 0.2 0.1 0.1 0.2 0.2 0.3 0.3 0.1 0.1 0.2 0.2 0.3 0.3 0.1 0.1 0.3 0.1 0.4 0.2 0.1 0.2 0.3 0.4 0.4 0.6 0.1 0.2 0.2 0.4 0.2 0.6 -0.1 0.1-0.1 0.2-0.1 0.3 0 0.1-0.1 0.2-0.1 0.4 0 0.1-0.1 0.2-0.1 0.3 -0.1 0.1-0.1 0.2-0.2 0.3 0 0.3-0.1 0.6-0.1 0.8 -0.1 0.3-0.1 0.5-0.2 0.8 -0.1 0.2-0.1 0.5-0.1 0.8 0 0.3 0 0.6 0 0.9 -0.1 0.3-0.2 0.6-0.3 0.9 -0.1 0.3-0.2 0.6-0.2 0.8 -0.2 0.2-0.3 0.3-0.4 0.6s-0.2 0.4-0.3 0.6c0 0-0.1 0.1-0.1 0 0 0-0.1 0-0.1-0.1 0 0 0 0.1 0 0.1 0 0 0 0 0 0.1 0 0 0 0 0 0.1 0 0 0 0.1 0 0.1 -0.2 0.1-0.3 0.2-0.4 0.3 -0.1 0.1-0.3 0.3-0.4 0.4 -0.1 0.1-0.3 0.2-0.5 0.2 -0.2 0-0.5 0-0.8-0.1 -0.5-0.4-0.9-0.8-1.3-1.2C159 27.4 158.7 26.8 158.5 26.2z" class="a"/><path d="M173.9 24.6c0 0.1 0 0.1 0 0.2 0 0 0 0.1 0 0.1 0 0 0 0.1 0 0.1 0 0.1 0 0.1 0 0.2 -0.4 0.6-0.8 1.2-1.3 1.6 -0.5 0.4-1.1 0.8-1.8 1.1 -0.6 0.3-1.3 0.6-2 0.9 -0.7 0.3-1.4 0.6-2 0.9 -0.3-0.1-0.5-0.2-0.7-0.4 -0.1-0.2-0.3-0.4-0.3-0.6 -0.1-0.2-0.1-0.5-0.2-0.7 0-0.3-0.1-0.5-0.1-0.8 0-0.1 0.1-0.2 0.2-0.3 0.1-0.1 0.1-0.2 0.1-0.4 0.1-0.3 0.2-0.6 0.3-0.9 0.1-0.3 0.2-0.6 0.2-0.9 0-0.1 0.1-0.2 0.2-0.2 0.1-0.6 0.1-1.1 0-1.7 -0.1-0.6-0.1-1.1-0.3-1.6 0-0.1 0-0.2 0-0.3 0-0.1 0-0.1 0-0.1 0-0.1 0-0.1 0.1-0.1 0.1 0 0.2 0 0.2 0 0-0.2 0-0.4-0.1-0.5s-0.1-0.4-0.2-0.6c0.1-0.2 0.1-0.4 0.2-0.5 0-0.2 0.1-0.3 0.2-0.5 0.6 0.2 1.3 0.4 1.8 0.7 0.6 0.3 1.2 0.5 1.7 0.6 0.4 0.3 0.9 0.6 1.3 0.9 0.4 0.3 0.9 0.6 1.2 1 0.4 0.4 0.7 0.8 0.9 1.2C173.7 23.4 173.8 24 173.9 24.6zM169.7 25.6c0.3-0.1 0.5-0.2 0.7-0.3 0.2-0.1 0.5-0.2 0.7-0.4 0.2-0.1 0.4-0.3 0.6-0.5 0.2-0.2 0.3-0.4 0.4-0.6 -0.1-0.1-0.2-0.3-0.3-0.4 -0.1-0.1-0.2-0.2-0.4-0.3 -0.1-0.1-0.2-0.2-0.3-0.3 -0.1-0.1-0.2-0.2-0.3-0.4 -0.2 0-0.3-0.1-0.4-0.1 -0.1-0.1-0.2-0.1-0.3-0.2 -0.1-0.1-0.2-0.1-0.4-0.2 -0.1-0.1-0.3-0.1-0.4-0.1 -0.3-0.1-0.5-0.2-0.7-0.3 -0.2-0.1-0.4-0.1-0.5-0.2 -0.1 0-0.1 0-0.2 0.1 0.1 0.5 0.2 0.9 0.3 1.3 0.1 0.4 0.1 0.8 0.1 1.2 0 0.4 0 0.8-0.1 1.2 0 0.4-0.1 0.9-0.2 1.4 0.1 0 0.2 0 0.3-0.1 0.1 0 0.2-0.1 0.3-0.1 0.1 0 0.2-0.1 0.3-0.1 0.1 0 0.2-0.1 0.4-0.1 0-0.1 0.1-0.1 0.2-0.2C169.5 25.7 169.6 25.6 169.7 25.6z" class="a"/><path d="M190.9 29.6c-0.4-0.2-0.7-0.5-1-0.8 -0.2-0.4-0.5-0.8-0.7-1.2 0-0.1-0.1-0.1-0.1-0.2 0-0.1-0.1-0.1-0.1-0.2l-0.2-0.5 -0.1-0.3 -0.2 0.2 -0.3 0.3 -0.2 0.2c-0.3 0.3-0.6 0.6-0.9 0.8 -0.3 0.3-0.6 0.5-1 0.8 -0.4 0.2-0.7 0.4-1.1 0.5 -0.4 0.1-0.8 0.2-1.3 0.2l-0.4-0.2c-0.2-0.1-0.4-0.2-0.6-0.3 -0.2-0.1-0.3-0.2-0.5-0.4 -0.1-0.1-0.1-0.2-0.2-0.3s-0.1-0.2-0.1-0.3c-0.1-0.2-0.2-0.5-0.3-0.6 -0.1-0.2-0.2-0.4-0.2-0.6 0-0.2 0.1-0.4 0.2-0.8 0.1-0.4 0.2-0.8 0.3-1.3 0.1-0.5 0.2-1 0.3-1.4 0.1-0.5 0.2-0.9 0.3-1.3 0.1-0.3 0.2-0.6 0.4-1 0.1-0.3 0.3-0.7 0.4-1 0.2-0.3 0.3-0.5 0.5-0.7 0.2-0.2 0.4-0.3 0.6-0.4 0.1 0.1 0.1 0.1 0.2 0.2 0.1 0 0.1 0.1 0.2 0.1 0.2 0.2 0.3 0.4 0.5 0.6 0.2 0.2 0.3 0.3 0.6 0.5 -0.1 0.3-0.1 0.6-0.3 1 -0.1 0.4-0.2 0.7-0.4 1.1s-0.2 0.7-0.4 1.1c-0.1 0.3-0.2 0.6-0.3 0.9 -0.1 0.2-0.1 0.4-0.2 0.7 -0.1 0.4-0.2 1-0.3 1.8 0.1 0 0.3-0.1 0.5-0.2 0.2-0.1 0.3-0.2 0.5-0.4 0.2-0.1 0.4-0.3 0.5-0.5 0.2-0.2 0.4-0.4 0.6-0.6 0.2-0.2 0.3-0.4 0.4-0.6 0.1-0.2 0.3-0.4 0.4-0.7 0.1-0.2 0.3-0.5 0.5-0.9 0.2-0.3 0.4-0.6 0.6-0.9 0.2-0.3 0.4-0.6 0.6-0.9 0.2-0.3 0.4-0.6 0.6-0.8 0.2-0.2 0.4-0.4 0.5-0.6 0.1 0.1 0.2 0.2 0.4 0.3 0.1 0.1 0.3 0.2 0.5 0.3 0.1 0.1 0.1 0.2 0.2 0.3 0.1 0.1 0.1 0.2 0.2 0.2 0.1 0.1 0.1 0.2 0.2 0.3 0.1 0.1 0.1 0.2 0.2 0.3 0 0.1 0 0.2-0.1 0.3 0 0.1 0 0.3-0.1 0.4 0 0.2-0.1 0.3-0.1 0.5 0 0.2-0.1 0.3-0.1 0.5 -0.1 0.5-0.2 0.8-0.2 1 0 0.2-0.1 0.4-0.1 0.5s0 0.2 0 0.3c0 0.1 0 0.2 0 0.4 0 0.1 0 0.2 0 0.4 0 0.1 0 0.2 0.1 0.3 0 0.1 0.1 0.2 0.1 0.3l0.7-0.6c0.2-0.2 0.4-0.4 0.6-0.6 0.2-0.3 0.4-0.6 0.5-0.9 0.2-0.4 0.3-0.7 0.5-1.1 0.2-0.4 0.3-0.8 0.5-1.3 0.2-0.6 0.5-1.2 0.8-1.8 0.3-0.6 0.5-1 0.7-1.4 0.3 0.2 0.5 0.3 0.7 0.5 0.2 0.2 0.4 0.4 0.5 0.6 0.1 0.2 0.3 0.4 0.3 0.7 0.1 0.3 0.2 0.6 0.2 0.9 -0.2 0.4-0.4 0.8-0.6 1.3 -0.2 0.4-0.4 0.9-0.6 1.3 -0.2 0.6-0.5 1.1-0.7 1.7 -0.3 0.6-0.5 1.1-0.8 1.6 -0.3 0.5-0.7 1-1 1.4 -0.4 0.4-0.8 0.8-1.3 1.1 -0.1 0-0.2-0.1-0.3-0.1C191.2 29.5 191.1 29.5 190.9 29.6z" class="a"/><path d="M199.7 28.2c0.1 0.4 0 0.6-0.1 0.8 -0.1 0.2-0.2 0.4-0.4 0.5 -0.2 0.1-0.4 0.2-0.6 0.2 -0.2 0-0.5 0-0.7 0 -0.1-0.2-0.2-0.4-0.3-0.6 -0.1-0.2-0.2-0.5-0.3-0.8 -0.1-0.3-0.2-0.5-0.2-0.8 -0.1-0.3-0.1-0.5-0.2-0.7 0.1-0.1 0.1-0.3 0.1-0.5 0-0.2 0-0.4 0-0.6 0-0.2 0-0.4 0-0.6 0-0.2 0-0.4 0-0.6 0.1-0.5 0.2-1 0.4-1.4 0.2-0.5 0.3-0.9 0.4-1.4 0-0.1 0-0.2 0-0.3 0-0.1-0.1-0.2 0-0.3 0 0 0.1-0.1 0.1-0.1 0.1 0 0.1-0.1 0.1-0.1 0-0.1 0-0.2 0-0.3 0-0.1 0-0.2 0.1-0.3 0.1-0.1 0.1-0.2 0.2-0.4 0.1-0.2 0.1-0.4 0.1-0.6 0.1-0.1 0.2-0.2 0.3-0.3 0.1-0.1 0.2-0.2 0.3-0.3 0.1-0.1 0.2-0.1 0.3-0.2 0.1-0.1 0.3-0.1 0.5-0.1 0.1 0.1 0.2 0.3 0.2 0.4 0 0.1 0.1 0.3 0.1 0.4 0 0.1 0.1 0.3 0.1 0.4 0.1 0.1 0.2 0.2 0.3 0.3 0 0.1 0 0.2 0 0.4 0 0.1 0 0.3 0 0.4 0 0.1 0 0.3 0.1 0.4 0 0.1 0.1 0.2 0.2 0.2 -0.2 0.6-0.4 1.1-0.6 1.7 -0.2 0.6-0.3 1.1-0.5 1.7 -0.1 0.6-0.2 1.1-0.2 1.7C199.6 27 199.6 27.6 199.7 28.2z" class="a"/><path d="M205.4 26.2c-0.1 0-0.2 0.1-0.2 0.2 0 0.1-0.1 0.2-0.1 0.3 0 0.1-0.1 0.2-0.1 0.3 0 0.1-0.1 0.1-0.2 0.1 0 0.1 0 0.2-0.1 0.3 -0.1 0.1-0.1 0.1-0.2 0.2 0 0.1-0.1 0.2-0.1 0.2s0 0.2 0 0.3c-0.1 0.1-0.2 0.2-0.2 0.3 0 0.1-0.1 0.3-0.1 0.4 0 0.1-0.1 0.2-0.1 0.3 -0.1 0.1-0.2 0.1-0.4 0.1 0 0.1 0 0.1 0 0.1 0 0 0 0.1 0.1 0.1 -0.1 0-0.2 0-0.3 0 -0.1 0-0.1 0.1-0.2 0.1 -0.2-0.1-0.4-0.2-0.6-0.4 -0.1-0.2-0.3-0.4-0.4-0.6 -0.1-0.2-0.2-0.4-0.3-0.7 -0.1-0.2-0.2-0.4-0.3-0.6 0-0.1 0-0.3 0-0.4 0-0.1-0.1-0.2-0.1-0.3 0.6-1.2 1.2-2.6 1.9-4 0.7-1.4 1.3-2.8 2-4.1 0.3 0.1 0.5 0.2 0.8 0.4 0.3 0.1 0.5 0.3 0.7 0.5 0.2 0.2 0.4 0.4 0.6 0.6 0.2 0.2 0.3 0.5 0.3 0.8 0 0.1-0.1 0.1-0.1 0.1 0 0-0.1 0-0.1 0 0 0.1 0.1 0.1 0.1 0.1 0 0 0 0 0 0.1 0 0 0 0.1 0 0.1 0 0 0 0.1 0.1 0.2 0 0-0.1 0-0.1 0 0 0-0.1 0-0.1 0 0 0.1 0.1 0.2 0 0.3 0 0.1 0 0.2-0.1 0.2 0 0.1-0.1 0.1-0.1 0.2 0 0.1 0 0.2 0 0.3 0 0-0.1 0-0.1 0 0 0 0 0 0 0.1 0 0 0 0 0 0.1 0 0 0 0-0.1 0 0 0.3 0 0.5 0 0.8 0 0.3 0 0.5 0 0.8 0 0.3 0 0.5 0 0.8 0 0.3 0.1 0.6 0.1 0.9 0.4-0.2 0.8-0.6 1-1 0.3-0.4 0.5-0.8 0.6-1.3 0.2-0.5 0.3-1 0.4-1.6 0.1-0.6 0.2-1.1 0.3-1.7 0.1-0.1 0.2-0.2 0.2-0.4 0.1-0.2 0.1-0.3 0.2-0.5 0-0.2 0.1-0.3 0.1-0.5 0-0.2 0.1-0.3 0.2-0.5 0.2 0 0.3 0.1 0.5 0.2 0.1 0.1 0.2 0.2 0.3 0.3 0.1 0.1 0.2 0.2 0.3 0.3 0.1 0.1 0.3 0.1 0.4 0.2 0.1 0.2 0.3 0.4 0.4 0.6 0.1 0.2 0.2 0.4 0.2 0.6 -0.1 0.1-0.1 0.2-0.1 0.3 0 0.1-0.1 0.2-0.1 0.4 0 0.1-0.1 0.2-0.1 0.3 -0.1 0.1-0.1 0.2-0.2 0.3 0 0.3-0.1 0.6-0.1 0.8 -0.1 0.3-0.1 0.5-0.2 0.8 -0.1 0.2-0.1 0.5-0.1 0.8 0 0.3 0 0.6 0 0.9 -0.1 0.3-0.2 0.6-0.3 0.9 -0.1 0.3-0.2 0.6-0.2 0.8 -0.2 0.2-0.3 0.3-0.4 0.6 -0.1 0.2-0.2 0.4-0.3 0.6 0 0-0.1 0.1-0.1 0 0 0-0.1 0-0.1-0.1 0 0 0 0.1 0 0.1 0 0 0 0 0 0.1s0 0 0 0.1c0 0 0 0.1 0 0.1 -0.2 0.1-0.3 0.2-0.4 0.3 -0.1 0.1-0.3 0.3-0.4 0.4 -0.1 0.1-0.3 0.2-0.5 0.2 -0.2 0-0.5 0-0.8-0.1 -0.5-0.4-0.9-0.8-1.3-1.2C206 27.4 205.7 26.8 205.4 26.2z" class="a"/><path d="M214.7 27.3c0 0.1 0 0.2 0.1 0.3 0 0.1 0 0.2 0.1 0.3 0 0.1-0.1 0.2-0.1 0.4 0 0.1-0.1 0.2-0.1 0.3 0 0.1-0.1 0.1-0.1 0.2 0 0 0 0 0 0.1 0 0 0 0 0 0 0 0 0 0.1 0 0.2l-0.1 0.2c-0.1 0.1-0.1 0.1-0.2 0.2 -0.1 0-0.2 0.1-0.2 0.1 0 0-0.1 0-0.1 0.1 0 0-0.1 0-0.1 0.1l-0.1 0.2 -0.2 0c-0.2 0-0.4 0.1-0.5 0.1h-0.2c-0.1-0.1-0.3-0.2-0.3-0.3 -0.1-0.1-0.2-0.1-0.3-0.2 -0.1-0.2-0.2-0.3-0.2-0.4 0-0.1 0-0.1-0.1-0.2 0-0.2-0.1-0.3-0.1-0.3l-0.2-0.2 0.2-0.2 -0.2-0.3c0.1-0.1 0.2-0.2 0.3-0.2 0.1 0 0.1-0.1 0.2-0.1 0-0.1 0.1-0.1 0.2-0.2 0.1-0.1 0.2-0.2 0.3-0.4l0.2-0.2 0.2 0.1c0 0 0.1 0.1 0.3 0.1 0.2 0 0.3 0.1 0.4 0.1 0.2 0.1 0.4 0.1 0.6 0.1 0.2 0 0.3 0.1 0.4 0.2L214.7 27.3z" class="a"/><path d="M111.1 34c-3.1-1.2-20.4-1-31.9-0.7 -0.6 0-0.9 0.1-1.5 0.2 -0.1 0-0.3 0-0.3-0.1 -0.2-0.6 0.6-1 3.1-1.3 5.8-0.7 20.1-0.9 21.9-1 2.5-0.1 8.4-0.1 9 1.3 0.2 0.4 0.2 0.8 0.2 1.4C111.6 34 111.3 34 111.1 34z" class="a"/></svg>